G04*
G04 #@! TF.GenerationSoftware,Altium Limited,Altium Designer,23.7.1 (13)*
G04*
G04 Layer_Color=16711935*
%FSLAX25Y25*%
%MOIN*%
G70*
G04*
G04 #@! TF.SameCoordinates,D29FC0A6-615C-4A1E-A78D-E47FA92DE2CD*
G04*
G04*
G04 #@! TF.FilePolarity,Negative*
G04*
G01*
G75*
%ADD48C,0.12402*%
G04:AMPARAMS|DCode=49|XSize=65.91mil|YSize=65.91mil|CornerRadius=0mil|HoleSize=0mil|Usage=FLASHONLY|Rotation=90.000|XOffset=0mil|YOffset=0mil|HoleType=Round|Shape=Octagon|*
%AMOCTAGOND49*
4,1,8,0.01648,0.03295,-0.01648,0.03295,-0.03295,0.01648,-0.03295,-0.01648,-0.01648,-0.03295,0.01648,-0.03295,0.03295,-0.01648,0.03295,0.01648,0.01648,0.03295,0.0*
%
%ADD49OCTAGOND49*%

%ADD50O,0.12591X0.06591*%
%ADD51C,0.05741*%
%ADD52C,0.06615*%
%ADD53R,0.06615X0.06615*%
%ADD54C,0.01981*%
%ADD55C,0.02178*%
D48*
X47205Y22992D02*
D03*
X206692Y13780D02*
D03*
Y242126D02*
D03*
X13779D02*
D03*
Y13780D02*
D03*
D49*
X18779Y32953D02*
D03*
X8779D02*
D03*
X18779Y42953D02*
D03*
X8779D02*
D03*
X18779Y52953D02*
D03*
X8779D02*
D03*
X18779Y62953D02*
D03*
X8779D02*
D03*
X18779Y72953D02*
D03*
X8779D02*
D03*
X18779Y82953D02*
D03*
X8779D02*
D03*
X18779Y92953D02*
D03*
X8779D02*
D03*
X18779Y102953D02*
D03*
X8779D02*
D03*
X18779Y112953D02*
D03*
X8779D02*
D03*
X18779Y122953D02*
D03*
X8779D02*
D03*
X18779Y132953D02*
D03*
X8779D02*
D03*
X18779Y142953D02*
D03*
X8779D02*
D03*
X18779Y152953D02*
D03*
X8779D02*
D03*
X18779Y162953D02*
D03*
X8779D02*
D03*
X18779Y172953D02*
D03*
X8779D02*
D03*
X18779Y182953D02*
D03*
X8779D02*
D03*
X18779Y192953D02*
D03*
X8779D02*
D03*
X18779Y202953D02*
D03*
X8779D02*
D03*
X18779Y212953D02*
D03*
X8779D02*
D03*
X18779Y222953D02*
D03*
X8779D02*
D03*
D50*
X212283Y32874D02*
D03*
Y42874D02*
D03*
Y52874D02*
D03*
Y62874D02*
D03*
Y72874D02*
D03*
Y82874D02*
D03*
Y92874D02*
D03*
Y102874D02*
D03*
Y112874D02*
D03*
Y122874D02*
D03*
Y132874D02*
D03*
Y142874D02*
D03*
Y152874D02*
D03*
Y162874D02*
D03*
Y172874D02*
D03*
Y182874D02*
D03*
Y192874D02*
D03*
Y202874D02*
D03*
Y212874D02*
D03*
Y222874D02*
D03*
D51*
X121181Y197598D02*
D03*
Y207598D02*
D03*
Y217598D02*
D03*
Y227598D02*
D03*
Y137559D02*
D03*
Y147559D02*
D03*
Y157559D02*
D03*
Y167559D02*
D03*
Y78150D02*
D03*
Y88150D02*
D03*
Y98150D02*
D03*
Y108150D02*
D03*
Y19449D02*
D03*
Y29449D02*
D03*
Y39449D02*
D03*
Y49449D02*
D03*
D52*
X41299Y51811D02*
D03*
Y40000D02*
D03*
X53111Y51811D02*
D03*
D53*
Y40000D02*
D03*
D54*
X119921Y183701D02*
D03*
X181417Y177008D02*
D03*
X105827Y122205D02*
D03*
X107717Y144882D02*
D03*
X100118Y185039D02*
D03*
Y92598D02*
D03*
X25197Y112126D02*
D03*
Y156220D02*
D03*
X120315Y61732D02*
D03*
Y57323D02*
D03*
X121575Y120945D02*
D03*
Y117165D02*
D03*
X119685Y179528D02*
D03*
Y175118D02*
D03*
X97638Y234331D02*
D03*
X76220Y229921D02*
D03*
X130394Y190866D02*
D03*
X165669Y205354D02*
D03*
X166299Y150551D02*
D03*
X130394Y133543D02*
D03*
X131024Y73071D02*
D03*
X163780Y92598D02*
D03*
X131654Y17008D02*
D03*
X166299Y32756D02*
D03*
X126614Y45984D02*
D03*
X131654Y54803D02*
D03*
X133543Y114646D02*
D03*
X129134Y105197D02*
D03*
X125984Y162520D02*
D03*
X132283Y170709D02*
D03*
X137323Y239370D02*
D03*
X127874Y224882D02*
D03*
X54173Y181417D02*
D03*
X50394Y171339D02*
D03*
X55433Y92598D02*
D03*
X49764Y81260D02*
D03*
X144882Y253858D02*
D03*
X151181Y245039D02*
D03*
X34016Y115276D02*
D03*
X32756Y204094D02*
D03*
D55*
X39370Y152559D02*
D03*
X72362Y177244D02*
D03*
X96260Y109331D02*
D03*
X35709Y111181D02*
D03*
X96063Y118583D02*
D03*
X35709Y119055D02*
D03*
X98386Y199606D02*
D03*
X32835Y199449D02*
D03*
X97756Y208307D02*
D03*
X33465Y207953D02*
D03*
X100748Y88583D02*
D03*
X105787Y83661D02*
D03*
X96063Y131890D02*
D03*
X93386Y128937D02*
D03*
X100748Y180394D02*
D03*
X106417Y174843D02*
D03*
X93504Y231299D02*
D03*
X73425Y223425D02*
D03*
X81693Y148346D02*
D03*
Y113189D02*
D03*
X74764Y181024D02*
D03*
X84646Y145394D02*
D03*
X78976Y180827D02*
D03*
X84646Y116142D02*
D03*
X87598Y142717D02*
D03*
X81299Y177441D02*
D03*
X87598Y113189D02*
D03*
X39370Y140748D02*
D03*
X77756Y113189D02*
D03*
X57244Y73228D02*
D03*
X49055Y72598D02*
D03*
X41496Y73228D02*
D03*
X33307D02*
D03*
X77362Y52835D02*
D03*
X94685Y53858D02*
D03*
X74843Y209567D02*
D03*
X66614Y135827D02*
D03*
X103543Y141063D02*
D03*
X98465Y112913D02*
D03*
X71850Y94488D02*
D03*
X96063Y84291D02*
D03*
X76772Y70709D02*
D03*
X96063Y175197D02*
D03*
X70472Y163032D02*
D03*
X54567Y187559D02*
D03*
X103189Y222441D02*
D03*
X66535Y228543D02*
D03*
X70472Y220472D02*
D03*
X98504Y204094D02*
D03*
M02*
