G04*
G04 #@! TF.GenerationSoftware,Altium Limited,Altium Designer,23.7.1 (13)*
G04*
G04 Layer_Color=8388736*
%FSLAX25Y25*%
%MOIN*%
G70*
G04*
G04 #@! TF.SameCoordinates,D29FC0A6-615C-4A1E-A78D-E47FA92DE2CD*
G04*
G04*
G04 #@! TF.FilePolarity,Negative*
G04*
G01*
G75*
%ADD30R,0.03347X0.04134*%
%ADD31R,0.07678X0.05315*%
%ADD32R,0.06693X0.02953*%
%ADD33R,0.08465X0.06497*%
%ADD34R,0.04528X0.04922*%
%ADD35R,0.03347X0.02166*%
%ADD36R,0.04725X0.04843*%
%ADD37R,0.07599X0.03426*%
%ADD38R,0.05709X0.06890*%
%ADD39R,0.14764X0.09252*%
%ADD40R,0.05390X0.09390*%
%ADD41R,0.04134X0.03347*%
%ADD42R,0.06890X0.02953*%
%ADD43R,0.04922X0.04528*%
G04:AMPARAMS|DCode=44|XSize=45.28mil|YSize=45.28mil|CornerRadius=8.86mil|HoleSize=0mil|Usage=FLASHONLY|Rotation=0.000|XOffset=0mil|YOffset=0mil|HoleType=Round|Shape=RoundedRectangle|*
%AMROUNDEDRECTD44*
21,1,0.04528,0.02756,0,0,0.0*
21,1,0.02756,0.04528,0,0,0.0*
1,1,0.01772,0.01378,-0.01378*
1,1,0.01772,-0.01378,-0.01378*
1,1,0.01772,-0.01378,0.01378*
1,1,0.01772,0.01378,0.01378*
%
%ADD44ROUNDEDRECTD44*%
%ADD45R,0.04922X0.04528*%
%ADD46R,0.01457X0.04528*%
%ADD47R,0.04528X0.01457*%
%ADD48C,0.12402*%
G04:AMPARAMS|DCode=49|XSize=65.91mil|YSize=65.91mil|CornerRadius=0mil|HoleSize=0mil|Usage=FLASHONLY|Rotation=90.000|XOffset=0mil|YOffset=0mil|HoleType=Round|Shape=Octagon|*
%AMOCTAGOND49*
4,1,8,0.01648,0.03295,-0.01648,0.03295,-0.03295,0.01648,-0.03295,-0.01648,-0.01648,-0.03295,0.01648,-0.03295,0.03295,-0.01648,0.03295,0.01648,0.01648,0.03295,0.0*
%
%ADD49OCTAGOND49*%

%ADD50O,0.12591X0.06591*%
%ADD51C,0.05741*%
%ADD52C,0.06615*%
%ADD53R,0.06615X0.06615*%
%ADD54C,0.01981*%
%ADD55C,0.02178*%
D30*
X149252Y252598D02*
D03*
X154370D02*
D03*
D31*
X30473Y182756D02*
D03*
Y216614D02*
D03*
X32363Y93937D02*
D03*
Y127795D02*
D03*
D32*
X40414Y211496D02*
D03*
Y207559D02*
D03*
Y203622D02*
D03*
Y199685D02*
D03*
Y195748D02*
D03*
Y191811D02*
D03*
Y187874D02*
D03*
X42304Y122677D02*
D03*
Y118740D02*
D03*
Y114803D02*
D03*
Y110866D02*
D03*
Y106929D02*
D03*
Y102992D02*
D03*
Y99055D02*
D03*
D33*
X29724Y72008D02*
D03*
Y60196D02*
D03*
X37598Y72008D02*
D03*
Y60196D02*
D03*
X45472Y72008D02*
D03*
Y60196D02*
D03*
X60906Y72008D02*
D03*
Y60196D02*
D03*
X53032Y72008D02*
D03*
Y60196D02*
D03*
D34*
X128386Y253346D02*
D03*
Y246654D02*
D03*
X72520Y52362D02*
D03*
Y45670D02*
D03*
X49055Y193700D02*
D03*
Y187008D02*
D03*
X107126Y220905D02*
D03*
Y214213D02*
D03*
X61142Y224763D02*
D03*
Y218071D02*
D03*
X52717Y224724D02*
D03*
Y218032D02*
D03*
X94252Y162401D02*
D03*
Y155709D02*
D03*
X52677Y103622D02*
D03*
Y96930D02*
D03*
X70866Y70511D02*
D03*
Y63819D02*
D03*
X103386Y135944D02*
D03*
Y129252D02*
D03*
X61693Y135236D02*
D03*
Y128544D02*
D03*
X53898Y135236D02*
D03*
Y128544D02*
D03*
X98504Y71259D02*
D03*
Y64567D02*
D03*
D35*
X136418Y246654D02*
D03*
Y251772D02*
D03*
X143110D02*
D03*
Y249213D02*
D03*
Y246654D02*
D03*
D36*
X161280Y63189D02*
D03*
X154390D02*
D03*
X160532Y122047D02*
D03*
X153642D02*
D03*
X162539Y239213D02*
D03*
X155649D02*
D03*
X161673Y179094D02*
D03*
X154783D02*
D03*
X161595Y92165D02*
D03*
X154705D02*
D03*
X163130Y150787D02*
D03*
X156240D02*
D03*
X162500Y210197D02*
D03*
X155610D02*
D03*
X161949Y35433D02*
D03*
X155059D02*
D03*
X128563Y186142D02*
D03*
X135453D02*
D03*
X148602Y239409D02*
D03*
X141712D02*
D03*
X127933Y126654D02*
D03*
X134823D02*
D03*
X148169Y178937D02*
D03*
X141279D02*
D03*
X127500Y66535D02*
D03*
X134390D02*
D03*
X147854Y121614D02*
D03*
X140964D02*
D03*
X127618Y8583D02*
D03*
X134508D02*
D03*
X149036Y63032D02*
D03*
X142146D02*
D03*
D37*
X160197Y218720D02*
D03*
Y223720D02*
D03*
Y233720D02*
D03*
X141693Y218720D02*
D03*
Y223720D02*
D03*
Y233720D02*
D03*
X160197Y228720D02*
D03*
X141693D02*
D03*
X159567Y100413D02*
D03*
Y105413D02*
D03*
Y115413D02*
D03*
X141063Y100413D02*
D03*
Y105413D02*
D03*
Y115413D02*
D03*
X159567Y110413D02*
D03*
X141063D02*
D03*
X161181Y157854D02*
D03*
Y162854D02*
D03*
Y172854D02*
D03*
X142677Y157854D02*
D03*
Y162854D02*
D03*
Y172854D02*
D03*
X161181Y167854D02*
D03*
X142677D02*
D03*
X160551Y42343D02*
D03*
Y47343D02*
D03*
Y57343D02*
D03*
X142047Y42343D02*
D03*
Y47343D02*
D03*
Y57343D02*
D03*
X160551Y52343D02*
D03*
X142047D02*
D03*
X160866Y190177D02*
D03*
Y195177D02*
D03*
Y205177D02*
D03*
X142362Y190177D02*
D03*
Y195177D02*
D03*
Y205177D02*
D03*
X160866Y200177D02*
D03*
X142362D02*
D03*
X161496Y130768D02*
D03*
Y135768D02*
D03*
Y145768D02*
D03*
X142992Y130768D02*
D03*
Y135768D02*
D03*
Y145768D02*
D03*
X161496Y140768D02*
D03*
X142992D02*
D03*
X159882Y70886D02*
D03*
Y75886D02*
D03*
Y85886D02*
D03*
X141378Y70886D02*
D03*
Y75886D02*
D03*
Y85886D02*
D03*
X159882Y80886D02*
D03*
X141378D02*
D03*
X160787Y14783D02*
D03*
Y19783D02*
D03*
Y29783D02*
D03*
X142283Y14783D02*
D03*
Y19783D02*
D03*
Y29783D02*
D03*
X160787Y24783D02*
D03*
X142283D02*
D03*
D38*
X94370Y47835D02*
D03*
X86496D02*
D03*
D39*
X82008Y14453D02*
D03*
D40*
X72910Y38855D02*
D03*
X82008D02*
D03*
X91106D02*
D03*
D41*
X170591Y199606D02*
D03*
Y194488D02*
D03*
X171220Y140197D02*
D03*
Y135079D02*
D03*
X169331Y78701D02*
D03*
Y73583D02*
D03*
X170236Y24921D02*
D03*
Y19803D02*
D03*
D42*
X50433Y201772D02*
D03*
Y206496D02*
D03*
Y211220D02*
D03*
X51063Y112638D02*
D03*
Y117362D02*
D03*
Y122086D02*
D03*
D43*
X83150Y161850D02*
D03*
Y155158D02*
D03*
X88661Y70629D02*
D03*
Y63937D02*
D03*
D44*
X76339Y154815D02*
D03*
Y161721D02*
D03*
X82402Y63830D02*
D03*
Y70736D02*
D03*
D45*
X62519Y162244D02*
D03*
X55827D02*
D03*
X43543Y166220D02*
D03*
X36851D02*
D03*
X44763Y80984D02*
D03*
X38071D02*
D03*
D46*
X80315Y215197D02*
D03*
X76378D02*
D03*
X72441D02*
D03*
X68504D02*
D03*
X70473D02*
D03*
X74410D02*
D03*
X78347D02*
D03*
X98032D02*
D03*
X94095D02*
D03*
X90158D02*
D03*
X86221D02*
D03*
X96063D02*
D03*
X92126D02*
D03*
X88189D02*
D03*
X82284D02*
D03*
X84252D02*
D03*
X86221Y169921D02*
D03*
X90158D02*
D03*
X94095D02*
D03*
X98032D02*
D03*
X96063D02*
D03*
X92126D02*
D03*
X88189D02*
D03*
X68504D02*
D03*
X72441D02*
D03*
X76378D02*
D03*
X80315D02*
D03*
X70473D02*
D03*
X74410D02*
D03*
X78347D02*
D03*
X84252D02*
D03*
X82284D02*
D03*
X80315Y124016D02*
D03*
X76378D02*
D03*
X72441D02*
D03*
X68504D02*
D03*
X70473D02*
D03*
X74410D02*
D03*
X78347D02*
D03*
X98032D02*
D03*
X94095D02*
D03*
X90158D02*
D03*
X86221D02*
D03*
X96063D02*
D03*
X92126D02*
D03*
X88189D02*
D03*
X82284D02*
D03*
X84252D02*
D03*
X86221Y78740D02*
D03*
X90158D02*
D03*
X94095D02*
D03*
X98032D02*
D03*
X96063D02*
D03*
X92126D02*
D03*
X88189D02*
D03*
X68504D02*
D03*
X72441D02*
D03*
X76378D02*
D03*
X80315D02*
D03*
X70473D02*
D03*
X74410D02*
D03*
X78347D02*
D03*
X84252D02*
D03*
X82284D02*
D03*
D47*
X105906Y195512D02*
D03*
Y199449D02*
D03*
Y203386D02*
D03*
Y207323D02*
D03*
Y205354D02*
D03*
Y201417D02*
D03*
Y197480D02*
D03*
Y177795D02*
D03*
Y181732D02*
D03*
Y185669D02*
D03*
Y189606D02*
D03*
Y179764D02*
D03*
Y183701D02*
D03*
Y187638D02*
D03*
Y193543D02*
D03*
Y191575D02*
D03*
X60630Y189606D02*
D03*
Y185669D02*
D03*
Y181732D02*
D03*
Y177795D02*
D03*
Y179764D02*
D03*
Y183701D02*
D03*
Y187638D02*
D03*
Y207323D02*
D03*
Y203386D02*
D03*
Y199449D02*
D03*
Y195512D02*
D03*
Y205354D02*
D03*
Y201417D02*
D03*
Y197480D02*
D03*
Y191575D02*
D03*
Y193543D02*
D03*
X105906Y104331D02*
D03*
Y108268D02*
D03*
Y112205D02*
D03*
Y116142D02*
D03*
Y114173D02*
D03*
Y110236D02*
D03*
Y106299D02*
D03*
Y86614D02*
D03*
Y90551D02*
D03*
Y94488D02*
D03*
Y98425D02*
D03*
Y88583D02*
D03*
Y92520D02*
D03*
Y96457D02*
D03*
Y102362D02*
D03*
Y100394D02*
D03*
X60630Y98425D02*
D03*
Y94488D02*
D03*
Y90551D02*
D03*
Y86614D02*
D03*
Y88583D02*
D03*
Y92520D02*
D03*
Y96457D02*
D03*
Y116142D02*
D03*
Y112205D02*
D03*
Y108268D02*
D03*
Y104331D02*
D03*
Y114173D02*
D03*
Y110236D02*
D03*
Y106299D02*
D03*
Y100394D02*
D03*
Y102362D02*
D03*
D48*
X47205Y22992D02*
D03*
X206692Y13780D02*
D03*
Y242126D02*
D03*
X13779D02*
D03*
Y13780D02*
D03*
D49*
X18779Y32953D02*
D03*
X8779D02*
D03*
X18779Y42953D02*
D03*
X8779D02*
D03*
X18779Y52953D02*
D03*
X8779D02*
D03*
X18779Y62953D02*
D03*
X8779D02*
D03*
X18779Y72953D02*
D03*
X8779D02*
D03*
X18779Y82953D02*
D03*
X8779D02*
D03*
X18779Y92953D02*
D03*
X8779D02*
D03*
X18779Y102953D02*
D03*
X8779D02*
D03*
X18779Y112953D02*
D03*
X8779D02*
D03*
X18779Y122953D02*
D03*
X8779D02*
D03*
X18779Y132953D02*
D03*
X8779D02*
D03*
X18779Y142953D02*
D03*
X8779D02*
D03*
X18779Y152953D02*
D03*
X8779D02*
D03*
X18779Y162953D02*
D03*
X8779D02*
D03*
X18779Y172953D02*
D03*
X8779D02*
D03*
X18779Y182953D02*
D03*
X8779D02*
D03*
X18779Y192953D02*
D03*
X8779D02*
D03*
X18779Y202953D02*
D03*
X8779D02*
D03*
X18779Y212953D02*
D03*
X8779D02*
D03*
X18779Y222953D02*
D03*
X8779D02*
D03*
D50*
X212283Y32874D02*
D03*
Y42874D02*
D03*
Y52874D02*
D03*
Y62874D02*
D03*
Y72874D02*
D03*
Y82874D02*
D03*
Y92874D02*
D03*
Y102874D02*
D03*
Y112874D02*
D03*
Y122874D02*
D03*
Y132874D02*
D03*
Y142874D02*
D03*
Y152874D02*
D03*
Y162874D02*
D03*
Y172874D02*
D03*
Y182874D02*
D03*
Y192874D02*
D03*
Y202874D02*
D03*
Y212874D02*
D03*
Y222874D02*
D03*
D51*
X121181Y197598D02*
D03*
Y207598D02*
D03*
Y217598D02*
D03*
Y227598D02*
D03*
Y137559D02*
D03*
Y147559D02*
D03*
Y157559D02*
D03*
Y167559D02*
D03*
Y78150D02*
D03*
Y88150D02*
D03*
Y98150D02*
D03*
Y108150D02*
D03*
Y19449D02*
D03*
Y29449D02*
D03*
Y39449D02*
D03*
Y49449D02*
D03*
D52*
X41299Y51811D02*
D03*
Y40000D02*
D03*
X53111Y51811D02*
D03*
D53*
Y40000D02*
D03*
D54*
X119921Y183701D02*
D03*
X181417Y177008D02*
D03*
X105827Y122205D02*
D03*
X107717Y144882D02*
D03*
X100118Y185039D02*
D03*
Y92598D02*
D03*
X25197Y112126D02*
D03*
Y156220D02*
D03*
X120315Y61732D02*
D03*
Y57323D02*
D03*
X121575Y120945D02*
D03*
Y117165D02*
D03*
X119685Y179528D02*
D03*
Y175118D02*
D03*
X97638Y234331D02*
D03*
X76220Y229921D02*
D03*
X130394Y190866D02*
D03*
X165669Y205354D02*
D03*
X166299Y150551D02*
D03*
X130394Y133543D02*
D03*
X131024Y73071D02*
D03*
X163780Y92598D02*
D03*
X131654Y17008D02*
D03*
X166299Y32756D02*
D03*
X126614Y45984D02*
D03*
X131654Y54803D02*
D03*
X133543Y114646D02*
D03*
X129134Y105197D02*
D03*
X125984Y162520D02*
D03*
X132283Y170709D02*
D03*
X137323Y239370D02*
D03*
X127874Y224882D02*
D03*
X54173Y181417D02*
D03*
X50394Y171339D02*
D03*
X55433Y92598D02*
D03*
X49764Y81260D02*
D03*
X144882Y253858D02*
D03*
X151181Y245039D02*
D03*
X34016Y115276D02*
D03*
X32756Y204094D02*
D03*
D55*
X39370Y152559D02*
D03*
X72362Y177244D02*
D03*
X96260Y109331D02*
D03*
X35709Y111181D02*
D03*
X96063Y118583D02*
D03*
X35709Y119055D02*
D03*
X98386Y199606D02*
D03*
X32835Y199449D02*
D03*
X97756Y208307D02*
D03*
X33465Y207953D02*
D03*
X100748Y88583D02*
D03*
X105787Y83661D02*
D03*
X96063Y131890D02*
D03*
X93386Y128937D02*
D03*
X100748Y180394D02*
D03*
X106417Y174843D02*
D03*
X93504Y231299D02*
D03*
X73425Y223425D02*
D03*
X81693Y148346D02*
D03*
Y113189D02*
D03*
X74764Y181024D02*
D03*
X84646Y145394D02*
D03*
X78976Y180827D02*
D03*
X84646Y116142D02*
D03*
X87598Y142717D02*
D03*
X81299Y177441D02*
D03*
X87598Y113189D02*
D03*
X39370Y140748D02*
D03*
X77756Y113189D02*
D03*
X57244Y73228D02*
D03*
X49055Y72598D02*
D03*
X41496Y73228D02*
D03*
X33307D02*
D03*
X77362Y52835D02*
D03*
X94685Y53858D02*
D03*
X74843Y209567D02*
D03*
X66614Y135827D02*
D03*
X103543Y141063D02*
D03*
X98465Y112913D02*
D03*
X71850Y94488D02*
D03*
X96063Y84291D02*
D03*
X76772Y70709D02*
D03*
X96063Y175197D02*
D03*
X70472Y163032D02*
D03*
X54567Y187559D02*
D03*
X103189Y222441D02*
D03*
X66535Y228543D02*
D03*
X70472Y220472D02*
D03*
X98504Y204094D02*
D03*
M02*
