G04*
G04 #@! TF.GenerationSoftware,Altium Limited,Altium Designer,23.7.1 (13)*
G04*
G04 Layer_Color=65535*
%FSLAX25Y25*%
%MOIN*%
G70*
G04*
G04 #@! TF.SameCoordinates,D29FC0A6-615C-4A1E-A78D-E47FA92DE2CD*
G04*
G04*
G04 #@! TF.FilePolarity,Positive*
G04*
G01*
G75*
%ADD10C,0.00321*%
%ADD11C,0.00134*%
G36*
X43944Y177231D02*
X43996D01*
X44047Y177227D01*
X44113Y177222D01*
X44179Y177213D01*
X44254Y177203D01*
X44329Y177194D01*
X44493Y177161D01*
X44662Y177119D01*
X44831Y177058D01*
X44835D01*
X44849Y177049D01*
X44873Y177039D01*
X44901Y177025D01*
X44938Y177006D01*
X44980Y176988D01*
X45027Y176959D01*
X45079Y176931D01*
X45187Y176861D01*
X45300Y176781D01*
X45412Y176683D01*
X45511Y176570D01*
X45515Y176566D01*
X45520Y176556D01*
X45534Y176537D01*
X45553Y176514D01*
X45572Y176481D01*
X45595Y176448D01*
X45623Y176401D01*
X45651Y176354D01*
X45679Y176298D01*
X45712Y176237D01*
X45745Y176172D01*
X45778Y176096D01*
X45806Y176021D01*
X45839Y175937D01*
X45867Y175853D01*
X45890Y175759D01*
X45295Y175595D01*
Y175599D01*
X45290Y175613D01*
X45285Y175632D01*
X45276Y175656D01*
X45267Y175688D01*
X45253Y175726D01*
X45220Y175810D01*
X45182Y175909D01*
X45131Y176007D01*
X45079Y176101D01*
X45018Y176190D01*
Y176195D01*
X45009Y176200D01*
X44990Y176228D01*
X44948Y176265D01*
X44896Y176317D01*
X44831Y176373D01*
X44751Y176434D01*
X44652Y176490D01*
X44544Y176542D01*
X44540D01*
X44530Y176547D01*
X44512Y176556D01*
X44488Y176561D01*
X44460Y176575D01*
X44427Y176584D01*
X44385Y176594D01*
X44343Y176608D01*
X44240Y176631D01*
X44127Y176655D01*
X43996Y176669D01*
X43860Y176673D01*
X43785D01*
X43747Y176669D01*
X43700Y176664D01*
X43649D01*
X43592Y176655D01*
X43470Y176640D01*
X43344Y176612D01*
X43208Y176579D01*
X43081Y176533D01*
X43076D01*
X43067Y176528D01*
X43048Y176519D01*
X43025Y176509D01*
X42997Y176495D01*
X42968Y176476D01*
X42893Y176439D01*
X42809Y176383D01*
X42720Y176322D01*
X42631Y176251D01*
X42551Y176172D01*
Y176167D01*
X42542Y176162D01*
X42518Y176134D01*
X42481Y176087D01*
X42439Y176026D01*
X42387Y175956D01*
X42335Y175871D01*
X42284Y175782D01*
X42237Y175684D01*
Y175679D01*
X42228Y175665D01*
X42218Y175637D01*
X42209Y175604D01*
X42195Y175562D01*
X42176Y175510D01*
X42162Y175449D01*
X42143Y175384D01*
X42124Y175313D01*
X42110Y175233D01*
X42092Y175154D01*
X42077Y175065D01*
X42059Y174877D01*
X42049Y174680D01*
Y174671D01*
Y174652D01*
Y174614D01*
X42054Y174572D01*
Y174511D01*
X42063Y174446D01*
X42068Y174375D01*
X42077Y174295D01*
X42092Y174206D01*
X42106Y174117D01*
X42143Y173934D01*
X42199Y173747D01*
X42237Y173658D01*
X42274Y173569D01*
X42279Y173564D01*
X42284Y173550D01*
X42298Y173526D01*
X42317Y173494D01*
X42340Y173461D01*
X42368Y173418D01*
X42406Y173372D01*
X42443Y173320D01*
X42490Y173264D01*
X42537Y173212D01*
X42593Y173156D01*
X42654Y173100D01*
X42715Y173048D01*
X42786Y172996D01*
X42861Y172950D01*
X42940Y172907D01*
X42945D01*
X42959Y172898D01*
X42983Y172889D01*
X43015Y172874D01*
X43058Y172856D01*
X43104Y172837D01*
X43161Y172818D01*
X43222Y172799D01*
X43287Y172781D01*
X43358Y172762D01*
X43517Y172724D01*
X43686Y172701D01*
X43780Y172696D01*
X43869Y172692D01*
X43911D01*
X43944Y172696D01*
X43982D01*
X44024Y172701D01*
X44075Y172706D01*
X44132Y172710D01*
X44197Y172720D01*
X44258Y172734D01*
X44404Y172762D01*
X44549Y172799D01*
X44704Y172856D01*
X44708D01*
X44723Y172865D01*
X44741Y172874D01*
X44769Y172884D01*
X44807Y172898D01*
X44844Y172917D01*
X44934Y172959D01*
X45032Y173010D01*
X45135Y173071D01*
X45234Y173137D01*
X45323Y173203D01*
Y174131D01*
X43860D01*
Y174718D01*
X45965D01*
Y172874D01*
X45961Y172870D01*
X45942Y172856D01*
X45919Y172837D01*
X45881Y172813D01*
X45839Y172781D01*
X45783Y172743D01*
X45726Y172701D01*
X45656Y172659D01*
X45586Y172612D01*
X45506Y172565D01*
X45421Y172513D01*
X45337Y172466D01*
X45154Y172373D01*
X44962Y172293D01*
X44957D01*
X44938Y172283D01*
X44910Y172274D01*
X44873Y172265D01*
X44826Y172251D01*
X44769Y172232D01*
X44708Y172213D01*
X44638Y172199D01*
X44563Y172180D01*
X44479Y172162D01*
X44394Y172148D01*
X44300Y172129D01*
X44108Y172110D01*
X43907Y172101D01*
X43836D01*
X43785Y172105D01*
X43719Y172110D01*
X43644Y172119D01*
X43560Y172129D01*
X43466Y172138D01*
X43367Y172157D01*
X43259Y172176D01*
X43151Y172199D01*
X43034Y172232D01*
X42922Y172265D01*
X42804Y172307D01*
X42687Y172354D01*
X42575Y172410D01*
X42570Y172415D01*
X42546Y172424D01*
X42518Y172443D01*
X42476Y172466D01*
X42429Y172499D01*
X42368Y172541D01*
X42307Y172588D01*
X42237Y172640D01*
X42167Y172701D01*
X42092Y172771D01*
X42016Y172842D01*
X41941Y172926D01*
X41871Y173010D01*
X41801Y173109D01*
X41735Y173207D01*
X41674Y173315D01*
X41669Y173320D01*
X41660Y173343D01*
X41646Y173376D01*
X41627Y173418D01*
X41604Y173475D01*
X41580Y173540D01*
X41552Y173620D01*
X41524Y173705D01*
X41496Y173798D01*
X41468Y173901D01*
X41444Y174009D01*
X41421Y174127D01*
X41402Y174249D01*
X41388Y174375D01*
X41379Y174506D01*
X41374Y174643D01*
Y174652D01*
Y174675D01*
Y174713D01*
X41379Y174765D01*
X41383Y174830D01*
X41388Y174905D01*
X41397Y174990D01*
X41411Y175083D01*
X41425Y175187D01*
X41449Y175290D01*
X41472Y175402D01*
X41500Y175520D01*
X41533Y175637D01*
X41576Y175754D01*
X41622Y175876D01*
X41674Y175993D01*
X41679Y176003D01*
X41688Y176021D01*
X41707Y176054D01*
X41730Y176096D01*
X41763Y176148D01*
X41801Y176209D01*
X41848Y176275D01*
X41899Y176345D01*
X41956Y176420D01*
X42021Y176500D01*
X42092Y176575D01*
X42171Y176655D01*
X42256Y176730D01*
X42345Y176800D01*
X42443Y176866D01*
X42546Y176927D01*
X42551Y176931D01*
X42575Y176941D01*
X42603Y176955D01*
X42645Y176973D01*
X42701Y176997D01*
X42767Y177025D01*
X42837Y177053D01*
X42922Y177081D01*
X43015Y177110D01*
X43114Y177138D01*
X43222Y177166D01*
X43339Y177189D01*
X43461Y177208D01*
X43588Y177222D01*
X43719Y177231D01*
X43855Y177236D01*
X43907D01*
X43944Y177231D01*
D02*
G37*
G36*
X48981Y172185D02*
X48371D01*
Y176064D01*
X48367D01*
X48362Y176054D01*
X48348Y176045D01*
X48329Y176026D01*
X48310Y176007D01*
X48282Y175984D01*
X48217Y175932D01*
X48132Y175867D01*
X48034Y175796D01*
X47916Y175721D01*
X47790Y175642D01*
X47785D01*
X47776Y175632D01*
X47757Y175623D01*
X47729Y175609D01*
X47701Y175590D01*
X47663Y175571D01*
X47579Y175524D01*
X47476Y175473D01*
X47372Y175421D01*
X47260Y175374D01*
X47152Y175327D01*
Y175918D01*
X47157Y175923D01*
X47175Y175928D01*
X47204Y175942D01*
X47236Y175960D01*
X47283Y175984D01*
X47335Y176012D01*
X47391Y176045D01*
X47457Y176082D01*
X47593Y176167D01*
X47743Y176265D01*
X47898Y176378D01*
X48043Y176500D01*
X48048Y176505D01*
X48062Y176514D01*
X48081Y176533D01*
X48104Y176561D01*
X48137Y176589D01*
X48174Y176626D01*
X48212Y176669D01*
X48254Y176711D01*
X48343Y176814D01*
X48437Y176927D01*
X48517Y177044D01*
X48554Y177105D01*
X48587Y177166D01*
X48981D01*
Y172185D01*
D02*
G37*
G36*
X33514Y177142D02*
X33575D01*
X33645Y177138D01*
X33724Y177128D01*
X33884Y177114D01*
X34053Y177091D01*
X34212Y177058D01*
X34287Y177034D01*
X34353Y177011D01*
X34358D01*
X34367Y177006D01*
X34386Y176997D01*
X34409Y176988D01*
X34442Y176969D01*
X34475Y176950D01*
X34555Y176903D01*
X34639Y176838D01*
X34733Y176758D01*
X34780Y176706D01*
X34822Y176655D01*
X34864Y176598D01*
X34906Y176537D01*
X34911Y176533D01*
X34916Y176523D01*
X34925Y176505D01*
X34939Y176476D01*
X34953Y176448D01*
X34972Y176411D01*
X34991Y176364D01*
X35014Y176317D01*
X35033Y176265D01*
X35052Y176209D01*
X35085Y176082D01*
X35108Y175942D01*
X35118Y175867D01*
Y175792D01*
Y175787D01*
Y175768D01*
Y175740D01*
X35113Y175703D01*
X35108Y175660D01*
X35099Y175604D01*
X35089Y175548D01*
X35075Y175482D01*
X35056Y175416D01*
X35033Y175341D01*
X35005Y175271D01*
X34972Y175196D01*
X34935Y175121D01*
X34888Y175046D01*
X34836Y174971D01*
X34775Y174900D01*
X34770Y174896D01*
X34761Y174886D01*
X34738Y174868D01*
X34709Y174844D01*
X34672Y174816D01*
X34630Y174783D01*
X34578Y174746D01*
X34512Y174708D01*
X34442Y174671D01*
X34367Y174633D01*
X34278Y174591D01*
X34184Y174558D01*
X34081Y174521D01*
X33968Y174493D01*
X33847Y174464D01*
X33715Y174446D01*
X33720D01*
X33724Y174441D01*
X33739Y174432D01*
X33757Y174422D01*
X33804Y174399D01*
X33865Y174366D01*
X33926Y174328D01*
X33997Y174286D01*
X34058Y174244D01*
X34114Y174197D01*
X34119Y174192D01*
X34128Y174183D01*
X34142Y174169D01*
X34161Y174150D01*
X34189Y174122D01*
X34217Y174094D01*
X34250Y174056D01*
X34287Y174014D01*
X34372Y173920D01*
X34466Y173808D01*
X34559Y173676D01*
X34658Y173536D01*
X35516Y172185D01*
X34695D01*
X34039Y173217D01*
X34034Y173222D01*
X34025Y173236D01*
X34011Y173259D01*
X33992Y173292D01*
X33968Y173329D01*
X33940Y173372D01*
X33875Y173470D01*
X33800Y173578D01*
X33720Y173690D01*
X33640Y173798D01*
X33603Y173850D01*
X33565Y173897D01*
Y173901D01*
X33556Y173906D01*
X33532Y173934D01*
X33499Y173977D01*
X33452Y174028D01*
X33401Y174084D01*
X33345Y174141D01*
X33284Y174188D01*
X33227Y174230D01*
X33223Y174234D01*
X33204Y174244D01*
X33176Y174263D01*
X33138Y174281D01*
X33091Y174305D01*
X33040Y174328D01*
X32988Y174347D01*
X32932Y174361D01*
X32927D01*
X32908Y174366D01*
X32885Y174371D01*
X32843Y174375D01*
X32791Y174380D01*
X32730Y174385D01*
X32655Y174389D01*
X31806D01*
Y172185D01*
X31150D01*
Y177147D01*
X33457D01*
X33514Y177142D01*
D02*
G37*
G36*
X28556D02*
X28669D01*
X28786Y177133D01*
X28913Y177124D01*
X29035Y177114D01*
X29091Y177105D01*
X29142Y177095D01*
X29147D01*
X29157Y177091D01*
X29180D01*
X29203Y177081D01*
X29236Y177077D01*
X29269Y177067D01*
X29358Y177044D01*
X29452Y177011D01*
X29555Y176973D01*
X29658Y176922D01*
X29752Y176866D01*
X29757D01*
X29761Y176856D01*
X29776Y176847D01*
X29794Y176833D01*
X29836Y176795D01*
X29897Y176744D01*
X29959Y176673D01*
X30024Y176594D01*
X30090Y176495D01*
X30151Y176387D01*
Y176383D01*
X30155Y176373D01*
X30165Y176354D01*
X30174Y176331D01*
X30188Y176303D01*
X30198Y176270D01*
X30212Y176233D01*
X30231Y176186D01*
X30259Y176087D01*
X30282Y175970D01*
X30301Y175843D01*
X30305Y175707D01*
Y175698D01*
Y175679D01*
X30301Y175646D01*
Y175599D01*
X30291Y175548D01*
X30282Y175482D01*
X30273Y175412D01*
X30254Y175337D01*
X30235Y175252D01*
X30207Y175168D01*
X30174Y175079D01*
X30137Y174990D01*
X30090Y174900D01*
X30033Y174811D01*
X29972Y174722D01*
X29902Y174638D01*
X29897Y174633D01*
X29883Y174619D01*
X29860Y174596D01*
X29822Y174572D01*
X29776Y174535D01*
X29719Y174502D01*
X29649Y174460D01*
X29569Y174422D01*
X29475Y174380D01*
X29368Y174338D01*
X29250Y174305D01*
X29119Y174272D01*
X28969Y174244D01*
X28809Y174221D01*
X28636Y174206D01*
X28444Y174202D01*
X27173D01*
Y172185D01*
X26516D01*
Y177147D01*
X28509D01*
X28556Y177142D01*
D02*
G37*
G36*
X38438Y177231D02*
X38494Y177227D01*
X38565Y177217D01*
X38644Y177208D01*
X38733Y177194D01*
X38827Y177175D01*
X38926Y177156D01*
X39029Y177128D01*
X39132Y177095D01*
X39240Y177058D01*
X39348Y177011D01*
X39456Y176964D01*
X39559Y176903D01*
X39564Y176899D01*
X39582Y176889D01*
X39610Y176870D01*
X39648Y176842D01*
X39695Y176809D01*
X39751Y176767D01*
X39808Y176720D01*
X39873Y176664D01*
X39939Y176603D01*
X40009Y176537D01*
X40080Y176462D01*
X40150Y176378D01*
X40216Y176289D01*
X40281Y176195D01*
X40347Y176096D01*
X40403Y175989D01*
X40408Y175984D01*
X40417Y175960D01*
X40431Y175928D01*
X40450Y175885D01*
X40469Y175829D01*
X40497Y175763D01*
X40520Y175688D01*
X40549Y175604D01*
X40577Y175510D01*
X40600Y175407D01*
X40628Y175294D01*
X40647Y175177D01*
X40666Y175055D01*
X40680Y174929D01*
X40689Y174793D01*
X40694Y174657D01*
Y174647D01*
Y174624D01*
Y174582D01*
X40689Y174530D01*
X40685Y174464D01*
X40680Y174385D01*
X40670Y174300D01*
X40656Y174206D01*
X40638Y174103D01*
X40619Y173995D01*
X40595Y173883D01*
X40562Y173770D01*
X40530Y173653D01*
X40488Y173536D01*
X40441Y173418D01*
X40384Y173306D01*
X40380Y173301D01*
X40370Y173278D01*
X40352Y173250D01*
X40328Y173207D01*
X40295Y173161D01*
X40258Y173100D01*
X40216Y173039D01*
X40164Y172968D01*
X40103Y172898D01*
X40042Y172823D01*
X39967Y172748D01*
X39892Y172673D01*
X39808Y172602D01*
X39718Y172532D01*
X39625Y172466D01*
X39521Y172405D01*
X39517Y172401D01*
X39498Y172391D01*
X39465Y172377D01*
X39423Y172359D01*
X39371Y172335D01*
X39310Y172307D01*
X39240Y172283D01*
X39160Y172255D01*
X39076Y172222D01*
X38982Y172199D01*
X38884Y172171D01*
X38776Y172148D01*
X38668Y172129D01*
X38555Y172115D01*
X38438Y172105D01*
X38316Y172101D01*
X38283D01*
X38246Y172105D01*
X38199D01*
X38138Y172110D01*
X38063Y172119D01*
X37983Y172129D01*
X37894Y172143D01*
X37800Y172162D01*
X37702Y172185D01*
X37594Y172208D01*
X37491Y172241D01*
X37383Y172283D01*
X37270Y172326D01*
X37162Y172377D01*
X37059Y172438D01*
X37054Y172443D01*
X37036Y172452D01*
X37007Y172471D01*
X36970Y172499D01*
X36923Y172537D01*
X36871Y172574D01*
X36811Y172626D01*
X36750Y172682D01*
X36684Y172743D01*
X36614Y172813D01*
X36543Y172889D01*
X36478Y172973D01*
X36407Y173057D01*
X36342Y173156D01*
X36281Y173254D01*
X36224Y173362D01*
X36220Y173367D01*
X36210Y173390D01*
X36196Y173418D01*
X36182Y173465D01*
X36159Y173517D01*
X36135Y173583D01*
X36112Y173658D01*
X36084Y173737D01*
X36055Y173827D01*
X36032Y173920D01*
X36009Y174023D01*
X35985Y174131D01*
X35971Y174244D01*
X35957Y174361D01*
X35948Y174478D01*
X35943Y174600D01*
Y174605D01*
Y174614D01*
Y174633D01*
Y174657D01*
X35948Y174685D01*
Y174718D01*
X35952Y174760D01*
Y174802D01*
X35962Y174910D01*
X35976Y175027D01*
X35999Y175159D01*
X36027Y175304D01*
X36060Y175459D01*
X36102Y175613D01*
X36159Y175773D01*
X36224Y175937D01*
X36299Y176096D01*
X36384Y176251D01*
X36487Y176397D01*
X36604Y176533D01*
X36614Y176542D01*
X36637Y176561D01*
X36674Y176598D01*
X36726Y176640D01*
X36792Y176697D01*
X36871Y176753D01*
X36965Y176819D01*
X37069Y176884D01*
X37186Y176950D01*
X37317Y177016D01*
X37458Y177072D01*
X37608Y177128D01*
X37772Y177171D01*
X37946Y177208D01*
X38128Y177227D01*
X38321Y177236D01*
X38386D01*
X38438Y177231D01*
D02*
G37*
G36*
X47664Y89456D02*
X47716D01*
X47767Y89451D01*
X47833Y89446D01*
X47899Y89437D01*
X47974Y89428D01*
X48049Y89418D01*
X48213Y89385D01*
X48382Y89343D01*
X48551Y89282D01*
X48555D01*
X48569Y89273D01*
X48593Y89263D01*
X48621Y89249D01*
X48658Y89231D01*
X48701Y89212D01*
X48748Y89184D01*
X48799Y89156D01*
X48907Y89085D01*
X49020Y89006D01*
X49132Y88907D01*
X49231Y88794D01*
X49235Y88790D01*
X49240Y88780D01*
X49254Y88762D01*
X49273Y88738D01*
X49292Y88705D01*
X49315Y88673D01*
X49343Y88626D01*
X49371Y88579D01*
X49400Y88522D01*
X49432Y88461D01*
X49465Y88396D01*
X49498Y88321D01*
X49526Y88246D01*
X49559Y88161D01*
X49587Y88077D01*
X49611Y87983D01*
X49015Y87819D01*
Y87824D01*
X49010Y87838D01*
X49005Y87856D01*
X48996Y87880D01*
X48987Y87913D01*
X48973Y87950D01*
X48940Y88035D01*
X48902Y88133D01*
X48851Y88232D01*
X48799Y88325D01*
X48738Y88415D01*
Y88419D01*
X48729Y88424D01*
X48710Y88452D01*
X48668Y88490D01*
X48616Y88541D01*
X48551Y88598D01*
X48471Y88658D01*
X48372Y88715D01*
X48265Y88766D01*
X48260D01*
X48250Y88771D01*
X48232Y88780D01*
X48208Y88785D01*
X48180Y88799D01*
X48147Y88809D01*
X48105Y88818D01*
X48063Y88832D01*
X47960Y88855D01*
X47847Y88879D01*
X47716Y88893D01*
X47580Y88898D01*
X47505D01*
X47467Y88893D01*
X47420Y88888D01*
X47369D01*
X47313Y88879D01*
X47190Y88865D01*
X47064Y88837D01*
X46928Y88804D01*
X46801Y88757D01*
X46797D01*
X46787Y88752D01*
X46768Y88743D01*
X46745Y88734D01*
X46717Y88719D01*
X46689Y88701D01*
X46614Y88663D01*
X46529Y88607D01*
X46440Y88546D01*
X46351Y88476D01*
X46271Y88396D01*
Y88391D01*
X46262Y88386D01*
X46238Y88358D01*
X46201Y88311D01*
X46159Y88250D01*
X46107Y88180D01*
X46055Y88096D01*
X46004Y88007D01*
X45957Y87908D01*
Y87903D01*
X45948Y87889D01*
X45938Y87861D01*
X45929Y87828D01*
X45915Y87786D01*
X45896Y87735D01*
X45882Y87673D01*
X45863Y87608D01*
X45845Y87537D01*
X45830Y87458D01*
X45812Y87378D01*
X45798Y87289D01*
X45779Y87101D01*
X45769Y86904D01*
Y86895D01*
Y86876D01*
Y86839D01*
X45774Y86796D01*
Y86735D01*
X45783Y86670D01*
X45788Y86599D01*
X45798Y86520D01*
X45812Y86431D01*
X45826Y86342D01*
X45863Y86159D01*
X45919Y85971D01*
X45957Y85882D01*
X45995Y85793D01*
X45999Y85788D01*
X46004Y85774D01*
X46018Y85751D01*
X46037Y85718D01*
X46060Y85685D01*
X46088Y85643D01*
X46126Y85596D01*
X46163Y85544D01*
X46210Y85488D01*
X46257Y85436D01*
X46314Y85380D01*
X46374Y85324D01*
X46435Y85272D01*
X46506Y85221D01*
X46581Y85174D01*
X46661Y85132D01*
X46665D01*
X46679Y85122D01*
X46703Y85113D01*
X46736Y85099D01*
X46778Y85080D01*
X46825Y85061D01*
X46881Y85042D01*
X46942Y85024D01*
X47008Y85005D01*
X47078Y84986D01*
X47237Y84949D01*
X47406Y84925D01*
X47500Y84921D01*
X47589Y84916D01*
X47631D01*
X47664Y84921D01*
X47702D01*
X47744Y84925D01*
X47796Y84930D01*
X47852Y84935D01*
X47918Y84944D01*
X47978Y84958D01*
X48124Y84986D01*
X48269Y85024D01*
X48424Y85080D01*
X48429D01*
X48443Y85089D01*
X48461Y85099D01*
X48490Y85108D01*
X48527Y85122D01*
X48565Y85141D01*
X48654Y85183D01*
X48752Y85235D01*
X48856Y85296D01*
X48954Y85361D01*
X49043Y85427D01*
Y86356D01*
X47580D01*
Y86942D01*
X49686D01*
Y85099D01*
X49681Y85094D01*
X49662Y85080D01*
X49639Y85061D01*
X49601Y85038D01*
X49559Y85005D01*
X49503Y84967D01*
X49446Y84925D01*
X49376Y84883D01*
X49306Y84836D01*
X49226Y84789D01*
X49142Y84738D01*
X49057Y84691D01*
X48874Y84597D01*
X48682Y84517D01*
X48677D01*
X48658Y84508D01*
X48630Y84498D01*
X48593Y84489D01*
X48546Y84475D01*
X48490Y84456D01*
X48429Y84437D01*
X48358Y84423D01*
X48283Y84405D01*
X48199Y84386D01*
X48114Y84372D01*
X48021Y84353D01*
X47828Y84334D01*
X47627Y84325D01*
X47556D01*
X47505Y84329D01*
X47439Y84334D01*
X47364Y84344D01*
X47280Y84353D01*
X47186Y84362D01*
X47087Y84381D01*
X46979Y84400D01*
X46872Y84423D01*
X46754Y84456D01*
X46642Y84489D01*
X46525Y84531D01*
X46407Y84578D01*
X46295Y84634D01*
X46290Y84639D01*
X46267Y84649D01*
X46238Y84667D01*
X46196Y84691D01*
X46149Y84724D01*
X46088Y84766D01*
X46027Y84813D01*
X45957Y84864D01*
X45887Y84925D01*
X45812Y84996D01*
X45737Y85066D01*
X45662Y85150D01*
X45591Y85235D01*
X45521Y85333D01*
X45455Y85432D01*
X45394Y85540D01*
X45390Y85544D01*
X45380Y85568D01*
X45366Y85601D01*
X45347Y85643D01*
X45324Y85699D01*
X45300Y85765D01*
X45272Y85844D01*
X45244Y85929D01*
X45216Y86023D01*
X45188Y86126D01*
X45164Y86234D01*
X45141Y86351D01*
X45122Y86473D01*
X45108Y86599D01*
X45099Y86731D01*
X45094Y86867D01*
Y86876D01*
Y86900D01*
Y86937D01*
X45099Y86989D01*
X45103Y87054D01*
X45108Y87129D01*
X45118Y87214D01*
X45132Y87308D01*
X45146Y87411D01*
X45169Y87514D01*
X45193Y87627D01*
X45221Y87744D01*
X45254Y87861D01*
X45296Y87978D01*
X45343Y88100D01*
X45394Y88218D01*
X45399Y88227D01*
X45408Y88246D01*
X45427Y88279D01*
X45450Y88321D01*
X45483Y88372D01*
X45521Y88433D01*
X45568Y88499D01*
X45619Y88569D01*
X45676Y88644D01*
X45741Y88724D01*
X45812Y88799D01*
X45891Y88879D01*
X45976Y88954D01*
X46065Y89024D01*
X46163Y89090D01*
X46267Y89151D01*
X46271Y89156D01*
X46295Y89165D01*
X46323Y89179D01*
X46365Y89198D01*
X46421Y89221D01*
X46487Y89249D01*
X46557Y89277D01*
X46642Y89306D01*
X46736Y89334D01*
X46834Y89362D01*
X46942Y89390D01*
X47059Y89413D01*
X47181Y89432D01*
X47308Y89446D01*
X47439Y89456D01*
X47575Y89460D01*
X47627D01*
X47664Y89456D01*
D02*
G37*
G36*
X37234Y89367D02*
X37295D01*
X37365Y89362D01*
X37445Y89353D01*
X37604Y89338D01*
X37773Y89315D01*
X37933Y89282D01*
X38008Y89259D01*
X38073Y89235D01*
X38078D01*
X38087Y89231D01*
X38106Y89221D01*
X38129Y89212D01*
X38162Y89193D01*
X38195Y89174D01*
X38275Y89127D01*
X38359Y89062D01*
X38453Y88982D01*
X38500Y88930D01*
X38542Y88879D01*
X38584Y88823D01*
X38627Y88762D01*
X38631Y88757D01*
X38636Y88748D01*
X38645Y88729D01*
X38659Y88701D01*
X38673Y88673D01*
X38692Y88635D01*
X38711Y88588D01*
X38734Y88541D01*
X38753Y88490D01*
X38772Y88433D01*
X38805Y88307D01*
X38828Y88166D01*
X38838Y88091D01*
Y88016D01*
Y88011D01*
Y87992D01*
Y87964D01*
X38833Y87927D01*
X38828Y87885D01*
X38819Y87828D01*
X38809Y87772D01*
X38795Y87706D01*
X38777Y87641D01*
X38753Y87566D01*
X38725Y87495D01*
X38692Y87420D01*
X38655Y87345D01*
X38608Y87270D01*
X38556Y87195D01*
X38495Y87125D01*
X38491Y87120D01*
X38481Y87111D01*
X38458Y87092D01*
X38430Y87068D01*
X38392Y87040D01*
X38350Y87007D01*
X38298Y86970D01*
X38233Y86932D01*
X38162Y86895D01*
X38087Y86857D01*
X37998Y86815D01*
X37904Y86782D01*
X37801Y86745D01*
X37689Y86717D01*
X37567Y86689D01*
X37435Y86670D01*
X37440D01*
X37445Y86665D01*
X37459Y86656D01*
X37477Y86646D01*
X37524Y86623D01*
X37585Y86590D01*
X37646Y86553D01*
X37717Y86510D01*
X37778Y86468D01*
X37834Y86421D01*
X37839Y86417D01*
X37848Y86407D01*
X37862Y86393D01*
X37881Y86374D01*
X37909Y86346D01*
X37937Y86318D01*
X37970Y86281D01*
X38008Y86238D01*
X38092Y86145D01*
X38186Y86032D01*
X38280Y85901D01*
X38378Y85760D01*
X39236Y84409D01*
X38416D01*
X37759Y85441D01*
X37754Y85446D01*
X37745Y85460D01*
X37731Y85483D01*
X37712Y85516D01*
X37689Y85554D01*
X37660Y85596D01*
X37595Y85694D01*
X37520Y85802D01*
X37440Y85915D01*
X37360Y86023D01*
X37323Y86074D01*
X37285Y86121D01*
Y86126D01*
X37276Y86130D01*
X37252Y86159D01*
X37220Y86201D01*
X37173Y86252D01*
X37121Y86309D01*
X37065Y86365D01*
X37004Y86412D01*
X36948Y86454D01*
X36943Y86459D01*
X36924Y86468D01*
X36896Y86487D01*
X36858Y86506D01*
X36812Y86529D01*
X36760Y86553D01*
X36708Y86571D01*
X36652Y86585D01*
X36647D01*
X36629Y86590D01*
X36605Y86595D01*
X36563Y86599D01*
X36511Y86604D01*
X36450Y86609D01*
X36375Y86614D01*
X35526D01*
Y84409D01*
X34870D01*
Y89371D01*
X37177D01*
X37234Y89367D01*
D02*
G37*
G36*
X32276D02*
X32389D01*
X32506Y89357D01*
X32633Y89348D01*
X32755Y89338D01*
X32811Y89329D01*
X32863Y89320D01*
X32867D01*
X32877Y89315D01*
X32900D01*
X32923Y89306D01*
X32956Y89301D01*
X32989Y89292D01*
X33078Y89268D01*
X33172Y89235D01*
X33275Y89198D01*
X33378Y89146D01*
X33472Y89090D01*
X33477D01*
X33482Y89081D01*
X33496Y89071D01*
X33514Y89057D01*
X33557Y89020D01*
X33618Y88968D01*
X33679Y88898D01*
X33744Y88818D01*
X33810Y88719D01*
X33871Y88612D01*
Y88607D01*
X33876Y88598D01*
X33885Y88579D01*
X33894Y88555D01*
X33908Y88527D01*
X33918Y88494D01*
X33932Y88457D01*
X33951Y88410D01*
X33979Y88311D01*
X34002Y88194D01*
X34021Y88068D01*
X34026Y87932D01*
Y87922D01*
Y87903D01*
X34021Y87871D01*
Y87824D01*
X34012Y87772D01*
X34002Y87706D01*
X33993Y87636D01*
X33974Y87561D01*
X33955Y87476D01*
X33927Y87392D01*
X33894Y87303D01*
X33857Y87214D01*
X33810Y87125D01*
X33754Y87036D01*
X33693Y86947D01*
X33622Y86862D01*
X33618Y86857D01*
X33604Y86843D01*
X33580Y86820D01*
X33543Y86796D01*
X33496Y86759D01*
X33439Y86726D01*
X33369Y86684D01*
X33289Y86646D01*
X33195Y86604D01*
X33088Y86562D01*
X32970Y86529D01*
X32839Y86496D01*
X32689Y86468D01*
X32530Y86445D01*
X32356Y86431D01*
X32164Y86426D01*
X30893D01*
Y84409D01*
X30236D01*
Y89371D01*
X32229D01*
X32276Y89367D01*
D02*
G37*
G36*
X42158Y89456D02*
X42214Y89451D01*
X42285Y89442D01*
X42364Y89432D01*
X42454Y89418D01*
X42547Y89399D01*
X42646Y89381D01*
X42749Y89353D01*
X42852Y89320D01*
X42960Y89282D01*
X43068Y89235D01*
X43176Y89188D01*
X43279Y89127D01*
X43284Y89123D01*
X43303Y89113D01*
X43331Y89095D01*
X43368Y89066D01*
X43415Y89034D01*
X43471Y88991D01*
X43528Y88945D01*
X43593Y88888D01*
X43659Y88827D01*
X43729Y88762D01*
X43800Y88687D01*
X43870Y88602D01*
X43936Y88513D01*
X44001Y88419D01*
X44067Y88321D01*
X44123Y88213D01*
X44128Y88208D01*
X44137Y88185D01*
X44151Y88152D01*
X44170Y88110D01*
X44189Y88053D01*
X44217Y87988D01*
X44240Y87913D01*
X44269Y87828D01*
X44297Y87735D01*
X44320Y87631D01*
X44348Y87519D01*
X44367Y87401D01*
X44386Y87280D01*
X44400Y87153D01*
X44409Y87017D01*
X44414Y86881D01*
Y86871D01*
Y86848D01*
Y86806D01*
X44409Y86754D01*
X44405Y86689D01*
X44400Y86609D01*
X44391Y86524D01*
X44377Y86431D01*
X44358Y86327D01*
X44339Y86220D01*
X44315Y86107D01*
X44283Y85994D01*
X44250Y85877D01*
X44208Y85760D01*
X44161Y85643D01*
X44104Y85530D01*
X44100Y85526D01*
X44090Y85502D01*
X44072Y85474D01*
X44048Y85432D01*
X44015Y85385D01*
X43978Y85324D01*
X43936Y85263D01*
X43884Y85193D01*
X43823Y85122D01*
X43762Y85047D01*
X43687Y84972D01*
X43612Y84897D01*
X43528Y84827D01*
X43439Y84756D01*
X43345Y84691D01*
X43242Y84630D01*
X43237Y84625D01*
X43218Y84616D01*
X43185Y84602D01*
X43143Y84583D01*
X43091Y84559D01*
X43031Y84531D01*
X42960Y84508D01*
X42880Y84480D01*
X42796Y84447D01*
X42702Y84423D01*
X42604Y84395D01*
X42496Y84372D01*
X42388Y84353D01*
X42275Y84339D01*
X42158Y84329D01*
X42036Y84325D01*
X42003D01*
X41966Y84329D01*
X41919D01*
X41858Y84334D01*
X41783Y84344D01*
X41703Y84353D01*
X41614Y84367D01*
X41520Y84386D01*
X41422Y84409D01*
X41314Y84433D01*
X41211Y84466D01*
X41103Y84508D01*
X40990Y84550D01*
X40883Y84602D01*
X40779Y84662D01*
X40775Y84667D01*
X40756Y84677D01*
X40728Y84695D01*
X40690Y84724D01*
X40643Y84761D01*
X40592Y84799D01*
X40531Y84850D01*
X40470Y84906D01*
X40404Y84967D01*
X40334Y85038D01*
X40263Y85113D01*
X40198Y85197D01*
X40127Y85282D01*
X40062Y85380D01*
X40001Y85479D01*
X39944Y85587D01*
X39940Y85591D01*
X39930Y85615D01*
X39916Y85643D01*
X39902Y85690D01*
X39879Y85741D01*
X39855Y85807D01*
X39832Y85882D01*
X39804Y85962D01*
X39776Y86051D01*
X39752Y86145D01*
X39729Y86248D01*
X39705Y86356D01*
X39691Y86468D01*
X39677Y86585D01*
X39668Y86703D01*
X39663Y86825D01*
Y86829D01*
Y86839D01*
Y86857D01*
Y86881D01*
X39668Y86909D01*
Y86942D01*
X39672Y86984D01*
Y87026D01*
X39682Y87134D01*
X39696Y87251D01*
X39719Y87383D01*
X39748Y87528D01*
X39780Y87683D01*
X39823Y87838D01*
X39879Y87997D01*
X39944Y88161D01*
X40020Y88321D01*
X40104Y88476D01*
X40207Y88621D01*
X40324Y88757D01*
X40334Y88766D01*
X40357Y88785D01*
X40395Y88823D01*
X40446Y88865D01*
X40512Y88921D01*
X40592Y88977D01*
X40685Y89043D01*
X40789Y89109D01*
X40906Y89174D01*
X41037Y89240D01*
X41178Y89296D01*
X41328Y89353D01*
X41492Y89395D01*
X41666Y89432D01*
X41849Y89451D01*
X42041Y89460D01*
X42107D01*
X42158Y89456D01*
D02*
G37*
G36*
X96218Y113188D02*
X96232Y113186D01*
X96250Y113184D01*
X96272Y113181D01*
X96294Y113175D01*
X96320Y113170D01*
X96346Y113162D01*
X96375Y113152D01*
X96403Y113139D01*
X96434Y113125D01*
X96464Y113107D01*
X96492Y113087D01*
X96522Y113063D01*
X96549Y113036D01*
X96551Y113034D01*
X96555Y113029D01*
X96562Y113021D01*
X96571Y113009D01*
X96582Y112994D01*
X96594Y112976D01*
X96608Y112955D01*
X96621Y112931D01*
X96635Y112906D01*
X96648Y112875D01*
X96660Y112844D01*
X96671Y112811D01*
X96680Y112775D01*
X96687Y112736D01*
X96692Y112696D01*
X96693Y112654D01*
Y112645D01*
X96692Y112634D01*
Y112619D01*
X96688Y112601D01*
X96687Y112580D01*
X96683Y112557D01*
X96678Y112532D01*
X96671Y112505D01*
X96663Y112478D01*
X96653Y112448D01*
X96640Y112419D01*
X96627Y112391D01*
X96610Y112361D01*
X96591Y112334D01*
X96570Y112307D01*
X96569Y112305D01*
X96564Y112301D01*
X96557Y112294D01*
X96548Y112285D01*
X96535Y112274D01*
X96521Y112262D01*
X96503Y112250D01*
X96483Y112235D01*
X96460Y112222D01*
X96437Y112208D01*
X96409Y112195D01*
X96381Y112182D01*
X96350Y112172D01*
X96316Y112162D01*
X96282Y112154D01*
X96246Y112150D01*
X96220Y112345D01*
X96222D01*
X96228Y112346D01*
X96236Y112347D01*
X96248Y112350D01*
X96261Y112355D01*
X96276Y112359D01*
X96294Y112364D01*
X96312Y112372D01*
X96351Y112387D01*
X96390Y112406D01*
X96428Y112430D01*
X96444Y112442D01*
X96459Y112457D01*
X96460Y112459D01*
X96462Y112461D01*
X96465Y112466D01*
X96469Y112472D01*
X96475Y112479D01*
X96482Y112488D01*
X96487Y112501D01*
X96495Y112513D01*
X96509Y112541D01*
X96519Y112575D01*
X96528Y112613D01*
X96530Y112634D01*
X96531Y112655D01*
Y112669D01*
X96530Y112678D01*
X96528Y112689D01*
X96526Y112703D01*
X96523Y112720D01*
X96519Y112736D01*
X96509Y112772D01*
X96500Y112792D01*
X96491Y112811D01*
X96480Y112830D01*
X96468Y112850D01*
X96453Y112870D01*
X96437Y112888D01*
X96435Y112889D01*
X96432Y112892D01*
X96428Y112897D01*
X96420Y112902D01*
X96409Y112910D01*
X96399Y112917D01*
X96386Y112926D01*
X96372Y112935D01*
X96355Y112943D01*
X96337Y112952D01*
X96318Y112960D01*
X96297Y112967D01*
X96275Y112973D01*
X96252Y112978D01*
X96227Y112980D01*
X96201Y112982D01*
X96200D01*
X96195D01*
X96188D01*
X96179Y112980D01*
X96168Y112979D01*
X96154Y112978D01*
X96140Y112975D01*
X96123Y112971D01*
X96088Y112961D01*
X96070Y112953D01*
X96051Y112944D01*
X96033Y112934D01*
X96015Y112924D01*
X95997Y112908D01*
X95981Y112893D01*
X95979Y112892D01*
X95976Y112889D01*
X95973Y112884D01*
X95967Y112879D01*
X95961Y112870D01*
X95954Y112859D01*
X95944Y112847D01*
X95937Y112833D01*
X95929Y112817D01*
X95920Y112801D01*
X95907Y112763D01*
X95901Y112742D01*
X95897Y112720D01*
X95895Y112696D01*
X95894Y112670D01*
Y112661D01*
X95895Y112649D01*
X95897Y112633D01*
X95898Y112613D01*
X95903Y112589D01*
X95907Y112564D01*
X95915Y112533D01*
X95744Y112555D01*
Y112557D01*
X95745Y112566D01*
X95746Y112575D01*
Y112598D01*
X95745Y112607D01*
Y112618D01*
X95744Y112631D01*
X95740Y112645D01*
X95739Y112661D01*
X95730Y112696D01*
X95719Y112733D01*
X95703Y112772D01*
X95694Y112790D01*
X95682Y112810D01*
X95680Y112811D01*
X95679Y112814D01*
X95675Y112819D01*
X95670Y112826D01*
X95662Y112833D01*
X95653Y112841D01*
X95644Y112850D01*
X95632Y112861D01*
X95619Y112870D01*
X95604Y112879D01*
X95587Y112886D01*
X95569Y112895D01*
X95550Y112901D01*
X95529Y112906D01*
X95505Y112908D01*
X95481Y112910D01*
X95480D01*
X95477D01*
X95470D01*
X95463Y112908D01*
X95454D01*
X95443Y112906D01*
X95420Y112901D01*
X95391Y112892D01*
X95361Y112879D01*
X95346Y112871D01*
X95332Y112861D01*
X95318Y112850D01*
X95304Y112837D01*
X95302Y112835D01*
X95301Y112833D01*
X95298Y112829D01*
X95293Y112823D01*
X95288Y112817D01*
X95281Y112808D01*
X95268Y112787D01*
X95256Y112760D01*
X95244Y112727D01*
X95236Y112691D01*
X95234Y112671D01*
Y112640D01*
X95235Y112631D01*
Y112622D01*
X95236Y112610D01*
X95243Y112584D01*
X95252Y112555D01*
X95263Y112522D01*
X95281Y112490D01*
X95293Y112475D01*
X95306Y112460D01*
X95307Y112459D01*
X95309Y112457D01*
X95313Y112452D01*
X95319Y112448D01*
X95327Y112442D01*
X95336Y112434D01*
X95346Y112428D01*
X95358Y112419D01*
X95373Y112412D01*
X95388Y112403D01*
X95406Y112396D01*
X95425Y112388D01*
X95446Y112381D01*
X95469Y112374D01*
X95493Y112369D01*
X95518Y112364D01*
X95484Y112169D01*
X95481D01*
X95475Y112171D01*
X95464Y112173D01*
X95452Y112177D01*
X95436Y112181D01*
X95416Y112187D01*
X95395Y112193D01*
X95373Y112202D01*
X95349Y112213D01*
X95325Y112223D01*
X95300Y112236D01*
X95274Y112251D01*
X95249Y112268D01*
X95224Y112286D01*
X95202Y112307D01*
X95181Y112329D01*
X95179Y112331D01*
X95177Y112336D01*
X95170Y112343D01*
X95165Y112352D01*
X95156Y112365D01*
X95147Y112381D01*
X95138Y112397D01*
X95127Y112417D01*
X95117Y112439D01*
X95108Y112463D01*
X95099Y112488D01*
X95090Y112517D01*
X95083Y112547D01*
X95078Y112578D01*
X95074Y112611D01*
X95073Y112646D01*
Y112658D01*
X95074Y112669D01*
Y112679D01*
X95076Y112692D01*
X95078Y112707D01*
X95081Y112724D01*
X95086Y112761D01*
X95097Y112801D01*
X95110Y112843D01*
X95130Y112884D01*
Y112886D01*
X95133Y112889D01*
X95136Y112895D01*
X95140Y112902D01*
X95147Y112911D01*
X95152Y112922D01*
X95169Y112946D01*
X95192Y112973D01*
X95217Y113002D01*
X95247Y113029D01*
X95281Y113052D01*
X95283D01*
X95286Y113056D01*
X95290Y113058D01*
X95298Y113061D01*
X95307Y113066D01*
X95318Y113070D01*
X95329Y113076D01*
X95343Y113083D01*
X95373Y113093D01*
X95407Y113102D01*
X95445Y113108D01*
X95486Y113111D01*
X95487D01*
X95490D01*
X95496D01*
X95503Y113110D01*
X95512D01*
X95523Y113108D01*
X95547Y113103D01*
X95577Y113098D01*
X95609Y113087D01*
X95641Y113074D01*
X95673Y113056D01*
X95675D01*
X95676Y113052D01*
X95680Y113049D01*
X95687Y113045D01*
X95701Y113033D01*
X95721Y113015D01*
X95742Y112991D01*
X95764Y112962D01*
X95787Y112929D01*
X95806Y112892D01*
Y112893D01*
X95808Y112898D01*
X95810Y112906D01*
X95812Y112916D01*
X95817Y112926D01*
X95823Y112942D01*
X95829Y112957D01*
X95835Y112973D01*
X95855Y113007D01*
X95877Y113043D01*
X95890Y113061D01*
X95907Y113080D01*
X95924Y113096D01*
X95942Y113111D01*
X95943Y113112D01*
X95946Y113114D01*
X95952Y113119D01*
X95960Y113123D01*
X95970Y113129D01*
X95982Y113135D01*
X95995Y113143D01*
X96012Y113150D01*
X96030Y113157D01*
X96049Y113165D01*
X96070Y113171D01*
X96093Y113177D01*
X96117Y113181D01*
X96143Y113186D01*
X96170Y113188D01*
X96198Y113189D01*
X96201D01*
X96207D01*
X96218Y113188D01*
D02*
G37*
G36*
X96236Y111950D02*
X96249D01*
X96267Y111947D01*
X96286Y111944D01*
X96309Y111941D01*
X96334Y111935D01*
X96360Y111929D01*
X96387Y111920D01*
X96416Y111909D01*
X96444Y111898D01*
X96473Y111882D01*
X96500Y111864D01*
X96528Y111845D01*
X96553Y111822D01*
X96555Y111821D01*
X96560Y111817D01*
X96566Y111809D01*
X96574Y111799D01*
X96585Y111786D01*
X96596Y111772D01*
X96609Y111753D01*
X96621Y111732D01*
X96635Y111710D01*
X96648Y111685D01*
X96660Y111658D01*
X96671Y111629D01*
X96681Y111598D01*
X96688Y111563D01*
X96694Y111529D01*
X96697Y111491D01*
X96894D01*
Y111375D01*
X96699D01*
Y111374D01*
X96697Y111370D01*
Y111362D01*
X96694Y111352D01*
X96693Y111338D01*
X96690Y111325D01*
X96687Y111308D01*
X96684Y111290D01*
X96675Y111252D01*
X96663Y111214D01*
X96649Y111173D01*
X96633Y111137D01*
Y111135D01*
X96630Y111133D01*
X96628Y111128D01*
X96624Y111122D01*
X96612Y111104D01*
X96597Y111083D01*
X96576Y111059D01*
X96549Y111032D01*
X96517Y111005D01*
X96482Y110979D01*
X96480D01*
X96477Y110977D01*
X96471Y110974D01*
X96462Y110969D01*
X96453Y110965D01*
X96439Y110959D01*
X96426Y110952D01*
X96409Y110945D01*
X96391Y110939D01*
X96372Y110932D01*
X96351Y110925D01*
X96329Y110919D01*
X96279Y110909D01*
X96225Y110903D01*
X96188Y111100D01*
X96189D01*
X96195Y111101D01*
X96202Y111102D01*
X96213Y111104D01*
X96227Y111107D01*
X96241Y111110D01*
X96258Y111113D01*
X96276Y111117D01*
X96314Y111129D01*
X96352Y111143D01*
X96389Y111160D01*
X96405Y111169D01*
X96420Y111179D01*
X96421Y111180D01*
X96425Y111184D01*
X96429Y111188D01*
X96437Y111194D01*
X96444Y111202D01*
X96453Y111211D01*
X96474Y111234D01*
X96495Y111263D01*
X96513Y111296D01*
X96521Y111314D01*
X96528Y111334D01*
X96532Y111354D01*
X96535Y111375D01*
X95924D01*
Y111374D01*
X95922Y111370D01*
X95920Y111363D01*
X95917Y111354D01*
X95915Y111344D01*
X95910Y111330D01*
X95906Y111316D01*
X95899Y111299D01*
X95886Y111261D01*
X95868Y111221D01*
X95847Y111176D01*
X95823Y111129D01*
Y111128D01*
X95820Y111125D01*
X95817Y111120D01*
X95814Y111115D01*
X95802Y111098D01*
X95785Y111077D01*
X95764Y111053D01*
X95740Y111029D01*
X95712Y111006D01*
X95679Y110986D01*
X95678D01*
X95675Y110984D01*
X95670Y110981D01*
X95662Y110978D01*
X95653Y110974D01*
X95644Y110970D01*
X95632Y110966D01*
X95619Y110961D01*
X95587Y110951D01*
X95553Y110943D01*
X95512Y110938D01*
X95470Y110936D01*
X95468D01*
X95461D01*
X95451Y110938D01*
X95436Y110939D01*
X95418Y110941D01*
X95397Y110943D01*
X95375Y110948D01*
X95350Y110954D01*
X95323Y110961D01*
X95297Y110972D01*
X95268Y110984D01*
X95240Y110997D01*
X95213Y111015D01*
X95184Y111035D01*
X95158Y111057D01*
X95133Y111083D01*
X95131Y111084D01*
X95129Y111088D01*
X95126Y111093D01*
X95120Y111101D01*
X95112Y111111D01*
X95104Y111124D01*
X95095Y111138D01*
X95086Y111156D01*
X95078Y111176D01*
X95069Y111197D01*
X95060Y111221D01*
X95052Y111248D01*
X95043Y111276D01*
X95037Y111307D01*
X95031Y111339D01*
X95026Y111375D01*
X94933D01*
Y111491D01*
X95026D01*
Y111493D01*
X95028Y111498D01*
Y111507D01*
X95031Y111520D01*
X95033Y111533D01*
X95035Y111549D01*
X95040Y111567D01*
X95044Y111587D01*
X95058Y111630D01*
X95076Y111674D01*
X95099Y111717D01*
X95112Y111739D01*
X95127Y111758D01*
X95129Y111759D01*
X95131Y111764D01*
X95138Y111770D01*
X95147Y111777D01*
X95157Y111788D01*
X95170Y111800D01*
X95186Y111812D01*
X95204Y111824D01*
X95223Y111837D01*
X95245Y111851D01*
X95268Y111863D01*
X95295Y111876D01*
X95322Y111887D01*
X95352Y111896D01*
X95385Y111905D01*
X95418Y111911D01*
X95448Y111710D01*
X95446D01*
X95443Y111708D01*
X95438D01*
X95429Y111707D01*
X95420Y111704D01*
X95409Y111701D01*
X95384Y111695D01*
X95355Y111685D01*
X95327Y111672D01*
X95298Y111656D01*
X95272Y111638D01*
X95270Y111635D01*
X95262Y111627D01*
X95252Y111616D01*
X95240Y111599D01*
X95226Y111578D01*
X95211Y111554D01*
X95199Y111524D01*
X95190Y111491D01*
X95753D01*
Y111493D01*
X95754Y111497D01*
X95755Y111504D01*
X95758Y111515D01*
X95762Y111527D01*
X95766Y111539D01*
X95774Y111571D01*
X95783Y111602D01*
X95793Y111634D01*
X95797Y111648D01*
X95802Y111662D01*
X95806Y111674D01*
X95811Y111685D01*
Y111686D01*
X95812Y111689D01*
X95815Y111694D01*
X95819Y111699D01*
X95828Y111716D01*
X95838Y111737D01*
X95853Y111759D01*
X95869Y111785D01*
X95888Y111809D01*
X95908Y111831D01*
X95912Y111835D01*
X95919Y111840D01*
X95931Y111851D01*
X95947Y111864D01*
X95967Y111880D01*
X95990Y111893D01*
X96017Y111908D01*
X96045Y111920D01*
X96047D01*
X96048Y111922D01*
X96052Y111923D01*
X96058Y111925D01*
X96075Y111931D01*
X96096Y111936D01*
X96122Y111941D01*
X96150Y111947D01*
X96181Y111950D01*
X96216Y111951D01*
X96219D01*
X96225D01*
X96236Y111950D01*
D02*
G37*
G36*
X96036Y110643D02*
X96057D01*
X96079Y110642D01*
X96106Y110641D01*
X96134Y110637D01*
X96163Y110635D01*
X96195Y110632D01*
X96258Y110621D01*
X96320Y110608D01*
X96350Y110600D01*
X96377Y110590D01*
X96378D01*
X96382Y110587D01*
X96390Y110583D01*
X96400Y110579D01*
X96412Y110573D01*
X96426Y110565D01*
X96441Y110556D01*
X96457Y110545D01*
X96475Y110532D01*
X96495Y110518D01*
X96513Y110503D01*
X96532Y110485D01*
X96552Y110465D01*
X96570Y110444D01*
X96589Y110420D01*
X96606Y110395D01*
X96608Y110393D01*
X96609Y110389D01*
X96614Y110380D01*
X96619Y110369D01*
X96626Y110355D01*
X96633Y110337D01*
X96642Y110318D01*
X96649Y110295D01*
X96657Y110270D01*
X96666Y110241D01*
X96674Y110212D01*
X96680Y110178D01*
X96685Y110144D01*
X96688Y110107D01*
X96692Y110066D01*
X96693Y110024D01*
Y110003D01*
X96692Y109986D01*
X96690Y109968D01*
X96688Y109946D01*
X96687Y109921D01*
X96684Y109895D01*
X96680Y109866D01*
X96675Y109836D01*
X96660Y109775D01*
X96653Y109745D01*
X96642Y109715D01*
X96630Y109685D01*
X96617Y109658D01*
X96615Y109657D01*
X96614Y109652D01*
X96609Y109644D01*
X96601Y109635D01*
X96594Y109624D01*
X96585Y109610D01*
X96573Y109595D01*
X96560Y109580D01*
X96544Y109564D01*
X96528Y109547D01*
X96510Y109530D01*
X96491Y109514D01*
X96469Y109497D01*
X96446Y109483D01*
X96421Y109469D01*
X96394Y109457D01*
X96393D01*
X96387Y109454D01*
X96380Y109451D01*
X96368Y109448D01*
X96352Y109443D01*
X96334Y109438D01*
X96314Y109433D01*
X96289Y109427D01*
X96264Y109421D01*
X96234Y109416D01*
X96201Y109411D01*
X96165Y109406D01*
X96127Y109403D01*
X96087Y109400D01*
X96043Y109397D01*
X95997D01*
X95079D01*
Y109607D01*
X95995D01*
X95999D01*
X96004D01*
X96015D01*
X96030D01*
X96047Y109608D01*
X96066D01*
X96088Y109610D01*
X96111Y109611D01*
X96161Y109616D01*
X96211Y109624D01*
X96237Y109626D01*
X96259Y109633D01*
X96282Y109639D01*
X96302Y109644D01*
X96303D01*
X96306Y109646D01*
X96311Y109649D01*
X96318Y109652D01*
X96334Y109662D01*
X96357Y109676D01*
X96381Y109694D01*
X96407Y109716D01*
X96430Y109743D01*
X96451Y109776D01*
Y109778D01*
X96453Y109781D01*
X96456Y109785D01*
X96459Y109793D01*
X96464Y109802D01*
X96468Y109814D01*
X96473Y109826D01*
X96477Y109841D01*
X96483Y109856D01*
X96487Y109874D01*
X96495Y109913D01*
X96501Y109958D01*
X96504Y110006D01*
Y110029D01*
X96503Y110044D01*
X96501Y110063D01*
X96498Y110084D01*
X96495Y110108D01*
X96491Y110134D01*
X96486Y110161D01*
X96478Y110187D01*
X96469Y110216D01*
X96459Y110243D01*
X96447Y110268D01*
X96434Y110294D01*
X96417Y110317D01*
X96399Y110336D01*
X96398Y110337D01*
X96394Y110340D01*
X96387Y110345D01*
X96378Y110351D01*
X96366Y110359D01*
X96350Y110368D01*
X96332Y110377D01*
X96309Y110386D01*
X96284Y110395D01*
X96255Y110404D01*
X96222Y110413D01*
X96184Y110420D01*
X96144Y110426D01*
X96099Y110431D01*
X96049Y110433D01*
X95995Y110435D01*
X95079D01*
Y110645D01*
X95997D01*
X96000D01*
X96008D01*
X96020D01*
X96036Y110643D01*
D02*
G37*
%LPC*%
G36*
X33373Y176598D02*
X31806D01*
Y174957D01*
X33293D01*
X33331Y174961D01*
X33373D01*
X33424Y174966D01*
X33476D01*
X33588Y174980D01*
X33706Y174994D01*
X33818Y175018D01*
X33922Y175046D01*
X33926D01*
X33931Y175051D01*
X33945Y175055D01*
X33964Y175065D01*
X34011Y175088D01*
X34067Y175121D01*
X34128Y175159D01*
X34189Y175210D01*
X34250Y175276D01*
X34306Y175346D01*
Y175351D01*
X34311Y175355D01*
X34330Y175384D01*
X34348Y175426D01*
X34376Y175477D01*
X34400Y175548D01*
X34423Y175623D01*
X34437Y175703D01*
X34442Y175792D01*
Y175796D01*
Y175806D01*
Y175824D01*
X34437Y175853D01*
X34433Y175881D01*
X34428Y175914D01*
X34409Y175998D01*
X34381Y176087D01*
X34334Y176186D01*
X34306Y176233D01*
X34269Y176279D01*
X34231Y176326D01*
X34184Y176368D01*
X34179Y176373D01*
X34170Y176378D01*
X34156Y176392D01*
X34137Y176406D01*
X34109Y176420D01*
X34072Y176444D01*
X34034Y176462D01*
X33987Y176486D01*
X33931Y176505D01*
X33875Y176528D01*
X33804Y176547D01*
X33734Y176561D01*
X33654Y176579D01*
X33565Y176589D01*
X33471Y176594D01*
X33373Y176598D01*
D02*
G37*
G36*
X28598Y176561D02*
X27173D01*
Y174788D01*
X28514D01*
X28556Y174793D01*
X28608Y174797D01*
X28669Y174802D01*
X28734Y174807D01*
X28805Y174816D01*
X28955Y174844D01*
X29105Y174886D01*
X29175Y174915D01*
X29241Y174947D01*
X29302Y174980D01*
X29358Y175022D01*
X29363Y175027D01*
X29372Y175032D01*
X29382Y175046D01*
X29400Y175065D01*
X29419Y175093D01*
X29443Y175121D01*
X29471Y175154D01*
X29494Y175196D01*
X29518Y175238D01*
X29546Y175290D01*
X29569Y175346D01*
X29588Y175402D01*
X29607Y175468D01*
X29621Y175538D01*
X29625Y175609D01*
X29630Y175688D01*
Y175693D01*
Y175703D01*
Y175717D01*
Y175740D01*
X29625Y175768D01*
X29621Y175796D01*
X29611Y175871D01*
X29593Y175956D01*
X29564Y176045D01*
X29522Y176134D01*
X29471Y176218D01*
Y176223D01*
X29461Y176228D01*
X29443Y176256D01*
X29405Y176293D01*
X29358Y176340D01*
X29297Y176392D01*
X29227Y176439D01*
X29147Y176481D01*
X29053Y176514D01*
X29044D01*
X29021Y176523D01*
X29002D01*
X28978Y176528D01*
X28950Y176533D01*
X28917Y176537D01*
X28875Y176542D01*
X28833Y176547D01*
X28781Y176551D01*
X28725D01*
X28664Y176556D01*
X28598Y176561D01*
D02*
G37*
G36*
X38321Y176669D02*
X38288D01*
X38255Y176664D01*
X38203Y176659D01*
X38142Y176655D01*
X38072Y176645D01*
X37992Y176626D01*
X37908Y176608D01*
X37819Y176584D01*
X37720Y176551D01*
X37622Y176514D01*
X37519Y176467D01*
X37416Y176411D01*
X37317Y176345D01*
X37219Y176270D01*
X37120Y176186D01*
X37115Y176181D01*
X37097Y176162D01*
X37073Y176134D01*
X37040Y176092D01*
X37003Y176040D01*
X36961Y175975D01*
X36918Y175900D01*
X36871Y175806D01*
X36825Y175703D01*
X36778Y175585D01*
X36735Y175454D01*
X36698Y175313D01*
X36665Y175154D01*
X36642Y174980D01*
X36623Y174793D01*
X36618Y174591D01*
Y174586D01*
Y174582D01*
Y174567D01*
Y174553D01*
X36623Y174506D01*
X36628Y174441D01*
X36632Y174366D01*
X36642Y174277D01*
X36661Y174183D01*
X36679Y174075D01*
X36703Y173967D01*
X36735Y173850D01*
X36778Y173733D01*
X36820Y173616D01*
X36876Y173498D01*
X36942Y173386D01*
X37017Y173278D01*
X37101Y173175D01*
X37106Y173170D01*
X37125Y173151D01*
X37153Y173128D01*
X37190Y173095D01*
X37237Y173057D01*
X37294Y173015D01*
X37359Y172968D01*
X37434Y172921D01*
X37519Y172870D01*
X37608Y172827D01*
X37711Y172781D01*
X37814Y172743D01*
X37931Y172710D01*
X38049Y172687D01*
X38180Y172668D01*
X38311Y172663D01*
X38344D01*
X38382Y172668D01*
X38433Y172673D01*
X38499Y172677D01*
X38574Y172692D01*
X38654Y172706D01*
X38743Y172729D01*
X38841Y172757D01*
X38940Y172790D01*
X39038Y172832D01*
X39141Y172884D01*
X39245Y172945D01*
X39348Y173010D01*
X39442Y173090D01*
X39535Y173184D01*
X39540Y173189D01*
X39554Y173207D01*
X39582Y173240D01*
X39610Y173283D01*
X39648Y173334D01*
X39690Y173400D01*
X39732Y173475D01*
X39779Y173564D01*
X39821Y173662D01*
X39864Y173775D01*
X39906Y173897D01*
X39944Y174028D01*
X39976Y174169D01*
X40000Y174324D01*
X40014Y174488D01*
X40018Y174661D01*
Y174671D01*
Y174689D01*
Y174722D01*
X40014Y174765D01*
Y174816D01*
X40009Y174877D01*
X40000Y174947D01*
X39995Y175022D01*
X39981Y175102D01*
X39967Y175187D01*
X39929Y175360D01*
X39882Y175543D01*
X39850Y175632D01*
X39812Y175717D01*
Y175721D01*
X39803Y175735D01*
X39789Y175759D01*
X39775Y175792D01*
X39751Y175829D01*
X39728Y175871D01*
X39695Y175923D01*
X39657Y175975D01*
X39573Y176087D01*
X39470Y176200D01*
X39348Y176312D01*
X39277Y176368D01*
X39207Y176415D01*
X39202Y176420D01*
X39188Y176425D01*
X39170Y176439D01*
X39137Y176453D01*
X39099Y176476D01*
X39057Y176495D01*
X39006Y176519D01*
X38949Y176542D01*
X38888Y176566D01*
X38818Y176589D01*
X38743Y176612D01*
X38668Y176631D01*
X38499Y176659D01*
X38410Y176664D01*
X38321Y176669D01*
D02*
G37*
G36*
X37093Y88823D02*
X35526D01*
Y87181D01*
X37013D01*
X37051Y87186D01*
X37093D01*
X37145Y87190D01*
X37196D01*
X37309Y87204D01*
X37426Y87219D01*
X37538Y87242D01*
X37642Y87270D01*
X37646D01*
X37651Y87275D01*
X37665Y87280D01*
X37684Y87289D01*
X37731Y87312D01*
X37787Y87345D01*
X37848Y87383D01*
X37909Y87434D01*
X37970Y87500D01*
X38026Y87570D01*
Y87575D01*
X38031Y87580D01*
X38050Y87608D01*
X38069Y87650D01*
X38097Y87702D01*
X38120Y87772D01*
X38144Y87847D01*
X38158Y87927D01*
X38162Y88016D01*
Y88021D01*
Y88030D01*
Y88049D01*
X38158Y88077D01*
X38153Y88105D01*
X38148Y88138D01*
X38129Y88222D01*
X38101Y88311D01*
X38054Y88410D01*
X38026Y88457D01*
X37989Y88504D01*
X37951Y88551D01*
X37904Y88593D01*
X37900Y88598D01*
X37890Y88602D01*
X37876Y88616D01*
X37857Y88630D01*
X37829Y88644D01*
X37792Y88668D01*
X37754Y88687D01*
X37707Y88710D01*
X37651Y88729D01*
X37595Y88752D01*
X37524Y88771D01*
X37454Y88785D01*
X37374Y88804D01*
X37285Y88813D01*
X37191Y88818D01*
X37093Y88823D01*
D02*
G37*
G36*
X32318Y88785D02*
X30893D01*
Y87012D01*
X32234D01*
X32276Y87017D01*
X32328Y87022D01*
X32389Y87026D01*
X32454Y87031D01*
X32525Y87040D01*
X32675Y87068D01*
X32825Y87111D01*
X32895Y87139D01*
X32961Y87172D01*
X33022Y87204D01*
X33078Y87247D01*
X33083Y87251D01*
X33092Y87256D01*
X33102Y87270D01*
X33121Y87289D01*
X33139Y87317D01*
X33163Y87345D01*
X33191Y87378D01*
X33214Y87420D01*
X33238Y87463D01*
X33266Y87514D01*
X33289Y87570D01*
X33308Y87627D01*
X33327Y87692D01*
X33341Y87763D01*
X33346Y87833D01*
X33350Y87913D01*
Y87917D01*
Y87927D01*
Y87941D01*
Y87964D01*
X33346Y87992D01*
X33341Y88021D01*
X33332Y88096D01*
X33313Y88180D01*
X33285Y88269D01*
X33242Y88358D01*
X33191Y88443D01*
Y88447D01*
X33182Y88452D01*
X33163Y88480D01*
X33125Y88518D01*
X33078Y88565D01*
X33017Y88616D01*
X32947Y88663D01*
X32867Y88705D01*
X32774Y88738D01*
X32764D01*
X32741Y88748D01*
X32722D01*
X32698Y88752D01*
X32670Y88757D01*
X32637Y88762D01*
X32595Y88766D01*
X32553Y88771D01*
X32501Y88776D01*
X32445D01*
X32384Y88780D01*
X32318Y88785D01*
D02*
G37*
G36*
X42041Y88893D02*
X42008D01*
X41975Y88888D01*
X41924Y88884D01*
X41863Y88879D01*
X41792Y88870D01*
X41713Y88851D01*
X41628Y88832D01*
X41539Y88809D01*
X41441Y88776D01*
X41342Y88738D01*
X41239Y88691D01*
X41136Y88635D01*
X41037Y88569D01*
X40939Y88494D01*
X40840Y88410D01*
X40836Y88405D01*
X40817Y88386D01*
X40793Y88358D01*
X40760Y88316D01*
X40723Y88265D01*
X40681Y88199D01*
X40639Y88124D01*
X40592Y88030D01*
X40545Y87927D01*
X40498Y87809D01*
X40456Y87678D01*
X40418Y87537D01*
X40385Y87378D01*
X40362Y87204D01*
X40343Y87017D01*
X40338Y86815D01*
Y86811D01*
Y86806D01*
Y86792D01*
Y86778D01*
X40343Y86731D01*
X40348Y86665D01*
X40352Y86590D01*
X40362Y86501D01*
X40381Y86407D01*
X40399Y86299D01*
X40423Y86191D01*
X40456Y86074D01*
X40498Y85957D01*
X40540Y85840D01*
X40596Y85723D01*
X40662Y85610D01*
X40737Y85502D01*
X40821Y85399D01*
X40826Y85394D01*
X40845Y85375D01*
X40873Y85352D01*
X40911Y85319D01*
X40957Y85282D01*
X41014Y85239D01*
X41079Y85193D01*
X41155Y85146D01*
X41239Y85094D01*
X41328Y85052D01*
X41431Y85005D01*
X41534Y84967D01*
X41652Y84935D01*
X41769Y84911D01*
X41900Y84892D01*
X42031Y84888D01*
X42064D01*
X42102Y84892D01*
X42153Y84897D01*
X42219Y84902D01*
X42294Y84916D01*
X42374Y84930D01*
X42463Y84953D01*
X42562Y84982D01*
X42660Y85014D01*
X42759Y85057D01*
X42862Y85108D01*
X42965Y85169D01*
X43068Y85235D01*
X43162Y85314D01*
X43256Y85408D01*
X43260Y85413D01*
X43274Y85432D01*
X43303Y85465D01*
X43331Y85507D01*
X43368Y85558D01*
X43410Y85624D01*
X43453Y85699D01*
X43499Y85788D01*
X43542Y85887D01*
X43584Y85999D01*
X43626Y86121D01*
X43664Y86252D01*
X43696Y86393D01*
X43720Y86548D01*
X43734Y86712D01*
X43739Y86886D01*
Y86895D01*
Y86914D01*
Y86947D01*
X43734Y86989D01*
Y87040D01*
X43729Y87101D01*
X43720Y87172D01*
X43715Y87247D01*
X43701Y87327D01*
X43687Y87411D01*
X43650Y87584D01*
X43603Y87767D01*
X43570Y87856D01*
X43532Y87941D01*
Y87945D01*
X43523Y87960D01*
X43509Y87983D01*
X43495Y88016D01*
X43471Y88053D01*
X43448Y88096D01*
X43415Y88147D01*
X43378Y88199D01*
X43293Y88311D01*
X43190Y88424D01*
X43068Y88537D01*
X42998Y88593D01*
X42927Y88640D01*
X42923Y88644D01*
X42908Y88649D01*
X42890Y88663D01*
X42857Y88677D01*
X42819Y88701D01*
X42777Y88719D01*
X42726Y88743D01*
X42669Y88766D01*
X42608Y88790D01*
X42538Y88813D01*
X42463Y88837D01*
X42388Y88855D01*
X42219Y88884D01*
X42130Y88888D01*
X42041Y88893D01*
D02*
G37*
G36*
X96229Y111750D02*
X96228D01*
X96225D01*
X96219D01*
X96211Y111749D01*
X96202D01*
X96192Y111748D01*
X96168Y111744D01*
X96141Y111737D01*
X96113Y111728D01*
X96084Y111716D01*
X96058Y111698D01*
X96057D01*
X96056Y111695D01*
X96052Y111692D01*
X96048Y111688D01*
X96042Y111681D01*
X96036Y111674D01*
X96029Y111663D01*
X96021Y111653D01*
X96013Y111639D01*
X96004Y111625D01*
X95995Y111608D01*
X95986Y111589D01*
X95977Y111567D01*
X95970Y111545D01*
X95961Y111520D01*
X95954Y111491D01*
X96535D01*
Y111493D01*
X96534Y111495D01*
Y111502D01*
X96532Y111511D01*
X96530Y111520D01*
X96526Y111530D01*
X96517Y111557D01*
X96505Y111585D01*
X96489Y111617D01*
X96466Y111648D01*
X96453Y111663D01*
X96438Y111677D01*
X96437Y111679D01*
X96434Y111680D01*
X96429Y111685D01*
X96423Y111689D01*
X96414Y111694D01*
X96405Y111701D01*
X96393Y111707D01*
X96381Y111714D01*
X96350Y111728D01*
X96315Y111739D01*
X96275Y111748D01*
X96252Y111749D01*
X96229Y111750D01*
D02*
G37*
G36*
X95723Y111375D02*
X95188D01*
Y111374D01*
X95190Y111371D01*
Y111365D01*
X95193Y111356D01*
X95195Y111347D01*
X95197Y111337D01*
X95206Y111311D01*
X95218Y111281D01*
X95235Y111251D01*
X95254Y111223D01*
X95280Y111196D01*
X95281D01*
X95283Y111193D01*
X95288Y111189D01*
X95293Y111185D01*
X95309Y111174D01*
X95329Y111164D01*
X95355Y111152D01*
X95385Y111142D01*
X95418Y111134D01*
X95436Y111133D01*
X95454Y111131D01*
X95455D01*
X95459D01*
X95463D01*
X95470Y111133D01*
X95480D01*
X95490Y111134D01*
X95512Y111138D01*
X95539Y111144D01*
X95566Y111155D01*
X95595Y111169D01*
X95622Y111187D01*
X95625Y111189D01*
X95632Y111197D01*
X95644Y111211D01*
X95652Y111221D01*
X95660Y111232D01*
X95667Y111243D01*
X95676Y111257D01*
X95683Y111272D01*
X95692Y111290D01*
X95700Y111308D01*
X95707Y111329D01*
X95715Y111352D01*
X95723Y111375D01*
D02*
G37*
%LPD*%
D10*
X39685Y56180D02*
X42361D01*
X72873Y56379D02*
Y59055D01*
X71535Y57717D02*
X74211D01*
D11*
X150212Y257389D02*
Y255716D01*
X151048D01*
X151327Y255995D01*
Y256274D01*
X151048Y256553D01*
X150212D01*
X151048D01*
X151327Y256832D01*
Y257110D01*
X151048Y257389D01*
X150212D01*
X151885D02*
Y257110D01*
X152442Y256553D01*
X153000Y257110D01*
Y257389D01*
X152442Y256553D02*
Y255716D01*
X153558D02*
Y257389D01*
X154394D01*
X154673Y257110D01*
Y256553D01*
X154394Y256274D01*
X153558D01*
M02*
