G04*
G04 #@! TF.GenerationSoftware,Altium Limited,Altium Designer,23.7.1 (13)*
G04*
G04 Layer_Physical_Order=2*
G04 Layer_Color=16711680*
%FSLAX25Y25*%
%MOIN*%
G70*
G04*
G04 #@! TF.SameCoordinates,D29FC0A6-615C-4A1E-A78D-E47FA92DE2CD*
G04*
G04*
G04 #@! TF.FilePolarity,Positive*
G04*
G01*
G75*
%ADD57C,0.00630*%
%ADD62C,0.00984*%
%ADD64C,0.11811*%
G04:AMPARAMS|DCode=65|XSize=60mil|YSize=60mil|CornerRadius=0mil|HoleSize=0mil|Usage=FLASHONLY|Rotation=90.000|XOffset=0mil|YOffset=0mil|HoleType=Round|Shape=Octagon|*
%AMOCTAGOND65*
4,1,8,0.01500,0.03000,-0.01500,0.03000,-0.03000,0.01500,-0.03000,-0.01500,-0.01500,-0.03000,0.01500,-0.03000,0.03000,-0.01500,0.03000,0.01500,0.01500,0.03000,0.0*
%
%ADD65OCTAGOND65*%

%ADD66O,0.12000X0.06000*%
%ADD67C,0.05150*%
%ADD68C,0.06024*%
%ADD69R,0.06024X0.06024*%
%ADD70C,0.02781*%
%ADD71C,0.02978*%
%ADD72C,0.00787*%
G36*
X208661Y265400D02*
X209335Y265400D01*
X210671Y265224D01*
X211973Y264875D01*
X213219Y264359D01*
X214386Y263685D01*
X215455Y262865D01*
X216408Y261912D01*
X217228Y260842D01*
X217902Y259675D01*
X218418Y258430D01*
X218767Y257128D01*
X218943Y255792D01*
X218943Y255118D01*
X218943Y224753D01*
X218443Y224653D01*
X218428Y224690D01*
X217851Y225442D01*
X217098Y226019D01*
X216223Y226381D01*
X215283Y226505D01*
X209283D01*
X208343Y226381D01*
X207468Y226019D01*
X206715Y225442D01*
X206138Y224690D01*
X205776Y223814D01*
X205652Y222874D01*
X205776Y221934D01*
X206138Y221059D01*
X206715Y220306D01*
X207468Y219729D01*
X208343Y219367D01*
X209283Y219243D01*
X215283D01*
X216223Y219367D01*
X217098Y219729D01*
X217851Y220306D01*
X218428Y221059D01*
X218443Y221095D01*
X218943Y220995D01*
Y214753D01*
X218443Y214653D01*
X218428Y214689D01*
X217851Y215442D01*
X217098Y216019D01*
X216223Y216381D01*
X215283Y216505D01*
X209283D01*
X208343Y216381D01*
X207468Y216019D01*
X206715Y215442D01*
X206138Y214689D01*
X205776Y213814D01*
X205652Y212874D01*
X205776Y211934D01*
X206138Y211058D01*
X206715Y210306D01*
X207468Y209729D01*
X208343Y209367D01*
X209283Y209243D01*
X215283D01*
X216223Y209367D01*
X217098Y209729D01*
X217851Y210306D01*
X218428Y211058D01*
X218443Y211095D01*
X218943Y210995D01*
Y204753D01*
X218443Y204653D01*
X218428Y204690D01*
X217851Y205442D01*
X217098Y206019D01*
X216223Y206381D01*
X215283Y206505D01*
X209283D01*
X208343Y206381D01*
X207468Y206019D01*
X206715Y205442D01*
X206138Y204690D01*
X205776Y203814D01*
X205652Y202874D01*
X205776Y201934D01*
X206138Y201059D01*
X206715Y200306D01*
X207468Y199729D01*
X208343Y199367D01*
X209283Y199243D01*
X215283D01*
X216223Y199367D01*
X217098Y199729D01*
X217851Y200306D01*
X218428Y201059D01*
X218443Y201095D01*
X218943Y200995D01*
Y194753D01*
X218443Y194653D01*
X218428Y194690D01*
X217851Y195442D01*
X217098Y196019D01*
X216223Y196381D01*
X215283Y196505D01*
X209283D01*
X208343Y196381D01*
X207468Y196019D01*
X206715Y195442D01*
X206138Y194690D01*
X205776Y193814D01*
X205775Y193807D01*
X197283D01*
X196926Y193736D01*
X196623Y193534D01*
X182009Y178920D01*
X181417Y179037D01*
X180640Y178883D01*
X179982Y178443D01*
X179542Y177785D01*
X179387Y177008D01*
X179542Y176231D01*
X179982Y175573D01*
X180640Y175133D01*
X181417Y174978D01*
X182194Y175133D01*
X182852Y175573D01*
X183292Y176231D01*
X183447Y177008D01*
X183329Y177600D01*
X197669Y191941D01*
X205775D01*
X205776Y191934D01*
X206138Y191059D01*
X206715Y190306D01*
X207468Y189729D01*
X208343Y189367D01*
X209283Y189243D01*
X215283D01*
X216223Y189367D01*
X217098Y189729D01*
X217851Y190306D01*
X218428Y191059D01*
X218443Y191095D01*
X218943Y190995D01*
Y174753D01*
X218443Y174653D01*
X218428Y174689D01*
X217851Y175442D01*
X217098Y176019D01*
X216223Y176381D01*
X215283Y176505D01*
X209283D01*
X208343Y176381D01*
X207468Y176019D01*
X206715Y175442D01*
X206138Y174689D01*
X205776Y173814D01*
X205652Y172874D01*
X205776Y171934D01*
X206138Y171058D01*
X206715Y170306D01*
X207468Y169729D01*
X208343Y169367D01*
X209283Y169243D01*
X215283D01*
X216223Y169367D01*
X217098Y169729D01*
X217851Y170306D01*
X218428Y171058D01*
X218443Y171095D01*
X218943Y170995D01*
X218943Y164753D01*
X218443Y164653D01*
X218428Y164690D01*
X217851Y165442D01*
X217098Y166019D01*
X216223Y166381D01*
X215283Y166505D01*
X209283D01*
X208343Y166381D01*
X207468Y166019D01*
X206715Y165442D01*
X206138Y164690D01*
X205776Y163814D01*
X205652Y162874D01*
X205776Y161934D01*
X206138Y161058D01*
X206715Y160306D01*
X207468Y159729D01*
X208343Y159367D01*
X209283Y159243D01*
X215283D01*
X216223Y159367D01*
X217098Y159729D01*
X217851Y160306D01*
X218428Y161058D01*
X218443Y161095D01*
X218943Y160995D01*
Y144753D01*
X218443Y144653D01*
X218428Y144690D01*
X217851Y145442D01*
X217098Y146019D01*
X216223Y146381D01*
X215283Y146505D01*
X209283D01*
X208343Y146381D01*
X207468Y146019D01*
X206715Y145442D01*
X206138Y144690D01*
X205776Y143814D01*
X205652Y142874D01*
X205776Y141934D01*
X206138Y141059D01*
X206715Y140306D01*
X207468Y139729D01*
X208343Y139367D01*
X209283Y139243D01*
X215283D01*
X216223Y139367D01*
X217098Y139729D01*
X217851Y140306D01*
X218428Y141059D01*
X218443Y141095D01*
X218943Y140995D01*
Y134753D01*
X218443Y134653D01*
X218428Y134689D01*
X217851Y135442D01*
X217098Y136019D01*
X216223Y136381D01*
X215283Y136505D01*
X209283D01*
X208343Y136381D01*
X207468Y136019D01*
X206715Y135442D01*
X206138Y134689D01*
X205776Y133814D01*
X205652Y132874D01*
X205776Y131934D01*
X206138Y131059D01*
X206715Y130306D01*
X207468Y129729D01*
X208343Y129367D01*
X209283Y129243D01*
X215283D01*
X216223Y129367D01*
X217098Y129729D01*
X217851Y130306D01*
X218428Y131059D01*
X218443Y131095D01*
X218943Y130995D01*
Y124753D01*
X218443Y124653D01*
X218428Y124689D01*
X217851Y125442D01*
X217098Y126019D01*
X216223Y126381D01*
X215283Y126505D01*
X209283D01*
X208343Y126381D01*
X207468Y126019D01*
X206715Y125442D01*
X206138Y124689D01*
X205776Y123814D01*
X205652Y122874D01*
X205776Y121934D01*
X206138Y121058D01*
X206715Y120306D01*
X207468Y119729D01*
X208343Y119367D01*
X209283Y119243D01*
X215283D01*
X216223Y119367D01*
X217098Y119729D01*
X217851Y120306D01*
X218428Y121058D01*
X218443Y121095D01*
X218943Y120995D01*
Y114753D01*
X218443Y114653D01*
X218428Y114690D01*
X217851Y115442D01*
X217098Y116019D01*
X216223Y116381D01*
X215283Y116505D01*
X209283D01*
X208343Y116381D01*
X207468Y116019D01*
X206715Y115442D01*
X206138Y114690D01*
X205776Y113814D01*
X205652Y112874D01*
X205776Y111934D01*
X206138Y111058D01*
X206715Y110306D01*
X207468Y109729D01*
X208343Y109367D01*
X209283Y109243D01*
X215283D01*
X216223Y109367D01*
X217098Y109729D01*
X217851Y110306D01*
X218428Y111058D01*
X218443Y111095D01*
X218943Y110995D01*
Y104753D01*
X218443Y104653D01*
X218428Y104690D01*
X217851Y105442D01*
X217098Y106019D01*
X216223Y106381D01*
X215283Y106505D01*
X209283D01*
X208343Y106381D01*
X207468Y106019D01*
X206715Y105442D01*
X206138Y104690D01*
X205776Y103814D01*
X205652Y102874D01*
X205776Y101934D01*
X206138Y101058D01*
X206715Y100306D01*
X207468Y99729D01*
X208343Y99367D01*
X209283Y99243D01*
X215283D01*
X216223Y99367D01*
X217098Y99729D01*
X217851Y100306D01*
X218428Y101058D01*
X218443Y101095D01*
X218943Y100995D01*
X218943Y94753D01*
X218443Y94653D01*
X218428Y94690D01*
X217851Y95442D01*
X217098Y96019D01*
X216223Y96381D01*
X215283Y96505D01*
X209283D01*
X208343Y96381D01*
X207468Y96019D01*
X206715Y95442D01*
X206138Y94690D01*
X205776Y93814D01*
X205652Y92874D01*
X205776Y91934D01*
X206138Y91058D01*
X206715Y90306D01*
X207468Y89729D01*
X208343Y89367D01*
X209283Y89243D01*
X215283D01*
X216223Y89367D01*
X217098Y89729D01*
X217851Y90306D01*
X218428Y91058D01*
X218443Y91095D01*
X218943Y90995D01*
Y84753D01*
X218443Y84653D01*
X218428Y84689D01*
X217851Y85441D01*
X217098Y86019D01*
X216223Y86381D01*
X215283Y86505D01*
X209283D01*
X208343Y86381D01*
X207468Y86019D01*
X206715Y85441D01*
X206138Y84689D01*
X205776Y83814D01*
X205652Y82874D01*
X205776Y81934D01*
X206138Y81059D01*
X206715Y80306D01*
X207468Y79729D01*
X208343Y79367D01*
X209283Y79243D01*
X215283D01*
X216223Y79367D01*
X217098Y79729D01*
X217851Y80306D01*
X218428Y81059D01*
X218443Y81095D01*
X218943Y80995D01*
Y74753D01*
X218443Y74653D01*
X218428Y74690D01*
X217851Y75441D01*
X217098Y76019D01*
X216223Y76381D01*
X215283Y76505D01*
X209283D01*
X208343Y76381D01*
X207468Y76019D01*
X206715Y75441D01*
X206138Y74690D01*
X205776Y73814D01*
X205652Y72874D01*
X205776Y71934D01*
X206138Y71058D01*
X206715Y70306D01*
X207468Y69729D01*
X208343Y69367D01*
X209283Y69243D01*
X215283D01*
X216223Y69367D01*
X217098Y69729D01*
X217851Y70306D01*
X218428Y71058D01*
X218443Y71095D01*
X218943Y70995D01*
Y64753D01*
X218443Y64653D01*
X218428Y64689D01*
X217851Y65442D01*
X217098Y66019D01*
X216223Y66381D01*
X215283Y66505D01*
X209283D01*
X208343Y66381D01*
X207468Y66019D01*
X206715Y65442D01*
X206138Y64689D01*
X205776Y63814D01*
X205652Y62874D01*
X205776Y61934D01*
X206138Y61058D01*
X206715Y60306D01*
X207468Y59729D01*
X208343Y59367D01*
X209283Y59243D01*
X215283D01*
X216223Y59367D01*
X217098Y59729D01*
X217851Y60306D01*
X218428Y61058D01*
X218443Y61095D01*
X218943Y60995D01*
Y54753D01*
X218443Y54653D01*
X218428Y54690D01*
X217851Y55441D01*
X217098Y56019D01*
X216223Y56381D01*
X215283Y56505D01*
X209283D01*
X208343Y56381D01*
X207468Y56019D01*
X206715Y55441D01*
X206138Y54690D01*
X205776Y53814D01*
X205652Y52874D01*
X205776Y51934D01*
X206138Y51059D01*
X206715Y50306D01*
X207468Y49729D01*
X208343Y49367D01*
X209283Y49243D01*
X215283D01*
X216223Y49367D01*
X217098Y49729D01*
X217851Y50306D01*
X218428Y51059D01*
X218443Y51095D01*
X218943Y50995D01*
Y44753D01*
X218443Y44653D01*
X218428Y44690D01*
X217851Y45442D01*
X217098Y46019D01*
X216223Y46381D01*
X215283Y46505D01*
X209283D01*
X208343Y46381D01*
X207468Y46019D01*
X206715Y45442D01*
X206138Y44690D01*
X205776Y43814D01*
X205652Y42874D01*
X205776Y41934D01*
X206138Y41058D01*
X206715Y40306D01*
X207468Y39729D01*
X208343Y39367D01*
X209283Y39243D01*
X215283D01*
X216223Y39367D01*
X217098Y39729D01*
X217851Y40306D01*
X218428Y41058D01*
X218443Y41095D01*
X218943Y40995D01*
Y34753D01*
X218443Y34653D01*
X218428Y34690D01*
X217851Y35442D01*
X217098Y36019D01*
X216223Y36381D01*
X215283Y36505D01*
X209283D01*
X208343Y36381D01*
X207468Y36019D01*
X206715Y35442D01*
X206138Y34690D01*
X205776Y33814D01*
X205652Y32874D01*
X205776Y31934D01*
X206138Y31058D01*
X206715Y30307D01*
X207468Y29729D01*
X208343Y29367D01*
X209283Y29243D01*
X215283D01*
X216223Y29367D01*
X217098Y29729D01*
X217851Y30307D01*
X218428Y31058D01*
X218443Y31095D01*
X218943Y30995D01*
X218943Y11811D01*
Y11137D01*
X218767Y9801D01*
X218418Y8499D01*
X217902Y7254D01*
X217228Y6086D01*
X216408Y5017D01*
X215455Y4064D01*
X214385Y3244D01*
X213218Y2570D01*
X211973Y2054D01*
X210671Y1705D01*
X209335Y1529D01*
X11137D01*
X9801Y1705D01*
X8499Y2054D01*
X7254Y2570D01*
X6086Y3244D01*
X5017Y4064D01*
X4064Y5017D01*
X3244Y6086D01*
X2570Y7254D01*
X2054Y8499D01*
X1705Y9801D01*
X1529Y11137D01*
Y11811D01*
X1529Y255118D01*
X1529Y255792D01*
X1705Y257128D01*
X2054Y258430D01*
X2570Y259675D01*
X3244Y260842D01*
X4064Y261912D01*
X5017Y262865D01*
X6086Y263685D01*
X7254Y264359D01*
X8499Y264875D01*
X9801Y265224D01*
X11137Y265400D01*
X11811Y265400D01*
X208661Y265400D01*
D02*
G37*
%LPC*%
G36*
X145282Y255808D02*
Y254258D01*
X146832D01*
X146757Y254635D01*
X146317Y255293D01*
X145659Y255733D01*
X145282Y255808D01*
D02*
G37*
G36*
X144482D02*
X144105Y255733D01*
X143447Y255293D01*
X143007Y254635D01*
X142932Y254258D01*
X144482D01*
Y255808D01*
D02*
G37*
G36*
X146832Y253458D02*
X145282D01*
Y251908D01*
X145659Y251983D01*
X146317Y252423D01*
X146757Y253081D01*
X146832Y253458D01*
D02*
G37*
G36*
X144482D02*
X142932D01*
X143007Y253081D01*
X143447Y252423D01*
X144105Y251983D01*
X144482Y251908D01*
Y253458D01*
D02*
G37*
G36*
X151581Y246989D02*
Y245439D01*
X153131D01*
X153056Y245816D01*
X152616Y246474D01*
X151958Y246914D01*
X151581Y246989D01*
D02*
G37*
G36*
X150781D02*
X150404Y246914D01*
X149746Y246474D01*
X149306Y245816D01*
X149231Y245439D01*
X150781D01*
Y246989D01*
D02*
G37*
G36*
X153131Y244639D02*
X151581D01*
Y243089D01*
X151958Y243164D01*
X152616Y243604D01*
X153056Y244262D01*
X153131Y244639D01*
D02*
G37*
G36*
X150781D02*
X149231D01*
X149306Y244262D01*
X149746Y243604D01*
X150404Y243164D01*
X150781Y243089D01*
Y244639D01*
D02*
G37*
G36*
X137323Y241400D02*
X136546Y241245D01*
X135888Y240805D01*
X135448Y240147D01*
X135293Y239370D01*
X135411Y238778D01*
X127214Y230581D01*
X127012Y230278D01*
X126941Y229921D01*
Y226653D01*
X126439Y226317D01*
X125999Y225659D01*
X125845Y224882D01*
X125999Y224105D01*
X126439Y223447D01*
X127097Y223007D01*
X127874Y222852D01*
X128651Y223007D01*
X129309Y223447D01*
X129749Y224105D01*
X129903Y224882D01*
X129749Y225659D01*
X129309Y226317D01*
X128807Y226653D01*
Y229535D01*
X136731Y237458D01*
X137323Y237340D01*
X138100Y237495D01*
X138758Y237935D01*
X139198Y238593D01*
X139353Y239370D01*
X139198Y240147D01*
X138758Y240805D01*
X138100Y241245D01*
X137323Y241400D01*
D02*
G37*
G36*
X206692Y248663D02*
X205417Y248537D01*
X204190Y248165D01*
X203060Y247561D01*
X202070Y246748D01*
X201257Y245758D01*
X200653Y244628D01*
X200281Y243401D01*
X200155Y242126D01*
X200281Y240851D01*
X200653Y239624D01*
X201257Y238494D01*
X202070Y237504D01*
X203060Y236691D01*
X204190Y236087D01*
X205417Y235715D01*
X206692Y235589D01*
X207967Y235715D01*
X209194Y236087D01*
X210324Y236691D01*
X211314Y237504D01*
X212127Y238494D01*
X212731Y239624D01*
X213103Y240851D01*
X213229Y242126D01*
X213103Y243401D01*
X212731Y244628D01*
X212127Y245758D01*
X211314Y246748D01*
X210324Y247561D01*
X209194Y248165D01*
X207967Y248537D01*
X206692Y248663D01*
D02*
G37*
G36*
X13779D02*
X12504Y248537D01*
X11277Y248165D01*
X10147Y247561D01*
X9157Y246748D01*
X8344Y245758D01*
X7740Y244628D01*
X7368Y243401D01*
X7242Y242126D01*
X7368Y240851D01*
X7740Y239624D01*
X8344Y238494D01*
X9157Y237504D01*
X10147Y236691D01*
X11277Y236087D01*
X12504Y235715D01*
X13779Y235589D01*
X15054Y235715D01*
X16281Y236087D01*
X17411Y236691D01*
X18401Y237504D01*
X19214Y238494D01*
X19818Y239624D01*
X20190Y240851D01*
X20316Y242126D01*
X20190Y243401D01*
X19818Y244628D01*
X19214Y245758D01*
X18401Y246748D01*
X17411Y247561D01*
X16281Y248165D01*
X15054Y248537D01*
X13779Y248663D01*
D02*
G37*
G36*
X97638Y236361D02*
X96861Y236206D01*
X96203Y235766D01*
X95867Y235264D01*
X80630D01*
X80273Y235193D01*
X79970Y234991D01*
X76812Y231833D01*
X76220Y231950D01*
X75443Y231796D01*
X74785Y231356D01*
X74345Y230698D01*
X74190Y229921D01*
X74345Y229144D01*
X74785Y228486D01*
X75443Y228046D01*
X75924Y227950D01*
X76089Y227408D01*
X74101Y225420D01*
X73425Y225555D01*
X72610Y225393D01*
X71919Y224931D01*
X71457Y224240D01*
X71295Y223425D01*
X71395Y222923D01*
X70974Y222502D01*
X70872Y222522D01*
Y220872D01*
X72522D01*
X72502Y220974D01*
X72923Y221395D01*
X73425Y221295D01*
X74240Y221457D01*
X74931Y221919D01*
X75393Y222610D01*
X75555Y223425D01*
X75420Y224101D01*
X81685Y230366D01*
X91615D01*
X91998Y229793D01*
X92689Y229331D01*
X93504Y229169D01*
X94319Y229331D01*
X95010Y229793D01*
X95472Y230484D01*
X95634Y231299D01*
X95472Y232114D01*
X95010Y232805D01*
X94871Y232898D01*
X95023Y233398D01*
X95867D01*
X96203Y232896D01*
X96861Y232456D01*
X97638Y232301D01*
X98415Y232456D01*
X99073Y232896D01*
X99513Y233554D01*
X99668Y234331D01*
X99513Y235108D01*
X99073Y235766D01*
X98415Y236206D01*
X97638Y236361D01*
D02*
G37*
G36*
X66935Y230593D02*
Y228943D01*
X68585D01*
X68503Y229358D01*
X68041Y230049D01*
X67350Y230511D01*
X66935Y230593D01*
D02*
G37*
G36*
X66135D02*
X65720Y230511D01*
X65029Y230049D01*
X64567Y229358D01*
X64485Y228943D01*
X66135D01*
Y230593D01*
D02*
G37*
G36*
X68585Y228143D02*
X66935D01*
Y226493D01*
X67350Y226575D01*
X68041Y227037D01*
X68503Y227728D01*
X68585Y228143D01*
D02*
G37*
G36*
X66135D02*
X64485D01*
X64567Y227728D01*
X65029Y227037D01*
X65720Y226575D01*
X66135Y226493D01*
Y228143D01*
D02*
G37*
G36*
X103589Y224491D02*
Y222841D01*
X105239D01*
X105157Y223256D01*
X104695Y223947D01*
X104004Y224409D01*
X103589Y224491D01*
D02*
G37*
G36*
X102789D02*
X102374Y224409D01*
X101683Y223947D01*
X101221Y223256D01*
X101139Y222841D01*
X102789D01*
Y224491D01*
D02*
G37*
G36*
X70072Y222522D02*
X69657Y222440D01*
X68966Y221978D01*
X68504Y221287D01*
X68422Y220872D01*
X70072D01*
Y222522D01*
D02*
G37*
G36*
X105239Y222041D02*
X103589D01*
Y220391D01*
X104004Y220473D01*
X104695Y220935D01*
X105157Y221626D01*
X105239Y222041D01*
D02*
G37*
G36*
X102789D02*
X101139D01*
X101221Y221626D01*
X101683Y220935D01*
X102374Y220473D01*
X102789Y220391D01*
Y222041D01*
D02*
G37*
G36*
X10579Y226553D02*
X6979D01*
X5179Y224753D01*
Y221153D01*
X6979Y219353D01*
X10579D01*
X12379Y221153D01*
Y224753D01*
X10579Y226553D01*
D02*
G37*
G36*
X72522Y220072D02*
X70872D01*
Y218422D01*
X71287Y218504D01*
X71978Y218966D01*
X72440Y219657D01*
X72522Y220072D01*
D02*
G37*
G36*
X70072D02*
X68422D01*
X68504Y219657D01*
X68966Y218966D01*
X69657Y218504D01*
X70072Y218422D01*
Y220072D01*
D02*
G37*
G36*
X75243Y211617D02*
Y209967D01*
X76893D01*
X76811Y210382D01*
X76349Y211073D01*
X75658Y211535D01*
X75243Y211617D01*
D02*
G37*
G36*
X74443D02*
X74028Y211535D01*
X73337Y211073D01*
X72875Y210382D01*
X72793Y209967D01*
X74443D01*
Y211617D01*
D02*
G37*
G36*
X20579Y216553D02*
X16979D01*
X15179Y214753D01*
Y211153D01*
X16979Y209353D01*
X20579D01*
X22379Y211153D01*
Y214753D01*
X20579Y216553D01*
D02*
G37*
G36*
X10579D02*
X6979D01*
X5179Y214753D01*
Y211153D01*
X6979Y209353D01*
X10579D01*
X12379Y211153D01*
Y214753D01*
X10579Y216553D01*
D02*
G37*
G36*
X76893Y209167D02*
X75243D01*
Y207517D01*
X75658Y207599D01*
X76349Y208061D01*
X76811Y208752D01*
X76893Y209167D01*
D02*
G37*
G36*
X74443D02*
X72793D01*
X72875Y208752D01*
X73337Y208061D01*
X74028Y207599D01*
X74443Y207517D01*
Y209167D01*
D02*
G37*
G36*
X97756Y210437D02*
X96941Y210275D01*
X96250Y209813D01*
X95788Y209122D01*
X95660Y208475D01*
X92842Y205657D01*
X37080D01*
X35460Y207277D01*
X35595Y207953D01*
X35433Y208768D01*
X34971Y209459D01*
X34280Y209921D01*
X33465Y210083D01*
X32650Y209921D01*
X31959Y209459D01*
X31497Y208768D01*
X31335Y207953D01*
X31497Y207138D01*
X31959Y206447D01*
X31972Y206438D01*
X31877Y205901D01*
X31321Y205529D01*
X30881Y204871D01*
X30806Y204494D01*
X32756D01*
Y203694D01*
X30806D01*
X30881Y203317D01*
X31321Y202659D01*
X31979Y202219D01*
X32756Y202064D01*
X32832Y201578D01*
X32020Y201417D01*
X31329Y200955D01*
X30867Y200264D01*
X30705Y199449D01*
X30867Y198634D01*
X31329Y197943D01*
X32020Y197481D01*
X32835Y197319D01*
X33650Y197481D01*
X34341Y197943D01*
X34803Y198634D01*
X34965Y199449D01*
X34830Y200125D01*
X37237Y202532D01*
X92212D01*
X95797Y198946D01*
X96100Y198744D01*
X96457Y198673D01*
X96497D01*
X96880Y198100D01*
X97571Y197638D01*
X98386Y197476D01*
X99201Y197638D01*
X99892Y198100D01*
X100354Y198791D01*
X100516Y199606D01*
X100354Y200421D01*
X99892Y201112D01*
X99201Y201574D01*
X99153Y201583D01*
Y202093D01*
X99319Y202126D01*
X100010Y202588D01*
X100472Y203279D01*
X100554Y203694D01*
X98504D01*
Y204494D01*
X100554D01*
X100472Y204909D01*
X100010Y205600D01*
X99319Y206062D01*
X99116Y206102D01*
X99011Y206633D01*
X99262Y206801D01*
X99724Y207492D01*
X99886Y208307D01*
X99724Y209122D01*
X99262Y209813D01*
X98571Y210275D01*
X97756Y210437D01*
D02*
G37*
G36*
X20579Y206553D02*
X16979D01*
X15179Y204753D01*
Y201153D01*
X16979Y199353D01*
X20579D01*
X22379Y201153D01*
Y204753D01*
X20579Y206553D01*
D02*
G37*
G36*
X10579D02*
X6979D01*
X5179Y204753D01*
Y201153D01*
X6979Y199353D01*
X10579D01*
X12379Y201153D01*
Y204753D01*
X10579Y206553D01*
D02*
G37*
G36*
X20579Y196553D02*
X16979D01*
X15179Y194753D01*
Y191153D01*
X16979Y189353D01*
X20579D01*
X22379Y191153D01*
Y194753D01*
X20579Y196553D01*
D02*
G37*
G36*
X54967Y189609D02*
Y187959D01*
X56617D01*
X56535Y188374D01*
X56073Y189065D01*
X55382Y189527D01*
X54967Y189609D01*
D02*
G37*
G36*
X54167D02*
X53752Y189527D01*
X53061Y189065D01*
X52599Y188374D01*
X52517Y187959D01*
X54167D01*
Y189609D01*
D02*
G37*
G36*
X56617Y187159D02*
X54967D01*
Y185509D01*
X55382Y185591D01*
X56073Y186053D01*
X56535Y186744D01*
X56617Y187159D01*
D02*
G37*
G36*
X54167D02*
X52517D01*
X52599Y186744D01*
X53061Y186053D01*
X53752Y185591D01*
X54167Y185509D01*
Y187159D01*
D02*
G37*
G36*
X121181Y220800D02*
X120352Y220691D01*
X119580Y220371D01*
X118917Y219862D01*
X118408Y219199D01*
X118088Y218427D01*
X117979Y217598D01*
X118088Y216769D01*
X118335Y216171D01*
X118082Y215669D01*
X116448Y215656D01*
X116224Y215561D01*
X115999Y215471D01*
X115998Y215467D01*
X115994Y215466D01*
X115994Y215466D01*
X115993Y215463D01*
X115990Y215462D01*
X115899Y215238D01*
X115804Y215014D01*
X115454Y184859D01*
X115525Y184680D01*
X115519Y184622D01*
X115559Y184571D01*
X115594Y184448D01*
X115634Y184398D01*
X115775Y183866D01*
X114259Y182350D01*
X104126D01*
X102030Y184447D01*
X102147Y185039D01*
X101993Y185816D01*
X101553Y186474D01*
X100895Y186914D01*
X100118Y187068D01*
X99341Y186914D01*
X98683Y186474D01*
X98243Y185816D01*
X98089Y185039D01*
X98243Y184262D01*
X98359Y184088D01*
X96348Y182077D01*
X96244Y181920D01*
X96146Y181774D01*
X96146Y181774D01*
X96146Y181774D01*
X96110Y181594D01*
X96075Y181417D01*
Y178898D01*
X96146Y178541D01*
X96348Y178238D01*
X96921Y177666D01*
X96674Y177205D01*
X96463Y177247D01*
Y175597D01*
X98113D01*
X98071Y175808D01*
X98532Y176055D01*
X104894Y169693D01*
Y146772D01*
X104965Y146415D01*
X105167Y146112D01*
X105805Y145474D01*
X105687Y144882D01*
X105842Y144105D01*
X106282Y143447D01*
X106940Y143007D01*
X107717Y142852D01*
X108494Y143007D01*
X109152Y143447D01*
X109592Y144105D01*
X109747Y144882D01*
X109592Y145659D01*
X109152Y146317D01*
X108494Y146757D01*
X107717Y146912D01*
X107125Y146794D01*
X106760Y147158D01*
Y170079D01*
X106689Y170436D01*
X106487Y170739D01*
X97941Y179284D01*
Y180864D01*
X98313Y181198D01*
X98676Y180684D01*
X98618Y180394D01*
X98780Y179579D01*
X99242Y178888D01*
X99933Y178426D01*
X100748Y178264D01*
X101563Y178426D01*
X101816Y178595D01*
X117914D01*
X118250Y178093D01*
X118908Y177653D01*
X119286Y177578D01*
Y177068D01*
X118908Y176993D01*
X118250Y176553D01*
X117914Y176051D01*
X108122D01*
X107923Y176349D01*
X107232Y176811D01*
X106417Y176973D01*
X105602Y176811D01*
X104911Y176349D01*
X104449Y175658D01*
X104287Y174843D01*
X104449Y174028D01*
X104911Y173337D01*
X105602Y172875D01*
X106417Y172713D01*
X107232Y172875D01*
X107923Y173337D01*
X108385Y174028D01*
X108416Y174185D01*
X117914D01*
X118250Y173683D01*
X118908Y173243D01*
X119685Y173089D01*
X120462Y173243D01*
X121120Y173683D01*
X121560Y174341D01*
X121714Y175118D01*
X121560Y175895D01*
X121120Y176553D01*
X120462Y176993D01*
X120084Y177068D01*
Y177578D01*
X120462Y177653D01*
X121120Y178093D01*
X121560Y178751D01*
X121714Y179528D01*
X121560Y180305D01*
X121120Y180963D01*
X120616Y181300D01*
X120698Y181826D01*
X121336Y182253D01*
X121746Y182498D01*
X121948Y182418D01*
X122140Y182316D01*
X122174Y182327D01*
X122207Y182314D01*
X171642Y182891D01*
X171872Y182990D01*
X172097Y183085D01*
X172098Y183085D01*
X172098Y183086D01*
X172099Y183087D01*
X172192Y183318D01*
X172284Y183546D01*
X172284Y183548D01*
X172284Y183548D01*
X172284Y183548D01*
X171993Y215458D01*
X171993Y215458D01*
X171993Y215458D01*
X171993Y215458D01*
X171896Y215686D01*
X171799Y215915D01*
X171799Y215915D01*
X171799Y215916D01*
X171797Y215917D01*
X171567Y216009D01*
X171338Y216102D01*
X124331Y215720D01*
X124046Y216218D01*
X124274Y216769D01*
X124383Y217598D01*
X124274Y218427D01*
X123954Y219199D01*
X123445Y219862D01*
X122782Y220371D01*
X122010Y220691D01*
X121181Y220800D01*
D02*
G37*
G36*
X54173Y183447D02*
X53396Y183292D01*
X52738Y182852D01*
X52298Y182194D01*
X52144Y181417D01*
X52261Y180825D01*
X49734Y178298D01*
X49532Y177995D01*
X49461Y177638D01*
Y173110D01*
X48959Y172774D01*
X48519Y172116D01*
X48364Y171339D01*
X48519Y170562D01*
X48959Y169904D01*
X49617Y169464D01*
X50394Y169309D01*
X51171Y169464D01*
X51829Y169904D01*
X52269Y170562D01*
X52424Y171339D01*
X52269Y172116D01*
X51829Y172774D01*
X51327Y173110D01*
Y177252D01*
X53581Y179505D01*
X54173Y179387D01*
X54950Y179542D01*
X55608Y179982D01*
X56048Y180640D01*
X56203Y181417D01*
X56048Y182194D01*
X55608Y182852D01*
X54950Y183292D01*
X54173Y183447D01*
D02*
G37*
G36*
X20579Y186553D02*
X16979D01*
X15179Y184753D01*
Y181153D01*
X16979Y179353D01*
X20579D01*
X22379Y181153D01*
Y184753D01*
X20579Y186553D01*
D02*
G37*
G36*
X10579D02*
X6979D01*
X5179Y184753D01*
Y181153D01*
X6979Y179353D01*
X10579D01*
X12379Y181153D01*
Y184753D01*
X10579Y186553D01*
D02*
G37*
G36*
X74764Y183154D02*
X73949Y182992D01*
X73258Y182530D01*
X72796Y181839D01*
X72634Y181024D01*
X72796Y180209D01*
X73113Y179734D01*
X72813Y179284D01*
X72362Y179374D01*
X71547Y179212D01*
X70856Y178750D01*
X70394Y178059D01*
X70232Y177244D01*
X70394Y176429D01*
X70856Y175738D01*
X71547Y175276D01*
X72362Y175114D01*
X73039Y175249D01*
X73398Y174889D01*
Y166299D01*
X73469Y165942D01*
X73671Y165639D01*
X78791Y160520D01*
Y156996D01*
X75367Y153572D01*
X41206D01*
X40876Y154065D01*
X40185Y154527D01*
X39370Y154689D01*
X38555Y154527D01*
X37864Y154065D01*
X37402Y153374D01*
X37240Y152559D01*
X37402Y151744D01*
X37864Y151053D01*
X38555Y150591D01*
X39370Y150429D01*
X40185Y150591D01*
X40876Y151053D01*
X41206Y151546D01*
X75787D01*
X76175Y151623D01*
X76503Y151843D01*
X80260Y155599D01*
X80760Y155392D01*
Y150235D01*
X80187Y149852D01*
X79725Y149161D01*
X79563Y148346D01*
X79725Y147531D01*
X80187Y146840D01*
X80760Y146457D01*
Y144449D01*
X80831Y144092D01*
X81033Y143789D01*
X82217Y142606D01*
Y119441D01*
X81230Y118455D01*
X81028Y118152D01*
X80957Y117795D01*
Y115173D01*
X80878Y115157D01*
X80187Y114695D01*
X80025Y114453D01*
X79424D01*
X79262Y114695D01*
X78571Y115157D01*
X77756Y115319D01*
X76941Y115157D01*
X76250Y114695D01*
X75867Y114122D01*
X43418D01*
X40618Y116921D01*
Y139069D01*
X40876Y139242D01*
X41338Y139933D01*
X41500Y140748D01*
X41338Y141563D01*
X40876Y142254D01*
X40185Y142716D01*
X39370Y142878D01*
X38555Y142716D01*
X37864Y142254D01*
X37402Y141563D01*
X37240Y140748D01*
X37402Y139933D01*
X37864Y139242D01*
X38555Y138780D01*
X38752Y138741D01*
Y118038D01*
X38252Y117831D01*
X37705Y118379D01*
X37839Y119055D01*
X37677Y119870D01*
X37215Y120561D01*
X36524Y121023D01*
X35709Y121185D01*
X34894Y121023D01*
X34203Y120561D01*
X33741Y119870D01*
X33579Y119055D01*
X33741Y118240D01*
X34047Y117783D01*
X34044Y117745D01*
X33800Y117262D01*
X33239Y117151D01*
X32581Y116711D01*
X32141Y116053D01*
X32066Y115676D01*
X34016D01*
Y114876D01*
X32066D01*
X32141Y114499D01*
X32581Y113841D01*
X33239Y113401D01*
X34016Y113247D01*
X34193Y113282D01*
X34388Y112811D01*
X34203Y112687D01*
X33741Y111996D01*
X33579Y111181D01*
X33741Y110366D01*
X34203Y109675D01*
X34894Y109213D01*
X35709Y109051D01*
X36384Y109185D01*
X36623Y108947D01*
X36623Y108947D01*
X36623Y108946D01*
X36781Y108841D01*
X36926Y108744D01*
X36926Y108744D01*
X36926Y108744D01*
X37102Y108709D01*
X37283Y108673D01*
X37283Y108673D01*
X37283Y108673D01*
X60086D01*
X61703Y107057D01*
X61853Y106957D01*
X62005Y106855D01*
X62005Y106855D01*
X62005Y106855D01*
X62188Y106819D01*
X62362Y106784D01*
X94646D01*
X95003Y106855D01*
X95306Y107057D01*
X95584Y107335D01*
X96260Y107201D01*
X97075Y107363D01*
X97766Y107825D01*
X98228Y108516D01*
X98390Y109331D01*
X98228Y110146D01*
X98093Y110347D01*
X98394Y110797D01*
X98465Y110783D01*
X99280Y110945D01*
X99971Y111407D01*
X100433Y112098D01*
X100515Y112513D01*
X96415D01*
X96497Y112098D01*
X96632Y111897D01*
X96331Y111447D01*
X96260Y111461D01*
X95445Y111299D01*
X94754Y110837D01*
X94292Y110146D01*
X94130Y109331D01*
X94166Y109150D01*
X93756Y108650D01*
X91096D01*
X90904Y109112D01*
X96723Y114931D01*
X96807Y115057D01*
X96925Y115234D01*
X96925Y115234D01*
X96925Y115234D01*
X96961Y115414D01*
X96996Y115591D01*
Y116694D01*
X97569Y117077D01*
X98031Y117768D01*
X98193Y118583D01*
X98031Y119398D01*
X97569Y120089D01*
X96878Y120551D01*
X96063Y120713D01*
X95248Y120551D01*
X94557Y120089D01*
X94095Y119398D01*
X93933Y118583D01*
X94095Y117768D01*
X94557Y117077D01*
X95130Y116694D01*
Y115977D01*
X89062Y109909D01*
X63378D01*
X61762Y111526D01*
X61459Y111728D01*
X61317Y111756D01*
X61367Y112256D01*
X75867D01*
X76250Y111683D01*
X76941Y111221D01*
X77756Y111059D01*
X78571Y111221D01*
X79262Y111683D01*
X79424Y111925D01*
X80025D01*
X80187Y111683D01*
X80878Y111221D01*
X81693Y111059D01*
X82508Y111221D01*
X83199Y111683D01*
X83661Y112374D01*
X83823Y113189D01*
X83723Y113691D01*
X84144Y114112D01*
X84646Y114012D01*
X85146Y114112D01*
X85568Y113690D01*
X85468Y113189D01*
X85630Y112374D01*
X86092Y111683D01*
X86783Y111221D01*
X87598Y111059D01*
X88413Y111221D01*
X89104Y111683D01*
X89566Y112374D01*
X89728Y113189D01*
X89566Y114004D01*
X89122Y114668D01*
Y116535D01*
X89051Y116892D01*
X88849Y117195D01*
X87232Y118811D01*
Y139457D01*
X88258Y140482D01*
X88455Y140777D01*
X89104Y141211D01*
X89566Y141902D01*
X89728Y142717D01*
X89566Y143532D01*
X89104Y144223D01*
X88531Y144606D01*
Y149882D01*
X88460Y150239D01*
X88258Y150542D01*
X85342Y153457D01*
Y162520D01*
X85271Y162877D01*
X85069Y163180D01*
X80933Y167315D01*
Y175011D01*
X81299Y175311D01*
X82114Y175473D01*
X82805Y175935D01*
X83267Y176626D01*
X83429Y177441D01*
X83267Y178256D01*
X82805Y178947D01*
X82114Y179409D01*
X81299Y179571D01*
X81190Y179549D01*
X80913Y179965D01*
X80944Y180012D01*
X81106Y180827D01*
X80944Y181642D01*
X80482Y182333D01*
X79791Y182795D01*
X78976Y182957D01*
X78161Y182795D01*
X77470Y182333D01*
X77214Y181949D01*
X77099Y181923D01*
X76635Y181984D01*
X76270Y182530D01*
X75579Y182992D01*
X74764Y183154D01*
D02*
G37*
G36*
X95663Y177247D02*
X95248Y177165D01*
X94557Y176703D01*
X94095Y176012D01*
X94013Y175597D01*
X95663D01*
Y177247D01*
D02*
G37*
G36*
X98113Y174797D02*
X96463D01*
Y173147D01*
X96878Y173229D01*
X97569Y173691D01*
X98031Y174382D01*
X98113Y174797D01*
D02*
G37*
G36*
X95663D02*
X94013D01*
X94095Y174382D01*
X94557Y173691D01*
X95248Y173229D01*
X95663Y173147D01*
Y174797D01*
D02*
G37*
G36*
X20579Y176553D02*
X16979D01*
X15179Y174753D01*
Y171153D01*
X16979Y169353D01*
X20579D01*
X22379Y171153D01*
Y174753D01*
X20579Y176553D01*
D02*
G37*
G36*
X132283Y172739D02*
X131506Y172584D01*
X130848Y172144D01*
X130408Y171486D01*
X130254Y170709D01*
X130408Y169932D01*
X130848Y169274D01*
X130862Y169264D01*
X130911Y168767D01*
X126576Y164432D01*
X125984Y164550D01*
X125207Y164395D01*
X124549Y163955D01*
X124109Y163297D01*
X123954Y162520D01*
X124109Y161743D01*
X124549Y161085D01*
X125207Y160645D01*
X125984Y160491D01*
X126761Y160645D01*
X127419Y161085D01*
X127859Y161743D01*
X128014Y162520D01*
X127896Y163112D01*
X132943Y168159D01*
X133145Y168462D01*
X133216Y168819D01*
Y168938D01*
X133718Y169274D01*
X134158Y169932D01*
X134312Y170709D01*
X134158Y171486D01*
X133718Y172144D01*
X133060Y172584D01*
X132283Y172739D01*
D02*
G37*
G36*
X70872Y165082D02*
Y163432D01*
X72522D01*
X72440Y163847D01*
X71978Y164538D01*
X71287Y165000D01*
X70872Y165082D01*
D02*
G37*
G36*
X70072D02*
X69657Y165000D01*
X68966Y164538D01*
X68504Y163847D01*
X68422Y163432D01*
X70072D01*
Y165082D01*
D02*
G37*
G36*
X72522Y162632D02*
X70872D01*
Y160982D01*
X71287Y161064D01*
X71978Y161526D01*
X72440Y162217D01*
X72522Y162632D01*
D02*
G37*
G36*
X70072D02*
X68422D01*
X68504Y162217D01*
X68966Y161526D01*
X69657Y161064D01*
X70072Y160982D01*
Y162632D01*
D02*
G37*
G36*
X20579Y166553D02*
X16979D01*
X15179Y164753D01*
Y161153D01*
X16979Y159353D01*
X20579D01*
X22379Y161153D01*
Y164753D01*
X20579Y166553D01*
D02*
G37*
G36*
X10579D02*
X6979D01*
X5179Y164753D01*
Y161153D01*
X6979Y159353D01*
X10579D01*
X12379Y161153D01*
Y164753D01*
X10579Y166553D01*
D02*
G37*
G36*
X170258Y154814D02*
X170254Y154812D01*
X170249Y154813D01*
X116377Y153698D01*
X116155Y153601D01*
X115931Y153508D01*
X115928Y153501D01*
X115921Y153498D01*
X115833Y153272D01*
X115741Y153049D01*
Y127728D01*
X115279Y127537D01*
X111195Y131620D01*
X111249Y131890D01*
X111172Y132278D01*
X110952Y132606D01*
X110624Y132826D01*
X110236Y132903D01*
X97899D01*
X97569Y133396D01*
X96878Y133858D01*
X96063Y134020D01*
X95248Y133858D01*
X94557Y133396D01*
X94095Y132705D01*
X93933Y131890D01*
X94020Y131450D01*
X93595Y131025D01*
X93386Y131067D01*
X92571Y130905D01*
X91880Y130443D01*
X91418Y129752D01*
X91256Y128937D01*
X91418Y128122D01*
X91880Y127431D01*
X92571Y126969D01*
X93386Y126807D01*
X94201Y126969D01*
X94892Y127431D01*
X95222Y127924D01*
X109523D01*
X109576Y127844D01*
X119663Y117757D01*
X119545Y117165D01*
X119700Y116388D01*
X120140Y115730D01*
X120798Y115290D01*
X121575Y115136D01*
X122352Y115290D01*
X123010Y115730D01*
X123450Y116388D01*
X123605Y117165D01*
X123549Y117445D01*
X123959Y117945D01*
X170418D01*
X170646Y118039D01*
X170875Y118132D01*
X170876Y118134D01*
X170877Y118135D01*
X170972Y118362D01*
X171068Y118590D01*
X171268Y153809D01*
X171267Y153814D01*
X171268Y153818D01*
X171173Y154043D01*
X171081Y154270D01*
X171076Y154272D01*
X171075Y154276D01*
X170718Y154627D01*
X170714Y154629D01*
X170712Y154633D01*
X170485Y154722D01*
X170258Y154814D01*
D02*
G37*
G36*
X121181Y160761D02*
X120352Y160652D01*
X119580Y160332D01*
X118917Y159823D01*
X118408Y159160D01*
X118088Y158388D01*
X117979Y157559D01*
X118088Y156730D01*
X118408Y155958D01*
X118917Y155295D01*
X119580Y154786D01*
X120352Y154466D01*
X121181Y154357D01*
X122010Y154466D01*
X122782Y154786D01*
X123445Y155295D01*
X123954Y155958D01*
X124274Y156730D01*
X124383Y157559D01*
X124274Y158388D01*
X123954Y159160D01*
X123445Y159823D01*
X122782Y160332D01*
X122010Y160652D01*
X121181Y160761D01*
D02*
G37*
G36*
X10579Y156553D02*
X6979D01*
X5179Y154753D01*
Y151153D01*
X6979Y149353D01*
X10579D01*
X12379Y151153D01*
Y154753D01*
X10579Y156553D01*
D02*
G37*
G36*
X103943Y143113D02*
Y141463D01*
X105593D01*
X105511Y141878D01*
X105049Y142569D01*
X104358Y143031D01*
X103943Y143113D01*
D02*
G37*
G36*
X103143D02*
X102728Y143031D01*
X102037Y142569D01*
X101575Y141878D01*
X101493Y141463D01*
X103143D01*
Y143113D01*
D02*
G37*
G36*
X20579Y146553D02*
X16979D01*
X15179Y144753D01*
Y141153D01*
X16979Y139353D01*
X20579D01*
X22379Y141153D01*
Y144753D01*
X20579Y146553D01*
D02*
G37*
G36*
X10579D02*
X6979D01*
X5179Y144753D01*
Y141153D01*
X6979Y139353D01*
X10579D01*
X12379Y141153D01*
Y144753D01*
X10579Y146553D01*
D02*
G37*
G36*
X105593Y140663D02*
X103943D01*
Y139013D01*
X104358Y139095D01*
X105049Y139557D01*
X105511Y140248D01*
X105593Y140663D01*
D02*
G37*
G36*
X103143D02*
X101493D01*
X101575Y140248D01*
X102037Y139557D01*
X102728Y139095D01*
X103143Y139013D01*
Y140663D01*
D02*
G37*
G36*
X67014Y137877D02*
Y136227D01*
X68664D01*
X68582Y136642D01*
X68120Y137333D01*
X67429Y137795D01*
X67014Y137877D01*
D02*
G37*
G36*
X66214D02*
X65799Y137795D01*
X65108Y137333D01*
X64646Y136642D01*
X64564Y136227D01*
X66214D01*
Y137877D01*
D02*
G37*
G36*
X68664Y135427D02*
X67014D01*
Y133777D01*
X67429Y133859D01*
X68120Y134321D01*
X68582Y135012D01*
X68664Y135427D01*
D02*
G37*
G36*
X66214D02*
X64564D01*
X64646Y135012D01*
X65108Y134321D01*
X65799Y133859D01*
X66214Y133777D01*
Y135427D01*
D02*
G37*
G36*
X20579Y136553D02*
X16979D01*
X15179Y134753D01*
Y131153D01*
X16979Y129353D01*
X20579D01*
X22379Y131153D01*
Y134753D01*
X20579Y136553D01*
D02*
G37*
G36*
X10579D02*
X6979D01*
X5179Y134753D01*
Y131153D01*
X6979Y129353D01*
X10579D01*
X12379Y131153D01*
Y134753D01*
X10579Y136553D01*
D02*
G37*
G36*
X20579Y126553D02*
X16979D01*
X15179Y124753D01*
Y121153D01*
X16979Y119353D01*
X20579D01*
X22379Y121153D01*
Y124753D01*
X20579Y126553D01*
D02*
G37*
G36*
X98865Y114963D02*
Y113313D01*
X100515D01*
X100433Y113728D01*
X99971Y114419D01*
X99280Y114881D01*
X98865Y114963D01*
D02*
G37*
G36*
X98065D02*
X97650Y114881D01*
X96959Y114419D01*
X96497Y113728D01*
X96415Y113313D01*
X98065D01*
Y114963D01*
D02*
G37*
G36*
X133543Y116675D02*
X132766Y116521D01*
X132108Y116081D01*
X131668Y115423D01*
X131514Y114646D01*
X131631Y114053D01*
X128474Y110896D01*
X128374Y110745D01*
X128272Y110593D01*
X128272Y110593D01*
X128272Y110593D01*
X128240Y110431D01*
X128201Y110236D01*
Y106968D01*
X127699Y106632D01*
X127259Y105974D01*
X127104Y105197D01*
X127259Y104420D01*
X127699Y103762D01*
X128357Y103322D01*
X129134Y103167D01*
X129911Y103322D01*
X130569Y103762D01*
X131009Y104420D01*
X131164Y105197D01*
X131009Y105974D01*
X130569Y106632D01*
X130067Y106968D01*
Y109850D01*
X132951Y112734D01*
X133543Y112617D01*
X134320Y112771D01*
X134978Y113211D01*
X135418Y113869D01*
X135573Y114646D01*
X135418Y115423D01*
X134978Y116081D01*
X134320Y116521D01*
X133543Y116675D01*
D02*
G37*
G36*
X25197Y158249D02*
X24420Y158095D01*
X23762Y157655D01*
X23322Y156997D01*
X23167Y156220D01*
X23322Y155443D01*
X23762Y154785D01*
X24264Y154449D01*
Y113897D01*
X23762Y113561D01*
X23322Y112903D01*
X23167Y112126D01*
X23322Y111349D01*
X23762Y110691D01*
X24420Y110251D01*
X25197Y110097D01*
X25974Y110251D01*
X26632Y110691D01*
X27072Y111349D01*
X27226Y112126D01*
X27072Y112903D01*
X26632Y113561D01*
X26130Y113897D01*
Y154449D01*
X26632Y154785D01*
X27072Y155443D01*
X27226Y156220D01*
X27072Y156997D01*
X26632Y157655D01*
X25974Y158095D01*
X25197Y158249D01*
D02*
G37*
G36*
X20579Y116553D02*
X16979D01*
X15179Y114753D01*
Y111153D01*
X16979Y109353D01*
X20579D01*
X22379Y111153D01*
Y114753D01*
X20579Y116553D01*
D02*
G37*
G36*
X10579D02*
X6979D01*
X5179Y114753D01*
Y111153D01*
X6979Y109353D01*
X10579D01*
X12379Y111153D01*
Y114753D01*
X10579Y116553D01*
D02*
G37*
G36*
X20579Y106553D02*
X16979D01*
X15179Y104753D01*
Y101153D01*
X16979Y99353D01*
X20579D01*
X22379Y101153D01*
Y104753D01*
X20579Y106553D01*
D02*
G37*
G36*
X10579D02*
X6979D01*
X5179Y104753D01*
Y101153D01*
X6979Y99353D01*
X10579D01*
X12379Y101153D01*
Y104753D01*
X10579Y106553D01*
D02*
G37*
G36*
X72250Y96538D02*
Y94888D01*
X73900D01*
X73818Y95303D01*
X73356Y95994D01*
X72665Y96456D01*
X72250Y96538D01*
D02*
G37*
G36*
X71450D02*
X71035Y96456D01*
X70344Y95994D01*
X69882Y95303D01*
X69800Y94888D01*
X71450D01*
Y96538D01*
D02*
G37*
G36*
X105827Y124234D02*
X105050Y124080D01*
X104392Y123640D01*
X103952Y122982D01*
X103797Y122205D01*
X103952Y121428D01*
X104392Y120770D01*
X104894Y120434D01*
Y96685D01*
X102107Y93899D01*
X101610Y93948D01*
X101553Y94033D01*
X100895Y94473D01*
X100118Y94627D01*
X99341Y94473D01*
X98683Y94033D01*
X98243Y93375D01*
X98089Y92598D01*
X98243Y91821D01*
X98683Y91163D01*
X99341Y90723D01*
X99408Y90200D01*
X99242Y90089D01*
X98780Y89398D01*
X98618Y88583D01*
X98780Y87768D01*
X99242Y87077D01*
X99933Y86615D01*
X100748Y86453D01*
X101563Y86615D01*
X102254Y87077D01*
X102374Y87256D01*
X107960D01*
X110563Y84653D01*
Y81167D01*
X110063Y80959D01*
X107825Y83198D01*
X107917Y83661D01*
X107755Y84476D01*
X107293Y85167D01*
X106602Y85629D01*
X105787Y85791D01*
X104972Y85629D01*
X104281Y85167D01*
X103819Y84476D01*
X103657Y83661D01*
X103819Y82846D01*
X104281Y82155D01*
X104972Y81693D01*
X105787Y81531D01*
X106250Y81623D01*
X108791Y79082D01*
Y67913D01*
X108862Y67556D01*
X109064Y67253D01*
X118403Y57915D01*
X118286Y57323D01*
X118440Y56546D01*
X118880Y55888D01*
X119538Y55448D01*
X120315Y55294D01*
X121092Y55448D01*
X121750Y55888D01*
X122190Y56546D01*
X122345Y57323D01*
X122190Y58100D01*
X121750Y58758D01*
X121092Y59198D01*
X120717Y59273D01*
Y59782D01*
X121092Y59857D01*
X121750Y60297D01*
X122190Y60955D01*
X122345Y61732D01*
X122226Y62327D01*
X122533Y62827D01*
X169791D01*
X170250Y63017D01*
X170440Y63476D01*
Y95229D01*
X170440Y95231D01*
X170440Y95233D01*
X170345Y95460D01*
X170250Y95688D01*
X170248Y95689D01*
X170248Y95691D01*
X169892Y96042D01*
X169890Y96043D01*
X169889Y96045D01*
X169660Y96137D01*
X169432Y96230D01*
X169430Y96229D01*
X169428Y96230D01*
X123949Y95720D01*
X123700Y96217D01*
X123954Y96549D01*
X124274Y97321D01*
X124383Y98150D01*
X124274Y98979D01*
X123954Y99751D01*
X123445Y100414D01*
X122782Y100923D01*
X122010Y101243D01*
X121181Y101352D01*
X120352Y101243D01*
X119580Y100923D01*
X118917Y100414D01*
X118408Y99751D01*
X118088Y98979D01*
X117979Y98150D01*
X118088Y97321D01*
X118408Y96549D01*
X118705Y96161D01*
X118461Y95658D01*
X116107Y95632D01*
X115881Y95535D01*
X115655Y95442D01*
X115653Y95438D01*
X115650Y95437D01*
X115558Y95209D01*
X115465Y94982D01*
Y66665D01*
X115003Y66474D01*
X112429Y69047D01*
Y85039D01*
X112358Y85396D01*
X112156Y85699D01*
X109006Y88849D01*
X108703Y89051D01*
X108346Y89122D01*
X102771D01*
X102716Y89398D01*
X102254Y90089D01*
X101563Y90551D01*
X101543Y90555D01*
X101437Y91086D01*
X101553Y91163D01*
X101888Y91665D01*
X102125Y91665D01*
X102482Y91736D01*
X102784Y91938D01*
X106487Y95639D01*
X106487Y95639D01*
X106487Y95639D01*
X106593Y95799D01*
X106689Y95942D01*
X106689Y95942D01*
X106689Y95942D01*
X106721Y96105D01*
X106760Y96299D01*
X106760Y96299D01*
X106760Y96299D01*
Y120434D01*
X107262Y120770D01*
X107702Y121428D01*
X107857Y122205D01*
X107702Y122982D01*
X107262Y123640D01*
X106604Y124080D01*
X105827Y124234D01*
D02*
G37*
G36*
X73900Y94088D02*
X72250D01*
Y92438D01*
X72665Y92520D01*
X73356Y92982D01*
X73818Y93673D01*
X73900Y94088D01*
D02*
G37*
G36*
X71450D02*
X69800D01*
X69882Y93673D01*
X70344Y92982D01*
X71035Y92520D01*
X71450Y92438D01*
Y94088D01*
D02*
G37*
G36*
X55433Y94627D02*
X54656Y94473D01*
X53998Y94033D01*
X53558Y93375D01*
X53404Y92598D01*
X53521Y92006D01*
X49104Y87589D01*
X48902Y87286D01*
X48831Y86929D01*
Y83031D01*
X48329Y82695D01*
X47889Y82037D01*
X47734Y81260D01*
X47889Y80483D01*
X48329Y79825D01*
X48987Y79385D01*
X49764Y79230D01*
X50541Y79385D01*
X51199Y79825D01*
X51639Y80483D01*
X51793Y81260D01*
X51639Y82037D01*
X51199Y82695D01*
X50697Y83031D01*
Y86543D01*
X54841Y90686D01*
X55433Y90569D01*
X56210Y90723D01*
X56868Y91163D01*
X57308Y91821D01*
X57463Y92598D01*
X57308Y93375D01*
X56868Y94033D01*
X56210Y94473D01*
X55433Y94627D01*
D02*
G37*
G36*
X20579Y96553D02*
X16979D01*
X15179Y94753D01*
Y91153D01*
X16979Y89353D01*
X20579D01*
X22379Y91153D01*
Y94753D01*
X20579Y96553D01*
D02*
G37*
G36*
X96463Y86341D02*
Y84691D01*
X98113D01*
X98031Y85106D01*
X97569Y85797D01*
X96878Y86259D01*
X96463Y86341D01*
D02*
G37*
G36*
X95663D02*
X95248Y86259D01*
X94557Y85797D01*
X94095Y85106D01*
X94013Y84691D01*
X95663D01*
Y86341D01*
D02*
G37*
G36*
X98113Y83891D02*
X96463D01*
Y82241D01*
X96878Y82323D01*
X97569Y82785D01*
X98031Y83476D01*
X98113Y83891D01*
D02*
G37*
G36*
X95663D02*
X94013D01*
X94095Y83476D01*
X94557Y82785D01*
X95248Y82323D01*
X95663Y82241D01*
Y83891D01*
D02*
G37*
G36*
X20579Y86553D02*
X16979D01*
X15179Y84753D01*
Y81153D01*
X16979Y79353D01*
X20579D01*
X22379Y81153D01*
Y84753D01*
X20579Y86553D01*
D02*
G37*
G36*
X10579D02*
X6979D01*
X5179Y84753D01*
Y81153D01*
X6979Y79353D01*
X10579D01*
X12379Y81153D01*
Y84753D01*
X10579Y86553D01*
D02*
G37*
G36*
X57644Y75278D02*
Y73628D01*
X59294D01*
X59212Y74043D01*
X58750Y74734D01*
X58059Y75196D01*
X57644Y75278D01*
D02*
G37*
G36*
X56844D02*
X56429Y75196D01*
X55738Y74734D01*
X55276Y74043D01*
X55194Y73628D01*
X56844D01*
Y75278D01*
D02*
G37*
G36*
X41896D02*
Y73628D01*
X43546D01*
X43464Y74043D01*
X43002Y74734D01*
X42311Y75196D01*
X41896Y75278D01*
D02*
G37*
G36*
X41096D02*
X40681Y75196D01*
X39990Y74734D01*
X39528Y74043D01*
X39446Y73628D01*
X41096D01*
Y75278D01*
D02*
G37*
G36*
X33707D02*
Y73628D01*
X35357D01*
X35275Y74043D01*
X34813Y74734D01*
X34122Y75196D01*
X33707Y75278D01*
D02*
G37*
G36*
X32907D02*
X32492Y75196D01*
X31801Y74734D01*
X31339Y74043D01*
X31257Y73628D01*
X32907D01*
Y75278D01*
D02*
G37*
G36*
X49455Y74648D02*
Y72998D01*
X51105D01*
X51023Y73413D01*
X50561Y74104D01*
X49870Y74566D01*
X49455Y74648D01*
D02*
G37*
G36*
X48655D02*
X48240Y74566D01*
X47549Y74104D01*
X47087Y73413D01*
X47005Y72998D01*
X48655D01*
Y74648D01*
D02*
G37*
G36*
X59294Y72828D02*
X57644D01*
Y71178D01*
X58059Y71260D01*
X58750Y71722D01*
X59212Y72413D01*
X59294Y72828D01*
D02*
G37*
G36*
X56844D02*
X55194D01*
X55276Y72413D01*
X55738Y71722D01*
X56429Y71260D01*
X56844Y71178D01*
Y72828D01*
D02*
G37*
G36*
X43546D02*
X41896D01*
Y71178D01*
X42311Y71260D01*
X43002Y71722D01*
X43464Y72413D01*
X43546Y72828D01*
D02*
G37*
G36*
X41096D02*
X39446D01*
X39528Y72413D01*
X39990Y71722D01*
X40681Y71260D01*
X41096Y71178D01*
Y72828D01*
D02*
G37*
G36*
X35357D02*
X33707D01*
Y71178D01*
X34122Y71260D01*
X34813Y71722D01*
X35275Y72413D01*
X35357Y72828D01*
D02*
G37*
G36*
X32907D02*
X31257D01*
X31339Y72413D01*
X31801Y71722D01*
X32492Y71260D01*
X32907Y71178D01*
Y72828D01*
D02*
G37*
G36*
X77172Y72759D02*
Y71109D01*
X78822D01*
X78740Y71524D01*
X78278Y72215D01*
X77587Y72677D01*
X77172Y72759D01*
D02*
G37*
G36*
X76372D02*
X75957Y72677D01*
X75266Y72215D01*
X74804Y71524D01*
X74722Y71109D01*
X76372D01*
Y72759D01*
D02*
G37*
G36*
X51105Y72198D02*
X49455D01*
Y70548D01*
X49870Y70630D01*
X50561Y71092D01*
X51023Y71783D01*
X51105Y72198D01*
D02*
G37*
G36*
X48655D02*
X47005D01*
X47087Y71783D01*
X47549Y71092D01*
X48240Y70630D01*
X48655Y70548D01*
Y72198D01*
D02*
G37*
G36*
X10579Y76553D02*
X6979D01*
X5179Y74753D01*
Y71153D01*
X6979Y69353D01*
X10579D01*
X12379Y71153D01*
Y74753D01*
X10579Y76553D01*
D02*
G37*
G36*
X78822Y70309D02*
X77172D01*
Y68659D01*
X77587Y68741D01*
X78278Y69203D01*
X78740Y69894D01*
X78822Y70309D01*
D02*
G37*
G36*
X76372D02*
X74722D01*
X74804Y69894D01*
X75266Y69203D01*
X75957Y68741D01*
X76372Y68659D01*
Y70309D01*
D02*
G37*
G36*
X20579Y66553D02*
X16979D01*
X15179Y64753D01*
Y61153D01*
X16979Y59353D01*
X20579D01*
X22379Y61153D01*
Y64753D01*
X20579Y66553D01*
D02*
G37*
G36*
X10579D02*
X6979D01*
X5179Y64753D01*
Y61153D01*
X6979Y59353D01*
X10579D01*
X12379Y61153D01*
Y64753D01*
X10579Y66553D01*
D02*
G37*
G36*
X95085Y55908D02*
Y54258D01*
X96735D01*
X96653Y54673D01*
X96191Y55364D01*
X95500Y55826D01*
X95085Y55908D01*
D02*
G37*
G36*
X94285D02*
X93870Y55826D01*
X93179Y55364D01*
X92717Y54673D01*
X92635Y54258D01*
X94285D01*
Y55908D01*
D02*
G37*
G36*
X77762Y54885D02*
Y53235D01*
X79412D01*
X79330Y53650D01*
X78868Y54341D01*
X78177Y54803D01*
X77762Y54885D01*
D02*
G37*
G36*
X76962D02*
X76547Y54803D01*
X75856Y54341D01*
X75394Y53650D01*
X75312Y53235D01*
X76962D01*
Y54885D01*
D02*
G37*
G36*
X96735Y53458D02*
X95085D01*
Y51808D01*
X95500Y51890D01*
X96191Y52352D01*
X96653Y53043D01*
X96735Y53458D01*
D02*
G37*
G36*
X94285D02*
X92635D01*
X92717Y53043D01*
X93179Y52352D01*
X93870Y51890D01*
X94285Y51808D01*
Y53458D01*
D02*
G37*
G36*
X79412Y52435D02*
X77762D01*
Y50785D01*
X78177Y50867D01*
X78868Y51329D01*
X79330Y52020D01*
X79412Y52435D01*
D02*
G37*
G36*
X76962D02*
X75312D01*
X75394Y52020D01*
X75856Y51329D01*
X76547Y50867D01*
X76962Y50785D01*
Y52435D01*
D02*
G37*
G36*
X20579Y56553D02*
X16979D01*
X15179Y54753D01*
Y51153D01*
X16979Y49353D01*
X20579D01*
X22379Y51153D01*
Y54753D01*
X20579Y56553D01*
D02*
G37*
G36*
X53111Y55454D02*
X52168Y55330D01*
X51289Y54966D01*
X50535Y54387D01*
X49956Y53633D01*
X49592Y52754D01*
X49468Y51811D01*
X49592Y50868D01*
X49956Y49989D01*
X50535Y49235D01*
X51289Y48656D01*
X52168Y48292D01*
X53111Y48168D01*
X54054Y48292D01*
X54933Y48656D01*
X55687Y49235D01*
X56266Y49989D01*
X56630Y50868D01*
X56754Y51811D01*
X56630Y52754D01*
X56266Y53633D01*
X55687Y54387D01*
X54933Y54966D01*
X54054Y55330D01*
X53111Y55454D01*
D02*
G37*
G36*
X131654Y56832D02*
X130877Y56678D01*
X130219Y56238D01*
X129779Y55580D01*
X129624Y54803D01*
X129779Y54026D01*
X130219Y53368D01*
X130721Y53032D01*
Y51410D01*
X127206Y47896D01*
X126614Y48013D01*
X125837Y47859D01*
X125179Y47419D01*
X124739Y46761D01*
X124584Y45984D01*
X124739Y45207D01*
X125179Y44549D01*
X125837Y44109D01*
X126614Y43955D01*
X127391Y44109D01*
X128049Y44549D01*
X128489Y45207D01*
X128644Y45984D01*
X128526Y46576D01*
X132314Y50364D01*
X132516Y50667D01*
X132587Y51024D01*
Y53032D01*
X133089Y53368D01*
X133529Y54026D01*
X133684Y54803D01*
X133529Y55580D01*
X133089Y56238D01*
X132431Y56678D01*
X131654Y56832D01*
D02*
G37*
G36*
X20579Y46553D02*
X16979D01*
X15179Y44753D01*
Y41153D01*
X16979Y39353D01*
X20579D01*
X22379Y41153D01*
Y44753D01*
X20579Y46553D01*
D02*
G37*
G36*
X10579D02*
X6979D01*
X5179Y44753D01*
Y41153D01*
X6979Y39353D01*
X10579D01*
X12379Y41153D01*
Y44753D01*
X10579Y46553D01*
D02*
G37*
G36*
X56723Y43612D02*
X49499D01*
Y36388D01*
X56723D01*
Y43612D01*
D02*
G37*
G36*
X121181Y42651D02*
X120352Y42542D01*
X119580Y42222D01*
X118917Y41713D01*
X118408Y41050D01*
X118088Y40278D01*
X117979Y39449D01*
X118088Y38620D01*
X118408Y37848D01*
X118917Y37185D01*
X119580Y36676D01*
X120352Y36356D01*
X121181Y36247D01*
X122010Y36356D01*
X122782Y36676D01*
X123445Y37185D01*
X123954Y37848D01*
X124274Y38620D01*
X124383Y39449D01*
X124274Y40278D01*
X123954Y41050D01*
X123445Y41713D01*
X122782Y42222D01*
X122010Y42542D01*
X121181Y42651D01*
D02*
G37*
G36*
X169430Y35443D02*
X169427Y35442D01*
X169425Y35443D01*
X167761Y35417D01*
X167617Y35354D01*
X167461Y35338D01*
X167398Y35259D01*
X167305Y35219D01*
X167247Y35073D01*
X167149Y34951D01*
X167055Y34635D01*
X166299Y34786D01*
X165522Y34631D01*
X165516Y34633D01*
X165406Y34818D01*
X165376Y34914D01*
X165280Y35029D01*
X165267Y35051D01*
X165208Y35187D01*
X165119Y35222D01*
X165058Y35296D01*
X164897Y35310D01*
X164746Y35370D01*
X115750Y34607D01*
X115526Y34510D01*
X115301Y34416D01*
X115299Y34411D01*
X115294Y34409D01*
X115204Y34183D01*
X115111Y33957D01*
Y3437D01*
X115301Y2978D01*
X115760Y2788D01*
X169791D01*
X170250Y2978D01*
X170440Y3437D01*
Y34442D01*
X170439Y34445D01*
X170440Y34448D01*
X170345Y34674D01*
X170250Y34902D01*
X170248Y34903D01*
X170247Y34905D01*
X169890Y35256D01*
X169888Y35257D01*
X169887Y35260D01*
X169658Y35350D01*
X169430Y35443D01*
D02*
G37*
G36*
X20579Y36553D02*
X16979D01*
X15179Y34753D01*
Y31153D01*
X16979Y29353D01*
X20579D01*
X22379Y31153D01*
Y34753D01*
X20579Y36553D01*
D02*
G37*
G36*
X10579D02*
X6979D01*
X5179Y34753D01*
Y31153D01*
X6979Y29353D01*
X10579D01*
X12379Y31153D01*
Y34753D01*
X10579Y36553D01*
D02*
G37*
G36*
X47205Y29529D02*
X45930Y29403D01*
X44703Y29031D01*
X43573Y28427D01*
X42583Y27614D01*
X41770Y26624D01*
X41166Y25494D01*
X40794Y24267D01*
X40668Y22992D01*
X40794Y21717D01*
X41166Y20490D01*
X41770Y19360D01*
X42583Y18370D01*
X43573Y17557D01*
X44703Y16953D01*
X45930Y16581D01*
X47205Y16455D01*
X48480Y16581D01*
X49707Y16953D01*
X50837Y17557D01*
X51827Y18370D01*
X52640Y19360D01*
X53244Y20490D01*
X53616Y21717D01*
X53742Y22992D01*
X53616Y24267D01*
X53244Y25494D01*
X52640Y26624D01*
X51827Y27614D01*
X50837Y28427D01*
X49707Y29031D01*
X48480Y29403D01*
X47205Y29529D01*
D02*
G37*
G36*
X206692Y20317D02*
X205417Y20191D01*
X204190Y19819D01*
X203060Y19215D01*
X202070Y18402D01*
X201257Y17412D01*
X200653Y16282D01*
X200281Y15055D01*
X200155Y13780D01*
X200281Y12505D01*
X200653Y11278D01*
X201257Y10148D01*
X202070Y9158D01*
X203060Y8345D01*
X204190Y7741D01*
X205417Y7369D01*
X206692Y7243D01*
X207967Y7369D01*
X209194Y7741D01*
X210324Y8345D01*
X211314Y9158D01*
X212127Y10148D01*
X212731Y11278D01*
X213103Y12505D01*
X213229Y13780D01*
X213103Y15055D01*
X212731Y16282D01*
X212127Y17412D01*
X211314Y18402D01*
X210324Y19215D01*
X209194Y19819D01*
X207967Y20191D01*
X206692Y20317D01*
D02*
G37*
G36*
X13779D02*
X12504Y20191D01*
X11277Y19819D01*
X10147Y19215D01*
X9157Y18402D01*
X8344Y17412D01*
X7740Y16282D01*
X7368Y15055D01*
X7242Y13780D01*
X7368Y12505D01*
X7740Y11278D01*
X8344Y10148D01*
X9157Y9158D01*
X10147Y8345D01*
X11277Y7741D01*
X12504Y7369D01*
X13779Y7243D01*
X15054Y7369D01*
X16281Y7741D01*
X17411Y8345D01*
X18401Y9158D01*
X19214Y10148D01*
X19818Y11278D01*
X20190Y12505D01*
X20316Y13780D01*
X20190Y15055D01*
X19818Y16282D01*
X19214Y17412D01*
X18401Y18402D01*
X17411Y19215D01*
X16281Y19819D01*
X15054Y20191D01*
X13779Y20317D01*
D02*
G37*
%LPD*%
G36*
X171634Y183540D02*
X122200Y182963D01*
X121880Y183348D01*
X121950Y183701D01*
X121796Y184478D01*
X121356Y185136D01*
X120698Y185576D01*
X119921Y185731D01*
X119144Y185576D01*
X118486Y185136D01*
X118150Y184634D01*
X116929D01*
X116929Y184634D01*
X116929Y184634D01*
X116737Y184596D01*
X116600Y184569D01*
X116563Y184568D01*
X116143Y184801D01*
X116103Y184851D01*
X116453Y215007D01*
X116453Y215007D01*
X119312Y215030D01*
X119580Y214825D01*
X120352Y214505D01*
X121181Y214396D01*
X122010Y214505D01*
X122782Y214825D01*
X123090Y215060D01*
X171344Y215453D01*
X171634Y183540D01*
D02*
G37*
%LPC*%
G36*
X166069Y207304D02*
Y205754D01*
X167619D01*
X167544Y206131D01*
X167104Y206789D01*
X166446Y207229D01*
X166069Y207304D01*
D02*
G37*
G36*
X165269D02*
X164892Y207229D01*
X164234Y206789D01*
X163794Y206131D01*
X163719Y205754D01*
X165269D01*
Y207304D01*
D02*
G37*
G36*
X167619Y204954D02*
X166069D01*
Y203404D01*
X166446Y203479D01*
X167104Y203919D01*
X167544Y204577D01*
X167619Y204954D01*
D02*
G37*
G36*
X165269D02*
X163719D01*
X163794Y204577D01*
X164234Y203919D01*
X164892Y203479D01*
X165269Y203404D01*
Y204954D01*
D02*
G37*
G36*
X121181Y200800D02*
X120352Y200691D01*
X119580Y200371D01*
X118917Y199862D01*
X118408Y199199D01*
X118088Y198427D01*
X117979Y197598D01*
X118088Y196769D01*
X118408Y195997D01*
X118917Y195334D01*
X119580Y194825D01*
X120352Y194505D01*
X121181Y194396D01*
X122010Y194505D01*
X122782Y194825D01*
X123445Y195334D01*
X123954Y195997D01*
X124274Y196769D01*
X124383Y197598D01*
X124274Y198427D01*
X123954Y199199D01*
X123445Y199862D01*
X122782Y200371D01*
X122010Y200691D01*
X121181Y200800D01*
D02*
G37*
G36*
X130794Y192816D02*
Y191266D01*
X132344D01*
X132269Y191643D01*
X131829Y192301D01*
X131171Y192741D01*
X130794Y192816D01*
D02*
G37*
G36*
X129994D02*
X129617Y192741D01*
X128959Y192301D01*
X128519Y191643D01*
X128444Y191266D01*
X129994D01*
Y192816D01*
D02*
G37*
G36*
X132344Y190466D02*
X130794D01*
Y188916D01*
X131171Y188991D01*
X131829Y189431D01*
X132269Y190089D01*
X132344Y190466D01*
D02*
G37*
G36*
X129994D02*
X128444D01*
X128519Y190089D01*
X128959Y189431D01*
X129617Y188991D01*
X129994Y188916D01*
Y190466D01*
D02*
G37*
%LPD*%
G36*
X170619Y153813D02*
X170418Y118594D01*
X123014D01*
X123010Y118600D01*
X122779Y118754D01*
Y119356D01*
X123010Y119510D01*
X123450Y120168D01*
X123605Y120945D01*
X123450Y121722D01*
X123010Y122380D01*
X122352Y122820D01*
X121575Y122975D01*
X120798Y122820D01*
X120317Y122498D01*
X116390Y126425D01*
Y153049D01*
X170263Y154164D01*
X170619Y153813D01*
D02*
G37*
%LPC*%
G36*
X166699Y152501D02*
Y150951D01*
X168249D01*
X168174Y151328D01*
X167734Y151986D01*
X167076Y152426D01*
X166699Y152501D01*
D02*
G37*
G36*
X165899D02*
X165522Y152426D01*
X164864Y151986D01*
X164424Y151328D01*
X164349Y150951D01*
X165899D01*
Y152501D01*
D02*
G37*
G36*
X168249Y150151D02*
X166699D01*
Y148601D01*
X167076Y148676D01*
X167734Y149116D01*
X168174Y149774D01*
X168249Y150151D01*
D02*
G37*
G36*
X165899D02*
X164349D01*
X164424Y149774D01*
X164864Y149116D01*
X165522Y148676D01*
X165899Y148601D01*
Y150151D01*
D02*
G37*
G36*
X121181Y140761D02*
X120352Y140652D01*
X119580Y140332D01*
X118917Y139823D01*
X118408Y139160D01*
X118088Y138388D01*
X117979Y137559D01*
X118088Y136730D01*
X118408Y135958D01*
X118917Y135295D01*
X119580Y134786D01*
X120352Y134466D01*
X121181Y134357D01*
X122010Y134466D01*
X122782Y134786D01*
X123445Y135295D01*
X123954Y135958D01*
X124274Y136730D01*
X124383Y137559D01*
X124274Y138388D01*
X123954Y139160D01*
X123445Y139823D01*
X122782Y140332D01*
X122010Y140652D01*
X121181Y140761D01*
D02*
G37*
G36*
X130794Y135493D02*
Y133943D01*
X132344D01*
X132269Y134320D01*
X131829Y134978D01*
X131171Y135418D01*
X130794Y135493D01*
D02*
G37*
G36*
X129994D02*
X129617Y135418D01*
X128959Y134978D01*
X128519Y134320D01*
X128444Y133943D01*
X129994D01*
Y135493D01*
D02*
G37*
G36*
X132344Y133143D02*
X130794D01*
Y131593D01*
X131171Y131668D01*
X131829Y132108D01*
X132269Y132766D01*
X132344Y133143D01*
D02*
G37*
G36*
X129994D02*
X128444D01*
X128519Y132766D01*
X128959Y132108D01*
X129617Y131668D01*
X129994Y131593D01*
Y133143D01*
D02*
G37*
%LPD*%
G36*
X169791Y95229D02*
Y63476D01*
X121288D01*
X121092Y63607D01*
X120315Y63762D01*
X119538Y63607D01*
X119342Y63476D01*
X118000D01*
X116114Y65362D01*
Y94982D01*
X120539Y95032D01*
X121181Y94948D01*
X121942Y95048D01*
X169436Y95581D01*
X169791Y95229D01*
D02*
G37*
%LPC*%
G36*
X164180Y94548D02*
Y92998D01*
X165730D01*
X165655Y93375D01*
X165215Y94033D01*
X164557Y94473D01*
X164180Y94548D01*
D02*
G37*
G36*
X163380D02*
X163003Y94473D01*
X162345Y94033D01*
X161905Y93375D01*
X161830Y92998D01*
X163380D01*
Y94548D01*
D02*
G37*
G36*
X165730Y92198D02*
X164180D01*
Y90648D01*
X164557Y90723D01*
X165215Y91163D01*
X165655Y91821D01*
X165730Y92198D01*
D02*
G37*
G36*
X163380D02*
X161830D01*
X161905Y91821D01*
X162345Y91163D01*
X163003Y90723D01*
X163380Y90648D01*
Y92198D01*
D02*
G37*
G36*
X121181Y81352D02*
X120352Y81243D01*
X119580Y80923D01*
X118917Y80414D01*
X118408Y79751D01*
X118088Y78979D01*
X117979Y78150D01*
X118088Y77321D01*
X118408Y76549D01*
X118917Y75886D01*
X119580Y75377D01*
X120352Y75057D01*
X121181Y74948D01*
X122010Y75057D01*
X122782Y75377D01*
X123445Y75886D01*
X123954Y76549D01*
X124274Y77321D01*
X124383Y78150D01*
X124274Y78979D01*
X123954Y79751D01*
X123445Y80414D01*
X122782Y80923D01*
X122010Y81243D01*
X121181Y81352D01*
D02*
G37*
G36*
X131424Y75021D02*
Y73471D01*
X132974D01*
X132899Y73848D01*
X132459Y74506D01*
X131801Y74946D01*
X131424Y75021D01*
D02*
G37*
G36*
X130624D02*
X130247Y74946D01*
X129589Y74506D01*
X129149Y73848D01*
X129074Y73471D01*
X130624D01*
Y75021D01*
D02*
G37*
G36*
X132974Y72671D02*
X131424D01*
Y71121D01*
X131801Y71196D01*
X132459Y71636D01*
X132899Y72294D01*
X132974Y72671D01*
D02*
G37*
G36*
X130624D02*
X129074D01*
X129149Y72294D01*
X129589Y71636D01*
X130247Y71196D01*
X130624Y71121D01*
Y72671D01*
D02*
G37*
%LPD*%
G36*
X169791Y34442D02*
Y3437D01*
X115760D01*
Y33957D01*
X164756Y34720D01*
X164911Y34223D01*
X164864Y34191D01*
X164424Y33533D01*
X164349Y33156D01*
X168249D01*
X168174Y33533D01*
X167734Y34191D01*
X167623Y34265D01*
X167771Y34767D01*
X169435Y34793D01*
X169791Y34442D01*
D02*
G37*
%LPC*%
G36*
X168249Y32356D02*
X166699D01*
Y30806D01*
X167076Y30881D01*
X167734Y31321D01*
X168174Y31979D01*
X168249Y32356D01*
D02*
G37*
G36*
X165899D02*
X164349D01*
X164424Y31979D01*
X164864Y31321D01*
X165522Y30881D01*
X165899Y30806D01*
Y32356D01*
D02*
G37*
G36*
X132054Y18958D02*
Y17408D01*
X133604D01*
X133529Y17785D01*
X133089Y18443D01*
X132431Y18883D01*
X132054Y18958D01*
D02*
G37*
G36*
X131254D02*
X130877Y18883D01*
X130219Y18443D01*
X129779Y17785D01*
X129704Y17408D01*
X131254D01*
Y18958D01*
D02*
G37*
G36*
X121181Y22651D02*
X120352Y22542D01*
X119580Y22222D01*
X118917Y21713D01*
X118408Y21050D01*
X118088Y20278D01*
X117979Y19449D01*
X118088Y18620D01*
X118408Y17848D01*
X118917Y17185D01*
X119580Y16676D01*
X120352Y16356D01*
X121181Y16247D01*
X122010Y16356D01*
X122782Y16676D01*
X123445Y17185D01*
X123954Y17848D01*
X124274Y18620D01*
X124383Y19449D01*
X124274Y20278D01*
X123954Y21050D01*
X123445Y21713D01*
X122782Y22222D01*
X122010Y22542D01*
X121181Y22651D01*
D02*
G37*
G36*
X133604Y16608D02*
X132054D01*
Y15058D01*
X132431Y15133D01*
X133089Y15573D01*
X133529Y16231D01*
X133604Y16608D01*
D02*
G37*
G36*
X131254D02*
X129704D01*
X129779Y16231D01*
X130219Y15573D01*
X130877Y15133D01*
X131254Y15058D01*
Y16608D01*
D02*
G37*
%LPD*%
D57*
X100118Y92598D02*
X102125Y92598D01*
X100118Y185039D02*
X103740Y181417D01*
X114646D01*
X116929Y183701D01*
X119921D01*
X181417Y177008D02*
X197283Y192874D01*
X212283D01*
X102125Y92598D02*
X105827Y96299D01*
Y122205D01*
Y146772D02*
X107717Y144882D01*
X105827Y146772D02*
Y170079D01*
X97008Y178898D02*
X105827Y170079D01*
X97008Y178898D02*
Y181417D01*
X100118Y184528D01*
Y185039D01*
X25197Y112126D02*
Y156220D01*
X72362Y177244D02*
X74331Y175276D01*
Y166299D02*
Y175276D01*
Y166299D02*
X79724Y160906D01*
Y156496D02*
Y160906D01*
X94646Y107717D02*
X96260Y109331D01*
X35709Y111181D02*
X37283Y109606D01*
X60472D01*
X62362Y107717D01*
X94646D01*
X96063Y115591D02*
Y118583D01*
X89449Y108976D02*
X96063Y115591D01*
X35709Y119055D02*
X37795Y116969D01*
Y116535D02*
Y116969D01*
Y116535D02*
X43465Y110866D01*
X61102D01*
X62992Y108976D01*
X89449D01*
X36772Y203386D02*
X36850Y203465D01*
X92598D01*
X96457Y199606D01*
X98386D01*
X32835Y199449D02*
X36378Y202992D01*
X36772Y203386D01*
X33465Y207953D02*
X36693Y204724D01*
X93228D01*
X96811Y208307D01*
X97756D01*
X100748Y88583D02*
X101142Y88189D01*
X108346D01*
X111496Y85039D01*
Y68661D02*
Y85039D01*
Y68661D02*
X118425Y61732D01*
X120315D01*
X109724Y67913D02*
X120315Y57323D01*
X109724Y67913D02*
Y79724D01*
X109606Y131890D02*
X121181Y120315D01*
X121575Y120945D01*
X110236Y128504D02*
X121575Y117165D01*
X110236Y128504D02*
Y128937D01*
X100748Y180394D02*
X101614Y179528D01*
X119685D01*
X106417Y174843D02*
X106693Y175118D01*
X119685D01*
X73425Y223425D02*
X81299Y231299D01*
X93504D01*
X76220Y229921D02*
X80630Y234331D01*
X97638D01*
X165669Y205354D02*
X167559D01*
X166299Y150551D02*
X167559Y148661D01*
X129764Y132913D02*
X130394Y133543D01*
X129764Y72441D02*
X130394Y73071D01*
X131024D01*
X163780Y92598D02*
X166929Y88819D01*
X130394Y16378D02*
X131654Y17008D01*
X166299Y32756D02*
X168819D01*
X126614Y45984D02*
X131654Y51024D01*
Y54803D01*
X129134Y110236D02*
X133543Y114646D01*
X129134Y105197D02*
Y110236D01*
X125984Y162520D02*
X132283Y168819D01*
Y170709D01*
X127874Y229921D02*
X137323Y239370D01*
X127874Y224882D02*
Y229921D01*
X50394Y177638D02*
X54173Y181417D01*
X50394Y171339D02*
Y177638D01*
X74764Y181024D02*
X76220Y179567D01*
Y166299D02*
Y179567D01*
Y166299D02*
X81693Y160827D01*
Y148346D02*
Y160827D01*
Y113189D02*
X81890Y113386D01*
Y117795D01*
X83150Y119055D01*
Y142992D01*
X81693Y144449D02*
X83150Y142992D01*
X81693Y144449D02*
Y148346D01*
X78110Y179961D02*
X78976Y180827D01*
X78110Y166929D02*
Y179961D01*
Y166929D02*
X83150Y161890D01*
Y152441D02*
Y161890D01*
Y152441D02*
X84646Y150945D01*
Y145394D02*
Y150945D01*
Y116142D02*
Y145394D01*
X87598Y141142D02*
Y142717D01*
X80000Y176142D02*
X81299Y177441D01*
X80000Y166929D02*
Y176142D01*
Y166929D02*
X84409Y162520D01*
Y153071D02*
Y162520D01*
Y153071D02*
X87598Y149882D01*
Y142717D02*
Y149882D01*
Y113189D02*
X88189Y113780D01*
Y116535D01*
X86299Y118425D02*
X88189Y116535D01*
X86299Y118425D02*
Y139843D01*
X87598Y141142D01*
X39370Y140748D02*
X39685Y140433D01*
Y116535D02*
Y140433D01*
Y116535D02*
X43032Y113189D01*
X77756D01*
X49764Y86929D02*
X55433Y92598D01*
X49764Y81260D02*
Y86929D01*
X144252Y254488D02*
X144882Y253858D01*
X33386Y115906D02*
X34016Y115276D01*
D62*
X8780Y152638D02*
Y152953D01*
X105787Y83661D02*
X109724Y79724D01*
X71850Y94488D02*
X72835D01*
D64*
X47205Y22992D02*
D03*
X206692Y13780D02*
D03*
Y242126D02*
D03*
X13779D02*
D03*
Y13780D02*
D03*
D65*
X18779Y32953D02*
D03*
X8779D02*
D03*
X18779Y42953D02*
D03*
X8779D02*
D03*
X18779Y52953D02*
D03*
X8779D02*
D03*
X18779Y62953D02*
D03*
X8779D02*
D03*
X18779Y72953D02*
D03*
X8779D02*
D03*
X18779Y82953D02*
D03*
X8779D02*
D03*
X18779Y92953D02*
D03*
X8779D02*
D03*
X18779Y102953D02*
D03*
X8779D02*
D03*
X18779Y112953D02*
D03*
X8779D02*
D03*
X18779Y122953D02*
D03*
X8779D02*
D03*
X18779Y132953D02*
D03*
X8779D02*
D03*
X18779Y142953D02*
D03*
X8779D02*
D03*
X18779Y152953D02*
D03*
X8779D02*
D03*
X18779Y162953D02*
D03*
X8779D02*
D03*
X18779Y172953D02*
D03*
X8779D02*
D03*
X18779Y182953D02*
D03*
X8779D02*
D03*
X18779Y192953D02*
D03*
X8779D02*
D03*
X18779Y202953D02*
D03*
X8779D02*
D03*
X18779Y212953D02*
D03*
X8779D02*
D03*
X18779Y222953D02*
D03*
X8779D02*
D03*
D66*
X212283Y32874D02*
D03*
Y42874D02*
D03*
Y52874D02*
D03*
Y62874D02*
D03*
Y72874D02*
D03*
Y82874D02*
D03*
Y92874D02*
D03*
Y102874D02*
D03*
Y112874D02*
D03*
Y122874D02*
D03*
Y132874D02*
D03*
Y142874D02*
D03*
Y152874D02*
D03*
Y162874D02*
D03*
Y172874D02*
D03*
Y182874D02*
D03*
Y192874D02*
D03*
Y202874D02*
D03*
Y212874D02*
D03*
Y222874D02*
D03*
D67*
X121181Y197598D02*
D03*
Y207598D02*
D03*
Y217598D02*
D03*
Y227598D02*
D03*
Y137559D02*
D03*
Y147559D02*
D03*
Y157559D02*
D03*
Y167559D02*
D03*
Y78150D02*
D03*
Y88150D02*
D03*
Y98150D02*
D03*
Y108150D02*
D03*
Y19449D02*
D03*
Y29449D02*
D03*
Y39449D02*
D03*
Y49449D02*
D03*
D68*
X41299Y51811D02*
D03*
Y40000D02*
D03*
X53111Y51811D02*
D03*
D69*
Y40000D02*
D03*
D70*
X119921Y183701D02*
D03*
X181417Y177008D02*
D03*
X105827Y122205D02*
D03*
X107717Y144882D02*
D03*
X100118Y185039D02*
D03*
Y92598D02*
D03*
X25197Y112126D02*
D03*
Y156220D02*
D03*
X120315Y61732D02*
D03*
Y57323D02*
D03*
X121575Y120945D02*
D03*
Y117165D02*
D03*
X119685Y179528D02*
D03*
Y175118D02*
D03*
X97638Y234331D02*
D03*
X76220Y229921D02*
D03*
X130394Y190866D02*
D03*
X165669Y205354D02*
D03*
X166299Y150551D02*
D03*
X130394Y133543D02*
D03*
X131024Y73071D02*
D03*
X163780Y92598D02*
D03*
X131654Y17008D02*
D03*
X166299Y32756D02*
D03*
X126614Y45984D02*
D03*
X131654Y54803D02*
D03*
X133543Y114646D02*
D03*
X129134Y105197D02*
D03*
X125984Y162520D02*
D03*
X132283Y170709D02*
D03*
X137323Y239370D02*
D03*
X127874Y224882D02*
D03*
X54173Y181417D02*
D03*
X50394Y171339D02*
D03*
X55433Y92598D02*
D03*
X49764Y81260D02*
D03*
X144882Y253858D02*
D03*
X151181Y245039D02*
D03*
X34016Y115276D02*
D03*
X32756Y204094D02*
D03*
D71*
X39370Y152559D02*
D03*
X72362Y177244D02*
D03*
X96260Y109331D02*
D03*
X35709Y111181D02*
D03*
X96063Y118583D02*
D03*
X35709Y119055D02*
D03*
X98386Y199606D02*
D03*
X32835Y199449D02*
D03*
X97756Y208307D02*
D03*
X33465Y207953D02*
D03*
X100748Y88583D02*
D03*
X105787Y83661D02*
D03*
X96063Y131890D02*
D03*
X93386Y128937D02*
D03*
X100748Y180394D02*
D03*
X106417Y174843D02*
D03*
X93504Y231299D02*
D03*
X73425Y223425D02*
D03*
X81693Y148346D02*
D03*
Y113189D02*
D03*
X74764Y181024D02*
D03*
X84646Y145394D02*
D03*
X78976Y180827D02*
D03*
X84646Y116142D02*
D03*
X87598Y142717D02*
D03*
X81299Y177441D02*
D03*
X87598Y113189D02*
D03*
X39370Y140748D02*
D03*
X77756Y113189D02*
D03*
X57244Y73228D02*
D03*
X49055Y72598D02*
D03*
X41496Y73228D02*
D03*
X33307D02*
D03*
X77362Y52835D02*
D03*
X94685Y53858D02*
D03*
X74843Y209567D02*
D03*
X66614Y135827D02*
D03*
X103543Y141063D02*
D03*
X98465Y112913D02*
D03*
X71850Y94488D02*
D03*
X96063Y84291D02*
D03*
X76772Y70709D02*
D03*
X96063Y175197D02*
D03*
X70472Y163032D02*
D03*
X54567Y187559D02*
D03*
X103189Y222441D02*
D03*
X66535Y228543D02*
D03*
X70472Y220472D02*
D03*
X98504Y204094D02*
D03*
D72*
X39370Y152559D02*
X75787D01*
X79724Y156496D01*
X109606Y131890D02*
X110236D01*
X96063D02*
X109606D01*
X93386Y128937D02*
X110236D01*
M02*
