M48
;Layer_Color=9474304
;FILE_FORMAT=4:4
METRIC,LZ
;TYPE=PLATED
T01F00S00C0.3000
T02F00S00C0.3500
T03F00S00C0.8001
T04F00S00C1.0160
T05F00S00C1.0201
;TYPE=NON_PLATED
T06F00S00C3.0000
%
T01
X00126401Y002064
X001408Y00235199
X00086401Y00292801
X00064Y002848
Y00396799
X00273601Y00368
X00268801Y00310401
X00308801Y003072
Y00297599
X00339199Y00291201
X00328Y002672
X00331201Y00339199
X00332801Y001856
X00334401Y001392
X003056Y001456
Y00156799
X003216Y00116799
X00334401Y000432
X002543Y00235199
X00416001
X00422399Y00382399
Y000832
X00460799Y004496
X00420799Y00521599
X00331201Y004848
X00304599Y004666
X00304Y00456001
Y004448
X00335999Y00433601
X00319999Y00412801
X002543Y00469999
X00137599Y00460799
X00128001Y00435201
X000832Y00518399
X00193599Y00583999
X00248001Y00595201
X003248Y005712
X003488Y00608
X00384Y00622399
X00368Y00644799
T02
X000846Y00185999
X001054
X001246Y00184399
X001454Y00185999
X00195001Y00179601
X001965Y00134201
X002405Y00136799
X00244Y00214099
X002559Y00225001
X00268699Y00212499
X002445Y00277701
X00250101Y00286799
X00244Y00301201
X002372Y003275
X00244Y00335001
X00262999Y003583
X00222499Y00362501
X00215001Y00369301
X002075Y00376799
X001692Y00345001
X001Y003575
Y003875
X00090701Y003024
Y002824
X001975Y002875
X002075
X00222499
X00215001Y00295001
X00182499Y0024
X00178999Y00414101
X00183799Y004502
X00189901Y00459801
X00200599Y00459301
X002065Y004507
X00244Y00445
X002559Y00458201
X00270299Y00444101
X002499Y00506999
X002502Y00518399
X002483Y005291
X002621Y00565
X002375Y005875
X001865Y005675
X00178999Y00559999
X00168999Y00580499
X00190101Y005323
X001386Y004764
X00083401Y005066
X00085001Y00528201
T03
X003078Y00049401
Y00074801
Y00100201
Y00125601
Y00198501
Y00223901
Y00249301
Y00274701
Y003494
Y003748
Y004002
Y004256
Y00501899
Y00527299
Y00552699
Y00578099
T04
X00022299Y00083701
X00047699
Y00109101
X00022299
Y00134501
X00047699
Y00159901
X00022299
Y00185301
X00047699
Y00210701
X00022299
Y00236101
X00047699
Y00261501
X00022299
Y00286901
X00047699
Y00312301
X00022299
Y00337701
X00047699
Y00363101
X00022299
Y00388501
X00047699
X00539199Y003883
Y003629
Y003375
Y003121
Y002867
Y002613
Y002359
Y002105
Y001851
Y001597
Y001343
Y001089
Y000835
Y004137
Y004391
Y004645
Y004899
Y005153
Y005407
Y005661
X00047699Y00566301
Y00540901
Y00515501
Y00490101
Y00464701
Y00439301
Y00413901
X00022299
Y00439301
Y00464701
Y00490101
Y00515501
Y00540901
Y00566301
T05
X001049Y001016
Y001316
X00134902
Y001016
T06
X00034999Y00035001
X00119901Y000584
X00524998Y00035001
Y00615
X00034999
M30
