G04*
G04 #@! TF.GenerationSoftware,Altium Limited,Altium Designer,25.8.1 (18)*
G04*
G04 Layer_Color=16711935*
%FSLAX44Y44*%
%MOMM*%
G71*
G04*
G04 #@! TF.SameCoordinates,422AF447-CE49-4BB0-B19B-A3A041D3FAC2*
G04*
G04*
G04 #@! TF.FilePolarity,Negative*
G04*
G01*
G75*
%ADD48C,3.1500*%
%ADD49O,3.1980X1.6740*%
G04:AMPARAMS|DCode=50|XSize=1.674mm|YSize=1.674mm|CornerRadius=0mm|HoleSize=0mm|Usage=FLASHONLY|Rotation=90.000|XOffset=0mm|YOffset=0mm|HoleType=Round|Shape=Octagon|*
%AMOCTAGOND50*
4,1,8,0.4185,0.8370,-0.4185,0.8370,-0.8370,0.4185,-0.8370,-0.4185,-0.4185,-0.8370,0.4185,-0.8370,0.8370,-0.4185,0.8370,0.4185,0.4185,0.8370,0.0*
%
%ADD50OCTAGOND50*%

%ADD51C,1.4581*%
%ADD52C,1.6801*%
%ADD53R,1.6801X1.6801*%
%ADD54C,0.5032*%
%ADD55C,0.5532*%
D48*
X524998Y35001D02*
D03*
Y615000D02*
D03*
X34999D02*
D03*
Y35027D02*
D03*
X120000Y58400D02*
D03*
D49*
X539199Y83500D02*
D03*
Y108900D02*
D03*
Y134300D02*
D03*
Y159700D02*
D03*
Y185100D02*
D03*
Y210500D02*
D03*
Y235900D02*
D03*
Y261300D02*
D03*
Y286700D02*
D03*
Y312100D02*
D03*
Y337500D02*
D03*
Y362900D02*
D03*
Y388300D02*
D03*
Y413700D02*
D03*
Y439100D02*
D03*
Y464500D02*
D03*
Y489900D02*
D03*
Y515300D02*
D03*
Y540700D02*
D03*
Y566100D02*
D03*
D50*
X22299Y566301D02*
D03*
X47699D02*
D03*
X22299Y540901D02*
D03*
X47699D02*
D03*
X22299Y515501D02*
D03*
X47699D02*
D03*
X22299Y490101D02*
D03*
X47699D02*
D03*
X22299Y464701D02*
D03*
X47699D02*
D03*
X22299Y439301D02*
D03*
X47699D02*
D03*
X22299Y413901D02*
D03*
X47699D02*
D03*
X22299Y388501D02*
D03*
X47699D02*
D03*
X22299Y363101D02*
D03*
X47699D02*
D03*
X22299Y337701D02*
D03*
X47699D02*
D03*
X22299Y312301D02*
D03*
X47699D02*
D03*
X22299Y286901D02*
D03*
X47699D02*
D03*
X22299Y261501D02*
D03*
X47699D02*
D03*
X22299Y236101D02*
D03*
X47699D02*
D03*
X22299Y210701D02*
D03*
X47699D02*
D03*
X22299Y185301D02*
D03*
X47699D02*
D03*
X22299Y159901D02*
D03*
X47699D02*
D03*
X22299Y134501D02*
D03*
X47699D02*
D03*
X22299Y109101D02*
D03*
X47699D02*
D03*
X22299Y83701D02*
D03*
X47699D02*
D03*
D51*
X307800Y501899D02*
D03*
Y527299D02*
D03*
Y552699D02*
D03*
Y578099D02*
D03*
Y349400D02*
D03*
Y374800D02*
D03*
Y400200D02*
D03*
Y425600D02*
D03*
Y198501D02*
D03*
Y223901D02*
D03*
Y249301D02*
D03*
Y274701D02*
D03*
Y49401D02*
D03*
Y74801D02*
D03*
Y100201D02*
D03*
Y125601D02*
D03*
D52*
X104900Y131600D02*
D03*
Y101600D02*
D03*
X134902Y131600D02*
D03*
D53*
Y101600D02*
D03*
D54*
X304599Y466600D02*
D03*
X460799Y449600D02*
D03*
X268801Y310401D02*
D03*
X273601Y368000D02*
D03*
X254300Y469999D02*
D03*
Y235199D02*
D03*
X64000Y284800D02*
D03*
Y396799D02*
D03*
X305600Y156799D02*
D03*
Y145600D02*
D03*
X308801Y307200D02*
D03*
Y297599D02*
D03*
X304000Y456001D02*
D03*
Y444800D02*
D03*
X248001Y595201D02*
D03*
X193599Y583999D02*
D03*
X331201Y484800D02*
D03*
X420799Y521599D02*
D03*
X422399Y382399D02*
D03*
X331201Y339199D02*
D03*
X332801Y185600D02*
D03*
X416001Y235199D02*
D03*
X334401Y43200D02*
D03*
X422399Y83200D02*
D03*
X321600Y116799D02*
D03*
X334401Y139200D02*
D03*
X339199Y291201D02*
D03*
X328000Y267200D02*
D03*
X319999Y412801D02*
D03*
X335999Y433601D02*
D03*
X348800Y608000D02*
D03*
X324800Y571200D02*
D03*
X137599Y460799D02*
D03*
X128001Y435201D02*
D03*
X140800Y235199D02*
D03*
X126401Y206400D02*
D03*
X368000Y644799D02*
D03*
X384000Y622399D02*
D03*
X86401Y292801D02*
D03*
X83200Y518399D02*
D03*
D55*
X100000Y387500D02*
D03*
X183799Y450200D02*
D03*
X244500Y277701D02*
D03*
X90701Y282400D02*
D03*
X244000Y301201D02*
D03*
X90701Y302400D02*
D03*
X249900Y506999D02*
D03*
X83401Y506600D02*
D03*
X248300Y529100D02*
D03*
X85001Y528201D02*
D03*
X255900Y225001D02*
D03*
X268699Y212499D02*
D03*
X244000Y335001D02*
D03*
X237200Y327500D02*
D03*
X255900Y458201D02*
D03*
X270299Y444101D02*
D03*
X237500Y587500D02*
D03*
X186500Y567500D02*
D03*
X207500Y376799D02*
D03*
Y287500D02*
D03*
X189901Y459801D02*
D03*
X215001Y369301D02*
D03*
X200599Y459301D02*
D03*
X215001Y295001D02*
D03*
X222499Y362501D02*
D03*
X206500Y450700D02*
D03*
X222499Y287500D02*
D03*
X100000Y357500D02*
D03*
X197500Y287500D02*
D03*
X145400Y185999D02*
D03*
X124600Y184399D02*
D03*
X105400Y185999D02*
D03*
X84600D02*
D03*
X196500Y134201D02*
D03*
X240500Y136799D02*
D03*
X190101Y532300D02*
D03*
X169200Y345001D02*
D03*
X262999Y358300D02*
D03*
X250101Y286799D02*
D03*
X182499Y240000D02*
D03*
X244000Y214099D02*
D03*
X195001Y179601D02*
D03*
X244000Y445000D02*
D03*
X178999Y414101D02*
D03*
X138600Y476400D02*
D03*
X262100Y565000D02*
D03*
X168999Y580499D02*
D03*
X178999Y559999D02*
D03*
X250200Y518399D02*
D03*
M02*
