G04*
G04 #@! TF.GenerationSoftware,Altium Limited,Altium Designer,25.8.1 (18)*
G04*
G04 Layer_Physical_Order=1*
G04 Layer_Color=255*
%FSLAX44Y44*%
%MOMM*%
G71*
G04*
G04 #@! TF.SameCoordinates,422AF447-CE49-4BB0-B19B-A3A041D3FAC2*
G04*
G04*
G04 #@! TF.FilePolarity,Positive*
G04*
G01*
G75*
%ADD12R,0.7000X0.8999*%
%ADD13R,1.8001X1.1999*%
%ADD14R,1.5499X0.6000*%
%ADD15R,2.0000X1.5001*%
%ADD16R,1.0000X1.1001*%
%ADD17R,0.7000X0.4001*%
%ADD18R,1.0500X1.0800*%
%ADD19R,1.7800X0.7201*%
%ADD20R,1.3000X1.6000*%
%ADD21R,3.5999X2.1999*%
%ADD22R,1.2190X2.2350*%
%ADD23R,0.8999X0.7000*%
%ADD24R,1.6000X0.6000*%
%ADD25R,1.1001X1.0000*%
G04:AMPARAMS|DCode=26|XSize=1mm|YSize=1mm|CornerRadius=0.15mm|HoleSize=0mm|Usage=FLASHONLY|Rotation=0.000|XOffset=0mm|YOffset=0mm|HoleType=Round|Shape=RoundedRectangle|*
%AMROUNDEDRECTD26*
21,1,1.0000,0.7000,0,0,0.0*
21,1,0.7000,1.0000,0,0,0.0*
1,1,0.3000,0.3500,-0.3500*
1,1,0.3000,-0.3500,-0.3500*
1,1,0.3000,-0.3500,0.3500*
1,1,0.3000,0.3500,0.3500*
%
%ADD26ROUNDEDRECTD26*%
%ADD27R,1.1001X1.0000*%
%ADD28R,0.2200X1.0000*%
%ADD29R,1.0000X0.2200*%
%ADD56C,0.1600*%
%ADD57C,0.2499*%
%ADD58C,0.8128*%
%ADD59C,1.0160*%
%ADD60C,0.1524*%
%ADD61C,1.2700*%
%ADD62C,1.6764*%
%ADD63C,0.4064*%
%ADD64C,3.0000*%
%ADD65O,3.0480X1.5240*%
G04:AMPARAMS|DCode=66|XSize=1.524mm|YSize=1.524mm|CornerRadius=0mm|HoleSize=0mm|Usage=FLASHONLY|Rotation=90.000|XOffset=0mm|YOffset=0mm|HoleType=Round|Shape=Octagon|*
%AMOCTAGOND66*
4,1,8,0.3810,0.7620,-0.3810,0.7620,-0.7620,0.3810,-0.7620,-0.3810,-0.3810,-0.7620,0.3810,-0.7620,0.7620,-0.3810,0.7620,0.3810,0.3810,0.7620,0.0*
%
%ADD66OCTAGOND66*%

%ADD67C,1.3081*%
%ADD68C,1.5301*%
%ADD69R,1.5301X1.5301*%
%ADD70C,0.7064*%
%ADD71C,0.7564*%
G36*
X318750Y600771D02*
X256980D01*
X254477Y603275D01*
X253708Y603788D01*
X252801Y603969D01*
X243200D01*
X242293Y603788D01*
X241524Y603275D01*
X235825Y597575D01*
X235311Y596806D01*
X235131Y595899D01*
Y592298D01*
X233675Y591325D01*
X232502Y589570D01*
X232090Y587500D01*
X232502Y585429D01*
X233675Y583674D01*
X235430Y582501D01*
X237500Y582089D01*
X239571Y582501D01*
X241326Y583674D01*
X242498Y585429D01*
X242910Y587500D01*
X242498Y589570D01*
X241326Y591325D01*
X239870Y592298D01*
Y594918D01*
X241898Y596946D01*
X243068Y596320D01*
X242846Y595201D01*
X243238Y593228D01*
X244355Y591556D01*
X246028Y590438D01*
X248001Y590046D01*
X249973Y590438D01*
X251646Y591556D01*
X252498Y592831D01*
X318750D01*
Y580469D01*
X315547D01*
X314844Y582166D01*
X313551Y583851D01*
X311867Y585143D01*
X309905Y585956D01*
X307800Y586233D01*
X305695Y585956D01*
X303733Y585143D01*
X302048Y583851D01*
X300755Y582166D01*
X299943Y580204D01*
X299666Y578099D01*
X299943Y575994D01*
X300755Y574032D01*
X302048Y572347D01*
X303733Y571055D01*
X305695Y570242D01*
X307800Y569965D01*
X309905Y570242D01*
X311867Y571055D01*
X313551Y572347D01*
X314844Y574032D01*
X315547Y575729D01*
X318750D01*
Y568501D01*
X310541Y560292D01*
X309905Y560556D01*
X307800Y560833D01*
X305695Y560556D01*
X303733Y559743D01*
X303233Y559360D01*
X295100D01*
X293376Y559133D01*
X291975Y558553D01*
X291077Y558434D01*
X289471Y557769D01*
X288091Y556711D01*
X287032Y555331D01*
X286367Y553724D01*
X286140Y552000D01*
Y550400D01*
X286140Y550400D01*
X286140Y550400D01*
Y403200D01*
X286140Y403200D01*
X286140Y403199D01*
Y249601D01*
X286140Y249601D01*
X286140Y249601D01*
Y102400D01*
X286140Y102400D01*
X286140Y102400D01*
Y25762D01*
X248399D01*
X248344Y25754D01*
X248288Y25761D01*
X228730Y25433D01*
X227824Y26324D01*
Y35695D01*
X208300D01*
X188777D01*
Y24764D01*
X160467Y24289D01*
X159561Y25180D01*
Y105124D01*
X159965Y105434D01*
X161553Y107503D01*
X161783Y108057D01*
X177573D01*
Y85993D01*
X192810D01*
Y111390D01*
X192810D01*
X192036Y112175D01*
X192040Y112407D01*
X191862Y113919D01*
X191872Y113944D01*
X192143Y115999D01*
X191872Y118055D01*
X191079Y119970D01*
X190725Y120431D01*
Y123026D01*
X187812D01*
X186256Y123671D01*
X184201Y123941D01*
X156401D01*
X156400Y123941D01*
X155373Y123806D01*
X154345Y123671D01*
X152430Y122877D01*
X151926Y122491D01*
X144891D01*
Y131600D01*
X144725Y132861D01*
X144693Y133117D01*
Y142909D01*
X154701D01*
X157287Y143249D01*
X158793Y143873D01*
X166225D01*
Y161922D01*
X158806D01*
X157287Y162551D01*
X154701Y162892D01*
X134701D01*
X132115Y162551D01*
X130597Y161922D01*
X67748D01*
X66852Y162822D01*
X66896Y173876D01*
X166225D01*
Y191925D01*
X67868D01*
X66972Y192825D01*
X67324Y280940D01*
X67646Y281155D01*
X68763Y282827D01*
X69155Y284800D01*
X68763Y286773D01*
X67646Y288445D01*
X67355Y288639D01*
X67616Y353865D01*
X68881Y355130D01*
X95202D01*
X96174Y353675D01*
X97929Y352502D01*
X100000Y352090D01*
X102070Y352502D01*
X103825Y353675D01*
X104998Y355430D01*
X105410Y357500D01*
X104998Y359570D01*
X103825Y361325D01*
X102070Y362498D01*
X100000Y362910D01*
X97929Y362498D01*
X96174Y361325D01*
X95202Y359870D01*
X70479D01*
X69993Y361043D01*
X76181Y367231D01*
X199018D01*
X205423Y360826D01*
X206192Y360312D01*
X207099Y360131D01*
X217701D01*
X218673Y358676D01*
X220429Y357503D01*
X222499Y357091D01*
X224569Y357503D01*
X226324Y358676D01*
X227497Y360431D01*
X227909Y362501D01*
X227497Y364571D01*
X226324Y366327D01*
X224569Y367499D01*
X222499Y367911D01*
X221385Y367690D01*
X220305Y368770D01*
X220411Y369301D01*
X219999Y371371D01*
X218826Y373126D01*
X217071Y374299D01*
X215001Y374711D01*
X213729Y374458D01*
X212657Y375528D01*
X212910Y376799D01*
X212498Y378869D01*
X211326Y380624D01*
X209571Y381797D01*
X207500Y382209D01*
X205430Y381797D01*
X203675Y380624D01*
X202502Y378869D01*
X201600Y378371D01*
X68614D01*
X67717Y379271D01*
X67741Y385130D01*
X95202D01*
X96174Y383674D01*
X97929Y382502D01*
X100000Y382090D01*
X102070Y382502D01*
X103825Y383674D01*
X104998Y385429D01*
X105410Y387500D01*
X104998Y389570D01*
X103825Y391325D01*
X102070Y392498D01*
X100000Y392910D01*
X97929Y392498D01*
X96174Y391325D01*
X95202Y389869D01*
X68660D01*
X67764Y390769D01*
X67774Y393346D01*
X68763Y394826D01*
X69155Y396799D01*
X68763Y398772D01*
X67801Y400211D01*
X68027Y456677D01*
X87926D01*
Y471724D01*
X68987D01*
X68091Y472624D01*
X68371Y542676D01*
X87926D01*
Y557723D01*
X69331D01*
X68435Y558623D01*
X68599Y599648D01*
X101781Y632831D01*
X318750D01*
Y600771D01*
D02*
G37*
%LPC*%
G36*
X168999Y585909D02*
X166929Y585497D01*
X165173Y584325D01*
X164001Y582570D01*
X163589Y580499D01*
X163930Y578782D01*
X162706Y577557D01*
X161825Y577922D01*
Y577922D01*
X148777D01*
Y573270D01*
X140425D01*
Y577823D01*
X127377D01*
Y563775D01*
X140425D01*
Y568531D01*
X148777D01*
Y563874D01*
X161825D01*
Y569974D01*
X167282Y575431D01*
X168999Y575089D01*
X171069Y575501D01*
X172824Y576674D01*
X173997Y578429D01*
X174409Y580499D01*
X173997Y582570D01*
X172824Y584325D01*
X171069Y585497D01*
X168999Y585909D01*
D02*
G37*
G36*
X193599Y589154D02*
X191626Y588762D01*
X189954Y587644D01*
X188836Y585972D01*
X188444Y583999D01*
X188836Y582027D01*
X189954Y580354D01*
X191229Y579502D01*
Y572084D01*
X189959Y571569D01*
X188570Y572498D01*
X186500Y572910D01*
X184429Y572498D01*
X182674Y571325D01*
X181501Y569570D01*
X181089Y567500D01*
X181343Y566225D01*
X180273Y565155D01*
X178999Y565409D01*
X176929Y564997D01*
X175173Y563824D01*
X174001Y562069D01*
X173589Y559999D01*
X174001Y557929D01*
X175173Y556173D01*
X176629Y555201D01*
Y553124D01*
X175016D01*
Y546600D01*
Y540076D01*
X191630D01*
Y538407D01*
X190649Y537601D01*
X190101Y537710D01*
X188031Y537298D01*
X186276Y536126D01*
X185103Y534370D01*
X184691Y532300D01*
X185103Y530230D01*
X186276Y528475D01*
X188031Y527302D01*
X190101Y526890D01*
X192171Y527302D01*
X193927Y528475D01*
X195099Y530230D01*
X195511Y532300D01*
X195170Y534017D01*
X195676Y534524D01*
X196189Y535292D01*
X196370Y536199D01*
Y540076D01*
X246632D01*
Y534178D01*
X246230Y534098D01*
X244475Y532925D01*
X243302Y531170D01*
X242890Y529100D01*
X243302Y527029D01*
X244475Y525274D01*
X246230Y524102D01*
X246745Y523999D01*
X247013Y522651D01*
X246375Y522224D01*
X245202Y520469D01*
X244790Y518399D01*
X245202Y516328D01*
X246375Y514573D01*
X248130Y513400D01*
X248252Y513376D01*
Y512081D01*
X247830Y511997D01*
X246075Y510825D01*
X244902Y509070D01*
X244490Y506999D01*
X244902Y504929D01*
X246075Y503174D01*
X247830Y502001D01*
X249900Y501589D01*
X251971Y502001D01*
X253726Y503174D01*
X254899Y504929D01*
X255310Y506999D01*
X254969Y508717D01*
X260481Y514231D01*
X262477D01*
Y508975D01*
Y498975D01*
Y488975D01*
Y478975D01*
Y468970D01*
X260251D01*
X259445Y469952D01*
X259455Y469999D01*
X259062Y471972D01*
X257945Y473644D01*
X256272Y474762D01*
X254300Y475154D01*
X252327Y474762D01*
X250655Y473644D01*
X249537Y471972D01*
X249145Y469999D01*
X249537Y468026D01*
X250655Y466354D01*
X252327Y465237D01*
X254079Y464888D01*
X254476Y464622D01*
X254354Y463329D01*
X254342Y463301D01*
X253830Y463199D01*
X252075Y462026D01*
X250902Y460271D01*
X250490Y458201D01*
X250902Y456130D01*
X252075Y454375D01*
X253830Y453203D01*
X255900Y452791D01*
X257970Y453203D01*
X259509Y454231D01*
X262477D01*
Y448975D01*
X265763D01*
X266074Y448517D01*
X266326Y447705D01*
X265301Y446171D01*
X264889Y444101D01*
X265301Y442031D01*
X266474Y440276D01*
X268229Y439103D01*
X270299Y438691D01*
X272369Y439103D01*
X274125Y440276D01*
X275297Y442031D01*
X275709Y444101D01*
X275297Y446171D01*
X274272Y447705D01*
X274667Y448975D01*
X275525D01*
Y458975D01*
Y468975D01*
Y478975D01*
Y488975D01*
Y498975D01*
Y508975D01*
Y518975D01*
Y525584D01*
X269001D01*
X262477D01*
Y523969D01*
X253401D01*
X252974Y523884D01*
X252598Y524063D01*
X252465Y524403D01*
X252339Y525593D01*
X253298Y527029D01*
X253710Y529100D01*
X253298Y531170D01*
X252126Y532925D01*
X251371Y533430D01*
Y540076D01*
X251625D01*
Y553124D01*
X193333D01*
X192847Y554298D01*
X195274Y556726D01*
X195788Y557494D01*
X195968Y558401D01*
Y579502D01*
X197244Y580354D01*
X198361Y582027D01*
X198754Y583999D01*
X198361Y585972D01*
X197244Y587644D01*
X195571Y588762D01*
X193599Y589154D01*
D02*
G37*
G36*
X161825Y560925D02*
X156317D01*
Y554916D01*
X161825D01*
Y560925D01*
D02*
G37*
G36*
X154285D02*
X148777D01*
Y554916D01*
X154285D01*
Y560925D01*
D02*
G37*
G36*
X140425Y560826D02*
X134917D01*
Y554817D01*
X140425D01*
Y560826D01*
D02*
G37*
G36*
X132885D02*
X127377D01*
Y554817D01*
X132885D01*
Y560826D01*
D02*
G37*
G36*
X262100Y570410D02*
X260030Y569998D01*
X258275Y568826D01*
X257102Y567071D01*
X256690Y565000D01*
X257102Y562930D01*
X258275Y561175D01*
X260030Y560002D01*
X262100Y559590D01*
X264170Y560002D01*
X264456Y560193D01*
X265576Y559594D01*
Y554074D01*
X278624D01*
Y568123D01*
X266395D01*
X265926Y568826D01*
X264170Y569998D01*
X262100Y570410D01*
D02*
G37*
G36*
X172984Y553124D02*
X171376D01*
Y547616D01*
X172984D01*
Y553124D01*
D02*
G37*
G36*
X161825Y552884D02*
X156317D01*
Y546876D01*
X161825D01*
Y552884D01*
D02*
G37*
G36*
X154285D02*
X148777D01*
Y546876D01*
X154285D01*
Y552884D01*
D02*
G37*
G36*
X140425Y552785D02*
X134917D01*
Y546777D01*
X140425D01*
Y552785D01*
D02*
G37*
G36*
X132885D02*
X127377D01*
Y546777D01*
X132885D01*
Y552785D01*
D02*
G37*
G36*
X278624Y551125D02*
X273116D01*
Y545117D01*
X278624D01*
Y551125D01*
D02*
G37*
G36*
X271084D02*
X265576D01*
Y545117D01*
X271084D01*
Y551125D01*
D02*
G37*
G36*
X172984Y545584D02*
X171376D01*
Y540076D01*
X172984D01*
Y545584D01*
D02*
G37*
G36*
X111925Y541724D02*
X103668D01*
Y538216D01*
X111925D01*
Y541724D01*
D02*
G37*
G36*
X101636D02*
X93378D01*
Y538216D01*
X101636D01*
Y541724D01*
D02*
G37*
G36*
X278624Y543085D02*
X273116D01*
Y537077D01*
X278624D01*
Y543085D01*
D02*
G37*
G36*
X271084D02*
X265576D01*
Y537077D01*
X271084D01*
Y543085D01*
D02*
G37*
G36*
X275525Y529224D02*
X270017D01*
Y527616D01*
X275525D01*
Y529224D01*
D02*
G37*
G36*
X160524D02*
X155016D01*
Y527616D01*
X160524D01*
Y529224D01*
D02*
G37*
G36*
X152984D02*
X147476D01*
Y527616D01*
X152984D01*
Y529224D01*
D02*
G37*
G36*
X267985D02*
X262477D01*
Y527616D01*
X267985D01*
Y529224D01*
D02*
G37*
G36*
X137624Y541022D02*
X118576D01*
Y531975D01*
X136830D01*
Y529024D01*
X118576D01*
Y525127D01*
X114218Y520768D01*
X112685D01*
X111925Y521724D01*
Y522676D01*
X111925D01*
Y531406D01*
X111925Y531724D01*
Y532676D01*
X111925Y532994D01*
Y536184D01*
X102652D01*
X93378D01*
Y532994D01*
X93378Y532676D01*
Y531724D01*
X92454Y530570D01*
X89799D01*
X88827Y532026D01*
X87071Y533199D01*
X85001Y533611D01*
X82931Y533199D01*
X81176Y532026D01*
X80003Y530271D01*
X79591Y528201D01*
X80003Y526130D01*
X81176Y524375D01*
X81208Y524354D01*
X80967Y522987D01*
X79555Y522044D01*
X78438Y520372D01*
X78045Y518399D01*
X78438Y516426D01*
X79555Y514754D01*
X81228Y513636D01*
X83200Y513244D01*
X83394Y512009D01*
X81331Y511599D01*
X79575Y510426D01*
X78403Y508671D01*
X77991Y506600D01*
X78403Y504530D01*
X79575Y502775D01*
X81331Y501602D01*
X83401Y501190D01*
X85471Y501602D01*
X87226Y502775D01*
X88199Y504231D01*
X92480D01*
X93353Y503358D01*
X93378Y502961D01*
X93378Y502676D01*
Y501724D01*
X93378Y501406D01*
Y492676D01*
X93378D01*
Y491724D01*
X93378D01*
Y482994D01*
X93378Y482676D01*
Y481724D01*
X93378Y481406D01*
Y472676D01*
X101631D01*
Y472001D01*
X101811Y471094D01*
X102325Y470325D01*
X142723Y429924D01*
X143492Y429410D01*
X144399Y429230D01*
X171376D01*
Y425075D01*
X176629D01*
Y418899D01*
X175173Y417927D01*
X174201Y416471D01*
X165823D01*
Y418624D01*
X151774D01*
Y405576D01*
X165823D01*
Y411732D01*
X174201D01*
X175173Y410276D01*
X176929Y409103D01*
X178999Y408691D01*
X180737Y409037D01*
X181035Y408838D01*
X181421Y408580D01*
X181422Y408580D01*
X181422Y408579D01*
X181857Y408493D01*
X182328Y408399D01*
X182328Y408399D01*
X182329Y408399D01*
X187318D01*
Y407271D01*
X187553Y406091D01*
X188221Y405091D01*
X189221Y404423D01*
X190401Y404188D01*
X197401D01*
X198581Y404423D01*
X199581Y405091D01*
X200250Y406091D01*
X200484Y407271D01*
Y414271D01*
X200250Y415451D01*
X199581Y416451D01*
X198581Y417120D01*
X197401Y417355D01*
X190401D01*
X189221Y417120D01*
X188221Y416451D01*
X187553Y415451D01*
X187318Y414271D01*
Y413138D01*
X185199D01*
X184409Y414101D01*
X183997Y416172D01*
X182824Y417927D01*
X181369Y418899D01*
Y425075D01*
X182984D01*
Y431599D01*
Y438123D01*
X171376D01*
Y433969D01*
X145381D01*
X131066Y448284D01*
X131797Y449350D01*
X132400Y449230D01*
X147476D01*
Y448975D01*
X160524D01*
Y458975D01*
Y468975D01*
Y478975D01*
Y488975D01*
Y498975D01*
Y508975D01*
Y518975D01*
Y525584D01*
X154000D01*
X147476D01*
Y518975D01*
Y508970D01*
X142381D01*
X141569Y509782D01*
Y536001D01*
X141389Y536908D01*
X140875Y537677D01*
X139275Y539277D01*
X138506Y539790D01*
X137624Y539966D01*
Y541022D01*
D02*
G37*
G36*
X189901Y465211D02*
X187830Y464799D01*
X186075Y463626D01*
X184902Y461871D01*
X184491Y459801D01*
X184902Y457731D01*
X185708Y456525D01*
X184944Y455382D01*
X183799Y455610D01*
X181729Y455198D01*
X179974Y454025D01*
X178801Y452270D01*
X178389Y450200D01*
X178801Y448129D01*
X179974Y446374D01*
X181729Y445201D01*
X183799Y444790D01*
X185517Y445131D01*
X186629Y444019D01*
Y438123D01*
X185016D01*
Y431599D01*
Y425075D01*
X211630D01*
Y417623D01*
X204177D01*
Y404575D01*
X218225D01*
Y417623D01*
X216370D01*
Y425075D01*
X236629D01*
Y419523D01*
X232876D01*
Y405474D01*
X245924D01*
Y419523D01*
X241368D01*
Y425075D01*
X247985D01*
Y431599D01*
Y438123D01*
X246370D01*
Y440202D01*
X247826Y441175D01*
X248998Y442930D01*
X249410Y445000D01*
X248998Y447071D01*
X247826Y448826D01*
X246070Y449999D01*
X244000Y450410D01*
X241930Y449999D01*
X240175Y448826D01*
X239002Y447071D01*
X238590Y445000D01*
X239002Y442930D01*
X240175Y441175D01*
X241630Y440202D01*
Y438123D01*
X206370D01*
Y445184D01*
X206500Y445290D01*
X208570Y445702D01*
X210325Y446875D01*
X211498Y448630D01*
X211910Y450700D01*
X211498Y452771D01*
X210325Y454526D01*
X208570Y455698D01*
X206500Y456110D01*
X206223Y456055D01*
X205518Y457111D01*
X205597Y457230D01*
X206009Y459301D01*
X205597Y461371D01*
X204424Y463126D01*
X202669Y464299D01*
X200599Y464711D01*
X198529Y464299D01*
X196774Y463126D01*
X196122Y462152D01*
X195832Y462085D01*
X194653Y462239D01*
X193726Y463626D01*
X191971Y464799D01*
X189901Y465211D01*
D02*
G37*
G36*
X251625Y438123D02*
X250017D01*
Y432615D01*
X251625D01*
Y438123D01*
D02*
G37*
G36*
X128001Y440356D02*
X126028Y439964D01*
X124356Y438846D01*
X123238Y437174D01*
X122846Y435201D01*
X123145Y433696D01*
X118691Y429241D01*
X117624Y428723D01*
Y428723D01*
X117624Y428723D01*
X103575D01*
Y415675D01*
X117624D01*
Y421470D01*
X126497Y430345D01*
X128001Y430046D01*
X129973Y430438D01*
X131646Y431556D01*
X132763Y433228D01*
X133156Y435201D01*
X132763Y437174D01*
X131646Y438846D01*
X129973Y439964D01*
X128001Y440356D01*
D02*
G37*
G36*
X251625Y430583D02*
X250017D01*
Y425075D01*
X251625D01*
Y430583D01*
D02*
G37*
G36*
X100626Y428723D02*
X94618D01*
Y423215D01*
X100626D01*
Y428723D01*
D02*
G37*
G36*
X92585D02*
X86577D01*
Y423215D01*
X92585D01*
Y428723D01*
D02*
G37*
G36*
X100626Y421183D02*
X94618D01*
Y415675D01*
X100626D01*
Y421183D01*
D02*
G37*
G36*
X92585D02*
X86577D01*
Y415675D01*
X92585D01*
Y421183D01*
D02*
G37*
G36*
X148825Y418624D02*
X142817D01*
Y413116D01*
X148825D01*
Y418624D01*
D02*
G37*
G36*
X140785D02*
X134776D01*
Y413116D01*
X140785D01*
Y418624D01*
D02*
G37*
G36*
X148825Y411084D02*
X142817D01*
Y405576D01*
X148825D01*
Y411084D01*
D02*
G37*
G36*
X140785D02*
X134776D01*
Y405576D01*
X140785D01*
Y411084D01*
D02*
G37*
G36*
X245924Y402525D02*
X240416D01*
Y396517D01*
X245924D01*
Y402525D01*
D02*
G37*
G36*
X238384D02*
X232876D01*
Y396517D01*
X238384D01*
Y402525D01*
D02*
G37*
G36*
X218225Y400625D02*
X204177D01*
Y396468D01*
X200484D01*
Y396730D01*
X200250Y397910D01*
X199581Y398910D01*
X198581Y399579D01*
X197401Y399813D01*
X190401D01*
X189221Y399579D01*
X188221Y398910D01*
X187553Y397910D01*
X187318Y396730D01*
Y389730D01*
X187553Y388550D01*
X188221Y387550D01*
X189221Y386882D01*
X190401Y386647D01*
X197401D01*
X198581Y386882D01*
X199581Y387550D01*
X200250Y388550D01*
X200484Y389730D01*
Y391729D01*
X204177D01*
Y387577D01*
X218225D01*
Y400625D01*
D02*
G37*
G36*
X245924Y394485D02*
X240416D01*
Y388476D01*
X245924D01*
Y394485D01*
D02*
G37*
G36*
X238384D02*
X232876D01*
Y388476D01*
X238384D01*
Y394485D01*
D02*
G37*
G36*
X163224Y350524D02*
X150176D01*
Y346328D01*
X143425D01*
Y350524D01*
X130377D01*
Y336475D01*
X143425D01*
Y340671D01*
X150176D01*
Y336475D01*
X163224D01*
Y341130D01*
X165442D01*
X167129Y340002D01*
X169200Y339591D01*
X170917Y339932D01*
X176629Y334220D01*
Y321525D01*
X175016D01*
Y315001D01*
Y308477D01*
X177772D01*
X180724Y305525D01*
X181493Y305011D01*
X182400Y304831D01*
X192001D01*
X192908Y305011D01*
X193677Y305525D01*
X195676Y307524D01*
X196189Y308293D01*
X196226Y308477D01*
X246632D01*
Y307181D01*
X245719Y306269D01*
X244000Y306611D01*
X241930Y306199D01*
X240175Y305026D01*
X239002Y303271D01*
X238590Y301201D01*
X239002Y299130D01*
X240175Y297375D01*
X241930Y296203D01*
X244000Y295791D01*
X246070Y296203D01*
X247826Y297375D01*
X248998Y299130D01*
X249410Y301201D01*
X249069Y302917D01*
X250676Y304524D01*
X250677Y304524D01*
X250677Y304524D01*
X250948Y304930D01*
X251190Y305292D01*
X251190Y305292D01*
X251190Y305293D01*
X251281Y305748D01*
X251371Y306199D01*
X251371Y306199D01*
X251371Y306199D01*
Y308477D01*
X251625D01*
Y321525D01*
X240094D01*
X239709Y322795D01*
X241026Y323675D01*
X242199Y325430D01*
X242610Y327500D01*
X242388Y328616D01*
X243468Y329696D01*
X244000Y329591D01*
X246070Y330002D01*
X247826Y331175D01*
X248998Y332930D01*
X249410Y335001D01*
X248998Y337071D01*
X247826Y338826D01*
X246070Y339999D01*
X244000Y340411D01*
X241930Y339999D01*
X240175Y338826D01*
X239002Y337071D01*
X238942Y336771D01*
X227201D01*
X226294Y336590D01*
X225525Y336077D01*
X221418Y331970D01*
X192001D01*
X191094Y331790D01*
X190326Y331276D01*
X182638Y323589D01*
X181400Y324022D01*
X181369Y324048D01*
Y335201D01*
X181188Y336108D01*
X180674Y336877D01*
X174268Y343283D01*
X174610Y345001D01*
X174198Y347071D01*
X173025Y348826D01*
X171270Y349999D01*
X169200Y350411D01*
X167129Y349999D01*
X165374Y348826D01*
X164494Y347509D01*
X163224Y347895D01*
Y350524D01*
D02*
G37*
G36*
X262999Y363710D02*
X260929Y363298D01*
X259174Y362126D01*
X258001Y360370D01*
X257589Y358300D01*
X258001Y356230D01*
X259174Y354475D01*
X260319Y353709D01*
X260236Y352458D01*
X258985Y352322D01*
X256076D01*
Y338273D01*
X269124D01*
Y352322D01*
X265906D01*
X265881Y352349D01*
X265504Y353592D01*
X266825Y354475D01*
X267997Y356230D01*
X268409Y358300D01*
X267997Y360370D01*
X266825Y362126D01*
X265070Y363298D01*
X262999Y363710D01*
D02*
G37*
G36*
X269124Y335325D02*
X263616D01*
Y329316D01*
X269124D01*
Y335325D01*
D02*
G37*
G36*
X261584D02*
X256076D01*
Y329316D01*
X261584D01*
Y335325D01*
D02*
G37*
G36*
X163224Y333526D02*
X157716D01*
Y327518D01*
X163224D01*
Y333526D01*
D02*
G37*
G36*
X143425D02*
X137917D01*
Y327518D01*
X143425D01*
Y333526D01*
D02*
G37*
G36*
X155684D02*
X150176D01*
Y327518D01*
X155684D01*
Y333526D01*
D02*
G37*
G36*
X135885D02*
X130377D01*
Y327518D01*
X135885D01*
Y333526D01*
D02*
G37*
G36*
X269124Y327284D02*
X263616D01*
Y321276D01*
X269124D01*
Y327284D01*
D02*
G37*
G36*
X261584D02*
X256076D01*
Y321276D01*
X261584D01*
Y327284D01*
D02*
G37*
G36*
X163224Y325486D02*
X157716D01*
Y319477D01*
X163224D01*
Y325486D01*
D02*
G37*
G36*
X155684D02*
X150176D01*
Y319477D01*
X155684D01*
Y325486D01*
D02*
G37*
G36*
X143425D02*
X137917D01*
Y319477D01*
X143425D01*
Y325486D01*
D02*
G37*
G36*
X135885D02*
X130377D01*
Y319477D01*
X135885D01*
Y325486D01*
D02*
G37*
G36*
X92726Y332123D02*
X71677D01*
Y317076D01*
X92726D01*
Y332123D01*
D02*
G37*
G36*
X172984Y321525D02*
X171376D01*
Y316017D01*
X172984D01*
Y321525D01*
D02*
G37*
G36*
X273601Y373155D02*
X271628Y372763D01*
X269956Y371645D01*
X268839Y369973D01*
X268446Y368000D01*
X268839Y366028D01*
X269956Y364355D01*
X271231Y363503D01*
Y316181D01*
X270306Y315256D01*
X268801Y315556D01*
X266828Y315163D01*
X265156Y314046D01*
X264038Y312373D01*
X263646Y310401D01*
X264038Y308428D01*
X265156Y306756D01*
X266828Y305638D01*
X268801Y305246D01*
X270773Y305638D01*
X272446Y306756D01*
X273563Y308428D01*
X273955Y310401D01*
X273657Y311904D01*
X275276Y313523D01*
X275277Y313523D01*
X275277Y313523D01*
X275532Y313905D01*
X275790Y314291D01*
X275790Y314292D01*
X275790Y314292D01*
X275879Y314737D01*
X275971Y315198D01*
X275971Y315198D01*
X275971Y315199D01*
Y363503D01*
X277246Y364355D01*
X278364Y366028D01*
X278756Y368000D01*
X278364Y369973D01*
X277246Y371645D01*
X275574Y372763D01*
X273601Y373155D01*
D02*
G37*
G36*
X116726Y316123D02*
X108468D01*
Y312616D01*
X116726D01*
Y316123D01*
D02*
G37*
G36*
X106436D02*
X98179D01*
Y312616D01*
X106436D01*
Y316123D01*
D02*
G37*
G36*
X172984Y313985D02*
X171376D01*
Y308477D01*
X172984D01*
Y313985D01*
D02*
G37*
G36*
X275525Y297624D02*
X270017D01*
Y296017D01*
X275525D01*
Y297624D01*
D02*
G37*
G36*
X160524D02*
X155016D01*
Y296017D01*
X160524D01*
Y297624D01*
D02*
G37*
G36*
X152984D02*
X147476D01*
Y296017D01*
X152984D01*
Y297624D01*
D02*
G37*
G36*
X267985D02*
X262477D01*
Y296017D01*
X267985D01*
Y297624D01*
D02*
G37*
G36*
X139224Y314622D02*
X120176D01*
Y305575D01*
X137474D01*
X139156Y303893D01*
X138630Y302623D01*
X120176D01*
Y297927D01*
X117889Y295641D01*
X116726Y296123D01*
Y297076D01*
X116726Y297393D01*
Y305806D01*
X116726Y306123D01*
Y307076D01*
X116726Y307393D01*
Y310584D01*
X107452D01*
X98179D01*
Y307393D01*
X98179Y307076D01*
Y306123D01*
X98179Y305806D01*
Y303969D01*
X95799D01*
X95699Y304470D01*
X94526Y306225D01*
X92771Y307398D01*
X90701Y307810D01*
X88631Y307398D01*
X86875Y306225D01*
X85703Y304470D01*
X85291Y302400D01*
X85703Y300329D01*
X86479Y299168D01*
X86473Y299073D01*
X85852Y297847D01*
X84428Y297564D01*
X82756Y296446D01*
X81638Y294774D01*
X81246Y292801D01*
X81638Y290828D01*
X82756Y289156D01*
X84428Y288039D01*
X86401Y287646D01*
X86850Y287735D01*
X87345Y286539D01*
X86875Y286225D01*
X85703Y284470D01*
X85291Y282400D01*
X85703Y280329D01*
X86875Y278574D01*
X88631Y277402D01*
X90701Y276990D01*
X92771Y277402D01*
X94526Y278574D01*
X94965Y279230D01*
X98179D01*
Y277393D01*
X98179Y277076D01*
Y276123D01*
X98179Y275806D01*
Y267076D01*
X98179D01*
Y266123D01*
X98179D01*
Y257076D01*
X98179D01*
Y256123D01*
X98179D01*
Y247076D01*
X108032D01*
Y246400D01*
X108212Y245494D01*
X108726Y244725D01*
X155124Y198324D01*
X155892Y197810D01*
X156799Y197630D01*
X171376D01*
Y193476D01*
X176629D01*
Y186122D01*
X173476D01*
Y172074D01*
X186524D01*
Y177231D01*
X190203D01*
X191175Y175775D01*
X192931Y174603D01*
X195001Y174191D01*
X197071Y174603D01*
X198826Y175775D01*
X199845Y177300D01*
X202718D01*
Y176169D01*
X202953Y174989D01*
X203621Y173989D01*
X204621Y173321D01*
X205801Y173086D01*
X212801D01*
X213981Y173321D01*
X214981Y173989D01*
X215650Y174989D01*
X215884Y176169D01*
Y183169D01*
X215650Y184349D01*
X214990Y185337D01*
X215003Y185398D01*
X215500Y186530D01*
X215999Y186431D01*
X217116D01*
X218175Y185922D01*
Y172874D01*
X232223D01*
Y185922D01*
X227906D01*
X227789Y186507D01*
X227276Y187276D01*
X224075Y190476D01*
X223307Y190990D01*
X222400Y191170D01*
X216981D01*
X216370Y191781D01*
Y193476D01*
X236629D01*
Y181800D01*
X236810Y180894D01*
X237323Y180125D01*
X239924Y177524D01*
X240693Y177010D01*
X241600Y176830D01*
X243676D01*
Y173974D01*
X256724D01*
Y188022D01*
X243676D01*
Y181992D01*
X242406Y181744D01*
X241368Y182782D01*
Y193476D01*
X247985D01*
Y200000D01*
Y206524D01*
X246370D01*
Y209301D01*
X247826Y210274D01*
X248998Y212029D01*
X249410Y214099D01*
X248998Y216169D01*
X247826Y217925D01*
X246070Y219097D01*
X244000Y219509D01*
X241930Y219097D01*
X240175Y217925D01*
X239002Y216169D01*
X238590Y214099D01*
X239002Y212029D01*
X240175Y210274D01*
X241630Y209301D01*
Y206524D01*
X206370D01*
Y220618D01*
X208076Y222325D01*
X208590Y223093D01*
X208770Y224000D01*
Y270418D01*
X220782Y282432D01*
X222499Y282090D01*
X224569Y282502D01*
X226324Y283675D01*
X227497Y285430D01*
X227909Y287500D01*
X227497Y289570D01*
X226324Y291325D01*
X224569Y292498D01*
X222499Y292910D01*
X221228Y292657D01*
X220158Y293729D01*
X220411Y295001D01*
X219999Y297071D01*
X218826Y298826D01*
X217071Y299999D01*
X215001Y300411D01*
X212931Y299999D01*
X211175Y298826D01*
X210003Y297071D01*
X209591Y295001D01*
X209844Y293727D01*
X208774Y292657D01*
X207500Y292910D01*
X205430Y292498D01*
X203675Y291325D01*
X203264Y290711D01*
X201737D01*
X201326Y291325D01*
X199571Y292498D01*
X197500Y292910D01*
X195430Y292498D01*
X193675Y291325D01*
X192502Y289570D01*
X192090Y287500D01*
X192502Y285430D01*
X193675Y283675D01*
X194430Y283170D01*
Y229782D01*
X187323Y222676D01*
X186810Y221907D01*
X186629Y221000D01*
Y206524D01*
X185016D01*
Y200000D01*
Y193476D01*
X211630D01*
Y190800D01*
X211811Y189893D01*
X212325Y189124D01*
X214174Y187274D01*
X214046Y186728D01*
X213602Y186093D01*
X212801Y186253D01*
X205801D01*
X204621Y186018D01*
X203621Y185350D01*
X202953Y184349D01*
X202718Y183169D01*
Y182039D01*
X199753D01*
X198826Y183426D01*
X197071Y184599D01*
X195001Y185011D01*
X192931Y184599D01*
X191175Y183426D01*
X190203Y181971D01*
X186524D01*
Y186122D01*
X181369D01*
Y193476D01*
X182984D01*
Y200000D01*
Y206524D01*
X171376D01*
Y202369D01*
X157781D01*
X142991Y217160D01*
X143517Y218430D01*
X147476D01*
Y217376D01*
X160524D01*
Y227376D01*
Y237171D01*
X178007D01*
X178673Y236174D01*
X180429Y235001D01*
X182499Y234590D01*
X184569Y235001D01*
X186325Y236174D01*
X187497Y237929D01*
X187909Y240000D01*
X187497Y242070D01*
X186325Y243825D01*
X184569Y244998D01*
X182499Y245410D01*
X180429Y244998D01*
X178673Y243825D01*
X178007Y242827D01*
X160524D01*
Y247376D01*
Y257376D01*
Y267376D01*
Y277376D01*
Y287376D01*
Y293985D01*
X154000D01*
X147476D01*
Y292377D01*
Y279935D01*
X146303Y279449D01*
X144770Y280981D01*
Y304000D01*
X144589Y304907D01*
X144076Y305676D01*
X139224Y310527D01*
Y314622D01*
D02*
G37*
G36*
X275525Y293985D02*
X269001D01*
X262477D01*
Y292369D01*
X253299D01*
X253298Y292369D01*
X253298Y292369D01*
X252847Y292279D01*
X252392Y292189D01*
X252392Y292188D01*
X252391Y292188D01*
X252020Y291940D01*
X251890Y291853D01*
X250101Y292209D01*
X248031Y291797D01*
X246276Y290625D01*
X245103Y288869D01*
X244691Y286799D01*
X245103Y284729D01*
X245444Y284218D01*
X244681Y283075D01*
X244500Y283111D01*
X242430Y282699D01*
X240675Y281526D01*
X239502Y279771D01*
X239090Y277701D01*
X239502Y275630D01*
X240675Y273875D01*
X242430Y272703D01*
X244500Y272291D01*
X246571Y272703D01*
X248326Y273875D01*
X249499Y275630D01*
X249578Y276030D01*
X251201D01*
X251201Y276030D01*
X251201Y276030D01*
X251640Y276117D01*
X252108Y276210D01*
X252108Y276210D01*
X252108Y276210D01*
X252463Y276447D01*
X252876Y276724D01*
X252877Y276724D01*
X252877Y276724D01*
X258782Y282631D01*
X262477D01*
Y277376D01*
Y267376D01*
Y257376D01*
Y247376D01*
Y237370D01*
X258929D01*
X257945Y238844D01*
X256272Y239961D01*
X254300Y240354D01*
X252327Y239961D01*
X250655Y238844D01*
X249537Y237172D01*
X249145Y235199D01*
X249537Y233226D01*
X250655Y231554D01*
X252327Y230436D01*
X252496Y229108D01*
X252075Y228826D01*
X250902Y227071D01*
X250490Y225001D01*
X250902Y222931D01*
X252075Y221175D01*
X253830Y220003D01*
X255900Y219591D01*
X257970Y220003D01*
X259725Y221175D01*
X260698Y222631D01*
X262477D01*
Y217376D01*
X264335D01*
X264727Y216106D01*
X263701Y214569D01*
X263289Y212499D01*
X263701Y210429D01*
X264874Y208673D01*
X266629Y207501D01*
X268699Y207089D01*
X270769Y207501D01*
X272524Y208673D01*
X273697Y210429D01*
X274109Y212499D01*
X273697Y214569D01*
X272671Y216106D01*
X272919Y216910D01*
X273233Y217376D01*
X275525D01*
Y222377D01*
Y232377D01*
Y242377D01*
Y252377D01*
Y262377D01*
Y272377D01*
Y282377D01*
Y292377D01*
Y293985D01*
D02*
G37*
G36*
X92726Y246124D02*
X71677D01*
Y231077D01*
X92726D01*
Y246124D01*
D02*
G37*
G36*
X103725Y212223D02*
X97716D01*
Y206715D01*
X103725D01*
Y212223D01*
D02*
G37*
G36*
X95684D02*
X89676D01*
Y206715D01*
X95684D01*
Y212223D01*
D02*
G37*
G36*
X120722D02*
X106674D01*
Y199175D01*
X120722D01*
Y203512D01*
X121992Y203897D01*
X122755Y202755D01*
X124428Y201638D01*
X126401Y201245D01*
X128373Y201638D01*
X130046Y202755D01*
X131163Y204428D01*
X131556Y206400D01*
X131163Y208373D01*
X130046Y210046D01*
X128373Y211163D01*
X126401Y211555D01*
X124432Y211164D01*
X123901Y211269D01*
X120722D01*
Y212223D01*
D02*
G37*
G36*
X251625Y206524D02*
X250017D01*
Y201016D01*
X251625D01*
Y206524D01*
D02*
G37*
G36*
X103725Y204683D02*
X97716D01*
Y199175D01*
X103725D01*
Y204683D01*
D02*
G37*
G36*
X95684D02*
X89676D01*
Y199175D01*
X95684D01*
Y204683D01*
D02*
G37*
G36*
X251625Y198984D02*
X250017D01*
Y193476D01*
X251625D01*
Y198984D01*
D02*
G37*
G36*
X256724Y171024D02*
X251216D01*
Y165016D01*
X256724D01*
Y171024D01*
D02*
G37*
G36*
X249184D02*
X243676D01*
Y165016D01*
X249184D01*
Y171024D01*
D02*
G37*
G36*
X232223Y168924D02*
X218175D01*
Y164959D01*
X215884D01*
Y165628D01*
X215650Y166808D01*
X214981Y167808D01*
X213981Y168477D01*
X212801Y168711D01*
X205801D01*
X204621Y168477D01*
X203621Y167808D01*
X202953Y166808D01*
X202718Y165628D01*
Y158628D01*
X202953Y157448D01*
X203621Y156448D01*
X204621Y155780D01*
X205801Y155545D01*
X212801D01*
X213981Y155780D01*
X214981Y156448D01*
X215650Y157448D01*
X215884Y158628D01*
Y159303D01*
X218175D01*
Y155876D01*
X232223D01*
Y168924D01*
D02*
G37*
G36*
X186524Y169125D02*
X181016D01*
Y163116D01*
X186524D01*
Y169125D01*
D02*
G37*
G36*
X178984D02*
X173476D01*
Y163116D01*
X178984D01*
Y169125D01*
D02*
G37*
G36*
X256724Y162984D02*
X251216D01*
Y156976D01*
X256724D01*
Y162984D01*
D02*
G37*
G36*
X249184D02*
X243676D01*
Y156976D01*
X249184D01*
Y162984D01*
D02*
G37*
G36*
X186524Y161084D02*
X181016D01*
Y155076D01*
X186524D01*
Y161084D01*
D02*
G37*
G36*
X178984D02*
X173476D01*
Y155076D01*
X178984D01*
Y161084D01*
D02*
G37*
G36*
X190725Y140024D02*
Y140024D01*
X177677D01*
Y125975D01*
X190725D01*
Y128451D01*
X196551Y128504D01*
X198727Y128957D01*
X200565Y130209D01*
X201783Y132068D01*
X202197Y134253D01*
X201743Y136429D01*
X200492Y138266D01*
X198632Y139484D01*
X196448Y139898D01*
X190902Y139848D01*
X190725Y140024D01*
D02*
G37*
G36*
X227724Y131025D02*
X220716D01*
Y122517D01*
X227724D01*
Y131025D01*
D02*
G37*
G36*
X218684D02*
X211676D01*
Y122517D01*
X218684D01*
Y131025D01*
D02*
G37*
G36*
X240393Y142496D02*
X238221Y142021D01*
X236396Y140752D01*
X235196Y138881D01*
X234803Y136693D01*
X234893Y131931D01*
X234003Y131025D01*
X231676D01*
Y111977D01*
X230649Y111390D01*
X228751D01*
X227724Y111977D01*
X227724Y112661D01*
Y120485D01*
X220716D01*
Y111977D01*
X222764D01*
X223790Y111390D01*
X223790Y110707D01*
Y85993D01*
X239028D01*
Y95715D01*
X241910Y96928D01*
X242817Y97541D01*
X243729Y98150D01*
X243738Y98164D01*
X243752Y98174D01*
X244354Y99087D01*
X244964Y99999D01*
X244967Y100015D01*
X244976Y100029D01*
X245184Y101105D01*
X245397Y102179D01*
Y111977D01*
X247724D01*
Y131025D01*
X246307D01*
X246196Y136906D01*
X245722Y139078D01*
X244452Y140903D01*
X242581Y142103D01*
X240393Y142496D01*
D02*
G37*
G36*
X218684Y120485D02*
X211676D01*
Y112661D01*
X211676Y111977D01*
X210649Y111390D01*
X209316D01*
Y99708D01*
X215919D01*
Y110707D01*
X215919Y111390D01*
X216946Y111977D01*
X218684D01*
Y120485D01*
D02*
G37*
G36*
X207284Y111390D02*
X200682D01*
Y99708D01*
X207284D01*
Y111390D01*
D02*
G37*
G36*
X215919Y97676D02*
X209316D01*
Y85993D01*
X215919D01*
Y97676D01*
D02*
G37*
G36*
X207284D02*
X200682D01*
Y85993D01*
X207284D01*
Y97676D01*
D02*
G37*
G36*
X227824Y49234D02*
X209316D01*
Y37727D01*
X227824D01*
Y49234D01*
D02*
G37*
G36*
X207284D02*
X188777D01*
Y37727D01*
X207284D01*
Y49234D01*
D02*
G37*
%LPD*%
D12*
X379100Y641599D02*
D03*
X392100D02*
D03*
D13*
X77401Y464200D02*
D03*
Y550200D02*
D03*
X82202Y238600D02*
D03*
Y324599D02*
D03*
D14*
X102652Y537200D02*
D03*
Y527200D02*
D03*
Y517200D02*
D03*
Y507200D02*
D03*
Y497200D02*
D03*
Y487200D02*
D03*
Y477200D02*
D03*
X107452Y311600D02*
D03*
Y301600D02*
D03*
Y291600D02*
D03*
Y281600D02*
D03*
Y271600D02*
D03*
Y261600D02*
D03*
Y251600D02*
D03*
D15*
X75499Y182900D02*
D03*
Y152898D02*
D03*
X95499Y182900D02*
D03*
Y152898D02*
D03*
X115499Y182900D02*
D03*
Y152898D02*
D03*
X154701Y182900D02*
D03*
Y152898D02*
D03*
X134701Y182900D02*
D03*
Y152898D02*
D03*
D16*
X326100Y643499D02*
D03*
Y626501D02*
D03*
X184201Y132999D02*
D03*
Y116002D02*
D03*
X124600Y491998D02*
D03*
Y475000D02*
D03*
X272100Y561099D02*
D03*
Y544101D02*
D03*
X155301Y570898D02*
D03*
Y553900D02*
D03*
X133901Y570799D02*
D03*
Y553801D02*
D03*
X239400Y412499D02*
D03*
Y395501D02*
D03*
X133800Y263200D02*
D03*
Y246202D02*
D03*
X180000Y179098D02*
D03*
Y162100D02*
D03*
X262600Y345298D02*
D03*
Y328300D02*
D03*
X156700Y343499D02*
D03*
Y326502D02*
D03*
X136901Y343499D02*
D03*
Y326502D02*
D03*
X250200Y180998D02*
D03*
Y164000D02*
D03*
D17*
X346502Y626501D02*
D03*
Y639501D02*
D03*
X363499D02*
D03*
Y633001D02*
D03*
Y626501D02*
D03*
D18*
X409651Y160500D02*
D03*
X392151D02*
D03*
X407751Y309999D02*
D03*
X390251D02*
D03*
X412849Y607601D02*
D03*
X395349D02*
D03*
X410649Y454899D02*
D03*
X393149D02*
D03*
X410451Y234099D02*
D03*
X392951D02*
D03*
X414350Y382999D02*
D03*
X396850D02*
D03*
X412750Y533900D02*
D03*
X395249D02*
D03*
X411351Y90000D02*
D03*
X393850D02*
D03*
X326550Y472801D02*
D03*
X344051D02*
D03*
X377449Y608099D02*
D03*
X359949D02*
D03*
X324950Y321701D02*
D03*
X342450D02*
D03*
X376349Y454500D02*
D03*
X358849D02*
D03*
X323850Y168999D02*
D03*
X341351D02*
D03*
X375549Y308900D02*
D03*
X358049D02*
D03*
X324150Y21801D02*
D03*
X341650D02*
D03*
X378551Y160101D02*
D03*
X361051D02*
D03*
D19*
X406900Y555549D02*
D03*
Y568249D02*
D03*
Y593649D02*
D03*
X359900Y555549D02*
D03*
Y568249D02*
D03*
Y593649D02*
D03*
X406900Y580949D02*
D03*
X359900D02*
D03*
X405300Y255049D02*
D03*
Y267749D02*
D03*
Y293149D02*
D03*
X358300Y255049D02*
D03*
Y267749D02*
D03*
Y293149D02*
D03*
X405300Y280449D02*
D03*
X358300D02*
D03*
X409400Y400949D02*
D03*
Y413649D02*
D03*
Y439049D02*
D03*
X362400Y400949D02*
D03*
Y413649D02*
D03*
Y439049D02*
D03*
X409400Y426349D02*
D03*
X362400D02*
D03*
X407799Y107551D02*
D03*
Y120251D02*
D03*
Y145651D02*
D03*
X360799Y107551D02*
D03*
Y120251D02*
D03*
Y145651D02*
D03*
X407799Y132951D02*
D03*
X360799D02*
D03*
X408600Y483050D02*
D03*
Y495750D02*
D03*
Y521150D02*
D03*
X361600Y483050D02*
D03*
Y495750D02*
D03*
Y521150D02*
D03*
X408600Y508450D02*
D03*
X361600D02*
D03*
X410200Y332151D02*
D03*
Y344851D02*
D03*
Y370251D02*
D03*
X363200Y332151D02*
D03*
Y344851D02*
D03*
Y370251D02*
D03*
X410200Y357551D02*
D03*
X363200D02*
D03*
X406100Y180050D02*
D03*
Y192750D02*
D03*
Y218150D02*
D03*
X359100Y180050D02*
D03*
Y192750D02*
D03*
Y218150D02*
D03*
X406100Y205450D02*
D03*
X359100D02*
D03*
X408399Y37549D02*
D03*
Y50249D02*
D03*
Y75649D02*
D03*
X361399Y37549D02*
D03*
Y50249D02*
D03*
Y75649D02*
D03*
X408399Y62949D02*
D03*
X361399D02*
D03*
D20*
X239700Y121501D02*
D03*
X219700D02*
D03*
D21*
X208300Y36711D02*
D03*
D22*
X185191Y98692D02*
D03*
X208300D02*
D03*
X231409D02*
D03*
D23*
X433301Y506999D02*
D03*
Y493999D02*
D03*
X434899Y356100D02*
D03*
Y343101D02*
D03*
X430101Y199900D02*
D03*
Y186901D02*
D03*
X432399Y63299D02*
D03*
Y50300D02*
D03*
D24*
X128100Y512501D02*
D03*
Y524500D02*
D03*
Y536499D02*
D03*
X129700Y286101D02*
D03*
Y298099D02*
D03*
Y310098D02*
D03*
D25*
X211201Y411099D02*
D03*
Y394101D02*
D03*
X225199Y179398D02*
D03*
Y162400D02*
D03*
D26*
X193901Y393230D02*
D03*
Y410771D02*
D03*
X209301Y162128D02*
D03*
Y179669D02*
D03*
D27*
X158798Y412100D02*
D03*
X141801D02*
D03*
X110599Y422199D02*
D03*
X93602D02*
D03*
X113698Y205699D02*
D03*
X96700D02*
D03*
D28*
X204000Y546600D02*
D03*
X194000D02*
D03*
X184000D02*
D03*
X174000D02*
D03*
X179001D02*
D03*
X189001D02*
D03*
X199001D02*
D03*
X249001D02*
D03*
X239001D02*
D03*
X229001D02*
D03*
X219001D02*
D03*
X244000D02*
D03*
X234000D02*
D03*
X224000D02*
D03*
X209001D02*
D03*
X214000D02*
D03*
X219001Y431599D02*
D03*
X229001D02*
D03*
X239001D02*
D03*
X249001D02*
D03*
X244000D02*
D03*
X234000D02*
D03*
X224000D02*
D03*
X174000D02*
D03*
X184000D02*
D03*
X194000D02*
D03*
X204000D02*
D03*
X179001D02*
D03*
X189001D02*
D03*
X199001D02*
D03*
X214000D02*
D03*
X209001D02*
D03*
X204000Y315001D02*
D03*
X194000D02*
D03*
X184000D02*
D03*
X174000D02*
D03*
X179001D02*
D03*
X189001D02*
D03*
X199001D02*
D03*
X249001D02*
D03*
X239001D02*
D03*
X229001D02*
D03*
X219001D02*
D03*
X244000D02*
D03*
X234000D02*
D03*
X224000D02*
D03*
X209001D02*
D03*
X214000D02*
D03*
X219001Y200000D02*
D03*
X229001D02*
D03*
X239001D02*
D03*
X249001D02*
D03*
X244000D02*
D03*
X234000D02*
D03*
X224000D02*
D03*
X174000D02*
D03*
X184000D02*
D03*
X194000D02*
D03*
X204000D02*
D03*
X179001D02*
D03*
X189001D02*
D03*
X199001D02*
D03*
X214000D02*
D03*
X209001D02*
D03*
D29*
X269001Y496600D02*
D03*
Y506600D02*
D03*
Y516600D02*
D03*
Y526600D02*
D03*
Y521599D02*
D03*
Y511599D02*
D03*
Y501599D02*
D03*
Y451599D02*
D03*
Y461599D02*
D03*
Y471599D02*
D03*
Y481599D02*
D03*
Y456601D02*
D03*
Y466600D02*
D03*
Y476600D02*
D03*
Y491599D02*
D03*
Y486600D02*
D03*
X154000Y481599D02*
D03*
Y471599D02*
D03*
Y461599D02*
D03*
Y451599D02*
D03*
Y456601D02*
D03*
Y466600D02*
D03*
Y476600D02*
D03*
Y526600D02*
D03*
Y516600D02*
D03*
Y506600D02*
D03*
Y496600D02*
D03*
Y521599D02*
D03*
Y511599D02*
D03*
Y501599D02*
D03*
Y486600D02*
D03*
Y491599D02*
D03*
X269001Y265001D02*
D03*
Y275001D02*
D03*
Y285001D02*
D03*
Y295001D02*
D03*
Y289999D02*
D03*
Y279999D02*
D03*
Y270000D02*
D03*
Y220000D02*
D03*
Y230000D02*
D03*
Y240000D02*
D03*
Y250000D02*
D03*
Y225001D02*
D03*
Y235001D02*
D03*
Y245001D02*
D03*
Y260000D02*
D03*
Y255001D02*
D03*
X154000Y250000D02*
D03*
Y240000D02*
D03*
Y230000D02*
D03*
Y220000D02*
D03*
Y225001D02*
D03*
Y235001D02*
D03*
Y245001D02*
D03*
Y295001D02*
D03*
Y285001D02*
D03*
Y275001D02*
D03*
Y265001D02*
D03*
Y289999D02*
D03*
Y279999D02*
D03*
Y270000D02*
D03*
Y255001D02*
D03*
Y260000D02*
D03*
D56*
X363499Y640301D02*
Y641299D01*
X378549Y132151D02*
Y160101D01*
X178999Y546600D02*
Y559999D01*
Y414101D02*
Y431599D01*
X182329Y410769D02*
X193901D01*
X178999Y315001D02*
Y335201D01*
Y315001D02*
X179200Y314800D01*
X134000Y570901D02*
X159400D01*
X102650Y517201D02*
X103850Y518399D01*
X102649Y517200D02*
X102650Y517201D01*
X124600Y492001D02*
X128801D01*
X124399Y299001D02*
X130599D01*
X178999Y180101D02*
Y200000D01*
X107451Y291598D02*
X107851Y291201D01*
X107450Y291600D02*
X107451Y291598D01*
X500799Y462399D02*
X527299Y439100D01*
X500799Y462399D02*
Y553601D01*
X421401Y633001D02*
X500799Y553601D01*
X390401Y633001D02*
X421401D01*
X363499D02*
X390401D01*
X527299Y439100D02*
X539199D01*
X304599Y466600D02*
X313601Y457599D01*
X345600D01*
X353601Y465600D01*
X427200D01*
X443200Y449600D01*
X460799D01*
X268801Y310401D02*
X273601Y315199D01*
Y368000D01*
X254300Y235199D02*
X254500Y235001D01*
X269001D01*
X255699Y466600D02*
X269001D01*
X363200Y332151D02*
X364150Y331201D01*
X379199D01*
X387200Y339199D01*
Y396799D01*
X404050Y413649D01*
X409400D01*
X363200Y370251D02*
X365450Y368000D01*
X377599D01*
X384000Y374401D01*
Y409600D01*
X400751Y426349D01*
X409400D01*
X374401Y379199D02*
X380799Y385600D01*
Y419199D01*
X393149Y446550D02*
X400649Y439049D01*
X393149Y446550D02*
Y454899D01*
X307800Y344000D02*
X342999Y379199D01*
X374401D01*
X380799Y419199D02*
X400649Y439049D01*
X409400D01*
X342450Y321701D02*
X344000Y323251D01*
Y334401D01*
X354449Y344851D01*
X363200D01*
X342400Y321650D02*
X342450Y321701D01*
X342400Y315199D02*
Y321650D01*
X339199Y312001D02*
X342400Y315199D01*
X316799Y312001D02*
X339199D01*
X307800Y321000D02*
X316799Y312001D01*
X307800Y321000D02*
Y344000D01*
Y349400D01*
X409550Y332801D02*
X410200Y332151D01*
X403200Y332801D02*
X409550D01*
X396850Y339151D02*
X403200Y332801D01*
X396850Y339151D02*
Y382999D01*
X359100Y180050D02*
X359849Y180800D01*
X369600D01*
X384000Y195199D01*
Y254399D01*
X397350Y267749D01*
X405300D01*
X359100Y218150D02*
X359649Y217599D01*
X368000D01*
X379199Y228801D01*
Y259199D01*
X400449Y280449D01*
X405300D01*
X307800Y198501D02*
X334899Y225600D01*
X369600D01*
X376001Y232001D01*
Y270401D01*
X398750Y293149D01*
X405300D01*
X390251Y308201D02*
X405300Y293149D01*
X390251Y308201D02*
Y309999D01*
X341351Y168999D02*
X344000Y169550D01*
Y182400D01*
X354350Y192750D01*
X359100D01*
X333949Y158399D02*
X341351Y168999D01*
X316799Y158399D02*
X333949D01*
X307800Y167401D02*
X316799Y158399D01*
X307800Y167401D02*
Y198501D01*
X405351Y180800D02*
X406100Y180050D01*
X398399Y180800D02*
X405351D01*
X392951Y186251D02*
X398399Y180800D01*
X392951Y186251D02*
Y234099D01*
X408450Y483199D02*
X408600Y483050D01*
X401599Y483199D02*
X408450D01*
X395249Y489549D02*
X401599Y483199D01*
X395249Y489549D02*
Y533900D01*
X406649Y568000D02*
X406900Y568249D01*
X393601Y568000D02*
X406649D01*
X385600Y559999D02*
X393601Y568000D01*
X385600Y539199D02*
Y559999D01*
X374401Y528000D02*
X385600Y539199D01*
X374401Y488000D02*
Y528000D01*
X369451Y483050D02*
X374401Y488000D01*
X361600Y483050D02*
X369451D01*
X406750Y580799D02*
X406900Y580949D01*
X393601Y580799D02*
X406750D01*
X382399Y569600D02*
X393601Y580799D01*
X382399Y540799D02*
Y569600D01*
X362750Y521150D02*
X382399Y540799D01*
X361600Y521150D02*
X362750D01*
X307800Y501899D02*
X308900Y500799D01*
X337599D01*
X344000Y472750D02*
X344051Y472801D01*
X344000Y467200D02*
Y472750D01*
X339199Y462399D02*
X344000Y467200D01*
X319999Y462399D02*
X339199D01*
X307800Y474599D02*
X319999Y462399D01*
X307800Y474599D02*
Y501899D01*
X337599Y500799D02*
X348800Y512001D01*
Y524800D01*
X360251Y494401D02*
X361600Y495750D01*
X352001Y494401D02*
X360251D01*
X344051Y486451D02*
X352001Y494401D01*
X344051Y472801D02*
Y486451D01*
X348800Y524800D02*
X352001Y528000D01*
X364800D01*
X379199Y542399D01*
Y571200D01*
X401650Y593649D01*
X406900D01*
X395351Y605201D02*
X406900Y593649D01*
X395351Y605201D02*
Y607601D01*
X307800Y49401D02*
X343200Y84800D01*
X371201D01*
X379199Y92799D01*
Y121600D01*
X403250Y145651D01*
X407799D01*
X341650Y21801D02*
X344000Y24150D01*
Y46401D01*
X347850Y50249D01*
X361399D01*
X334249Y12799D02*
X341650Y21801D01*
X313601Y12799D02*
X334249D01*
X307800Y18600D02*
X313601Y12799D01*
X307800Y18600D02*
Y49401D01*
X407751Y145600D02*
X407799Y145651D01*
X401599Y145600D02*
X407751D01*
X392151Y155049D02*
X401599Y145600D01*
X392151Y155049D02*
Y160500D01*
X407650Y36799D02*
X408399Y37549D01*
X399999Y36799D02*
X407650D01*
X393850Y42949D02*
X399999Y36799D01*
X393850Y42949D02*
Y90000D01*
X361399Y37549D02*
X362151Y36799D01*
X369600D01*
X385600Y52799D01*
Y102400D01*
X403451Y120251D01*
X407799D01*
X361399Y75649D02*
X361851Y75199D01*
X372801D01*
X382399Y84800D01*
Y113599D01*
X401749Y132951D01*
X407799D01*
X62400Y596801D02*
X100800Y635201D01*
X315199D01*
X332801D01*
X337101Y639501D01*
X346499D01*
X22301Y185301D02*
X35400Y198399D01*
X54399D01*
X64000Y208001D01*
Y284800D01*
X62400Y398399D02*
X64000Y396799D01*
X62400Y398399D02*
Y596801D01*
X346499Y639100D02*
Y639501D01*
X183799Y450200D02*
X188999Y445000D01*
Y431599D02*
Y445000D01*
X22301Y388501D02*
X34801Y376001D01*
X51199D01*
X62700Y387500D01*
X100000D01*
X129700Y310101D02*
X130000Y310401D01*
X135999D01*
X142400Y304000D01*
Y279999D02*
Y304000D01*
Y279999D02*
X147401Y275001D01*
X154000D01*
X225199Y179400D02*
X225600Y179799D01*
Y185600D01*
X222400Y188801D02*
X225600Y185600D01*
X215999Y188801D02*
X222400D01*
X214000Y190800D02*
X215999Y188801D01*
X214000Y190800D02*
Y200000D01*
X107450Y271600D02*
X107851Y272001D01*
X140800D01*
X147800Y265001D01*
X154000D01*
X244500Y277701D02*
X245199Y278399D01*
X251201D01*
X257800Y285001D01*
X269001D01*
X90701Y282400D02*
X91501Y281600D01*
X107450D01*
X244000Y301201D02*
X249001Y306199D01*
Y315001D01*
X90701Y302400D02*
X91501Y301600D01*
X107450D01*
X102649Y497200D02*
X103050Y497601D01*
X110401D01*
X116799Y503999D01*
X131201D01*
X138600Y496600D01*
X154000D01*
X249900Y506999D02*
X259499Y516600D01*
X269001D01*
X102649Y507200D02*
X107201D01*
X106601Y506600D02*
X107201Y507200D01*
X83401Y506600D02*
X106601D01*
X248300Y529100D02*
X249001Y529801D01*
Y546600D01*
X101651Y528201D02*
X102649Y527200D01*
X85001Y528201D02*
X101651D01*
X107450Y251600D02*
X110401Y248651D01*
Y246400D02*
Y248651D01*
Y246400D02*
X156799Y200000D01*
X174000D01*
X153200Y220800D02*
X154000Y220000D01*
X142400Y220800D02*
X153200D01*
X124800Y238399D02*
X142400Y220800D01*
X124800Y238399D02*
Y257599D01*
X120800Y261600D02*
X124800Y257599D01*
X107450Y261600D02*
X120800D01*
X211201Y411099D02*
X214000Y413901D01*
Y431599D01*
X102649Y477200D02*
X104000Y475851D01*
Y472001D02*
Y475851D01*
Y472001D02*
X144399Y431599D01*
X174000D01*
X102649Y477200D02*
X103850Y478399D01*
X102649Y487200D02*
X103449Y486400D01*
X113599D01*
X115199Y484800D01*
Y468800D02*
Y484800D01*
Y468800D02*
X132400Y451599D01*
X154000D01*
X102649Y487200D02*
X105049Y484800D01*
X305600Y156799D02*
X329451Y132951D01*
X360799D01*
X255900Y225001D02*
X269001D01*
X358950Y118400D02*
X360799Y120251D01*
X342400Y118400D02*
X358950D01*
X331201Y129601D02*
X342400Y118400D01*
X323200Y129601D02*
X331201D01*
X307200Y145600D02*
X323200Y129601D01*
X305600Y145600D02*
X307200D01*
X268699Y212499D02*
X269001Y212801D01*
Y220000D01*
X308801Y307200D02*
X312001D01*
X338750Y280449D01*
X358300D01*
X243401Y334401D02*
X244000Y335001D01*
X227201Y334401D02*
X243401D01*
X222400Y329601D02*
X227201Y334401D01*
X192001Y329601D02*
X222400D01*
X184000Y321600D02*
X192001Y329601D01*
X184000Y315001D02*
Y321600D01*
X357749Y267200D02*
X358300Y267749D01*
X347200Y267200D02*
X357749D01*
X316799Y297599D02*
X347200Y267200D01*
X308801Y297599D02*
X316799D01*
X234500Y324800D02*
X237200Y327500D01*
X193599Y324800D02*
X234500D01*
X188999Y320200D02*
X193599Y324800D01*
X188999Y315001D02*
Y320200D01*
X304000Y456001D02*
X333649Y426349D01*
X362400D01*
X254300Y456601D02*
X255900Y458201D01*
X254300Y456601D02*
X269001D01*
X304000Y444800D02*
X310401D01*
X341551Y413649D01*
X362400D01*
X269001Y445399D02*
X270299Y444101D01*
X269001Y445399D02*
Y451599D01*
X356850Y583999D02*
X359900Y580949D01*
X352001Y583999D02*
X356850D01*
X337599Y598401D02*
X352001Y583999D01*
X255999Y598401D02*
X337599D01*
X252801Y601599D02*
X255999Y598401D01*
X243200Y601599D02*
X252801D01*
X237500Y595899D02*
X243200Y601599D01*
X237500Y587500D02*
Y595899D01*
X186500Y567500D02*
X187201Y566801D01*
Y558401D02*
Y566801D01*
X184000Y555201D02*
X187201Y558401D01*
X184000Y546600D02*
Y555201D01*
X345600Y572800D02*
X350401Y568000D01*
X345600Y572800D02*
Y585600D01*
X335999Y595201D02*
X345600Y585600D01*
X248001Y595201D02*
X335999D01*
X193599Y558401D02*
Y583999D01*
X188999Y553801D02*
X193599Y558401D01*
X188999Y546600D02*
Y553801D01*
X420799Y521599D02*
X422399Y519999D01*
X433601D01*
X479999Y473601D01*
Y388800D02*
Y473601D01*
Y388800D02*
X505899Y362900D01*
X539199D01*
X326550Y472801D02*
X331201Y477449D01*
Y484800D01*
X353251Y506849D01*
Y508450D01*
X420350Y521150D02*
X420799Y521599D01*
X408600Y521150D02*
X420350D01*
X408600D02*
X412801Y525351D01*
Y534401D01*
X412750Y534350D02*
X412801Y534401D01*
X412750Y533900D02*
Y534350D01*
X406900Y539750D02*
X412750Y533900D01*
X406900Y539750D02*
Y555549D01*
X407251Y555201D01*
X416001D01*
X420799Y559999D01*
Y599999D01*
X413200Y607601D02*
X420799Y599999D01*
X412849Y607601D02*
X413200D01*
X326400Y472951D02*
X326550Y472801D01*
X353251Y508450D02*
X361600D01*
X422399Y382399D02*
X428800D01*
X472001Y339199D01*
Y308801D02*
Y339199D01*
Y308801D02*
X494101Y286700D01*
X539199D01*
X409400Y400949D02*
X410350Y399999D01*
X416001D01*
X422399Y406400D01*
Y446400D01*
X413901Y454899D02*
X422399Y446400D01*
X410649Y454899D02*
X413901D01*
X410251Y381450D02*
X422399Y382399D01*
X410200Y370251D02*
X410251Y381450D01*
X410200Y378851D02*
X414350Y382999D01*
X410200Y370251D02*
Y378851D01*
X324950Y332951D02*
X331201Y339199D01*
X324950Y321701D02*
Y332951D01*
X331201Y339199D02*
X349550Y357551D01*
X363200D01*
X409400Y387949D02*
X414350Y382999D01*
X409400Y387949D02*
Y400949D01*
X416001Y235199D02*
X422399D01*
X447101Y210500D01*
X539199D01*
X405300Y255049D02*
X405950Y254399D01*
X411201D01*
X419199Y262400D01*
Y297599D01*
X407751Y309049D02*
X419199Y297599D01*
X407751Y309049D02*
Y309999D01*
X323850Y176649D02*
X332801Y185600D01*
X323850Y168999D02*
Y176649D01*
X332801Y185600D02*
X352651Y205450D01*
X359100D01*
X410149Y222951D02*
X416001Y235199D01*
X406100Y218150D02*
X410149Y222951D01*
X405300Y255049D02*
X410449Y249900D01*
Y234099D02*
Y249900D01*
X406100Y218150D02*
X410449Y222499D01*
Y234099D01*
X422399Y83200D02*
X462399D01*
X513499Y134300D01*
X539199D01*
X324150Y32949D02*
X334401Y43200D01*
X324150Y21801D02*
Y32949D01*
X334401Y43200D02*
X354150Y62949D01*
X361399D01*
X416451Y75649D02*
X422399Y83200D01*
X408399Y75649D02*
X416451D01*
X408399D02*
X411351Y78600D01*
Y90000D01*
X407799Y93551D02*
X411351Y90000D01*
X407799Y93551D02*
Y107551D01*
X408150Y107201D01*
X419199D01*
X420799Y108801D01*
Y152001D01*
X412300Y160500D02*
X420799Y152001D01*
X409651Y160500D02*
X412300D01*
X359951Y608099D02*
X380649Y628800D01*
X419199D01*
X496001Y552000D01*
Y446400D02*
Y552000D01*
Y446400D02*
X528701Y413700D01*
X539199D01*
X346499Y610301D02*
Y626501D01*
X326100D02*
X328099Y624500D01*
X344500D01*
X307800Y100201D02*
X321600Y114000D01*
Y116799D01*
X334401Y139200D02*
X340850Y145651D01*
X360799D01*
X361051Y145900D01*
Y160101D01*
X307800Y249301D02*
X325699Y267200D01*
X328000D01*
X356349Y291201D02*
X358300Y293149D01*
X339199Y291201D02*
X356349D01*
X307800Y249301D02*
X308501D01*
X358051Y293400D02*
X358300Y293149D01*
X358051Y293400D02*
Y308900D01*
X307800Y400200D02*
X321600Y414000D01*
X319999Y412801D02*
X321600Y414000D01*
X335999Y433601D02*
X341450Y439049D01*
X362400D01*
X358851Y442600D02*
X362400Y439049D01*
X358851Y442600D02*
Y454500D01*
X346499Y610301D02*
X348800Y608000D01*
X359849D02*
X359951Y608099D01*
X348800Y608000D02*
X359849D01*
X307800Y554200D02*
X324800Y571200D01*
X307800Y552699D02*
Y554200D01*
X359900Y593649D02*
X359951Y593700D01*
Y608099D01*
X144699Y152900D02*
X148801Y148801D01*
X134701Y152900D02*
X144699D01*
X433301Y493999D02*
X472001Y455300D01*
Y356799D02*
Y455300D01*
Y356799D02*
X516699Y312100D01*
X539199D01*
X431551Y495750D02*
X433301Y493999D01*
X408600Y495750D02*
X431551D01*
X433301Y506999D02*
X434701Y505600D01*
X438399D01*
X476801Y467200D01*
Y376001D02*
Y467200D01*
Y376001D02*
X515300Y337500D01*
X539199D01*
X431851Y508450D02*
X433301Y506999D01*
X408600Y508450D02*
X431851D01*
X434899Y343101D02*
X465600Y312400D01*
Y272001D02*
Y312400D01*
Y272001D02*
X501701Y235900D01*
X539199D01*
X433151Y344851D02*
X434899Y343101D01*
X410200Y344851D02*
X433151D01*
X434899Y356100D02*
X468800Y322199D01*
Y286400D02*
Y322199D01*
Y286400D02*
X493900Y261300D01*
X539199D01*
X433451Y357551D02*
X434899Y356100D01*
X410200Y357551D02*
X433451D01*
X428800Y185600D02*
X430101Y186901D01*
X424000Y185600D02*
X428800D01*
X416850Y192750D02*
X424000Y185600D01*
X406100Y192750D02*
X416850D01*
X430101Y186901D02*
X430401Y187201D01*
X459199D01*
X486700Y159700D01*
X539199D01*
X538701Y185600D02*
X539199Y185100D01*
X467200Y185600D02*
X538701D01*
X452900Y199900D02*
X467200Y185600D01*
X430101Y199900D02*
X452900D01*
X424551Y205450D02*
X430101Y199900D01*
X406100Y205450D02*
X424551D01*
X537500Y107201D02*
X539199Y108900D01*
X492801Y107201D02*
X537500D01*
X448549Y62949D02*
X492801Y107201D01*
X408399Y62949D02*
X448549D01*
X432399D02*
Y63299D01*
X408399Y62949D02*
X432399D01*
X537299Y81600D02*
X539199Y83500D01*
X473601Y81600D02*
X537299D01*
X442300Y50300D02*
X473601Y81600D01*
X432399Y50300D02*
X442300D01*
X432399Y50249D02*
Y50300D01*
X408399Y50249D02*
X432399D01*
X128100Y512501D02*
X138999Y501599D01*
X154000D01*
X193901Y393230D02*
X194770Y394099D01*
X211201D01*
X238999Y412900D02*
X239400Y412501D01*
X238999Y412900D02*
Y431599D01*
X115001Y422199D02*
X128001Y435201D01*
X110599Y422199D02*
X115001D01*
X137599Y463400D02*
X140800Y466600D01*
X137599Y460799D02*
Y463400D01*
X124600Y475000D02*
X132999Y466600D01*
X140800D01*
X154000D01*
X129601Y285999D02*
X129700Y286101D01*
X129601Y278399D02*
Y285999D01*
Y278399D02*
X132799Y275199D01*
X142400D01*
X147599Y270000D01*
X154000D01*
X248399Y179200D02*
X250200Y181000D01*
X241600Y179200D02*
X248399D01*
X238999Y181800D02*
X241600Y179200D01*
X238999Y181800D02*
Y200000D01*
X205600Y375201D02*
X207500Y376799D01*
X189901Y459801D02*
X194000Y455699D01*
Y431599D02*
Y455699D01*
X47701Y363101D02*
X60599Y376001D01*
X201600D01*
X205600Y375201D01*
X200000Y279999D02*
X207500Y287500D01*
X200000Y227201D02*
Y279999D01*
X194000Y221201D02*
X200000Y227201D01*
X194000Y200000D02*
Y221201D01*
X205100Y369301D02*
X215001D01*
X198999Y457700D02*
X200599Y459301D01*
X198999Y431599D02*
Y457700D01*
X47701Y337701D02*
X48001Y338000D01*
Y347200D01*
X73599Y372801D01*
X201600D01*
X205100Y369301D01*
X214399Y294401D02*
X215001Y295001D01*
X214399Y284800D02*
Y294401D01*
X203200Y273601D02*
X214399Y284800D01*
X203200Y225600D02*
Y273601D01*
X198999Y221399D02*
X203200Y225600D01*
X198999Y200000D02*
Y221399D01*
X207099Y362501D02*
X222499D01*
X204000Y448201D02*
X206500Y450700D01*
X204000Y431599D02*
Y448201D01*
X47701Y312301D02*
X59200Y323799D01*
Y353601D01*
X75199Y369600D01*
X200000D01*
X207099Y362501D01*
X206400Y271399D02*
X222499Y287500D01*
X206400Y224000D02*
Y271399D01*
X204000Y221600D02*
X206400Y224000D01*
X204000Y200000D02*
Y221600D01*
X22301Y363101D02*
X35199Y350200D01*
Y305600D02*
Y350200D01*
Y305600D02*
X41600Y299199D01*
X52799D01*
X62400Y308801D01*
Y352001D01*
X67899Y357500D01*
X100000D01*
X196799Y286799D02*
X197500Y287500D01*
X196799Y228801D02*
Y286799D01*
X188999Y221000D02*
X196799Y228801D01*
X188999Y200000D02*
Y221000D01*
X123901Y208900D02*
X126401Y206400D01*
X112900Y208900D02*
X123901D01*
X133800Y242199D02*
X140800Y235199D01*
X133800Y242199D02*
Y246200D01*
X147401Y235199D02*
X154000Y235001D01*
X140800Y235199D02*
X147401D01*
X112900Y208900D02*
X113701Y205699D01*
X128100Y536499D02*
X129200Y537601D01*
X137599D01*
X139200Y536001D01*
Y508800D02*
Y536001D01*
Y508800D02*
X141399Y506600D01*
X154000D01*
X142400Y243200D02*
Y257599D01*
Y243200D02*
X145600Y240000D01*
X154000D01*
X384000Y622399D02*
X419199D01*
X491200Y550400D01*
Y414401D02*
Y550400D01*
Y414401D02*
X517299Y388300D01*
X539199D01*
X360449Y107201D02*
X360799Y107551D01*
X348800Y107201D02*
X360449D01*
X330401Y125601D02*
X348800Y107201D01*
X307800Y125601D02*
X330401D01*
X360799Y107551D02*
X361150Y107201D01*
X369600D01*
X374401Y111999D01*
Y128001D01*
X378549Y132151D01*
X357350Y255999D02*
X358300Y255049D01*
X350401Y255999D02*
X357350D01*
X331701Y274701D02*
X350401Y255999D01*
X307800Y274701D02*
X331701D01*
X358300Y255049D02*
X359250Y255999D01*
X368000D01*
X371201Y259199D01*
Y273601D01*
X375549Y277950D01*
Y308900D01*
X362400Y400949D02*
X363349Y399999D01*
X371201D01*
X376349Y405150D01*
Y454500D01*
X307800Y425600D02*
X318399D01*
X343050Y400949D01*
X362400D01*
X363499Y640301D02*
X368000Y644799D01*
X363499Y639501D02*
Y640301D01*
X377449Y617751D02*
X384000Y622399D01*
X377449Y608099D02*
Y617751D01*
X326100Y643499D02*
X329400Y644799D01*
X359999D01*
X363499Y641299D01*
X359550Y555201D02*
X359900Y555549D01*
X350401Y555201D02*
X359550D01*
X327500Y578099D02*
X350401Y555201D01*
X307800Y578099D02*
X327500D01*
X359900Y555549D02*
X360251Y555201D01*
X371201D01*
X374401Y558401D01*
Y572800D01*
X377449Y575851D01*
Y608099D01*
X250101Y286799D02*
X253299Y289999D01*
X269001D01*
X250200Y518399D02*
X253401Y521599D01*
X269001D01*
X262100Y565000D02*
X272100Y564599D01*
Y561101D02*
Y564599D01*
X244000Y431599D02*
Y445000D01*
X158801Y412100D02*
X160800Y414101D01*
X178999D01*
X182329Y410769D01*
X133901Y570799D02*
X134000Y570901D01*
X159400D02*
X168999Y580499D01*
X190101Y532300D02*
X194000Y536199D01*
Y546600D01*
X107851Y291201D02*
X116799D01*
X123701Y298099D01*
X129700D01*
X86401Y292801D02*
X87599Y291600D01*
X107450D01*
X103850Y518399D02*
X115199D01*
X121300Y524500D01*
X128100D01*
X83200Y518399D02*
X84399Y517200D01*
X102649D01*
X138600Y476400D02*
X139200Y476999D01*
Y481599D01*
X128801Y492001D02*
X139200Y481599D01*
X138600Y476400D02*
X143401Y471599D01*
X154000D01*
X92400Y185999D02*
X95499Y182900D01*
X84600Y185999D02*
X92400D01*
X105400D02*
X107399Y184000D01*
X113599D01*
X114699Y182900D01*
X115499D01*
X145400Y185999D02*
X148501Y182900D01*
X154701D01*
X180000Y179100D02*
X180500Y179601D01*
X195001D01*
X195070Y179669D01*
X209301D01*
X178999Y180101D02*
X180000Y179100D01*
X244000Y200000D02*
Y214099D01*
X262600Y352300D02*
X262999Y358300D01*
X262600Y345300D02*
Y352300D01*
X179200Y310401D02*
Y314800D01*
Y310401D02*
X182400Y307200D01*
X192001D01*
X194000Y309199D01*
Y315001D01*
X169200Y345001D02*
X178999Y335201D01*
X167701Y343499D02*
X169200Y345001D01*
X156700Y343499D02*
X167701D01*
X136799Y263200D02*
X142400Y257599D01*
X133800Y263200D02*
X136799D01*
X129700Y298099D02*
X130599Y299001D01*
D57*
X193901Y410769D02*
X194831D01*
X225199Y162400D02*
X226530Y162131D01*
X209301D02*
X226530D01*
X155301Y553900D02*
X172801Y553801D01*
X133901D02*
X172801D01*
X209301Y179669D02*
X211229Y180000D01*
X136901Y343499D02*
X156700D01*
X154000Y240000D02*
X182499D01*
D58*
X240000Y123200D02*
X240479Y121761D01*
X240800Y120800D01*
X240500Y136799D02*
X240786Y121521D01*
X240800Y120800D01*
X231410Y98689D02*
X239700Y102179D01*
X231409Y98689D02*
X231410Y98689D01*
X239700Y121501D02*
X240000Y121801D01*
Y123200D01*
X239700Y102179D02*
Y121501D01*
X184201Y132999D02*
X185301Y134099D01*
X196500Y134201D01*
D59*
X134701Y182900D02*
X148501D01*
X75499D02*
X95499D01*
X292801Y102400D02*
X295001Y100201D01*
X307800D01*
X292801Y249601D02*
X293101Y249301D01*
X307800D01*
X292801Y403200D02*
X295801Y400200D01*
X307800D01*
X292801Y550400D02*
X295100Y552699D01*
X307800D01*
X292801Y550400D02*
Y552000D01*
Y403200D02*
Y550400D01*
Y249601D02*
Y403200D01*
Y102400D02*
Y249601D01*
Y19101D02*
Y102400D01*
X248399Y19101D02*
X292801D01*
X95499Y152900D02*
X115499D01*
X75499D02*
X95499D01*
X152900Y17501D02*
X248399Y19101D01*
X152900Y17501D02*
Y112499D01*
X107500Y17501D02*
X152900D01*
X57501Y67501D02*
X107500Y17501D01*
X35001Y67501D02*
X57501D01*
X22301Y80201D02*
X35001Y67501D01*
X22301Y80201D02*
Y109101D01*
Y83701D02*
Y109101D01*
X185189Y98689D02*
X185379Y112499D01*
D60*
X398399Y660799D02*
X510399Y548799D01*
Y544100D02*
X539199Y515300D01*
X510399Y544100D02*
Y548799D01*
X307200Y660799D02*
X398399D01*
X59314Y410853D02*
Y598079D01*
X52456Y403995D02*
X59314Y410853D01*
X21593Y403995D02*
X52456D01*
X12395Y266260D02*
Y282141D01*
Y367860D02*
Y383741D01*
X12393Y181199D02*
X22301Y171290D01*
X12393Y256744D02*
Y266257D01*
Y358344D02*
Y367858D01*
X12395Y240860D02*
Y256741D01*
Y342460D02*
Y358341D01*
X12393Y240858D02*
X12395Y240860D01*
X12393Y342458D02*
X12395Y342460D01*
X12393Y231344D02*
X12395Y231341D01*
X12393Y332944D02*
X12395Y332941D01*
Y215460D02*
Y231341D01*
Y317060D02*
Y332941D01*
X12393Y215457D02*
X12395Y215460D01*
X12393Y317057D02*
X12395Y317060D01*
X12393Y256744D02*
X12395Y256741D01*
X12393Y358344D02*
X12395Y358341D01*
X12393Y181199D02*
Y190058D01*
Y266257D02*
X12395Y266260D01*
X12393Y367858D02*
X12395Y367860D01*
Y394796D02*
X21593Y403995D01*
X12393Y282144D02*
X12395Y282141D01*
Y393260D02*
Y394796D01*
X12393Y190058D02*
X12395Y190060D01*
X12393Y291658D02*
X12395Y291660D01*
X12393Y383744D02*
Y393257D01*
Y205944D02*
X12395Y205941D01*
X12393Y307544D02*
X12395Y307541D01*
X12393Y231344D02*
Y240858D01*
Y332944D02*
Y342458D01*
Y282144D02*
Y291658D01*
Y383744D02*
X12395Y383741D01*
Y190060D02*
Y205941D01*
Y291660D02*
Y307541D01*
X12393Y393257D02*
X12395Y393260D01*
X12393Y205944D02*
Y215457D01*
Y307544D02*
Y317057D01*
X390401Y633001D02*
X390601Y633199D01*
Y641599D01*
X369743Y651286D02*
X379428Y641599D01*
X380601D01*
X320154Y651286D02*
X369743D01*
X315199Y635201D02*
X318813Y638815D01*
Y649948D01*
X320154Y651286D01*
X22301Y159901D02*
Y171290D01*
X59314Y598079D02*
X99522Y638287D01*
X284686D02*
X307200Y660799D01*
X99522Y638287D02*
X284686D01*
D61*
X152900Y112499D02*
X156400Y115999D01*
X184201D01*
D62*
X134899Y110401D02*
X137000Y112499D01*
X152900D01*
X134899Y101600D02*
Y110401D01*
Y131600D01*
X134701Y131801D02*
X134899Y131600D01*
X134701Y131801D02*
Y152900D01*
X154701D01*
D63*
X185189Y98689D02*
X186500Y109779D01*
X184201Y115999D02*
X186500Y109779D01*
D64*
X524998Y35001D02*
D03*
Y615000D02*
D03*
X34999D02*
D03*
Y35027D02*
D03*
X120000Y58400D02*
D03*
D65*
X539199Y83500D02*
D03*
Y108900D02*
D03*
Y134300D02*
D03*
Y159700D02*
D03*
Y185100D02*
D03*
Y210500D02*
D03*
Y235900D02*
D03*
Y261300D02*
D03*
Y286700D02*
D03*
Y312100D02*
D03*
Y337500D02*
D03*
Y362900D02*
D03*
Y388300D02*
D03*
Y413700D02*
D03*
Y439100D02*
D03*
Y464500D02*
D03*
Y489900D02*
D03*
Y515300D02*
D03*
Y540700D02*
D03*
Y566100D02*
D03*
D66*
X22299Y566301D02*
D03*
X47699D02*
D03*
X22299Y540901D02*
D03*
X47699D02*
D03*
X22299Y515501D02*
D03*
X47699D02*
D03*
X22299Y490101D02*
D03*
X47699D02*
D03*
X22299Y464701D02*
D03*
X47699D02*
D03*
X22299Y439301D02*
D03*
X47699D02*
D03*
X22299Y413901D02*
D03*
X47699D02*
D03*
X22299Y388501D02*
D03*
X47699D02*
D03*
X22299Y363101D02*
D03*
X47699D02*
D03*
X22299Y337701D02*
D03*
X47699D02*
D03*
X22299Y312301D02*
D03*
X47699D02*
D03*
X22299Y286901D02*
D03*
X47699D02*
D03*
X22299Y261501D02*
D03*
X47699D02*
D03*
X22299Y236101D02*
D03*
X47699D02*
D03*
X22299Y210701D02*
D03*
X47699D02*
D03*
X22299Y185301D02*
D03*
X47699D02*
D03*
X22299Y159901D02*
D03*
X47699D02*
D03*
X22299Y134501D02*
D03*
X47699D02*
D03*
X22299Y109101D02*
D03*
X47699D02*
D03*
X22299Y83701D02*
D03*
X47699D02*
D03*
D67*
X307800Y501899D02*
D03*
Y527299D02*
D03*
Y552699D02*
D03*
Y578099D02*
D03*
Y349400D02*
D03*
Y374800D02*
D03*
Y400200D02*
D03*
Y425600D02*
D03*
Y198501D02*
D03*
Y223901D02*
D03*
Y249301D02*
D03*
Y274701D02*
D03*
Y49401D02*
D03*
Y74801D02*
D03*
Y100201D02*
D03*
Y125601D02*
D03*
D68*
X104900Y131600D02*
D03*
Y101600D02*
D03*
X134902Y131600D02*
D03*
D69*
Y101600D02*
D03*
D70*
X304599Y466600D02*
D03*
X460799Y449600D02*
D03*
X268801Y310401D02*
D03*
X273601Y368000D02*
D03*
X254300Y469999D02*
D03*
Y235199D02*
D03*
X64000Y284800D02*
D03*
Y396799D02*
D03*
X305600Y156799D02*
D03*
Y145600D02*
D03*
X308801Y307200D02*
D03*
Y297599D02*
D03*
X304000Y456001D02*
D03*
Y444800D02*
D03*
X248001Y595201D02*
D03*
X193599Y583999D02*
D03*
X331201Y484800D02*
D03*
X420799Y521599D02*
D03*
X422399Y382399D02*
D03*
X331201Y339199D02*
D03*
X332801Y185600D02*
D03*
X416001Y235199D02*
D03*
X334401Y43200D02*
D03*
X422399Y83200D02*
D03*
X321600Y116799D02*
D03*
X334401Y139200D02*
D03*
X339199Y291201D02*
D03*
X328000Y267200D02*
D03*
X319999Y412801D02*
D03*
X335999Y433601D02*
D03*
X348800Y608000D02*
D03*
X324800Y571200D02*
D03*
X137599Y460799D02*
D03*
X128001Y435201D02*
D03*
X140800Y235199D02*
D03*
X126401Y206400D02*
D03*
X368000Y644799D02*
D03*
X384000Y622399D02*
D03*
X86401Y292801D02*
D03*
X83200Y518399D02*
D03*
D71*
X100000Y387500D02*
D03*
X183799Y450200D02*
D03*
X244500Y277701D02*
D03*
X90701Y282400D02*
D03*
X244000Y301201D02*
D03*
X90701Y302400D02*
D03*
X249900Y506999D02*
D03*
X83401Y506600D02*
D03*
X248300Y529100D02*
D03*
X85001Y528201D02*
D03*
X255900Y225001D02*
D03*
X268699Y212499D02*
D03*
X244000Y335001D02*
D03*
X237200Y327500D02*
D03*
X255900Y458201D02*
D03*
X270299Y444101D02*
D03*
X237500Y587500D02*
D03*
X186500Y567500D02*
D03*
X207500Y376799D02*
D03*
Y287500D02*
D03*
X189901Y459801D02*
D03*
X215001Y369301D02*
D03*
X200599Y459301D02*
D03*
X215001Y295001D02*
D03*
X222499Y362501D02*
D03*
X206500Y450700D02*
D03*
X222499Y287500D02*
D03*
X100000Y357500D02*
D03*
X197500Y287500D02*
D03*
X145400Y185999D02*
D03*
X124600Y184399D02*
D03*
X105400Y185999D02*
D03*
X84600D02*
D03*
X196500Y134201D02*
D03*
X240500Y136799D02*
D03*
X190101Y532300D02*
D03*
X169200Y345001D02*
D03*
X262999Y358300D02*
D03*
X250101Y286799D02*
D03*
X182499Y240000D02*
D03*
X244000Y214099D02*
D03*
X195001Y179601D02*
D03*
X244000Y445000D02*
D03*
X178999Y414101D02*
D03*
X138600Y476400D02*
D03*
X262100Y565000D02*
D03*
X168999Y580499D02*
D03*
X178999Y559999D02*
D03*
X250200Y518399D02*
D03*
M02*
