G04*
G04 #@! TF.GenerationSoftware,Altium Limited,Altium Designer,25.8.1 (18)*
G04*
G04 Layer_Color=65535*
%FSLAX44Y44*%
%MOMM*%
G71*
G04*
G04 #@! TF.SameCoordinates,422AF447-CE49-4BB0-B19B-A3A041D3FAC2*
G04*
G04*
G04 #@! TF.FilePolarity,Positive*
G04*
G01*
G75*
%ADD10C,0.0816*%
%ADD11C,0.0340*%
G36*
X107286Y451564D02*
X107404D01*
X107552Y451549D01*
X107700Y451535D01*
X108056Y451475D01*
X108426Y451401D01*
X108811Y451298D01*
X109196Y451165D01*
X109211D01*
X109240Y451150D01*
X109285Y451120D01*
X109359Y451091D01*
X109448Y451046D01*
X109537Y451002D01*
X109759Y450883D01*
X110010Y450720D01*
X110277Y450528D01*
X110529Y450306D01*
X110751Y450054D01*
Y450039D01*
X110780Y450024D01*
X110810Y449980D01*
X110840Y449921D01*
X110899Y449861D01*
X110943Y449772D01*
X111077Y449550D01*
X111225Y449284D01*
X111358Y448973D01*
X111506Y448603D01*
X111624Y448188D01*
X110262Y447818D01*
Y447833D01*
X110247Y447862D01*
X110232Y447907D01*
X110218Y447966D01*
X110159Y448114D01*
X110084Y448321D01*
X109996Y448529D01*
X109892Y448766D01*
X109759Y448988D01*
X109625Y449180D01*
X109611Y449210D01*
X109551Y449269D01*
X109462Y449358D01*
X109344Y449476D01*
X109196Y449595D01*
X109003Y449728D01*
X108781Y449861D01*
X108530Y449980D01*
X108515D01*
X108500Y449995D01*
X108411Y450024D01*
X108263Y450084D01*
X108070Y450143D01*
X107848Y450187D01*
X107582Y450246D01*
X107286Y450276D01*
X106975Y450291D01*
X106797D01*
X106708Y450276D01*
X106604D01*
X106368Y450246D01*
X106086Y450217D01*
X105775Y450158D01*
X105479Y450069D01*
X105183Y449965D01*
X105168D01*
X105153Y449950D01*
X105064Y449906D01*
X104916Y449847D01*
X104754Y449743D01*
X104561Y449624D01*
X104354Y449491D01*
X104146Y449314D01*
X103969Y449136D01*
X103954Y449106D01*
X103895Y449047D01*
X103806Y448943D01*
X103702Y448810D01*
X103598Y448647D01*
X103480Y448455D01*
X103362Y448232D01*
X103258Y448010D01*
Y447995D01*
X103243Y447966D01*
X103213Y447907D01*
X103199Y447833D01*
X103154Y447729D01*
X103125Y447611D01*
X103080Y447477D01*
X103050Y447329D01*
X102962Y446989D01*
X102902Y446604D01*
X102843Y446174D01*
X102828Y445715D01*
Y445700D01*
Y445641D01*
Y445567D01*
X102843Y445463D01*
Y445330D01*
X102858Y445182D01*
X102873Y445004D01*
X102888Y444827D01*
X102962Y444427D01*
X103050Y443997D01*
X103169Y443568D01*
X103347Y443168D01*
Y443153D01*
X103376Y443124D01*
X103406Y443064D01*
X103450Y443005D01*
X103495Y442916D01*
X103569Y442813D01*
X103732Y442591D01*
X103939Y442354D01*
X104206Y442087D01*
X104502Y441850D01*
X104857Y441643D01*
X104872D01*
X104902Y441628D01*
X104961Y441598D01*
X105035Y441569D01*
X105124Y441524D01*
X105242Y441495D01*
X105361Y441450D01*
X105509Y441406D01*
X105820Y441302D01*
X106175Y441228D01*
X106575Y441169D01*
X106989Y441154D01*
X107152D01*
X107241Y441169D01*
X107345D01*
X107597Y441199D01*
X107893Y441243D01*
X108204Y441317D01*
X108544Y441406D01*
X108900Y441524D01*
X108915D01*
X108944Y441539D01*
X108989Y441569D01*
X109048Y441584D01*
X109226Y441658D01*
X109433Y441761D01*
X109655Y441880D01*
X109892Y442013D01*
X110114Y442161D01*
X110321Y442324D01*
Y444456D01*
X106975D01*
Y445804D01*
X111802D01*
Y441569D01*
X111787Y441554D01*
X111758Y441524D01*
X111699Y441480D01*
X111610Y441421D01*
X111506Y441347D01*
X111388Y441273D01*
X111254Y441184D01*
X111106Y441080D01*
X110751Y440858D01*
X110366Y440651D01*
X109951Y440429D01*
X109507Y440251D01*
X109492D01*
X109448Y440236D01*
X109388Y440206D01*
X109300Y440177D01*
X109196Y440147D01*
X109063Y440118D01*
X108915Y440073D01*
X108766Y440029D01*
X108396Y439955D01*
X107982Y439881D01*
X107537Y439821D01*
X107078Y439807D01*
X106916D01*
X106797Y439821D01*
X106649D01*
X106471Y439851D01*
X106279Y439866D01*
X106071Y439896D01*
X105835Y439940D01*
X105597Y439984D01*
X105079Y440103D01*
X104561Y440280D01*
X104294Y440399D01*
X104028Y440517D01*
X104013Y440532D01*
X103969Y440547D01*
X103895Y440591D01*
X103806Y440651D01*
X103687Y440725D01*
X103554Y440814D01*
X103421Y440932D01*
X103258Y441050D01*
X103095Y441184D01*
X102932Y441347D01*
X102754Y441510D01*
X102591Y441702D01*
X102414Y441895D01*
X102251Y442117D01*
X102103Y442339D01*
X101969Y442591D01*
Y442605D01*
X101940Y442650D01*
X101910Y442724D01*
X101866Y442827D01*
X101807Y442961D01*
X101747Y443109D01*
X101688Y443287D01*
X101629Y443479D01*
X101555Y443701D01*
X101496Y443938D01*
X101436Y444175D01*
X101377Y444442D01*
X101303Y445019D01*
X101288Y445315D01*
X101273Y445626D01*
Y445641D01*
Y445700D01*
Y445789D01*
X101288Y445908D01*
Y446056D01*
X101303Y446233D01*
X101333Y446426D01*
X101362Y446648D01*
X101392Y446870D01*
X101436Y447122D01*
X101555Y447640D01*
X101733Y448188D01*
X101836Y448469D01*
X101955Y448736D01*
X101969Y448751D01*
X101984Y448795D01*
X102029Y448869D01*
X102088Y448973D01*
X102162Y449091D01*
X102251Y449225D01*
X102354Y449373D01*
X102473Y449536D01*
X102606Y449713D01*
X102754Y449891D01*
X102917Y450069D01*
X103095Y450246D01*
X103495Y450572D01*
X103717Y450735D01*
X103954Y450868D01*
X103969Y450883D01*
X104013Y450898D01*
X104087Y450928D01*
X104191Y450987D01*
X104309Y451031D01*
X104457Y451091D01*
X104635Y451165D01*
X104827Y451224D01*
X105035Y451298D01*
X105272Y451357D01*
X105509Y451416D01*
X105775Y451475D01*
X106353Y451549D01*
X106649Y451564D01*
X106960Y451579D01*
X107167D01*
X107286Y451564D01*
D02*
G37*
G36*
X118718Y439999D02*
X117326D01*
Y448899D01*
X117296Y448884D01*
X117237Y448825D01*
X117118Y448721D01*
X116970Y448603D01*
X116778Y448455D01*
X116541Y448292D01*
X116289Y448114D01*
X115993Y447936D01*
X115978D01*
X115963Y447921D01*
X115919Y447892D01*
X115860Y447862D01*
X115697Y447773D01*
X115504Y447670D01*
X115282Y447551D01*
X115030Y447433D01*
X114779Y447314D01*
X114527Y447211D01*
Y448573D01*
X114542D01*
X114586Y448603D01*
X114645Y448632D01*
X114719Y448677D01*
X114823Y448721D01*
X114942Y448795D01*
X115223Y448943D01*
X115534Y449136D01*
X115889Y449373D01*
X116230Y449624D01*
X116570Y449906D01*
X116585Y449921D01*
X116615Y449935D01*
X116659Y449980D01*
X116719Y450039D01*
X116867Y450187D01*
X117059Y450395D01*
X117252Y450617D01*
X117459Y450883D01*
X117651Y451150D01*
X117814Y451431D01*
X118718D01*
Y439999D01*
D02*
G37*
G36*
X83252Y451372D02*
X83385D01*
X83548Y451357D01*
X83726Y451342D01*
X84096Y451313D01*
X84481Y451253D01*
X84851Y451179D01*
X85029Y451135D01*
X85177Y451076D01*
X85192D01*
X85207Y451061D01*
X85251Y451046D01*
X85310Y451016D01*
X85458Y450942D01*
X85636Y450824D01*
X85843Y450676D01*
X86051Y450483D01*
X86258Y450246D01*
X86451Y449980D01*
Y449965D01*
X86465Y449950D01*
X86495Y449906D01*
X86525Y449847D01*
X86599Y449684D01*
X86687Y449476D01*
X86776Y449225D01*
X86850Y448928D01*
X86910Y448603D01*
X86924Y448262D01*
Y448247D01*
Y448203D01*
Y448144D01*
X86910Y448055D01*
X86895Y447951D01*
X86880Y447833D01*
X86821Y447551D01*
X86732Y447225D01*
X86599Y446885D01*
X86510Y446722D01*
X86406Y446544D01*
X86273Y446381D01*
X86140Y446219D01*
X86125Y446204D01*
X86110Y446189D01*
X86051Y446144D01*
X85991Y446085D01*
X85903Y446026D01*
X85799Y445952D01*
X85681Y445863D01*
X85547Y445774D01*
X85384Y445686D01*
X85207Y445597D01*
X84999Y445508D01*
X84777Y445419D01*
X84540Y445345D01*
X84289Y445271D01*
X84007Y445212D01*
X83711Y445167D01*
X83741Y445152D01*
X83815Y445123D01*
X83918Y445064D01*
X84052Y444990D01*
X84348Y444797D01*
X84481Y444693D01*
X84614Y444590D01*
X84629D01*
X84644Y444560D01*
X84733Y444486D01*
X84851Y444353D01*
X85029Y444175D01*
X85221Y443968D01*
X85429Y443701D01*
X85651Y443405D01*
X85873Y443079D01*
X87843Y439999D01*
X85947D01*
X84451Y442354D01*
Y442368D01*
X84422Y442398D01*
X84392Y442457D01*
X84348Y442517D01*
X84289Y442605D01*
X84214Y442709D01*
X84066Y442931D01*
X83889Y443183D01*
X83711Y443435D01*
X83533Y443686D01*
X83356Y443909D01*
X83341Y443938D01*
X83282Y443997D01*
X83208Y444101D01*
X83104Y444205D01*
X82985Y444338D01*
X82852Y444471D01*
X82719Y444575D01*
X82586Y444678D01*
X82571Y444693D01*
X82526Y444708D01*
X82467Y444753D01*
X82378Y444797D01*
X82275Y444856D01*
X82156Y444901D01*
X81904Y444990D01*
X81890D01*
X81860Y445004D01*
X81801D01*
X81712Y445019D01*
X81593Y445034D01*
X81445D01*
X81283Y445049D01*
X79328D01*
Y439999D01*
X77817D01*
Y451387D01*
X83119D01*
X83252Y451372D01*
D02*
G37*
G36*
X72131D02*
X72397Y451357D01*
X72694Y451342D01*
X72975Y451313D01*
X73212Y451268D01*
X73256D01*
X73286Y451253D01*
X73345Y451239D01*
X73508Y451209D01*
X73701Y451150D01*
X73923Y451076D01*
X74145Y450987D01*
X74382Y450868D01*
X74604Y450735D01*
X74634Y450720D01*
X74693Y450661D01*
X74811Y450572D01*
X74930Y450454D01*
X75078Y450306D01*
X75241Y450113D01*
X75389Y449891D01*
X75522Y449639D01*
Y449624D01*
X75537Y449610D01*
X75552Y449565D01*
X75581Y449521D01*
X75641Y449373D01*
X75700Y449180D01*
X75759Y448943D01*
X75818Y448677D01*
X75863Y448395D01*
X75877Y448084D01*
Y448070D01*
Y448025D01*
Y447951D01*
X75863Y447848D01*
X75848Y447714D01*
X75833Y447566D01*
X75803Y447403D01*
X75759Y447240D01*
X75655Y446841D01*
X75581Y446648D01*
X75478Y446441D01*
X75374Y446233D01*
X75255Y446026D01*
X75107Y445819D01*
X74945Y445626D01*
X74930Y445611D01*
X74900Y445582D01*
X74841Y445537D01*
X74767Y445463D01*
X74663Y445389D01*
X74530Y445315D01*
X74367Y445212D01*
X74189Y445123D01*
X73967Y445034D01*
X73730Y444945D01*
X73449Y444856D01*
X73153Y444782D01*
X72812Y444708D01*
X72442Y444664D01*
X72042Y444634D01*
X71613Y444619D01*
X68710D01*
Y439999D01*
X67200D01*
Y451387D01*
X71879D01*
X72131Y451372D01*
D02*
G37*
G36*
X94551Y451564D02*
X94684Y451549D01*
X94847Y451535D01*
X95024Y451520D01*
X95232Y451490D01*
X95661Y451401D01*
X96135Y451268D01*
X96387Y451179D01*
X96624Y451076D01*
X96875Y450957D01*
X97112Y450824D01*
X97127Y450809D01*
X97172Y450794D01*
X97231Y450750D01*
X97320Y450691D01*
X97423Y450602D01*
X97557Y450513D01*
X97690Y450409D01*
X97838Y450276D01*
X97986Y450143D01*
X98149Y449980D01*
X98312Y449802D01*
X98475Y449624D01*
X98623Y449417D01*
X98771Y449195D01*
X99052Y448721D01*
X99067Y448706D01*
X99082Y448662D01*
X99111Y448588D01*
X99156Y448484D01*
X99200Y448351D01*
X99260Y448203D01*
X99319Y448025D01*
X99393Y447833D01*
X99452Y447625D01*
X99511Y447388D01*
X99571Y447137D01*
X99615Y446870D01*
X99689Y446293D01*
X99719Y445982D01*
Y445671D01*
Y445656D01*
Y445597D01*
Y445508D01*
X99704Y445374D01*
Y445226D01*
X99689Y445049D01*
X99659Y444856D01*
X99630Y444634D01*
X99585Y444397D01*
X99541Y444145D01*
X99423Y443627D01*
X99245Y443094D01*
X99126Y442827D01*
X99008Y442561D01*
X98993Y442546D01*
X98978Y442502D01*
X98934Y442428D01*
X98875Y442339D01*
X98801Y442220D01*
X98727Y442087D01*
X98623Y441954D01*
X98504Y441791D01*
X98371Y441628D01*
X98223Y441465D01*
X97882Y441124D01*
X97483Y440784D01*
X97261Y440636D01*
X97024Y440503D01*
X97009D01*
X96964Y440473D01*
X96890Y440443D01*
X96802Y440399D01*
X96683Y440340D01*
X96550Y440280D01*
X96387Y440221D01*
X96209Y440162D01*
X96002Y440088D01*
X95794Y440029D01*
X95321Y439910D01*
X94817Y439836D01*
X94551Y439821D01*
X94269Y439807D01*
X94106D01*
X94003Y439821D01*
X93855Y439836D01*
X93692Y439851D01*
X93514Y439866D01*
X93307Y439910D01*
X92863Y439999D01*
X92374Y440132D01*
X92122Y440221D01*
X91885Y440325D01*
X91633Y440443D01*
X91397Y440577D01*
X91382Y440591D01*
X91337Y440606D01*
X91278Y440651D01*
X91189Y440725D01*
X91086Y440799D01*
X90967Y440888D01*
X90834Y441006D01*
X90686Y441124D01*
X90538Y441273D01*
X90375Y441436D01*
X90212Y441613D01*
X90064Y441791D01*
X89753Y442220D01*
X89486Y442694D01*
Y442709D01*
X89457Y442753D01*
X89427Y442827D01*
X89382Y442931D01*
X89338Y443050D01*
X89279Y443198D01*
X89220Y443375D01*
X89160Y443553D01*
X89101Y443760D01*
X89042Y443983D01*
X88938Y444456D01*
X88864Y444990D01*
X88849Y445256D01*
X88835Y445537D01*
Y445552D01*
Y445567D01*
Y445611D01*
Y445656D01*
X88849Y445804D01*
X88864Y446011D01*
X88879Y446248D01*
X88909Y446515D01*
X88968Y446826D01*
X89027Y447151D01*
X89101Y447507D01*
X89205Y447862D01*
X89323Y448232D01*
X89471Y448603D01*
X89649Y448958D01*
X89842Y449314D01*
X90078Y449654D01*
X90345Y449965D01*
X90360Y449980D01*
X90419Y450039D01*
X90508Y450113D01*
X90626Y450217D01*
X90774Y450335D01*
X90952Y450483D01*
X91174Y450617D01*
X91411Y450779D01*
X91678Y450928D01*
X91974Y451076D01*
X92300Y451209D01*
X92655Y451327D01*
X93025Y451431D01*
X93425Y451505D01*
X93840Y451564D01*
X94284Y451579D01*
X94432D01*
X94551Y451564D01*
D02*
G37*
G36*
X113149Y228795D02*
X113280D01*
X113443Y228778D01*
X113607Y228762D01*
X114001Y228696D01*
X114410Y228615D01*
X114836Y228500D01*
X115262Y228352D01*
X115278D01*
X115311Y228336D01*
X115360Y228303D01*
X115442Y228270D01*
X115541Y228221D01*
X115639Y228172D01*
X115885Y228041D01*
X116163Y227861D01*
X116458Y227648D01*
X116736Y227402D01*
X116982Y227124D01*
Y227107D01*
X117015Y227091D01*
X117048Y227042D01*
X117081Y226976D01*
X117146Y226911D01*
X117195Y226812D01*
X117343Y226567D01*
X117507Y226272D01*
X117654Y225928D01*
X117818Y225518D01*
X117949Y225059D01*
X116442Y224650D01*
Y224666D01*
X116425Y224699D01*
X116409Y224748D01*
X116392Y224814D01*
X116327Y224977D01*
X116245Y225207D01*
X116147Y225436D01*
X116032Y225698D01*
X115885Y225944D01*
X115737Y226157D01*
X115721Y226190D01*
X115655Y226255D01*
X115557Y226354D01*
X115426Y226485D01*
X115262Y226616D01*
X115049Y226763D01*
X114803Y226911D01*
X114525Y227042D01*
X114508D01*
X114492Y227058D01*
X114394Y227091D01*
X114230Y227156D01*
X114017Y227222D01*
X113771Y227271D01*
X113476Y227337D01*
X113149Y227369D01*
X112805Y227386D01*
X112608D01*
X112510Y227369D01*
X112395D01*
X112133Y227337D01*
X111822Y227304D01*
X111478Y227238D01*
X111150Y227140D01*
X110822Y227025D01*
X110806D01*
X110789Y227009D01*
X110691Y226960D01*
X110527Y226894D01*
X110347Y226780D01*
X110134Y226649D01*
X109905Y226501D01*
X109675Y226304D01*
X109479Y226108D01*
X109462Y226075D01*
X109397Y226010D01*
X109299Y225895D01*
X109184Y225748D01*
X109069Y225567D01*
X108938Y225354D01*
X108807Y225109D01*
X108693Y224863D01*
Y224846D01*
X108676Y224814D01*
X108643Y224748D01*
X108627Y224666D01*
X108578Y224552D01*
X108545Y224420D01*
X108496Y224273D01*
X108463Y224109D01*
X108365Y223732D01*
X108299Y223306D01*
X108234Y222831D01*
X108217Y222323D01*
Y222307D01*
Y222241D01*
Y222160D01*
X108234Y222045D01*
Y221897D01*
X108250Y221734D01*
X108266Y221537D01*
X108283Y221340D01*
X108365Y220898D01*
X108463Y220423D01*
X108594Y219948D01*
X108791Y219506D01*
Y219489D01*
X108823Y219456D01*
X108856Y219391D01*
X108905Y219325D01*
X108955Y219227D01*
X109037Y219112D01*
X109217Y218867D01*
X109446Y218605D01*
X109741Y218310D01*
X110069Y218047D01*
X110462Y217818D01*
X110478D01*
X110511Y217802D01*
X110576Y217769D01*
X110658Y217736D01*
X110757Y217687D01*
X110888Y217654D01*
X111019Y217605D01*
X111183Y217556D01*
X111527Y217441D01*
X111920Y217359D01*
X112362Y217294D01*
X112821Y217277D01*
X113001D01*
X113099Y217294D01*
X113214D01*
X113493Y217327D01*
X113820Y217376D01*
X114164Y217458D01*
X114541Y217556D01*
X114934Y217687D01*
X114951D01*
X114984Y217703D01*
X115033Y217736D01*
X115098Y217752D01*
X115295Y217834D01*
X115524Y217949D01*
X115770Y218080D01*
X116032Y218228D01*
X116278Y218391D01*
X116507Y218572D01*
Y220931D01*
X112805D01*
Y222422D01*
X118146D01*
Y217736D01*
X118129Y217720D01*
X118096Y217687D01*
X118031Y217638D01*
X117933Y217572D01*
X117818Y217490D01*
X117687Y217409D01*
X117539Y217310D01*
X117375Y217195D01*
X116982Y216950D01*
X116556Y216720D01*
X116098Y216475D01*
X115606Y216278D01*
X115590D01*
X115541Y216262D01*
X115475Y216229D01*
X115377Y216196D01*
X115262Y216163D01*
X115115Y216131D01*
X114951Y216082D01*
X114787Y216032D01*
X114377Y215950D01*
X113919Y215868D01*
X113427Y215803D01*
X112919Y215787D01*
X112739D01*
X112608Y215803D01*
X112444D01*
X112248Y215836D01*
X112035Y215852D01*
X111805Y215885D01*
X111543Y215934D01*
X111281Y215983D01*
X110708Y216114D01*
X110134Y216311D01*
X109839Y216442D01*
X109544Y216573D01*
X109528Y216589D01*
X109479Y216606D01*
X109397Y216655D01*
X109299Y216720D01*
X109168Y216802D01*
X109020Y216901D01*
X108873Y217032D01*
X108693Y217163D01*
X108512Y217310D01*
X108332Y217490D01*
X108135Y217671D01*
X107955Y217884D01*
X107759Y218097D01*
X107578Y218342D01*
X107415Y218588D01*
X107267Y218867D01*
Y218883D01*
X107234Y218932D01*
X107202Y219014D01*
X107153Y219129D01*
X107087Y219276D01*
X107021Y219440D01*
X106956Y219637D01*
X106890Y219850D01*
X106808Y220095D01*
X106743Y220357D01*
X106677Y220620D01*
X106612Y220914D01*
X106530Y221553D01*
X106514Y221881D01*
X106497Y222225D01*
Y222241D01*
Y222307D01*
Y222405D01*
X106514Y222536D01*
Y222700D01*
X106530Y222897D01*
X106563Y223110D01*
X106595Y223356D01*
X106628Y223601D01*
X106677Y223880D01*
X106808Y224453D01*
X107005Y225059D01*
X107120Y225371D01*
X107251Y225665D01*
X107267Y225682D01*
X107283Y225731D01*
X107333Y225813D01*
X107398Y225928D01*
X107480Y226059D01*
X107578Y226206D01*
X107693Y226370D01*
X107824Y226550D01*
X107972Y226747D01*
X108135Y226943D01*
X108316Y227140D01*
X108512Y227337D01*
X108955Y227697D01*
X109200Y227877D01*
X109462Y228025D01*
X109479Y228041D01*
X109528Y228057D01*
X109610Y228090D01*
X109725Y228156D01*
X109856Y228205D01*
X110020Y228270D01*
X110216Y228352D01*
X110429Y228418D01*
X110658Y228500D01*
X110921Y228565D01*
X111183Y228631D01*
X111478Y228696D01*
X112116Y228778D01*
X112444Y228795D01*
X112788Y228811D01*
X113018D01*
X113149Y228795D01*
D02*
G37*
G36*
X86559Y228582D02*
X86706D01*
X86887Y228565D01*
X87083Y228549D01*
X87493Y228516D01*
X87919Y228451D01*
X88328Y228369D01*
X88525Y228320D01*
X88689Y228254D01*
X88705D01*
X88722Y228238D01*
X88771Y228221D01*
X88836Y228188D01*
X89000Y228107D01*
X89197Y227976D01*
X89426Y227812D01*
X89655Y227599D01*
X89885Y227337D01*
X90098Y227042D01*
Y227025D01*
X90114Y227009D01*
X90147Y226960D01*
X90180Y226894D01*
X90262Y226714D01*
X90360Y226485D01*
X90458Y226206D01*
X90540Y225879D01*
X90606Y225518D01*
X90622Y225141D01*
Y225125D01*
Y225076D01*
Y225010D01*
X90606Y224912D01*
X90589Y224797D01*
X90573Y224666D01*
X90507Y224355D01*
X90409Y223995D01*
X90262Y223618D01*
X90163Y223437D01*
X90049Y223241D01*
X89901Y223061D01*
X89754Y222880D01*
X89737Y222864D01*
X89721Y222848D01*
X89655Y222799D01*
X89590Y222733D01*
X89492Y222667D01*
X89377Y222586D01*
X89246Y222487D01*
X89098Y222389D01*
X88918Y222291D01*
X88722Y222192D01*
X88492Y222094D01*
X88246Y221996D01*
X87984Y221914D01*
X87706Y221832D01*
X87395Y221766D01*
X87067Y221717D01*
X87100Y221701D01*
X87182Y221668D01*
X87296Y221603D01*
X87444Y221521D01*
X87771Y221308D01*
X87919Y221193D01*
X88066Y221078D01*
X88083D01*
X88099Y221045D01*
X88197Y220964D01*
X88328Y220816D01*
X88525Y220620D01*
X88738Y220390D01*
X88967Y220095D01*
X89213Y219768D01*
X89459Y219407D01*
X91638Y216000D01*
X89541D01*
X87886Y218605D01*
Y218621D01*
X87853Y218654D01*
X87821Y218719D01*
X87771Y218785D01*
X87706Y218883D01*
X87624Y218998D01*
X87460Y219243D01*
X87263Y219522D01*
X87067Y219800D01*
X86870Y220079D01*
X86674Y220325D01*
X86657Y220357D01*
X86592Y220423D01*
X86510Y220538D01*
X86395Y220652D01*
X86264Y220800D01*
X86117Y220947D01*
X85969Y221062D01*
X85822Y221177D01*
X85805Y221193D01*
X85756Y221209D01*
X85691Y221259D01*
X85592Y221308D01*
X85478Y221373D01*
X85347Y221422D01*
X85068Y221521D01*
X85052D01*
X85019Y221537D01*
X84953D01*
X84855Y221553D01*
X84724Y221570D01*
X84560D01*
X84380Y221586D01*
X82218D01*
Y216000D01*
X80547D01*
Y228598D01*
X86412D01*
X86559Y228582D01*
D02*
G37*
G36*
X74255D02*
X74550Y228565D01*
X74878Y228549D01*
X75189Y228516D01*
X75451Y228467D01*
X75500D01*
X75533Y228451D01*
X75599Y228434D01*
X75779Y228402D01*
X75992Y228336D01*
X76238Y228254D01*
X76483Y228156D01*
X76746Y228025D01*
X76991Y227877D01*
X77024Y227861D01*
X77090Y227795D01*
X77221Y227697D01*
X77352Y227566D01*
X77516Y227402D01*
X77696Y227189D01*
X77860Y226943D01*
X78007Y226665D01*
Y226649D01*
X78024Y226632D01*
X78040Y226583D01*
X78073Y226534D01*
X78138Y226370D01*
X78204Y226157D01*
X78269Y225895D01*
X78335Y225600D01*
X78384Y225289D01*
X78400Y224945D01*
Y224928D01*
Y224879D01*
Y224797D01*
X78384Y224683D01*
X78368Y224535D01*
X78351Y224371D01*
X78318Y224191D01*
X78269Y224011D01*
X78155Y223568D01*
X78073Y223356D01*
X77958Y223126D01*
X77843Y222897D01*
X77712Y222667D01*
X77548Y222438D01*
X77368Y222225D01*
X77352Y222209D01*
X77319Y222176D01*
X77253Y222127D01*
X77172Y222045D01*
X77057Y221963D01*
X76909Y221881D01*
X76729Y221766D01*
X76533Y221668D01*
X76287Y221570D01*
X76025Y221472D01*
X75714Y221373D01*
X75386Y221291D01*
X75009Y221209D01*
X74599Y221160D01*
X74157Y221127D01*
X73682Y221111D01*
X70471D01*
Y216000D01*
X68800D01*
Y228598D01*
X73977D01*
X74255Y228582D01*
D02*
G37*
G36*
X99059Y228795D02*
X99207Y228778D01*
X99387Y228762D01*
X99584Y228745D01*
X99813Y228713D01*
X100288Y228615D01*
X100812Y228467D01*
X101091Y228369D01*
X101353Y228254D01*
X101631Y228123D01*
X101894Y227976D01*
X101910Y227959D01*
X101959Y227943D01*
X102025Y227894D01*
X102123Y227828D01*
X102238Y227730D01*
X102385Y227631D01*
X102533Y227517D01*
X102696Y227369D01*
X102860Y227222D01*
X103040Y227042D01*
X103221Y226845D01*
X103401Y226649D01*
X103565Y226419D01*
X103728Y226173D01*
X104040Y225649D01*
X104056Y225633D01*
X104073Y225584D01*
X104105Y225502D01*
X104154Y225387D01*
X104204Y225240D01*
X104269Y225076D01*
X104335Y224879D01*
X104417Y224666D01*
X104482Y224437D01*
X104548Y224175D01*
X104613Y223896D01*
X104662Y223601D01*
X104744Y222962D01*
X104777Y222618D01*
Y222274D01*
Y222258D01*
Y222192D01*
Y222094D01*
X104761Y221947D01*
Y221783D01*
X104744Y221586D01*
X104711Y221373D01*
X104679Y221127D01*
X104629Y220865D01*
X104580Y220587D01*
X104449Y220013D01*
X104253Y219424D01*
X104122Y219129D01*
X103990Y218834D01*
X103974Y218817D01*
X103958Y218768D01*
X103909Y218686D01*
X103843Y218588D01*
X103761Y218457D01*
X103679Y218310D01*
X103565Y218162D01*
X103434Y217982D01*
X103286Y217802D01*
X103122Y217621D01*
X102745Y217245D01*
X102303Y216868D01*
X102057Y216704D01*
X101795Y216557D01*
X101779D01*
X101730Y216524D01*
X101648Y216491D01*
X101550Y216442D01*
X101418Y216376D01*
X101271Y216311D01*
X101091Y216245D01*
X100894Y216180D01*
X100665Y216098D01*
X100435Y216032D01*
X99911Y215901D01*
X99354Y215819D01*
X99059Y215803D01*
X98748Y215787D01*
X98568D01*
X98453Y215803D01*
X98289Y215819D01*
X98109Y215836D01*
X97913Y215852D01*
X97683Y215901D01*
X97192Y216000D01*
X96651Y216147D01*
X96372Y216245D01*
X96110Y216360D01*
X95832Y216491D01*
X95570Y216639D01*
X95553Y216655D01*
X95504Y216671D01*
X95439Y216720D01*
X95340Y216802D01*
X95226Y216884D01*
X95095Y216982D01*
X94947Y217114D01*
X94783Y217245D01*
X94620Y217409D01*
X94439Y217589D01*
X94259Y217785D01*
X94095Y217982D01*
X93751Y218457D01*
X93456Y218981D01*
Y218998D01*
X93424Y219047D01*
X93391Y219129D01*
X93342Y219243D01*
X93292Y219375D01*
X93227Y219538D01*
X93161Y219735D01*
X93096Y219932D01*
X93030Y220161D01*
X92965Y220407D01*
X92850Y220931D01*
X92768Y221521D01*
X92752Y221815D01*
X92735Y222127D01*
Y222143D01*
Y222160D01*
Y222209D01*
Y222258D01*
X92752Y222422D01*
X92768Y222651D01*
X92785Y222913D01*
X92817Y223208D01*
X92883Y223552D01*
X92948Y223913D01*
X93030Y224306D01*
X93145Y224699D01*
X93276Y225109D01*
X93440Y225518D01*
X93637Y225911D01*
X93849Y226304D01*
X94112Y226681D01*
X94406Y227025D01*
X94423Y227042D01*
X94488Y227107D01*
X94587Y227189D01*
X94718Y227304D01*
X94882Y227435D01*
X95078Y227599D01*
X95324Y227746D01*
X95586Y227926D01*
X95881Y228090D01*
X96209Y228254D01*
X96569Y228402D01*
X96962Y228533D01*
X97372Y228647D01*
X97814Y228729D01*
X98273Y228795D01*
X98764Y228811D01*
X98928D01*
X99059Y228795D01*
D02*
G37*
G36*
X244426Y287495D02*
X244473Y287490D01*
X244525Y287479D01*
X244583Y287469D01*
X244645Y287453D01*
X244713Y287432D01*
X244787Y287406D01*
X244860Y287374D01*
X244938Y287338D01*
X245012Y287291D01*
X245090Y287238D01*
X245163Y287181D01*
X245231Y287113D01*
X245237Y287108D01*
X245247Y287097D01*
X245263Y287076D01*
X245289Y287045D01*
X245315Y287008D01*
X245347Y286961D01*
X245378Y286909D01*
X245409Y286851D01*
X245446Y286783D01*
X245477Y286710D01*
X245509Y286632D01*
X245535Y286542D01*
X245561Y286454D01*
X245577Y286354D01*
X245587Y286255D01*
X245592Y286145D01*
Y286092D01*
X245587Y286056D01*
X245582Y286014D01*
X245577Y285962D01*
X245566Y285899D01*
X245550Y285836D01*
X245514Y285700D01*
X245488Y285627D01*
X245462Y285554D01*
X245425Y285475D01*
X245383Y285402D01*
X245336Y285334D01*
X245278Y285266D01*
X245273Y285261D01*
X245263Y285250D01*
X245247Y285234D01*
X245221Y285208D01*
X245189Y285182D01*
X245153Y285151D01*
X245106Y285119D01*
X245059Y285083D01*
X245001Y285051D01*
X244938Y285015D01*
X244870Y284983D01*
X244797Y284952D01*
X244719Y284921D01*
X244640Y284900D01*
X244551Y284879D01*
X244457Y284868D01*
X244389Y285360D01*
X244394D01*
X244410Y285365D01*
X244431Y285371D01*
X244457Y285376D01*
X244494Y285386D01*
X244530Y285397D01*
X244624Y285428D01*
X244724Y285465D01*
X244823Y285517D01*
X244923Y285574D01*
X244965Y285606D01*
X245001Y285643D01*
X245006Y285653D01*
X245027Y285679D01*
X245059Y285721D01*
X245090Y285784D01*
X245127Y285857D01*
X245153Y285941D01*
X245174Y286040D01*
X245184Y286145D01*
Y286182D01*
X245179Y286202D01*
Y286234D01*
X245174Y286270D01*
X245153Y286349D01*
X245127Y286443D01*
X245085Y286542D01*
X245022Y286642D01*
X244985Y286689D01*
X244944Y286736D01*
X244938Y286741D01*
X244933Y286747D01*
X244917Y286757D01*
X244902Y286773D01*
X244849Y286815D01*
X244776Y286856D01*
X244692Y286898D01*
X244588Y286940D01*
X244473Y286966D01*
X244410Y286977D01*
X244347D01*
X244342D01*
X244331D01*
X244316D01*
X244289Y286972D01*
X244263D01*
X244227Y286966D01*
X244148Y286951D01*
X244059Y286924D01*
X243965Y286883D01*
X243876Y286825D01*
X243829Y286794D01*
X243787Y286752D01*
X243777Y286741D01*
X243751Y286710D01*
X243719Y286663D01*
X243677Y286600D01*
X243636Y286516D01*
X243604Y286422D01*
X243578Y286312D01*
X243568Y286187D01*
Y286129D01*
X243573Y286092D01*
X243578Y286040D01*
X243588Y285977D01*
X243604Y285909D01*
X243620Y285836D01*
X243186Y285894D01*
Y285904D01*
X243191Y285920D01*
X243196Y285946D01*
Y286004D01*
X243191Y286024D01*
X243186Y286087D01*
X243175Y286161D01*
X243154Y286250D01*
X243128Y286344D01*
X243086Y286443D01*
X243034Y286537D01*
Y286542D01*
X243023Y286548D01*
X243002Y286579D01*
X242960Y286621D01*
X242908Y286668D01*
X242835Y286715D01*
X242746Y286752D01*
X242641Y286783D01*
X242584Y286789D01*
X242521Y286794D01*
X242516D01*
X242511D01*
X242474Y286789D01*
X242427Y286783D01*
X242364Y286773D01*
X242296Y286747D01*
X242223Y286715D01*
X242144Y286668D01*
X242076Y286605D01*
X242066Y286595D01*
X242045Y286574D01*
X242019Y286532D01*
X241982Y286480D01*
X241951Y286412D01*
X241919Y286328D01*
X241898Y286239D01*
X241893Y286134D01*
Y286108D01*
X241898Y286087D01*
X241904Y286030D01*
X241914Y285962D01*
X241940Y285889D01*
X241972Y285805D01*
X242013Y285726D01*
X242076Y285648D01*
X242087Y285637D01*
X242108Y285616D01*
X242150Y285585D01*
X242212Y285548D01*
X242285Y285506D01*
X242380Y285465D01*
X242490Y285433D01*
X242615Y285407D01*
X242526Y284915D01*
X242521D01*
X242505Y284921D01*
X242479Y284926D01*
X242442Y284936D01*
X242406Y284947D01*
X242353Y284962D01*
X242301Y284978D01*
X242244Y284999D01*
X242123Y285056D01*
X241998Y285125D01*
X241872Y285214D01*
X241815Y285266D01*
X241762Y285323D01*
X241757Y285329D01*
X241752Y285339D01*
X241736Y285355D01*
X241720Y285381D01*
X241700Y285412D01*
X241673Y285449D01*
X241647Y285496D01*
X241621Y285543D01*
X241600Y285601D01*
X241574Y285658D01*
X241527Y285794D01*
X241495Y285951D01*
X241490Y286035D01*
X241485Y286124D01*
Y286182D01*
X241490Y286208D01*
Y286244D01*
X241501Y286323D01*
X241522Y286417D01*
X241542Y286516D01*
X241579Y286621D01*
X241626Y286726D01*
Y286731D01*
X241632Y286736D01*
X241642Y286752D01*
X241652Y286773D01*
X241684Y286820D01*
X241726Y286883D01*
X241783Y286951D01*
X241851Y287024D01*
X241924Y287092D01*
X242013Y287150D01*
X242019D01*
X242024Y287155D01*
X242055Y287176D01*
X242108Y287197D01*
X242170Y287228D01*
X242249Y287254D01*
X242338Y287280D01*
X242432Y287296D01*
X242531Y287301D01*
X242537D01*
X242542D01*
X242573D01*
X242626Y287296D01*
X242688Y287285D01*
X242762Y287265D01*
X242840Y287244D01*
X242924Y287207D01*
X243008Y287160D01*
X243018Y287155D01*
X243044Y287134D01*
X243081Y287102D01*
X243128Y287055D01*
X243186Y286998D01*
X243243Y286924D01*
X243295Y286841D01*
X243348Y286747D01*
Y286752D01*
X243353Y286762D01*
X243358Y286783D01*
X243363Y286804D01*
X243374Y286835D01*
X243390Y286872D01*
X243421Y286951D01*
X243468Y287040D01*
X243531Y287129D01*
X243604Y287223D01*
X243693Y287301D01*
X243698D01*
X243703Y287312D01*
X243719Y287322D01*
X243740Y287333D01*
X243766Y287348D01*
X243792Y287364D01*
X243871Y287401D01*
X243965Y287437D01*
X244075Y287469D01*
X244195Y287490D01*
X244337Y287500D01*
X244342D01*
X244358D01*
X244389D01*
X244426Y287495D01*
D02*
G37*
G36*
X244467Y284361D02*
X244515Y284355D01*
X244562Y284350D01*
X244619Y284340D01*
X244682Y284324D01*
X244818Y284287D01*
X244886Y284261D01*
X244959Y284225D01*
X245033Y284188D01*
X245101Y284146D01*
X245169Y284094D01*
X245237Y284036D01*
X245242Y284031D01*
X245252Y284021D01*
X245268Y284005D01*
X245289Y283979D01*
X245315Y283947D01*
X245347Y283905D01*
X245378Y283864D01*
X245409Y283811D01*
X245441Y283754D01*
X245477Y283691D01*
X245509Y283623D01*
X245535Y283544D01*
X245561Y283466D01*
X245582Y283382D01*
X245592Y283293D01*
X245603Y283199D01*
X246100D01*
Y282906D01*
X245608D01*
Y282890D01*
X245603Y282869D01*
X245598Y282843D01*
X245592Y282812D01*
X245587Y282775D01*
X245571Y282691D01*
X245545Y282597D01*
X245519Y282493D01*
X245488Y282393D01*
X245446Y282299D01*
X245441Y282289D01*
X245425Y282262D01*
X245394Y282215D01*
X245352Y282163D01*
X245299Y282100D01*
X245231Y282032D01*
X245153Y281964D01*
X245059Y281901D01*
X245054D01*
X245048Y281896D01*
X245033Y281886D01*
X245012Y281875D01*
X244985Y281859D01*
X244954Y281849D01*
X244876Y281812D01*
X244781Y281781D01*
X244671Y281750D01*
X244546Y281723D01*
X244405Y281708D01*
X244310Y282205D01*
X244316D01*
X244326Y282210D01*
X244347D01*
X244379Y282215D01*
X244410Y282221D01*
X244447Y282231D01*
X244536Y282252D01*
X244630Y282278D01*
X244729Y282315D01*
X244818Y282357D01*
X244897Y282404D01*
X244902D01*
X244907Y282414D01*
X244938Y282440D01*
X244980Y282487D01*
X245033Y282545D01*
X245085Y282618D01*
X245132Y282702D01*
X245169Y282801D01*
X245184Y282854D01*
X245189Y282906D01*
X243641D01*
Y282901D01*
X243636Y282890D01*
X243630Y282875D01*
X243625Y282854D01*
X243615Y282827D01*
X243604Y282791D01*
X243578Y282712D01*
X243541Y282618D01*
X243499Y282514D01*
X243447Y282404D01*
X243384Y282283D01*
X243379Y282273D01*
X243358Y282241D01*
X243332Y282200D01*
X243290Y282147D01*
X243238Y282090D01*
X243175Y282027D01*
X243107Y281969D01*
X243023Y281917D01*
X243018D01*
X243013Y281912D01*
X242981Y281896D01*
X242934Y281875D01*
X242866Y281854D01*
X242793Y281833D01*
X242699Y281812D01*
X242600Y281797D01*
X242495Y281791D01*
X242490D01*
X242474D01*
X242442D01*
X242406Y281797D01*
X242364Y281802D01*
X242312Y281812D01*
X242254Y281823D01*
X242191Y281839D01*
X242123Y281859D01*
X242055Y281880D01*
X241982Y281912D01*
X241914Y281949D01*
X241841Y281990D01*
X241773Y282043D01*
X241705Y282100D01*
X241642Y282163D01*
X241637Y282168D01*
X241632Y282174D01*
X241621Y282189D01*
X241605Y282210D01*
X241590Y282236D01*
X241569Y282268D01*
X241548Y282304D01*
X241527Y282351D01*
X241501Y282398D01*
X241480Y282456D01*
X241454Y282514D01*
X241433Y282582D01*
X241412Y282655D01*
X241396Y282733D01*
X241380Y282817D01*
X241370Y282906D01*
X241134D01*
Y283199D01*
X241370D01*
Y283220D01*
X241375Y283241D01*
X241380Y283267D01*
X241385Y283304D01*
X241396Y283346D01*
X241417Y283445D01*
X241448Y283550D01*
X241495Y283665D01*
X241553Y283775D01*
X241626Y283874D01*
X241632Y283879D01*
X241637Y283890D01*
X241652Y283905D01*
X241673Y283926D01*
X241705Y283953D01*
X241736Y283979D01*
X241773Y284010D01*
X241820Y284047D01*
X241867Y284078D01*
X241924Y284115D01*
X241982Y284146D01*
X242050Y284177D01*
X242197Y284230D01*
X242280Y284251D01*
X242364Y284266D01*
X242442Y283759D01*
X242437D01*
X242432D01*
X242416Y283754D01*
X242395Y283748D01*
X242343Y283738D01*
X242280Y283717D01*
X242207Y283691D01*
X242134Y283659D01*
X242061Y283618D01*
X241998Y283570D01*
X241992Y283565D01*
X241972Y283544D01*
X241945Y283513D01*
X241914Y283471D01*
X241877Y283419D01*
X241841Y283356D01*
X241815Y283283D01*
X241788Y283199D01*
X243206D01*
Y283204D01*
X243212Y283215D01*
X243217Y283236D01*
X243222Y283257D01*
X243243Y283325D01*
X243264Y283398D01*
X243285Y283482D01*
X243311Y283565D01*
X243337Y283633D01*
X243348Y283665D01*
X243358Y283691D01*
Y283696D01*
X243363Y283701D01*
X243374Y283727D01*
X243395Y283769D01*
X243426Y283822D01*
X243463Y283879D01*
X243505Y283942D01*
X243552Y284005D01*
X243604Y284062D01*
X243609Y284068D01*
X243630Y284088D01*
X243662Y284115D01*
X243703Y284146D01*
X243751Y284183D01*
X243813Y284219D01*
X243876Y284256D01*
X243949Y284287D01*
X243960Y284293D01*
X243986Y284298D01*
X244023Y284314D01*
X244080Y284329D01*
X244143Y284340D01*
X244216Y284355D01*
X244295Y284361D01*
X244384Y284366D01*
X244389D01*
X244405D01*
X244431D01*
X244467Y284361D01*
D02*
G37*
G36*
X243981Y281049D02*
X244038D01*
X244106Y281043D01*
X244174Y281038D01*
X244331Y281017D01*
X244494Y280996D01*
X244651Y280960D01*
X244724Y280939D01*
X244792Y280912D01*
X244797D01*
X244807Y280907D01*
X244828Y280897D01*
X244849Y280886D01*
X244881Y280871D01*
X244917Y280850D01*
X244996Y280797D01*
X245090Y280729D01*
X245184Y280646D01*
X245284Y280541D01*
X245331Y280478D01*
X245373Y280415D01*
Y280410D01*
X245383Y280400D01*
X245394Y280379D01*
X245409Y280353D01*
X245425Y280316D01*
X245441Y280274D01*
X245462Y280222D01*
X245483Y280164D01*
X245503Y280101D01*
X245524Y280028D01*
X245540Y279955D01*
X245556Y279871D01*
X245571Y279782D01*
X245582Y279688D01*
X245587Y279583D01*
X245592Y279479D01*
Y279426D01*
X245587Y279385D01*
Y279338D01*
X245582Y279280D01*
X245577Y279217D01*
X245566Y279149D01*
X245545Y279003D01*
X245509Y278851D01*
X245462Y278694D01*
X245399Y278553D01*
Y278547D01*
X245388Y278537D01*
X245378Y278516D01*
X245362Y278495D01*
X245320Y278432D01*
X245257Y278354D01*
X245179Y278270D01*
X245080Y278186D01*
X244970Y278108D01*
X244839Y278040D01*
X244834D01*
X244823Y278035D01*
X244802Y278024D01*
X244771Y278019D01*
X244734Y278003D01*
X244687Y277993D01*
X244635Y277977D01*
X244572Y277967D01*
X244504Y277951D01*
X244431Y277935D01*
X244347Y277925D01*
X244258Y277914D01*
X244159Y277904D01*
X244054Y277893D01*
X243944Y277888D01*
X243829D01*
X241501D01*
Y278422D01*
X243824D01*
X243829D01*
X243845D01*
X243876D01*
X243908D01*
X243955Y278427D01*
X244002D01*
X244059Y278432D01*
X244117D01*
X244242Y278443D01*
X244373Y278464D01*
X244494Y278485D01*
X244546Y278500D01*
X244598Y278516D01*
X244604D01*
X244609Y278521D01*
X244640Y278537D01*
X244682Y278558D01*
X244739Y278594D01*
X244797Y278642D01*
X244865Y278699D01*
X244923Y278767D01*
X244980Y278851D01*
Y278856D01*
X244985Y278861D01*
X245001Y278893D01*
X245022Y278945D01*
X245043Y279013D01*
X245069Y279097D01*
X245090Y279196D01*
X245106Y279306D01*
X245111Y279432D01*
Y279489D01*
X245106Y279526D01*
X245101Y279573D01*
X245095Y279631D01*
X245090Y279693D01*
X245080Y279756D01*
X245048Y279892D01*
X245001Y280033D01*
X244970Y280096D01*
X244933Y280159D01*
X244897Y280217D01*
X244849Y280269D01*
X244844Y280274D01*
X244834Y280279D01*
X244818Y280290D01*
X244797Y280311D01*
X244766Y280326D01*
X244724Y280347D01*
X244677Y280373D01*
X244619Y280394D01*
X244556Y280421D01*
X244483Y280442D01*
X244399Y280462D01*
X244305Y280483D01*
X244201Y280499D01*
X244086Y280510D01*
X243960Y280515D01*
X243824Y280520D01*
X241501D01*
Y281054D01*
X243829D01*
X243834D01*
X243855D01*
X243887D01*
X243929D01*
X243981Y281049D01*
D02*
G37*
%LPC*%
G36*
X83148Y450128D02*
X79328D01*
Y446352D01*
X82808D01*
X82911Y446367D01*
X83148Y446381D01*
X83400Y446396D01*
X83681Y446441D01*
X83933Y446485D01*
X84170Y446559D01*
X84200Y446574D01*
X84274Y446604D01*
X84377Y446648D01*
X84511Y446722D01*
X84644Y446811D01*
X84792Y446929D01*
X84940Y447077D01*
X85059Y447240D01*
X85073Y447255D01*
X85103Y447329D01*
X85162Y447418D01*
X85221Y447551D01*
X85266Y447699D01*
X85325Y447877D01*
X85355Y448055D01*
X85370Y448262D01*
Y448277D01*
Y448292D01*
Y448336D01*
X85355Y448395D01*
X85340Y448544D01*
X85295Y448736D01*
X85221Y448943D01*
X85118Y449165D01*
X84970Y449388D01*
X84777Y449595D01*
X84748Y449624D01*
X84659Y449684D01*
X84525Y449758D01*
X84318Y449861D01*
X84200Y449906D01*
X84066Y449965D01*
X83918Y450009D01*
X83741Y450039D01*
X83563Y450084D01*
X83370Y450098D01*
X83148Y450128D01*
D02*
G37*
G36*
X71968Y450039D02*
X68710D01*
Y445967D01*
X71776D01*
X71879Y445982D01*
X71998D01*
X72131Y445996D01*
X72442Y446041D01*
X72783Y446100D01*
X73123Y446189D01*
X73434Y446322D01*
X73582Y446411D01*
X73701Y446500D01*
X73730Y446530D01*
X73804Y446604D01*
X73893Y446722D01*
X74012Y446900D01*
X74130Y447122D01*
X74219Y447388D01*
X74293Y447685D01*
X74323Y448040D01*
Y448055D01*
Y448070D01*
Y448158D01*
X74308Y448292D01*
X74278Y448455D01*
X74234Y448647D01*
X74160Y448854D01*
X74071Y449062D01*
X73952Y449254D01*
X73938Y449284D01*
X73893Y449343D01*
X73804Y449432D01*
X73701Y449536D01*
X73567Y449654D01*
X73404Y449758D01*
X73212Y449861D01*
X73005Y449935D01*
X72990D01*
X72931Y449950D01*
X72827Y449965D01*
X72694Y449995D01*
X72501Y450009D01*
X72264Y450024D01*
X71968Y450039D01*
D02*
G37*
G36*
X94284Y450276D02*
X94136D01*
X94017Y450261D01*
X93884Y450246D01*
X93721Y450217D01*
X93544Y450187D01*
X93336Y450143D01*
X93129Y450084D01*
X92907Y450009D01*
X92685Y449921D01*
X92448Y449802D01*
X92211Y449684D01*
X91974Y449536D01*
X91752Y449358D01*
X91530Y449165D01*
X91515Y449151D01*
X91485Y449121D01*
X91426Y449047D01*
X91352Y448958D01*
X91263Y448840D01*
X91174Y448677D01*
X91071Y448499D01*
X90967Y448292D01*
X90849Y448055D01*
X90745Y447788D01*
X90656Y447492D01*
X90567Y447166D01*
X90493Y446796D01*
X90434Y446396D01*
X90404Y445967D01*
X90389Y445508D01*
Y445478D01*
Y445419D01*
X90404Y445315D01*
Y445167D01*
X90419Y444990D01*
X90449Y444797D01*
X90478Y444575D01*
X90523Y444338D01*
X90582Y444071D01*
X90656Y443805D01*
X90745Y443538D01*
X90849Y443272D01*
X90982Y443005D01*
X91130Y442739D01*
X91293Y442502D01*
X91485Y442265D01*
X91500Y442250D01*
X91530Y442220D01*
X91604Y442161D01*
X91693Y442087D01*
X91796Y441998D01*
X91930Y441895D01*
X92078Y441791D01*
X92255Y441687D01*
X92433Y441569D01*
X92655Y441465D01*
X92877Y441362D01*
X93129Y441273D01*
X93381Y441199D01*
X93662Y441139D01*
X93944Y441110D01*
X94254Y441095D01*
X94328D01*
X94417Y441110D01*
X94536D01*
X94684Y441124D01*
X94847Y441154D01*
X95039Y441199D01*
X95247Y441243D01*
X95454Y441302D01*
X95691Y441391D01*
X95913Y441480D01*
X96150Y441598D01*
X96387Y441732D01*
X96624Y441895D01*
X96846Y442072D01*
X97053Y442280D01*
X97068Y442294D01*
X97098Y442339D01*
X97157Y442398D01*
X97231Y442502D01*
X97305Y442620D01*
X97409Y442768D01*
X97512Y442946D01*
X97616Y443153D01*
X97720Y443375D01*
X97808Y443642D01*
X97912Y443909D01*
X97986Y444220D01*
X98060Y444545D01*
X98119Y444901D01*
X98149Y445271D01*
X98164Y445671D01*
Y445686D01*
Y445730D01*
Y445804D01*
Y445908D01*
X98149Y446026D01*
X98134Y446159D01*
X98119Y446322D01*
X98105Y446500D01*
X98045Y446870D01*
X97971Y447285D01*
X97853Y447699D01*
X97690Y448099D01*
Y448114D01*
X97675Y448144D01*
X97646Y448203D01*
X97601Y448277D01*
X97557Y448351D01*
X97497Y448455D01*
X97335Y448691D01*
X97142Y448943D01*
X96905Y449210D01*
X96639Y449462D01*
X96313Y449698D01*
X96298D01*
X96268Y449728D01*
X96224Y449758D01*
X96150Y449787D01*
X96076Y449832D01*
X95972Y449876D01*
X95854Y449935D01*
X95721Y449995D01*
X95424Y450098D01*
X95084Y450187D01*
X94699Y450246D01*
X94284Y450276D01*
D02*
G37*
G36*
X86444Y227206D02*
X82218D01*
Y223028D01*
X86067D01*
X86182Y223044D01*
X86444Y223061D01*
X86723Y223077D01*
X87034Y223126D01*
X87313Y223175D01*
X87575Y223257D01*
X87607Y223274D01*
X87690Y223306D01*
X87804Y223356D01*
X87952Y223437D01*
X88099Y223536D01*
X88263Y223667D01*
X88427Y223831D01*
X88558Y224011D01*
X88574Y224027D01*
X88607Y224109D01*
X88672Y224207D01*
X88738Y224355D01*
X88787Y224519D01*
X88853Y224715D01*
X88885Y224912D01*
X88902Y225141D01*
Y225158D01*
Y225174D01*
Y225223D01*
X88885Y225289D01*
X88869Y225453D01*
X88820Y225665D01*
X88738Y225895D01*
X88623Y226141D01*
X88460Y226386D01*
X88246Y226616D01*
X88214Y226649D01*
X88115Y226714D01*
X87968Y226796D01*
X87739Y226911D01*
X87607Y226960D01*
X87460Y227025D01*
X87296Y227075D01*
X87100Y227107D01*
X86903Y227156D01*
X86690Y227173D01*
X86444Y227206D01*
D02*
G37*
G36*
X74075Y227107D02*
X70471D01*
Y222602D01*
X73862D01*
X73977Y222618D01*
X74108D01*
X74255Y222635D01*
X74599Y222684D01*
X74976Y222749D01*
X75353Y222848D01*
X75697Y222995D01*
X75861Y223093D01*
X75992Y223192D01*
X76025Y223225D01*
X76107Y223306D01*
X76205Y223437D01*
X76336Y223634D01*
X76467Y223880D01*
X76565Y224175D01*
X76647Y224502D01*
X76680Y224895D01*
Y224912D01*
Y224928D01*
Y225027D01*
X76664Y225174D01*
X76631Y225354D01*
X76582Y225567D01*
X76500Y225797D01*
X76402Y226026D01*
X76270Y226239D01*
X76254Y226272D01*
X76205Y226337D01*
X76107Y226436D01*
X75992Y226550D01*
X75845Y226681D01*
X75664Y226796D01*
X75451Y226911D01*
X75222Y226993D01*
X75206D01*
X75140Y227009D01*
X75025Y227025D01*
X74878Y227058D01*
X74665Y227075D01*
X74403Y227091D01*
X74075Y227107D01*
D02*
G37*
G36*
X98764Y227369D02*
X98601D01*
X98469Y227353D01*
X98322Y227337D01*
X98142Y227304D01*
X97945Y227271D01*
X97716Y227222D01*
X97486Y227156D01*
X97241Y227075D01*
X96995Y226976D01*
X96733Y226845D01*
X96471Y226714D01*
X96209Y226550D01*
X95963Y226354D01*
X95717Y226141D01*
X95701Y226124D01*
X95668Y226091D01*
X95603Y226010D01*
X95520Y225911D01*
X95422Y225780D01*
X95324Y225600D01*
X95209Y225403D01*
X95095Y225174D01*
X94964Y224912D01*
X94849Y224617D01*
X94750Y224289D01*
X94652Y223929D01*
X94570Y223519D01*
X94505Y223077D01*
X94472Y222602D01*
X94456Y222094D01*
Y222061D01*
Y221996D01*
X94472Y221881D01*
Y221717D01*
X94488Y221521D01*
X94521Y221308D01*
X94554Y221062D01*
X94603Y220800D01*
X94669Y220505D01*
X94750Y220210D01*
X94849Y219915D01*
X94964Y219620D01*
X95111Y219325D01*
X95275Y219030D01*
X95455Y218768D01*
X95668Y218506D01*
X95684Y218490D01*
X95717Y218457D01*
X95799Y218391D01*
X95897Y218310D01*
X96012Y218211D01*
X96159Y218097D01*
X96323Y217982D01*
X96520Y217867D01*
X96716Y217736D01*
X96962Y217621D01*
X97208Y217507D01*
X97486Y217409D01*
X97765Y217327D01*
X98076Y217261D01*
X98388Y217228D01*
X98732Y217212D01*
X98813D01*
X98912Y217228D01*
X99043D01*
X99207Y217245D01*
X99387Y217277D01*
X99600Y217327D01*
X99829Y217376D01*
X100059Y217441D01*
X100321Y217540D01*
X100567Y217638D01*
X100829Y217769D01*
X101091Y217916D01*
X101353Y218097D01*
X101599Y218293D01*
X101828Y218522D01*
X101844Y218539D01*
X101877Y218588D01*
X101943Y218654D01*
X102025Y218768D01*
X102107Y218899D01*
X102221Y219063D01*
X102336Y219260D01*
X102451Y219489D01*
X102565Y219735D01*
X102663Y220030D01*
X102778Y220325D01*
X102860Y220669D01*
X102942Y221029D01*
X103008Y221422D01*
X103040Y221832D01*
X103057Y222274D01*
Y222291D01*
Y222340D01*
Y222422D01*
Y222536D01*
X103040Y222667D01*
X103024Y222815D01*
X103008Y222995D01*
X102991Y223192D01*
X102926Y223601D01*
X102844Y224060D01*
X102713Y224519D01*
X102533Y224961D01*
Y224977D01*
X102516Y225010D01*
X102483Y225076D01*
X102434Y225158D01*
X102385Y225240D01*
X102319Y225354D01*
X102139Y225616D01*
X101926Y225895D01*
X101664Y226190D01*
X101369Y226468D01*
X101009Y226730D01*
X100992D01*
X100960Y226763D01*
X100911Y226796D01*
X100829Y226829D01*
X100747Y226878D01*
X100632Y226927D01*
X100501Y226993D01*
X100353Y227058D01*
X100026Y227173D01*
X99649Y227271D01*
X99223Y227337D01*
X98764Y227369D01*
D02*
G37*
G36*
X244415Y283858D02*
X244410D01*
X244405D01*
X244389D01*
X244368D01*
X244321Y283853D01*
X244258Y283843D01*
X244190Y283827D01*
X244117Y283801D01*
X244044Y283769D01*
X243981Y283727D01*
X243976Y283722D01*
X243955Y283701D01*
X243923Y283665D01*
X243887Y283612D01*
X243845Y283539D01*
X243824Y283497D01*
X243798Y283450D01*
X243777Y283398D01*
X243756Y283335D01*
X243735Y283272D01*
X243714Y283199D01*
X245189D01*
Y283209D01*
X245184Y283225D01*
X245179Y283246D01*
X245169Y283298D01*
X245148Y283367D01*
X245116Y283440D01*
X245074Y283518D01*
X245017Y283597D01*
X244944Y283670D01*
X244933Y283680D01*
X244907Y283701D01*
X244860Y283727D01*
X244797Y283764D01*
X244719Y283801D01*
X244630Y283827D01*
X244530Y283848D01*
X244415Y283858D01*
D02*
G37*
G36*
X243133Y282906D02*
X241783D01*
Y282896D01*
X241788Y282880D01*
X241794Y282859D01*
X241809Y282807D01*
X241830Y282739D01*
X241862Y282665D01*
X241904Y282587D01*
X241956Y282514D01*
X242019Y282446D01*
X242029Y282440D01*
X242050Y282419D01*
X242092Y282393D01*
X242144Y282367D01*
X242207Y282336D01*
X242280Y282309D01*
X242364Y282289D01*
X242458Y282283D01*
X242463D01*
X242469D01*
X242500D01*
X242547Y282289D01*
X242605Y282299D01*
X242673Y282320D01*
X242741Y282341D01*
X242814Y282377D01*
X242882Y282425D01*
X242887Y282430D01*
X242908Y282451D01*
X242940Y282487D01*
X242976Y282540D01*
X243018Y282603D01*
X243060Y282686D01*
X243097Y282786D01*
X243133Y282906D01*
D02*
G37*
%LPD*%
D10*
X102400Y142698D02*
X109197D01*
X185098Y143202D02*
Y150000D01*
X181699Y146601D02*
X188496D01*
D11*
X381538Y653769D02*
Y649519D01*
X383662D01*
X384371Y650227D01*
Y650936D01*
X383662Y651644D01*
X381538D01*
X383662D01*
X384371Y652352D01*
Y653060D01*
X383662Y653769D01*
X381538D01*
X385787D02*
Y653060D01*
X387204Y651644D01*
X388620Y653060D01*
Y653769D01*
X387204Y651644D02*
Y649519D01*
X390037D02*
Y653769D01*
X392162D01*
X392870Y653060D01*
Y651644D01*
X392162Y650936D01*
X390037D01*
M02*
