G04*
G04 #@! TF.GenerationSoftware,Altium Limited,Altium Designer,23.7.1 (13)*
G04*
G04 Layer_Color=8388736*
%FSLAX44Y44*%
%MOMM*%
G71*
G04*
G04 #@! TF.SameCoordinates,79E1B895-7913-4AE0-894B-E54B3F4E96D7*
G04*
G04*
G04 #@! TF.FilePolarity,Negative*
G04*
G01*
G75*
%ADD30R,0.8500X1.0499*%
%ADD31R,1.9501X1.3499*%
%ADD32R,1.6999X0.7500*%
%ADD33R,2.1500X1.6501*%
%ADD34R,1.1500X1.2501*%
%ADD35R,0.8500X0.5501*%
%ADD36R,1.2000X1.2300*%
%ADD37R,1.9300X0.8701*%
%ADD38R,1.4500X1.7500*%
%ADD39R,3.7499X2.3499*%
%ADD40R,1.3689X2.3850*%
%ADD41R,1.0499X0.8500*%
%ADD42R,1.7500X0.7500*%
%ADD43R,1.2501X1.1500*%
G04:AMPARAMS|DCode=44|XSize=1.15mm|YSize=1.15mm|CornerRadius=0.225mm|HoleSize=0mm|Usage=FLASHONLY|Rotation=0.000|XOffset=0mm|YOffset=0mm|HoleType=Round|Shape=RoundedRectangle|*
%AMROUNDEDRECTD44*
21,1,1.1500,0.7000,0,0,0.0*
21,1,0.7000,1.1500,0,0,0.0*
1,1,0.4500,0.3500,-0.3500*
1,1,0.4500,-0.3500,-0.3500*
1,1,0.4500,-0.3500,0.3500*
1,1,0.4500,0.3500,0.3500*
%
%ADD44ROUNDEDRECTD44*%
%ADD45R,1.2501X1.1500*%
%ADD46R,0.3700X1.1500*%
%ADD47R,1.1500X0.3700*%
%ADD48C,3.1500*%
G04:AMPARAMS|DCode=49|XSize=1.674mm|YSize=1.674mm|CornerRadius=0mm|HoleSize=0mm|Usage=FLASHONLY|Rotation=90.000|XOffset=0mm|YOffset=0mm|HoleType=Round|Shape=Octagon|*
%AMOCTAGOND49*
4,1,8,0.4185,0.8370,-0.4185,0.8370,-0.8370,0.4185,-0.8370,-0.4185,-0.4185,-0.8370,0.4185,-0.8370,0.8370,-0.4185,0.8370,0.4185,0.4185,0.8370,0.0*
%
%ADD49OCTAGOND49*%

%ADD50O,3.1980X1.6740*%
%ADD51C,1.4581*%
%ADD52C,1.6801*%
%ADD53R,1.6801X1.6801*%
%ADD54C,0.5032*%
%ADD55C,0.5532*%
D30*
X379100Y641599D02*
D03*
X392100D02*
D03*
D31*
X77401Y464200D02*
D03*
Y550200D02*
D03*
X82202Y238600D02*
D03*
Y324599D02*
D03*
D32*
X102652Y537200D02*
D03*
Y527200D02*
D03*
Y517200D02*
D03*
Y507200D02*
D03*
Y497200D02*
D03*
Y487200D02*
D03*
Y477200D02*
D03*
X107452Y311600D02*
D03*
Y301600D02*
D03*
Y291600D02*
D03*
Y281600D02*
D03*
Y271600D02*
D03*
Y261600D02*
D03*
Y251600D02*
D03*
D33*
X75499Y182900D02*
D03*
Y152898D02*
D03*
X95499Y182900D02*
D03*
Y152898D02*
D03*
X115499Y182900D02*
D03*
Y152898D02*
D03*
X154701Y182900D02*
D03*
Y152898D02*
D03*
X134701Y182900D02*
D03*
Y152898D02*
D03*
D34*
X326100Y643499D02*
D03*
Y626501D02*
D03*
X184201Y132999D02*
D03*
Y116002D02*
D03*
X124600Y491998D02*
D03*
Y475000D02*
D03*
X272100Y561099D02*
D03*
Y544101D02*
D03*
X155301Y570898D02*
D03*
Y553900D02*
D03*
X133901Y570799D02*
D03*
Y553801D02*
D03*
X239400Y412499D02*
D03*
Y395501D02*
D03*
X133800Y263200D02*
D03*
Y246202D02*
D03*
X180000Y179098D02*
D03*
Y162100D02*
D03*
X262600Y345298D02*
D03*
Y328300D02*
D03*
X156700Y343499D02*
D03*
Y326502D02*
D03*
X136901Y343499D02*
D03*
Y326502D02*
D03*
X250200Y180998D02*
D03*
Y164000D02*
D03*
D35*
X346502Y626501D02*
D03*
Y639501D02*
D03*
X363499D02*
D03*
Y633001D02*
D03*
Y626501D02*
D03*
D36*
X409651Y160500D02*
D03*
X392151D02*
D03*
X407751Y309999D02*
D03*
X390251D02*
D03*
X412849Y607601D02*
D03*
X395349D02*
D03*
X410649Y454899D02*
D03*
X393149D02*
D03*
X410451Y234099D02*
D03*
X392951D02*
D03*
X414350Y382999D02*
D03*
X396850D02*
D03*
X412750Y533900D02*
D03*
X395249D02*
D03*
X411351Y90000D02*
D03*
X393850D02*
D03*
X326550Y472801D02*
D03*
X344051D02*
D03*
X377449Y608099D02*
D03*
X359949D02*
D03*
X324950Y321701D02*
D03*
X342450D02*
D03*
X376349Y454500D02*
D03*
X358849D02*
D03*
X323850Y168999D02*
D03*
X341351D02*
D03*
X375549Y308900D02*
D03*
X358049D02*
D03*
X324150Y21801D02*
D03*
X341650D02*
D03*
X378551Y160101D02*
D03*
X361051D02*
D03*
D37*
X406900Y555549D02*
D03*
Y568249D02*
D03*
Y593649D02*
D03*
X359900Y555549D02*
D03*
Y568249D02*
D03*
Y593649D02*
D03*
X406900Y580949D02*
D03*
X359900D02*
D03*
X405300Y255049D02*
D03*
Y267749D02*
D03*
Y293149D02*
D03*
X358300Y255049D02*
D03*
Y267749D02*
D03*
Y293149D02*
D03*
X405300Y280449D02*
D03*
X358300D02*
D03*
X409400Y400949D02*
D03*
Y413649D02*
D03*
Y439049D02*
D03*
X362400Y400949D02*
D03*
Y413649D02*
D03*
Y439049D02*
D03*
X409400Y426349D02*
D03*
X362400D02*
D03*
X407799Y107551D02*
D03*
Y120251D02*
D03*
Y145651D02*
D03*
X360799Y107551D02*
D03*
Y120251D02*
D03*
Y145651D02*
D03*
X407799Y132951D02*
D03*
X360799D02*
D03*
X408600Y483050D02*
D03*
Y495750D02*
D03*
Y521150D02*
D03*
X361600Y483050D02*
D03*
Y495750D02*
D03*
Y521150D02*
D03*
X408600Y508450D02*
D03*
X361600D02*
D03*
X410200Y332151D02*
D03*
Y344851D02*
D03*
Y370251D02*
D03*
X363200Y332151D02*
D03*
Y344851D02*
D03*
Y370251D02*
D03*
X410200Y357551D02*
D03*
X363200D02*
D03*
X406100Y180050D02*
D03*
Y192750D02*
D03*
Y218150D02*
D03*
X359100Y180050D02*
D03*
Y192750D02*
D03*
Y218150D02*
D03*
X406100Y205450D02*
D03*
X359100D02*
D03*
X408399Y37549D02*
D03*
Y50249D02*
D03*
Y75649D02*
D03*
X361399Y37549D02*
D03*
Y50249D02*
D03*
Y75649D02*
D03*
X408399Y62949D02*
D03*
X361399D02*
D03*
D38*
X239700Y121501D02*
D03*
X219700D02*
D03*
D39*
X208300Y36711D02*
D03*
D40*
X185191Y98692D02*
D03*
X208300D02*
D03*
X231409D02*
D03*
D41*
X433301Y506999D02*
D03*
Y493999D02*
D03*
X434899Y356100D02*
D03*
Y343101D02*
D03*
X430101Y199900D02*
D03*
Y186901D02*
D03*
X432399Y63299D02*
D03*
Y50300D02*
D03*
D42*
X128100Y512501D02*
D03*
Y524500D02*
D03*
Y536499D02*
D03*
X129700Y286101D02*
D03*
Y298099D02*
D03*
Y310098D02*
D03*
D43*
X211201Y411099D02*
D03*
Y394101D02*
D03*
X225199Y179398D02*
D03*
Y162400D02*
D03*
D44*
X193901Y393230D02*
D03*
Y410771D02*
D03*
X209301Y162128D02*
D03*
Y179669D02*
D03*
D45*
X158798Y412100D02*
D03*
X141801D02*
D03*
X110599Y422199D02*
D03*
X93602D02*
D03*
X113698Y205699D02*
D03*
X96700D02*
D03*
D46*
X204000Y546600D02*
D03*
X194000D02*
D03*
X184000D02*
D03*
X174000D02*
D03*
X179001D02*
D03*
X189001D02*
D03*
X199001D02*
D03*
X249001D02*
D03*
X239001D02*
D03*
X229001D02*
D03*
X219001D02*
D03*
X244000D02*
D03*
X234000D02*
D03*
X224000D02*
D03*
X209001D02*
D03*
X214000D02*
D03*
X219001Y431599D02*
D03*
X229001D02*
D03*
X239001D02*
D03*
X249001D02*
D03*
X244000D02*
D03*
X234000D02*
D03*
X224000D02*
D03*
X174000D02*
D03*
X184000D02*
D03*
X194000D02*
D03*
X204000D02*
D03*
X179001D02*
D03*
X189001D02*
D03*
X199001D02*
D03*
X214000D02*
D03*
X209001D02*
D03*
X204000Y315001D02*
D03*
X194000D02*
D03*
X184000D02*
D03*
X174000D02*
D03*
X179001D02*
D03*
X189001D02*
D03*
X199001D02*
D03*
X249001D02*
D03*
X239001D02*
D03*
X229001D02*
D03*
X219001D02*
D03*
X244000D02*
D03*
X234000D02*
D03*
X224000D02*
D03*
X209001D02*
D03*
X214000D02*
D03*
X219001Y200000D02*
D03*
X229001D02*
D03*
X239001D02*
D03*
X249001D02*
D03*
X244000D02*
D03*
X234000D02*
D03*
X224000D02*
D03*
X174000D02*
D03*
X184000D02*
D03*
X194000D02*
D03*
X204000D02*
D03*
X179001D02*
D03*
X189001D02*
D03*
X199001D02*
D03*
X214000D02*
D03*
X209001D02*
D03*
D47*
X269001Y496600D02*
D03*
Y506600D02*
D03*
Y516600D02*
D03*
Y526600D02*
D03*
Y521599D02*
D03*
Y511599D02*
D03*
Y501599D02*
D03*
Y451599D02*
D03*
Y461599D02*
D03*
Y471599D02*
D03*
Y481599D02*
D03*
Y456601D02*
D03*
Y466600D02*
D03*
Y476600D02*
D03*
Y491599D02*
D03*
Y486600D02*
D03*
X154000Y481599D02*
D03*
Y471599D02*
D03*
Y461599D02*
D03*
Y451599D02*
D03*
Y456601D02*
D03*
Y466600D02*
D03*
Y476600D02*
D03*
Y526600D02*
D03*
Y516600D02*
D03*
Y506600D02*
D03*
Y496600D02*
D03*
Y521599D02*
D03*
Y511599D02*
D03*
Y501599D02*
D03*
Y486600D02*
D03*
Y491599D02*
D03*
X269001Y265001D02*
D03*
Y275001D02*
D03*
Y285001D02*
D03*
Y295001D02*
D03*
Y289999D02*
D03*
Y279999D02*
D03*
Y270000D02*
D03*
Y220000D02*
D03*
Y230000D02*
D03*
Y240000D02*
D03*
Y250000D02*
D03*
Y225001D02*
D03*
Y235001D02*
D03*
Y245001D02*
D03*
Y260000D02*
D03*
Y255001D02*
D03*
X154000Y250000D02*
D03*
Y240000D02*
D03*
Y230000D02*
D03*
Y220000D02*
D03*
Y225001D02*
D03*
Y235001D02*
D03*
Y245001D02*
D03*
Y295001D02*
D03*
Y285001D02*
D03*
Y275001D02*
D03*
Y265001D02*
D03*
Y289999D02*
D03*
Y279999D02*
D03*
Y270000D02*
D03*
Y255001D02*
D03*
Y260000D02*
D03*
D48*
X119901Y58400D02*
D03*
X524998Y35001D02*
D03*
Y615000D02*
D03*
X34999D02*
D03*
Y35001D02*
D03*
D49*
X47699Y83701D02*
D03*
X22299D02*
D03*
X47699Y109101D02*
D03*
X22299D02*
D03*
X47699Y134501D02*
D03*
X22299D02*
D03*
X47699Y159901D02*
D03*
X22299D02*
D03*
X47699Y185301D02*
D03*
X22299D02*
D03*
X47699Y210701D02*
D03*
X22299D02*
D03*
X47699Y236101D02*
D03*
X22299D02*
D03*
X47699Y261501D02*
D03*
X22299D02*
D03*
X47699Y286901D02*
D03*
X22299D02*
D03*
X47699Y312301D02*
D03*
X22299D02*
D03*
X47699Y337701D02*
D03*
X22299D02*
D03*
X47699Y363101D02*
D03*
X22299D02*
D03*
X47699Y388501D02*
D03*
X22299D02*
D03*
X47699Y413901D02*
D03*
X22299D02*
D03*
X47699Y439301D02*
D03*
X22299D02*
D03*
X47699Y464701D02*
D03*
X22299D02*
D03*
X47699Y490101D02*
D03*
X22299D02*
D03*
X47699Y515501D02*
D03*
X22299D02*
D03*
X47699Y540901D02*
D03*
X22299D02*
D03*
X47699Y566301D02*
D03*
X22299D02*
D03*
D50*
X539199Y83500D02*
D03*
Y108900D02*
D03*
Y134300D02*
D03*
Y159700D02*
D03*
Y185100D02*
D03*
Y210500D02*
D03*
Y235900D02*
D03*
Y261300D02*
D03*
Y286700D02*
D03*
Y312100D02*
D03*
Y337500D02*
D03*
Y362900D02*
D03*
Y388300D02*
D03*
Y413700D02*
D03*
Y439100D02*
D03*
Y464500D02*
D03*
Y489900D02*
D03*
Y515300D02*
D03*
Y540700D02*
D03*
Y566100D02*
D03*
D51*
X307800Y501899D02*
D03*
Y527299D02*
D03*
Y552699D02*
D03*
Y578099D02*
D03*
Y349400D02*
D03*
Y374800D02*
D03*
Y400200D02*
D03*
Y425600D02*
D03*
Y198501D02*
D03*
Y223901D02*
D03*
Y249301D02*
D03*
Y274701D02*
D03*
Y49401D02*
D03*
Y74801D02*
D03*
Y100201D02*
D03*
Y125601D02*
D03*
D52*
X104900Y131600D02*
D03*
Y101600D02*
D03*
X134902Y131600D02*
D03*
D53*
Y101600D02*
D03*
D54*
X304599Y466600D02*
D03*
X460799Y449600D02*
D03*
X268801Y310401D02*
D03*
X273601Y368000D02*
D03*
X254300Y469999D02*
D03*
Y235199D02*
D03*
X64000Y284800D02*
D03*
Y396799D02*
D03*
X305600Y156799D02*
D03*
Y145600D02*
D03*
X308801Y307200D02*
D03*
Y297599D02*
D03*
X304000Y456001D02*
D03*
Y444800D02*
D03*
X248001Y595201D02*
D03*
X193599Y583999D02*
D03*
X331201Y484800D02*
D03*
X420799Y521599D02*
D03*
X422399Y382399D02*
D03*
X331201Y339199D02*
D03*
X332801Y185600D02*
D03*
X416001Y235199D02*
D03*
X334401Y43200D02*
D03*
X422399Y83200D02*
D03*
X321600Y116799D02*
D03*
X334401Y139200D02*
D03*
X339199Y291201D02*
D03*
X328000Y267200D02*
D03*
X319999Y412801D02*
D03*
X335999Y433601D02*
D03*
X348800Y608000D02*
D03*
X324800Y571200D02*
D03*
X137599Y460799D02*
D03*
X128001Y435201D02*
D03*
X140800Y235199D02*
D03*
X126401Y206400D02*
D03*
X368000Y644799D02*
D03*
X384000Y622399D02*
D03*
X86401Y292801D02*
D03*
X83200Y518399D02*
D03*
D55*
X100000Y387500D02*
D03*
X183799Y450200D02*
D03*
X244500Y277701D02*
D03*
X90701Y282400D02*
D03*
X244000Y301201D02*
D03*
X90701Y302400D02*
D03*
X249900Y506999D02*
D03*
X83401Y506600D02*
D03*
X248300Y529100D02*
D03*
X85001Y528201D02*
D03*
X255900Y225001D02*
D03*
X268699Y212499D02*
D03*
X244000Y335001D02*
D03*
X237200Y327500D02*
D03*
X255900Y458201D02*
D03*
X270299Y444101D02*
D03*
X237500Y587500D02*
D03*
X186500Y567500D02*
D03*
X207500Y376799D02*
D03*
Y287500D02*
D03*
X189901Y459801D02*
D03*
X215001Y369301D02*
D03*
X200599Y459301D02*
D03*
X215001Y295001D02*
D03*
X222499Y362501D02*
D03*
X206500Y450700D02*
D03*
X222499Y287500D02*
D03*
X100000Y357500D02*
D03*
X197500Y287500D02*
D03*
X145400Y185999D02*
D03*
X124600Y184399D02*
D03*
X105400Y185999D02*
D03*
X84600D02*
D03*
X196500Y134201D02*
D03*
X240500Y136799D02*
D03*
X190101Y532300D02*
D03*
X169200Y345001D02*
D03*
X262999Y358300D02*
D03*
X250101Y286799D02*
D03*
X182499Y240000D02*
D03*
X244000Y214099D02*
D03*
X195001Y179601D02*
D03*
X244000Y445000D02*
D03*
X178999Y414101D02*
D03*
X138600Y476400D02*
D03*
X262100Y565000D02*
D03*
X168999Y580499D02*
D03*
X178999Y559999D02*
D03*
X250200Y518399D02*
D03*
M02*
