G04*
G04 #@! TF.GenerationSoftware,Altium Limited,Altium Designer,23.7.1 (13)*
G04*
G04 Layer_Color=65535*
%FSLAX44Y44*%
%MOMM*%
G71*
G04*
G04 #@! TF.SameCoordinates,79E1B895-7913-4AE0-894B-E54B3F4E96D7*
G04*
G04*
G04 #@! TF.FilePolarity,Positive*
G04*
G01*
G75*
%ADD10C,0.0816*%
%ADD11C,0.0340*%
G36*
X111618Y450168D02*
X111749D01*
X111880Y450156D01*
X112047Y450144D01*
X112213Y450120D01*
X112404Y450096D01*
X112595Y450073D01*
X113012Y449989D01*
X113441Y449882D01*
X113869Y449727D01*
X113881D01*
X113917Y449703D01*
X113977Y449679D01*
X114048Y449644D01*
X114143Y449596D01*
X114250Y449548D01*
X114370Y449477D01*
X114501Y449406D01*
X114775Y449227D01*
X115061Y449024D01*
X115346Y448774D01*
X115597Y448488D01*
X115609Y448476D01*
X115620Y448452D01*
X115656Y448405D01*
X115704Y448345D01*
X115751Y448262D01*
X115811Y448178D01*
X115883Y448059D01*
X115954Y447940D01*
X116025Y447797D01*
X116109Y447642D01*
X116192Y447476D01*
X116276Y447285D01*
X116347Y447094D01*
X116431Y446880D01*
X116502Y446666D01*
X116562Y446427D01*
X115049Y446010D01*
Y446022D01*
X115037Y446058D01*
X115025Y446106D01*
X115001Y446165D01*
X114977Y446249D01*
X114942Y446344D01*
X114858Y446558D01*
X114763Y446809D01*
X114632Y447059D01*
X114501Y447297D01*
X114346Y447523D01*
Y447535D01*
X114322Y447547D01*
X114274Y447619D01*
X114167Y447714D01*
X114036Y447845D01*
X113869Y447988D01*
X113667Y448143D01*
X113417Y448286D01*
X113143Y448417D01*
X113131D01*
X113107Y448429D01*
X113059Y448452D01*
X113000Y448464D01*
X112928Y448500D01*
X112845Y448524D01*
X112738Y448548D01*
X112630Y448583D01*
X112368Y448643D01*
X112083Y448703D01*
X111749Y448738D01*
X111403Y448750D01*
X111213D01*
X111117Y448738D01*
X110998Y448726D01*
X110867D01*
X110724Y448703D01*
X110415Y448667D01*
X110093Y448595D01*
X109748Y448512D01*
X109426Y448393D01*
X109414D01*
X109390Y448381D01*
X109343Y448357D01*
X109283Y448333D01*
X109212Y448298D01*
X109140Y448250D01*
X108949Y448155D01*
X108735Y448012D01*
X108509Y447857D01*
X108282Y447678D01*
X108080Y447476D01*
Y447464D01*
X108056Y447452D01*
X107996Y447380D01*
X107901Y447261D01*
X107794Y447106D01*
X107663Y446928D01*
X107532Y446713D01*
X107401Y446487D01*
X107282Y446237D01*
Y446225D01*
X107258Y446189D01*
X107234Y446118D01*
X107210Y446034D01*
X107175Y445927D01*
X107127Y445796D01*
X107091Y445641D01*
X107043Y445474D01*
X106996Y445296D01*
X106960Y445093D01*
X106912Y444891D01*
X106877Y444664D01*
X106829Y444188D01*
X106805Y443687D01*
Y443664D01*
Y443616D01*
Y443521D01*
X106817Y443413D01*
Y443259D01*
X106841Y443092D01*
X106853Y442913D01*
X106877Y442711D01*
X106912Y442484D01*
X106948Y442258D01*
X107043Y441793D01*
X107186Y441317D01*
X107282Y441091D01*
X107377Y440864D01*
X107389Y440852D01*
X107401Y440816D01*
X107437Y440757D01*
X107484Y440673D01*
X107544Y440590D01*
X107615Y440483D01*
X107711Y440364D01*
X107806Y440233D01*
X107925Y440090D01*
X108044Y439959D01*
X108187Y439816D01*
X108342Y439673D01*
X108497Y439542D01*
X108675Y439411D01*
X108866Y439292D01*
X109069Y439184D01*
X109080D01*
X109116Y439161D01*
X109176Y439137D01*
X109259Y439101D01*
X109366Y439053D01*
X109486Y439006D01*
X109628Y438958D01*
X109783Y438910D01*
X109950Y438863D01*
X110129Y438815D01*
X110534Y438720D01*
X110963Y438660D01*
X111201Y438648D01*
X111427Y438637D01*
X111535D01*
X111618Y438648D01*
X111713D01*
X111820Y438660D01*
X111951Y438672D01*
X112094Y438684D01*
X112261Y438708D01*
X112416Y438744D01*
X112785Y438815D01*
X113155Y438910D01*
X113548Y439053D01*
X113560D01*
X113595Y439077D01*
X113643Y439101D01*
X113715Y439125D01*
X113810Y439161D01*
X113905Y439208D01*
X114131Y439315D01*
X114382Y439446D01*
X114644Y439601D01*
X114894Y439768D01*
X115120Y439935D01*
Y442294D01*
X111403D01*
Y443783D01*
X116752D01*
Y439101D01*
X116740Y439089D01*
X116693Y439053D01*
X116633Y439006D01*
X116538Y438946D01*
X116431Y438863D01*
X116288Y438768D01*
X116145Y438660D01*
X115966Y438553D01*
X115787Y438434D01*
X115585Y438315D01*
X115370Y438184D01*
X115156Y438065D01*
X114691Y437826D01*
X114203Y437624D01*
X114191D01*
X114143Y437600D01*
X114072Y437576D01*
X113977Y437552D01*
X113857Y437517D01*
X113715Y437469D01*
X113560Y437421D01*
X113381Y437386D01*
X113190Y437338D01*
X112976Y437290D01*
X112761Y437255D01*
X112523Y437207D01*
X112035Y437159D01*
X111523Y437136D01*
X111344D01*
X111213Y437147D01*
X111046Y437159D01*
X110856Y437183D01*
X110641Y437207D01*
X110403Y437231D01*
X110153Y437278D01*
X109879Y437326D01*
X109605Y437386D01*
X109307Y437469D01*
X109021Y437552D01*
X108723Y437660D01*
X108425Y437779D01*
X108139Y437922D01*
X108127Y437934D01*
X108068Y437957D01*
X107996Y438005D01*
X107889Y438065D01*
X107770Y438148D01*
X107615Y438255D01*
X107460Y438374D01*
X107282Y438505D01*
X107103Y438660D01*
X106912Y438839D01*
X106722Y439018D01*
X106531Y439232D01*
X106353Y439446D01*
X106174Y439697D01*
X106007Y439947D01*
X105852Y440221D01*
X105840Y440233D01*
X105816Y440292D01*
X105781Y440376D01*
X105733Y440483D01*
X105674Y440626D01*
X105614Y440793D01*
X105542Y440995D01*
X105471Y441210D01*
X105400Y441448D01*
X105328Y441710D01*
X105268Y441984D01*
X105209Y442282D01*
X105161Y442591D01*
X105126Y442913D01*
X105102Y443247D01*
X105090Y443592D01*
Y443616D01*
Y443675D01*
Y443771D01*
X105102Y443902D01*
X105114Y444069D01*
X105126Y444259D01*
X105149Y444474D01*
X105185Y444712D01*
X105221Y444974D01*
X105280Y445236D01*
X105340Y445522D01*
X105411Y445820D01*
X105495Y446118D01*
X105602Y446415D01*
X105721Y446725D01*
X105852Y447023D01*
X105864Y447047D01*
X105888Y447094D01*
X105936Y447178D01*
X105995Y447285D01*
X106079Y447416D01*
X106174Y447571D01*
X106293Y447738D01*
X106424Y447916D01*
X106567Y448107D01*
X106734Y448310D01*
X106912Y448500D01*
X107115Y448703D01*
X107329Y448893D01*
X107556Y449072D01*
X107806Y449239D01*
X108068Y449394D01*
X108080Y449406D01*
X108139Y449429D01*
X108211Y449465D01*
X108318Y449513D01*
X108461Y449572D01*
X108628Y449644D01*
X108806Y449715D01*
X109021Y449787D01*
X109259Y449858D01*
X109509Y449930D01*
X109783Y450001D01*
X110081Y450061D01*
X110391Y450108D01*
X110712Y450144D01*
X111046Y450168D01*
X111391Y450180D01*
X111523D01*
X111618Y450168D01*
D02*
G37*
G36*
X124412Y437350D02*
X122863D01*
Y447202D01*
X122851D01*
X122839Y447178D01*
X122804Y447154D01*
X122756Y447106D01*
X122709Y447059D01*
X122637Y446999D01*
X122470Y446868D01*
X122256Y446701D01*
X122006Y446523D01*
X121708Y446332D01*
X121386Y446129D01*
X121374D01*
X121350Y446106D01*
X121303Y446082D01*
X121231Y446046D01*
X121160Y445998D01*
X121065Y445951D01*
X120850Y445832D01*
X120588Y445701D01*
X120326Y445570D01*
X120040Y445451D01*
X119766Y445331D01*
Y446832D01*
X119778Y446844D01*
X119826Y446856D01*
X119897Y446892D01*
X119980Y446940D01*
X120100Y446999D01*
X120231Y447071D01*
X120374Y447154D01*
X120540Y447249D01*
X120886Y447464D01*
X121267Y447714D01*
X121660Y448000D01*
X122029Y448310D01*
X122041Y448321D01*
X122077Y448345D01*
X122125Y448393D01*
X122184Y448464D01*
X122268Y448536D01*
X122363Y448631D01*
X122458Y448738D01*
X122565Y448846D01*
X122792Y449108D01*
X123030Y449394D01*
X123233Y449691D01*
X123328Y449846D01*
X123411Y450001D01*
X124412D01*
Y437350D01*
D02*
G37*
G36*
X85124Y449941D02*
X85279D01*
X85458Y449930D01*
X85660Y449906D01*
X86065Y449870D01*
X86494Y449810D01*
X86899Y449727D01*
X87090Y449668D01*
X87257Y449608D01*
X87268D01*
X87292Y449596D01*
X87340Y449572D01*
X87400Y449548D01*
X87483Y449501D01*
X87566Y449453D01*
X87769Y449334D01*
X87983Y449167D01*
X88222Y448965D01*
X88341Y448834D01*
X88448Y448703D01*
X88555Y448560D01*
X88662Y448405D01*
X88674Y448393D01*
X88686Y448369D01*
X88710Y448321D01*
X88746Y448250D01*
X88781Y448178D01*
X88829Y448083D01*
X88877Y447964D01*
X88936Y447845D01*
X88984Y447714D01*
X89032Y447571D01*
X89115Y447249D01*
X89174Y446892D01*
X89198Y446701D01*
Y446511D01*
Y446499D01*
Y446451D01*
Y446380D01*
X89186Y446284D01*
X89174Y446177D01*
X89151Y446034D01*
X89127Y445891D01*
X89091Y445724D01*
X89044Y445558D01*
X88984Y445367D01*
X88912Y445188D01*
X88829Y444998D01*
X88734Y444807D01*
X88615Y444617D01*
X88484Y444426D01*
X88329Y444247D01*
X88317Y444235D01*
X88293Y444212D01*
X88233Y444164D01*
X88162Y444104D01*
X88067Y444033D01*
X87959Y443950D01*
X87828Y443854D01*
X87662Y443759D01*
X87483Y443664D01*
X87292Y443568D01*
X87066Y443461D01*
X86828Y443378D01*
X86566Y443282D01*
X86280Y443211D01*
X85970Y443139D01*
X85637Y443092D01*
X85648D01*
X85660Y443080D01*
X85696Y443056D01*
X85744Y443032D01*
X85863Y442973D01*
X86018Y442889D01*
X86173Y442794D01*
X86351Y442687D01*
X86506Y442579D01*
X86649Y442460D01*
X86661Y442449D01*
X86685Y442425D01*
X86721Y442389D01*
X86768Y442341D01*
X86840Y442270D01*
X86911Y442198D01*
X86994Y442103D01*
X87090Y441996D01*
X87304Y441758D01*
X87542Y441472D01*
X87781Y441138D01*
X88031Y440781D01*
X90211Y437350D01*
X88126D01*
X86459Y439971D01*
X86447Y439983D01*
X86423Y440018D01*
X86387Y440078D01*
X86339Y440161D01*
X86280Y440257D01*
X86208Y440364D01*
X86041Y440614D01*
X85851Y440888D01*
X85648Y441174D01*
X85446Y441448D01*
X85351Y441579D01*
X85255Y441698D01*
Y441710D01*
X85232Y441722D01*
X85172Y441793D01*
X85089Y441900D01*
X84969Y442032D01*
X84838Y442174D01*
X84695Y442318D01*
X84541Y442437D01*
X84398Y442544D01*
X84386Y442556D01*
X84338Y442579D01*
X84267Y442627D01*
X84171Y442675D01*
X84052Y442734D01*
X83921Y442794D01*
X83790Y442842D01*
X83647Y442877D01*
X83635D01*
X83588Y442889D01*
X83528Y442901D01*
X83421Y442913D01*
X83290Y442925D01*
X83135Y442937D01*
X82944Y442949D01*
X80788D01*
Y437350D01*
X79120D01*
Y449953D01*
X84981D01*
X85124Y449941D01*
D02*
G37*
G36*
X72533D02*
X72818D01*
X73116Y449918D01*
X73438Y449894D01*
X73748Y449870D01*
X73891Y449846D01*
X74022Y449822D01*
X74034D01*
X74057Y449810D01*
X74117D01*
X74177Y449787D01*
X74260Y449775D01*
X74343Y449751D01*
X74570Y449691D01*
X74808Y449608D01*
X75070Y449513D01*
X75332Y449382D01*
X75570Y449239D01*
X75582D01*
X75594Y449215D01*
X75630Y449191D01*
X75677Y449155D01*
X75785Y449060D01*
X75940Y448929D01*
X76094Y448750D01*
X76261Y448548D01*
X76428Y448298D01*
X76583Y448024D01*
Y448012D01*
X76595Y447988D01*
X76619Y447940D01*
X76642Y447881D01*
X76678Y447809D01*
X76702Y447726D01*
X76738Y447631D01*
X76785Y447511D01*
X76857Y447261D01*
X76916Y446963D01*
X76964Y446642D01*
X76976Y446296D01*
Y446272D01*
Y446225D01*
X76964Y446141D01*
Y446022D01*
X76940Y445891D01*
X76916Y445724D01*
X76893Y445546D01*
X76845Y445355D01*
X76797Y445141D01*
X76726Y444926D01*
X76642Y444700D01*
X76547Y444474D01*
X76428Y444247D01*
X76285Y444021D01*
X76130Y443795D01*
X75951Y443580D01*
X75940Y443568D01*
X75904Y443532D01*
X75844Y443473D01*
X75749Y443413D01*
X75630Y443318D01*
X75487Y443235D01*
X75308Y443128D01*
X75106Y443032D01*
X74868Y442925D01*
X74594Y442818D01*
X74296Y442734D01*
X73962Y442651D01*
X73581Y442579D01*
X73176Y442520D01*
X72735Y442484D01*
X72247Y442472D01*
X69018D01*
Y437350D01*
X67351D01*
Y449953D01*
X72414D01*
X72533Y449941D01*
D02*
G37*
G36*
X97633Y450168D02*
X97775Y450156D01*
X97954Y450132D01*
X98157Y450108D01*
X98383Y450073D01*
X98621Y450025D01*
X98871Y449977D01*
X99134Y449906D01*
X99396Y449822D01*
X99670Y449727D01*
X99944Y449608D01*
X100218Y449489D01*
X100480Y449334D01*
X100492Y449322D01*
X100539Y449298D01*
X100611Y449251D01*
X100706Y449179D01*
X100825Y449096D01*
X100968Y448988D01*
X101111Y448869D01*
X101278Y448726D01*
X101445Y448572D01*
X101623Y448405D01*
X101802Y448214D01*
X101981Y448000D01*
X102147Y447773D01*
X102314Y447535D01*
X102481Y447285D01*
X102624Y447011D01*
X102636Y446999D01*
X102660Y446940D01*
X102695Y446856D01*
X102743Y446749D01*
X102791Y446606D01*
X102862Y446439D01*
X102922Y446249D01*
X102993Y446034D01*
X103065Y445796D01*
X103124Y445534D01*
X103196Y445248D01*
X103243Y444950D01*
X103291Y444640D01*
X103327Y444319D01*
X103350Y443973D01*
X103362Y443628D01*
Y443604D01*
Y443545D01*
Y443437D01*
X103350Y443306D01*
X103339Y443139D01*
X103327Y442937D01*
X103303Y442723D01*
X103267Y442484D01*
X103219Y442222D01*
X103172Y441948D01*
X103112Y441662D01*
X103029Y441376D01*
X102945Y441078D01*
X102838Y440781D01*
X102719Y440483D01*
X102576Y440197D01*
X102564Y440185D01*
X102541Y440126D01*
X102493Y440054D01*
X102433Y439947D01*
X102350Y439828D01*
X102255Y439673D01*
X102147Y439518D01*
X102016Y439339D01*
X101861Y439161D01*
X101707Y438970D01*
X101516Y438779D01*
X101325Y438589D01*
X101111Y438410D01*
X100885Y438231D01*
X100646Y438065D01*
X100384Y437910D01*
X100372Y437898D01*
X100325Y437874D01*
X100241Y437838D01*
X100134Y437791D01*
X100003Y437731D01*
X99848Y437660D01*
X99670Y437600D01*
X99467Y437529D01*
X99253Y437445D01*
X99014Y437386D01*
X98764Y437314D01*
X98490Y437255D01*
X98216Y437207D01*
X97930Y437171D01*
X97633Y437147D01*
X97323Y437136D01*
X97239D01*
X97144Y437147D01*
X97025D01*
X96870Y437159D01*
X96679Y437183D01*
X96477Y437207D01*
X96251Y437243D01*
X96012Y437290D01*
X95762Y437350D01*
X95488Y437410D01*
X95226Y437493D01*
X94952Y437600D01*
X94666Y437707D01*
X94392Y437838D01*
X94130Y437993D01*
X94118Y438005D01*
X94071Y438029D01*
X93999Y438077D01*
X93904Y438148D01*
X93785Y438243D01*
X93654Y438339D01*
X93499Y438470D01*
X93344Y438613D01*
X93177Y438768D01*
X92999Y438946D01*
X92820Y439137D01*
X92653Y439351D01*
X92474Y439566D01*
X92308Y439816D01*
X92153Y440066D01*
X92010Y440340D01*
X91998Y440352D01*
X91974Y440411D01*
X91938Y440483D01*
X91903Y440602D01*
X91843Y440733D01*
X91783Y440900D01*
X91724Y441091D01*
X91652Y441293D01*
X91581Y441519D01*
X91521Y441758D01*
X91462Y442020D01*
X91402Y442294D01*
X91366Y442579D01*
X91331Y442877D01*
X91307Y443175D01*
X91295Y443485D01*
Y443497D01*
Y443521D01*
Y443568D01*
Y443628D01*
X91307Y443699D01*
Y443783D01*
X91319Y443890D01*
Y443997D01*
X91343Y444271D01*
X91378Y444569D01*
X91438Y444902D01*
X91509Y445272D01*
X91593Y445665D01*
X91700Y446058D01*
X91843Y446463D01*
X92010Y446880D01*
X92200Y447285D01*
X92415Y447678D01*
X92677Y448047D01*
X92975Y448393D01*
X92999Y448417D01*
X93058Y448464D01*
X93153Y448560D01*
X93284Y448667D01*
X93451Y448810D01*
X93654Y448953D01*
X93892Y449119D01*
X94154Y449286D01*
X94452Y449453D01*
X94785Y449620D01*
X95143Y449763D01*
X95524Y449906D01*
X95941Y450013D01*
X96382Y450108D01*
X96846Y450156D01*
X97335Y450180D01*
X97501D01*
X97633Y450168D01*
D02*
G37*
G36*
X121067Y227218D02*
X121198D01*
X121329Y227206D01*
X121496Y227194D01*
X121663Y227170D01*
X121853Y227146D01*
X122044Y227122D01*
X122461Y227039D01*
X122890Y226932D01*
X123319Y226777D01*
X123330D01*
X123366Y226753D01*
X123426Y226729D01*
X123497Y226693D01*
X123593Y226646D01*
X123700Y226598D01*
X123819Y226527D01*
X123950Y226455D01*
X124224Y226276D01*
X124510Y226074D01*
X124796Y225824D01*
X125046Y225538D01*
X125058Y225526D01*
X125070Y225502D01*
X125105Y225455D01*
X125153Y225395D01*
X125201Y225312D01*
X125260Y225228D01*
X125332Y225109D01*
X125403Y224990D01*
X125475Y224847D01*
X125558Y224692D01*
X125641Y224525D01*
X125725Y224335D01*
X125796Y224144D01*
X125880Y223930D01*
X125951Y223715D01*
X126011Y223477D01*
X124498Y223060D01*
Y223072D01*
X124486Y223108D01*
X124474Y223155D01*
X124450Y223215D01*
X124426Y223298D01*
X124391Y223394D01*
X124307Y223608D01*
X124212Y223858D01*
X124081Y224108D01*
X123950Y224347D01*
X123795Y224573D01*
Y224585D01*
X123771Y224597D01*
X123724Y224668D01*
X123616Y224764D01*
X123485Y224895D01*
X123319Y225037D01*
X123116Y225192D01*
X122866Y225335D01*
X122592Y225466D01*
X122580D01*
X122556Y225478D01*
X122508Y225502D01*
X122449Y225514D01*
X122378Y225550D01*
X122294Y225574D01*
X122187Y225597D01*
X122080Y225633D01*
X121818Y225693D01*
X121532Y225752D01*
X121198Y225788D01*
X120853Y225800D01*
X120662D01*
X120567Y225788D01*
X120448Y225776D01*
X120317D01*
X120174Y225752D01*
X119864Y225716D01*
X119542Y225645D01*
X119197Y225562D01*
X118875Y225443D01*
X118863D01*
X118839Y225431D01*
X118792Y225407D01*
X118732Y225383D01*
X118661Y225347D01*
X118589Y225300D01*
X118399Y225204D01*
X118184Y225061D01*
X117958Y224907D01*
X117732Y224728D01*
X117529Y224525D01*
Y224513D01*
X117505Y224501D01*
X117446Y224430D01*
X117350Y224311D01*
X117243Y224156D01*
X117112Y223977D01*
X116981Y223763D01*
X116850Y223536D01*
X116731Y223286D01*
Y223274D01*
X116707Y223239D01*
X116683Y223167D01*
X116659Y223084D01*
X116624Y222977D01*
X116576Y222846D01*
X116540Y222691D01*
X116493Y222524D01*
X116445Y222345D01*
X116409Y222143D01*
X116362Y221940D01*
X116326Y221714D01*
X116278Y221237D01*
X116254Y220737D01*
Y220713D01*
Y220666D01*
Y220570D01*
X116266Y220463D01*
Y220308D01*
X116290Y220141D01*
X116302Y219963D01*
X116326Y219760D01*
X116362Y219534D01*
X116397Y219308D01*
X116493Y218843D01*
X116636Y218367D01*
X116731Y218140D01*
X116826Y217914D01*
X116838Y217902D01*
X116850Y217866D01*
X116886Y217807D01*
X116933Y217723D01*
X116993Y217640D01*
X117064Y217533D01*
X117160Y217414D01*
X117255Y217282D01*
X117374Y217139D01*
X117493Y217008D01*
X117636Y216866D01*
X117791Y216723D01*
X117946Y216591D01*
X118125Y216460D01*
X118315Y216341D01*
X118518Y216234D01*
X118530D01*
X118565Y216210D01*
X118625Y216187D01*
X118708Y216151D01*
X118816Y216103D01*
X118935Y216055D01*
X119078Y216008D01*
X119233Y215960D01*
X119399Y215912D01*
X119578Y215865D01*
X119983Y215770D01*
X120412Y215710D01*
X120650Y215698D01*
X120877Y215686D01*
X120984D01*
X121067Y215698D01*
X121162D01*
X121270Y215710D01*
X121401Y215722D01*
X121544Y215734D01*
X121710Y215758D01*
X121865Y215793D01*
X122234Y215865D01*
X122604Y215960D01*
X122997Y216103D01*
X123009D01*
X123045Y216127D01*
X123092Y216151D01*
X123164Y216175D01*
X123259Y216210D01*
X123354Y216258D01*
X123581Y216365D01*
X123831Y216496D01*
X124093Y216651D01*
X124343Y216818D01*
X124569Y216985D01*
Y219343D01*
X120853D01*
Y220832D01*
X126201D01*
Y216151D01*
X126189Y216139D01*
X126142Y216103D01*
X126082Y216055D01*
X125987Y215996D01*
X125880Y215912D01*
X125737Y215817D01*
X125594Y215710D01*
X125415Y215603D01*
X125237Y215484D01*
X125034Y215364D01*
X124819Y215233D01*
X124605Y215114D01*
X124141Y214876D01*
X123652Y214674D01*
X123640D01*
X123593Y214650D01*
X123521Y214626D01*
X123426Y214602D01*
X123307Y214566D01*
X123164Y214519D01*
X123009Y214471D01*
X122830Y214435D01*
X122640Y214388D01*
X122425Y214340D01*
X122211Y214304D01*
X121972Y214257D01*
X121484Y214209D01*
X120972Y214185D01*
X120793D01*
X120662Y214197D01*
X120495Y214209D01*
X120305Y214233D01*
X120090Y214257D01*
X119852Y214280D01*
X119602Y214328D01*
X119328Y214376D01*
X119054Y214435D01*
X118756Y214519D01*
X118470Y214602D01*
X118172Y214709D01*
X117874Y214828D01*
X117589Y214971D01*
X117577Y214983D01*
X117517Y215007D01*
X117446Y215055D01*
X117338Y215114D01*
X117219Y215198D01*
X117064Y215305D01*
X116910Y215424D01*
X116731Y215555D01*
X116552Y215710D01*
X116362Y215889D01*
X116171Y216067D01*
X115980Y216282D01*
X115802Y216496D01*
X115623Y216746D01*
X115456Y216996D01*
X115301Y217271D01*
X115289Y217282D01*
X115266Y217342D01*
X115230Y217425D01*
X115182Y217533D01*
X115123Y217675D01*
X115063Y217842D01*
X114992Y218045D01*
X114920Y218259D01*
X114849Y218498D01*
X114777Y218760D01*
X114718Y219034D01*
X114658Y219331D01*
X114610Y219641D01*
X114575Y219963D01*
X114551Y220296D01*
X114539Y220642D01*
Y220666D01*
Y220725D01*
Y220821D01*
X114551Y220951D01*
X114563Y221118D01*
X114575Y221309D01*
X114599Y221523D01*
X114634Y221762D01*
X114670Y222024D01*
X114730Y222286D01*
X114789Y222572D01*
X114861Y222869D01*
X114944Y223167D01*
X115051Y223465D01*
X115170Y223775D01*
X115301Y224073D01*
X115313Y224096D01*
X115337Y224144D01*
X115385Y224228D01*
X115444Y224335D01*
X115528Y224466D01*
X115623Y224621D01*
X115742Y224787D01*
X115873Y224966D01*
X116016Y225157D01*
X116183Y225359D01*
X116362Y225550D01*
X116564Y225752D01*
X116778Y225943D01*
X117005Y226122D01*
X117255Y226288D01*
X117517Y226443D01*
X117529Y226455D01*
X117589Y226479D01*
X117660Y226515D01*
X117767Y226562D01*
X117910Y226622D01*
X118077Y226693D01*
X118256Y226765D01*
X118470Y226836D01*
X118708Y226908D01*
X118959Y226979D01*
X119233Y227051D01*
X119530Y227110D01*
X119840Y227158D01*
X120162Y227194D01*
X120495Y227218D01*
X120841Y227229D01*
X120972D01*
X121067Y227218D01*
D02*
G37*
G36*
X94573Y226991D02*
X94728D01*
X94907Y226979D01*
X95110Y226956D01*
X95514Y226920D01*
X95943Y226860D01*
X96348Y226777D01*
X96539Y226717D01*
X96706Y226658D01*
X96718D01*
X96742Y226646D01*
X96789Y226622D01*
X96849Y226598D01*
X96932Y226550D01*
X97015Y226503D01*
X97218Y226384D01*
X97432Y226217D01*
X97671Y226014D01*
X97790Y225883D01*
X97897Y225752D01*
X98004Y225609D01*
X98111Y225455D01*
X98123Y225443D01*
X98135Y225419D01*
X98159Y225371D01*
X98195Y225300D01*
X98231Y225228D01*
X98278Y225133D01*
X98326Y225014D01*
X98385Y224895D01*
X98433Y224764D01*
X98481Y224621D01*
X98564Y224299D01*
X98624Y223942D01*
X98648Y223751D01*
Y223560D01*
Y223548D01*
Y223501D01*
Y223429D01*
X98636Y223334D01*
X98624Y223227D01*
X98600Y223084D01*
X98576Y222941D01*
X98540Y222774D01*
X98493Y222607D01*
X98433Y222417D01*
X98362Y222238D01*
X98278Y222048D01*
X98183Y221857D01*
X98064Y221666D01*
X97933Y221476D01*
X97778Y221297D01*
X97766Y221285D01*
X97742Y221261D01*
X97683Y221214D01*
X97611Y221154D01*
X97516Y221082D01*
X97409Y220999D01*
X97278Y220904D01*
X97111Y220809D01*
X96932Y220713D01*
X96742Y220618D01*
X96515Y220511D01*
X96277Y220427D01*
X96015Y220332D01*
X95729Y220261D01*
X95419Y220189D01*
X95086Y220141D01*
X95098D01*
X95110Y220130D01*
X95145Y220106D01*
X95193Y220082D01*
X95312Y220022D01*
X95467Y219939D01*
X95622Y219844D01*
X95800Y219736D01*
X95955Y219629D01*
X96098Y219510D01*
X96110Y219498D01*
X96134Y219474D01*
X96170Y219439D01*
X96217Y219391D01*
X96289Y219319D01*
X96360Y219248D01*
X96444Y219153D01*
X96539Y219046D01*
X96754Y218807D01*
X96992Y218521D01*
X97230Y218188D01*
X97480Y217830D01*
X99660Y214400D01*
X97575D01*
X95908Y217020D01*
X95896Y217032D01*
X95872Y217068D01*
X95836Y217128D01*
X95788Y217211D01*
X95729Y217306D01*
X95658Y217414D01*
X95491Y217664D01*
X95300Y217938D01*
X95098Y218223D01*
X94895Y218498D01*
X94800Y218629D01*
X94705Y218748D01*
Y218760D01*
X94681Y218771D01*
X94621Y218843D01*
X94538Y218950D01*
X94419Y219081D01*
X94288Y219224D01*
X94145Y219367D01*
X93990Y219486D01*
X93847Y219594D01*
X93835Y219605D01*
X93787Y219629D01*
X93716Y219677D01*
X93620Y219725D01*
X93501Y219784D01*
X93370Y219844D01*
X93239Y219891D01*
X93096Y219927D01*
X93084D01*
X93037Y219939D01*
X92977Y219951D01*
X92870Y219963D01*
X92739Y219975D01*
X92584Y219987D01*
X92393Y219998D01*
X90237D01*
Y214400D01*
X88569D01*
Y227003D01*
X94431D01*
X94573Y226991D01*
D02*
G37*
G36*
X81982D02*
X82268D01*
X82565Y226967D01*
X82887Y226943D01*
X83197Y226920D01*
X83340Y226896D01*
X83471Y226872D01*
X83483D01*
X83507Y226860D01*
X83566D01*
X83626Y226836D01*
X83709Y226824D01*
X83792Y226801D01*
X84019Y226741D01*
X84257Y226658D01*
X84519Y226562D01*
X84781Y226431D01*
X85020Y226288D01*
X85031D01*
X85043Y226264D01*
X85079Y226241D01*
X85127Y226205D01*
X85234Y226110D01*
X85389Y225979D01*
X85544Y225800D01*
X85710Y225597D01*
X85877Y225347D01*
X86032Y225073D01*
Y225061D01*
X86044Y225037D01*
X86068Y224990D01*
X86092Y224930D01*
X86127Y224859D01*
X86151Y224775D01*
X86187Y224680D01*
X86235Y224561D01*
X86306Y224311D01*
X86366Y224013D01*
X86413Y223691D01*
X86425Y223346D01*
Y223322D01*
Y223274D01*
X86413Y223191D01*
Y223072D01*
X86390Y222941D01*
X86366Y222774D01*
X86342Y222595D01*
X86294Y222405D01*
X86247Y222190D01*
X86175Y221976D01*
X86092Y221750D01*
X85996Y221523D01*
X85877Y221297D01*
X85734Y221071D01*
X85579Y220844D01*
X85401Y220630D01*
X85389Y220618D01*
X85353Y220582D01*
X85294Y220523D01*
X85198Y220463D01*
X85079Y220368D01*
X84936Y220284D01*
X84757Y220177D01*
X84555Y220082D01*
X84317Y219975D01*
X84043Y219867D01*
X83745Y219784D01*
X83411Y219701D01*
X83030Y219629D01*
X82625Y219570D01*
X82184Y219534D01*
X81696Y219522D01*
X78468D01*
Y214400D01*
X76800D01*
Y227003D01*
X81863D01*
X81982Y226991D01*
D02*
G37*
G36*
X107082Y227218D02*
X107225Y227206D01*
X107403Y227182D01*
X107606Y227158D01*
X107832Y227122D01*
X108070Y227075D01*
X108321Y227027D01*
X108583Y226956D01*
X108845Y226872D01*
X109119Y226777D01*
X109393Y226658D01*
X109667Y226539D01*
X109929Y226384D01*
X109941Y226372D01*
X109988Y226348D01*
X110060Y226300D01*
X110155Y226229D01*
X110274Y226145D01*
X110417Y226038D01*
X110560Y225919D01*
X110727Y225776D01*
X110894Y225621D01*
X111072Y225455D01*
X111251Y225264D01*
X111430Y225049D01*
X111597Y224823D01*
X111763Y224585D01*
X111930Y224335D01*
X112073Y224061D01*
X112085Y224049D01*
X112109Y223989D01*
X112144Y223906D01*
X112192Y223799D01*
X112240Y223656D01*
X112311Y223489D01*
X112371Y223298D01*
X112442Y223084D01*
X112514Y222846D01*
X112573Y222584D01*
X112645Y222298D01*
X112692Y222000D01*
X112740Y221690D01*
X112776Y221368D01*
X112800Y221023D01*
X112812Y220678D01*
Y220654D01*
Y220594D01*
Y220487D01*
X112800Y220356D01*
X112788Y220189D01*
X112776Y219987D01*
X112752Y219772D01*
X112716Y219534D01*
X112669Y219272D01*
X112621Y218998D01*
X112562Y218712D01*
X112478Y218426D01*
X112395Y218128D01*
X112288Y217830D01*
X112168Y217533D01*
X112025Y217247D01*
X112014Y217235D01*
X111990Y217175D01*
X111942Y217104D01*
X111882Y216996D01*
X111799Y216877D01*
X111704Y216723D01*
X111597Y216568D01*
X111466Y216389D01*
X111311Y216210D01*
X111156Y216020D01*
X110965Y215829D01*
X110775Y215639D01*
X110560Y215460D01*
X110334Y215281D01*
X110096Y215114D01*
X109833Y214960D01*
X109822Y214948D01*
X109774Y214924D01*
X109691Y214888D01*
X109583Y214840D01*
X109452Y214781D01*
X109297Y214709D01*
X109119Y214650D01*
X108916Y214578D01*
X108702Y214495D01*
X108463Y214435D01*
X108213Y214364D01*
X107939Y214304D01*
X107665Y214257D01*
X107380Y214221D01*
X107082Y214197D01*
X106772Y214185D01*
X106689D01*
X106593Y214197D01*
X106474D01*
X106319Y214209D01*
X106129Y214233D01*
X105926Y214257D01*
X105700Y214292D01*
X105462Y214340D01*
X105211Y214400D01*
X104937Y214459D01*
X104675Y214543D01*
X104401Y214650D01*
X104115Y214757D01*
X103841Y214888D01*
X103579Y215043D01*
X103567Y215055D01*
X103520Y215079D01*
X103448Y215126D01*
X103353Y215198D01*
X103234Y215293D01*
X103103Y215388D01*
X102948Y215519D01*
X102793Y215662D01*
X102626Y215817D01*
X102448Y215996D01*
X102269Y216187D01*
X102102Y216401D01*
X101924Y216615D01*
X101757Y216866D01*
X101602Y217116D01*
X101459Y217390D01*
X101447Y217402D01*
X101423Y217461D01*
X101388Y217533D01*
X101352Y217652D01*
X101292Y217783D01*
X101233Y217950D01*
X101173Y218140D01*
X101102Y218343D01*
X101030Y218569D01*
X100970Y218807D01*
X100911Y219069D01*
X100851Y219343D01*
X100816Y219629D01*
X100780Y219927D01*
X100756Y220225D01*
X100744Y220535D01*
Y220546D01*
Y220570D01*
Y220618D01*
Y220678D01*
X100756Y220749D01*
Y220832D01*
X100768Y220940D01*
Y221047D01*
X100792Y221321D01*
X100828Y221619D01*
X100887Y221952D01*
X100959Y222321D01*
X101042Y222715D01*
X101149Y223108D01*
X101292Y223513D01*
X101459Y223930D01*
X101650Y224335D01*
X101864Y224728D01*
X102126Y225097D01*
X102424Y225443D01*
X102448Y225466D01*
X102507Y225514D01*
X102603Y225609D01*
X102734Y225716D01*
X102900Y225860D01*
X103103Y226002D01*
X103341Y226169D01*
X103603Y226336D01*
X103901Y226503D01*
X104235Y226670D01*
X104592Y226812D01*
X104973Y226956D01*
X105390Y227063D01*
X105831Y227158D01*
X106295Y227206D01*
X106784Y227229D01*
X106951D01*
X107082Y227218D01*
D02*
G37*
G36*
X244392Y287496D02*
X244431Y287492D01*
X244476Y287489D01*
X244530Y287481D01*
X244587Y287466D01*
X244652Y287451D01*
X244720Y287432D01*
X244792Y287405D01*
X244865Y287374D01*
X244941Y287336D01*
X245017Y287290D01*
X245090Y287241D01*
X245166Y287180D01*
X245235Y287111D01*
X245238Y287108D01*
X245250Y287092D01*
X245269Y287073D01*
X245292Y287043D01*
X245318Y287005D01*
X245349Y286959D01*
X245383Y286906D01*
X245417Y286845D01*
X245452Y286780D01*
X245486Y286704D01*
X245516Y286624D01*
X245543Y286540D01*
X245566Y286448D01*
X245585Y286349D01*
X245596Y286247D01*
X245600Y286140D01*
Y286117D01*
X245596Y286090D01*
Y286052D01*
X245589Y286007D01*
X245585Y285953D01*
X245574Y285896D01*
X245562Y285831D01*
X245543Y285763D01*
X245524Y285694D01*
X245497Y285618D01*
X245467Y285546D01*
X245433Y285473D01*
X245391Y285397D01*
X245341Y285328D01*
X245288Y285260D01*
X245284Y285256D01*
X245273Y285245D01*
X245254Y285226D01*
X245231Y285203D01*
X245200Y285176D01*
X245162Y285145D01*
X245116Y285115D01*
X245067Y285077D01*
X245010Y285043D01*
X244949Y285008D01*
X244880Y284974D01*
X244808Y284944D01*
X244728Y284917D01*
X244644Y284890D01*
X244556Y284871D01*
X244465Y284860D01*
X244400Y285355D01*
X244404D01*
X244419Y285359D01*
X244438Y285363D01*
X244469Y285370D01*
X244503Y285382D01*
X244541Y285393D01*
X244587Y285405D01*
X244632Y285424D01*
X244732Y285462D01*
X244831Y285511D01*
X244926Y285572D01*
X244968Y285603D01*
X245006Y285641D01*
X245010Y285645D01*
X245014Y285652D01*
X245021Y285664D01*
X245033Y285679D01*
X245048Y285698D01*
X245063Y285721D01*
X245078Y285751D01*
X245097Y285782D01*
X245132Y285854D01*
X245158Y285942D01*
X245181Y286037D01*
X245185Y286090D01*
X245189Y286144D01*
Y286178D01*
X245185Y286201D01*
X245181Y286231D01*
X245177Y286266D01*
X245170Y286308D01*
X245158Y286349D01*
X245132Y286441D01*
X245109Y286490D01*
X245086Y286540D01*
X245059Y286590D01*
X245029Y286639D01*
X244991Y286688D01*
X244949Y286734D01*
X244945Y286738D01*
X244937Y286746D01*
X244926Y286757D01*
X244907Y286772D01*
X244880Y286791D01*
X244853Y286810D01*
X244819Y286833D01*
X244785Y286856D01*
X244743Y286875D01*
X244697Y286898D01*
X244648Y286917D01*
X244594Y286936D01*
X244537Y286951D01*
X244480Y286963D01*
X244415Y286971D01*
X244350Y286974D01*
X244347D01*
X244335D01*
X244316D01*
X244293Y286971D01*
X244267Y286967D01*
X244232Y286963D01*
X244194Y286955D01*
X244152Y286948D01*
X244065Y286921D01*
X244019Y286902D01*
X243969Y286879D01*
X243924Y286852D01*
X243878Y286826D01*
X243832Y286788D01*
X243790Y286749D01*
X243787Y286746D01*
X243779Y286738D01*
X243771Y286727D01*
X243756Y286711D01*
X243741Y286688D01*
X243722Y286662D01*
X243699Y286631D01*
X243680Y286597D01*
X243661Y286555D01*
X243638Y286513D01*
X243604Y286418D01*
X243589Y286365D01*
X243577Y286308D01*
X243573Y286247D01*
X243570Y286182D01*
Y286159D01*
X243573Y286129D01*
X243577Y286087D01*
X243581Y286037D01*
X243592Y285976D01*
X243604Y285911D01*
X243623Y285835D01*
X243188Y285888D01*
Y285896D01*
X243192Y285919D01*
X243196Y285942D01*
Y285999D01*
X243192Y286022D01*
Y286049D01*
X243188Y286083D01*
X243181Y286117D01*
X243177Y286159D01*
X243154Y286247D01*
X243127Y286342D01*
X243086Y286441D01*
X243063Y286487D01*
X243032Y286536D01*
X243029Y286540D01*
X243025Y286548D01*
X243013Y286559D01*
X243002Y286578D01*
X242983Y286597D01*
X242960Y286616D01*
X242937Y286639D01*
X242906Y286666D01*
X242872Y286688D01*
X242834Y286711D01*
X242792Y286730D01*
X242747Y286753D01*
X242697Y286768D01*
X242644Y286780D01*
X242583Y286788D01*
X242522Y286791D01*
X242518D01*
X242510D01*
X242495D01*
X242476Y286788D01*
X242453D01*
X242426Y286780D01*
X242365Y286768D01*
X242293Y286746D01*
X242217Y286711D01*
X242179Y286692D01*
X242145Y286666D01*
X242106Y286639D01*
X242072Y286605D01*
X242068Y286601D01*
X242064Y286597D01*
X242057Y286586D01*
X242045Y286570D01*
X242030Y286555D01*
X242015Y286532D01*
X241981Y286479D01*
X241950Y286410D01*
X241920Y286327D01*
X241901Y286235D01*
X241893Y286186D01*
Y286106D01*
X241897Y286083D01*
Y286060D01*
X241901Y286029D01*
X241916Y285965D01*
X241939Y285888D01*
X241969Y285805D01*
X242015Y285725D01*
X242045Y285686D01*
X242076Y285648D01*
X242080Y285645D01*
X242084Y285641D01*
X242095Y285629D01*
X242110Y285618D01*
X242129Y285603D01*
X242152Y285584D01*
X242179Y285568D01*
X242209Y285546D01*
X242247Y285527D01*
X242285Y285504D01*
X242331Y285485D01*
X242381Y285466D01*
X242434Y285446D01*
X242491Y285431D01*
X242552Y285416D01*
X242617Y285405D01*
X242529Y284909D01*
X242522D01*
X242507Y284913D01*
X242480Y284921D01*
X242449Y284928D01*
X242407Y284940D01*
X242358Y284955D01*
X242305Y284970D01*
X242247Y284993D01*
X242187Y285020D01*
X242125Y285046D01*
X242061Y285081D01*
X241996Y285119D01*
X241931Y285161D01*
X241870Y285206D01*
X241813Y285260D01*
X241760Y285317D01*
X241756Y285321D01*
X241748Y285332D01*
X241733Y285351D01*
X241718Y285374D01*
X241695Y285408D01*
X241672Y285446D01*
X241649Y285488D01*
X241623Y285538D01*
X241596Y285595D01*
X241573Y285656D01*
X241550Y285721D01*
X241527Y285793D01*
X241512Y285869D01*
X241497Y285949D01*
X241489Y286033D01*
X241485Y286121D01*
Y286151D01*
X241489Y286178D01*
Y286205D01*
X241493Y286239D01*
X241497Y286277D01*
X241504Y286319D01*
X241520Y286414D01*
X241546Y286513D01*
X241581Y286620D01*
X241630Y286727D01*
Y286730D01*
X241638Y286738D01*
X241645Y286753D01*
X241657Y286772D01*
X241672Y286795D01*
X241687Y286822D01*
X241729Y286883D01*
X241786Y286951D01*
X241851Y287024D01*
X241927Y287092D01*
X242015Y287153D01*
X242019D01*
X242026Y287161D01*
X242038Y287169D01*
X242057Y287176D01*
X242080Y287188D01*
X242106Y287199D01*
X242137Y287214D01*
X242171Y287229D01*
X242247Y287256D01*
X242335Y287279D01*
X242430Y287294D01*
X242533Y287302D01*
X242537D01*
X242545D01*
X242560D01*
X242579Y287298D01*
X242602D01*
X242628Y287294D01*
X242689Y287283D01*
X242766Y287268D01*
X242846Y287241D01*
X242929Y287207D01*
X243009Y287161D01*
X243013D01*
X243017Y287153D01*
X243029Y287146D01*
X243044Y287134D01*
X243082Y287104D01*
X243131Y287058D01*
X243185Y286997D01*
X243242Y286925D01*
X243299Y286841D01*
X243349Y286746D01*
Y286749D01*
X243352Y286761D01*
X243356Y286780D01*
X243364Y286807D01*
X243375Y286833D01*
X243390Y286871D01*
X243406Y286910D01*
X243421Y286951D01*
X243470Y287039D01*
X243528Y287131D01*
X243562Y287176D01*
X243604Y287222D01*
X243646Y287264D01*
X243691Y287302D01*
X243695Y287306D01*
X243703Y287310D01*
X243718Y287321D01*
X243737Y287332D01*
X243764Y287348D01*
X243794Y287363D01*
X243829Y287382D01*
X243871Y287401D01*
X243916Y287420D01*
X243966Y287439D01*
X244019Y287454D01*
X244076Y287470D01*
X244137Y287481D01*
X244202Y287492D01*
X244270Y287496D01*
X244343Y287500D01*
X244350D01*
X244366D01*
X244392Y287496D01*
D02*
G37*
G36*
X244438Y284353D02*
X244473D01*
X244518Y284345D01*
X244568Y284338D01*
X244625Y284330D01*
X244690Y284315D01*
X244754Y284300D01*
X244823Y284277D01*
X244895Y284250D01*
X244968Y284220D01*
X245040Y284181D01*
X245109Y284136D01*
X245181Y284086D01*
X245246Y284029D01*
X245250Y284025D01*
X245261Y284014D01*
X245276Y283995D01*
X245299Y283968D01*
X245326Y283938D01*
X245353Y283900D01*
X245387Y283854D01*
X245417Y283801D01*
X245452Y283743D01*
X245486Y283679D01*
X245516Y283610D01*
X245543Y283538D01*
X245570Y283458D01*
X245589Y283370D01*
X245604Y283282D01*
X245612Y283187D01*
X246111D01*
Y282894D01*
X245616D01*
Y282890D01*
X245612Y282878D01*
Y282859D01*
X245604Y282833D01*
X245600Y282799D01*
X245593Y282764D01*
X245585Y282722D01*
X245577Y282677D01*
X245555Y282581D01*
X245524Y282482D01*
X245490Y282379D01*
X245448Y282288D01*
Y282284D01*
X245440Y282276D01*
X245436Y282265D01*
X245425Y282250D01*
X245394Y282204D01*
X245356Y282151D01*
X245303Y282090D01*
X245235Y282021D01*
X245154Y281953D01*
X245063Y281888D01*
X245059D01*
X245052Y281880D01*
X245036Y281873D01*
X245014Y281861D01*
X244991Y281850D01*
X244956Y281835D01*
X244922Y281819D01*
X244880Y281800D01*
X244834Y281785D01*
X244785Y281766D01*
X244732Y281751D01*
X244674Y281735D01*
X244549Y281709D01*
X244412Y281694D01*
X244316Y282193D01*
X244320D01*
X244335Y282197D01*
X244354Y282200D01*
X244381Y282204D01*
X244415Y282212D01*
X244453Y282219D01*
X244495Y282227D01*
X244541Y282239D01*
X244636Y282269D01*
X244735Y282303D01*
X244827Y282345D01*
X244869Y282368D01*
X244907Y282395D01*
X244911Y282398D01*
X244918Y282406D01*
X244930Y282418D01*
X244949Y282433D01*
X244968Y282452D01*
X244991Y282475D01*
X245044Y282536D01*
X245097Y282608D01*
X245143Y282692D01*
X245162Y282738D01*
X245181Y282787D01*
X245193Y282840D01*
X245200Y282894D01*
X243646D01*
Y282890D01*
X243642Y282878D01*
X243638Y282863D01*
X243630Y282840D01*
X243623Y282814D01*
X243611Y282780D01*
X243600Y282741D01*
X243585Y282700D01*
X243550Y282604D01*
X243505Y282501D01*
X243451Y282387D01*
X243390Y282269D01*
Y282265D01*
X243383Y282257D01*
X243375Y282246D01*
X243368Y282231D01*
X243337Y282189D01*
X243295Y282136D01*
X243242Y282075D01*
X243181Y282014D01*
X243109Y281957D01*
X243025Y281903D01*
X243021D01*
X243013Y281899D01*
X243002Y281892D01*
X242983Y281884D01*
X242960Y281873D01*
X242937Y281865D01*
X242906Y281854D01*
X242872Y281842D01*
X242792Y281815D01*
X242705Y281796D01*
X242602Y281781D01*
X242495Y281777D01*
X242487D01*
X242472D01*
X242446Y281781D01*
X242407Y281785D01*
X242362Y281789D01*
X242308Y281796D01*
X242251Y281808D01*
X242190Y281823D01*
X242122Y281842D01*
X242053Y281869D01*
X241981Y281899D01*
X241908Y281934D01*
X241840Y281979D01*
X241767Y282029D01*
X241703Y282086D01*
X241638Y282151D01*
X241634Y282155D01*
X241626Y282162D01*
X241619Y282178D01*
X241604Y282197D01*
X241584Y282223D01*
X241565Y282254D01*
X241543Y282292D01*
X241520Y282337D01*
X241497Y282387D01*
X241474Y282440D01*
X241451Y282501D01*
X241432Y282570D01*
X241409Y282642D01*
X241394Y282719D01*
X241379Y282802D01*
X241367Y282894D01*
X241131D01*
Y283187D01*
X241367D01*
Y283191D01*
X241371Y283206D01*
Y283229D01*
X241379Y283260D01*
X241383Y283294D01*
X241390Y283336D01*
X241402Y283382D01*
X241413Y283431D01*
X241447Y283542D01*
X241493Y283652D01*
X241550Y283762D01*
X241584Y283816D01*
X241623Y283865D01*
X241626Y283869D01*
X241634Y283881D01*
X241649Y283896D01*
X241672Y283915D01*
X241699Y283941D01*
X241733Y283972D01*
X241771Y284002D01*
X241817Y284033D01*
X241866Y284067D01*
X241924Y284102D01*
X241981Y284132D01*
X242049Y284166D01*
X242118Y284193D01*
X242194Y284216D01*
X242278Y284239D01*
X242362Y284254D01*
X242438Y283743D01*
X242434D01*
X242426Y283740D01*
X242411D01*
X242388Y283736D01*
X242365Y283728D01*
X242339Y283720D01*
X242274Y283705D01*
X242202Y283679D01*
X242129Y283648D01*
X242057Y283606D01*
X241992Y283561D01*
X241985Y283553D01*
X241966Y283534D01*
X241939Y283503D01*
X241908Y283461D01*
X241874Y283408D01*
X241836Y283347D01*
X241805Y283271D01*
X241783Y283187D01*
X243211D01*
Y283191D01*
X243215Y283202D01*
X243219Y283221D01*
X243227Y283248D01*
X243234Y283279D01*
X243246Y283309D01*
X243265Y283389D01*
X243288Y283469D01*
X243314Y283549D01*
X243326Y283587D01*
X243337Y283622D01*
X243349Y283652D01*
X243360Y283679D01*
Y283682D01*
X243364Y283690D01*
X243371Y283701D01*
X243379Y283717D01*
X243402Y283759D01*
X243428Y283812D01*
X243467Y283869D01*
X243508Y283934D01*
X243554Y283995D01*
X243608Y284052D01*
X243615Y284060D01*
X243634Y284075D01*
X243665Y284102D01*
X243707Y284136D01*
X243756Y284174D01*
X243813Y284208D01*
X243882Y284246D01*
X243954Y284277D01*
X243958D01*
X243962Y284281D01*
X243973Y284284D01*
X243989Y284288D01*
X244030Y284303D01*
X244084Y284319D01*
X244149Y284330D01*
X244221Y284345D01*
X244301Y284353D01*
X244389Y284357D01*
X244396D01*
X244412D01*
X244438Y284353D01*
D02*
G37*
G36*
X243931Y281035D02*
X243985D01*
X244042Y281031D01*
X244111Y281027D01*
X244179Y281019D01*
X244255Y281012D01*
X244335Y281004D01*
X244495Y280977D01*
X244652Y280943D01*
X244728Y280924D01*
X244796Y280897D01*
X244800D01*
X244811Y280890D01*
X244831Y280882D01*
X244857Y280871D01*
X244888Y280855D01*
X244922Y280836D01*
X244960Y280814D01*
X245002Y280783D01*
X245048Y280753D01*
X245097Y280714D01*
X245143Y280676D01*
X245193Y280631D01*
X245242Y280581D01*
X245288Y280528D01*
X245337Y280467D01*
X245379Y280402D01*
X245383Y280398D01*
X245387Y280387D01*
X245398Y280364D01*
X245413Y280337D01*
X245429Y280303D01*
X245448Y280257D01*
X245471Y280208D01*
X245490Y280151D01*
X245509Y280086D01*
X245532Y280013D01*
X245551Y279937D01*
X245566Y279853D01*
X245581Y279766D01*
X245589Y279671D01*
X245596Y279568D01*
X245600Y279461D01*
Y279408D01*
X245596Y279366D01*
X245593Y279320D01*
X245589Y279263D01*
X245585Y279198D01*
X245577Y279133D01*
X245566Y279061D01*
X245555Y278985D01*
X245516Y278829D01*
X245497Y278752D01*
X245471Y278676D01*
X245440Y278600D01*
X245406Y278531D01*
X245402Y278528D01*
X245398Y278516D01*
X245387Y278497D01*
X245368Y278474D01*
X245349Y278444D01*
X245326Y278409D01*
X245295Y278371D01*
X245261Y278333D01*
X245223Y278291D01*
X245181Y278249D01*
X245135Y278207D01*
X245086Y278166D01*
X245033Y278124D01*
X244972Y278085D01*
X244911Y278051D01*
X244842Y278021D01*
X244838D01*
X244823Y278013D01*
X244804Y278006D01*
X244773Y277998D01*
X244735Y277987D01*
X244690Y277971D01*
X244636Y277960D01*
X244575Y277945D01*
X244511Y277929D01*
X244434Y277918D01*
X244350Y277903D01*
X244259Y277891D01*
X244164Y277884D01*
X244061Y277876D01*
X243951Y277868D01*
X243832D01*
X241501D01*
Y278402D01*
X243829D01*
X243836D01*
X243851D01*
X243878D01*
X243916D01*
X243958Y278406D01*
X244008D01*
X244065Y278409D01*
X244122Y278413D01*
X244248Y278425D01*
X244377Y278444D01*
X244442Y278451D01*
X244499Y278466D01*
X244556Y278482D01*
X244606Y278497D01*
X244610D01*
X244617Y278501D01*
X244629Y278508D01*
X244648Y278516D01*
X244690Y278543D01*
X244747Y278577D01*
X244808Y278623D01*
X244872Y278680D01*
X244933Y278748D01*
X244987Y278832D01*
Y278836D01*
X244991Y278844D01*
X244998Y278855D01*
X245006Y278874D01*
X245017Y278897D01*
X245029Y278928D01*
X245040Y278958D01*
X245052Y278996D01*
X245067Y279034D01*
X245078Y279080D01*
X245097Y279179D01*
X245112Y279293D01*
X245120Y279415D01*
Y279472D01*
X245116Y279510D01*
X245112Y279560D01*
X245105Y279613D01*
X245097Y279674D01*
X245086Y279739D01*
X245074Y279808D01*
X245055Y279876D01*
X245033Y279949D01*
X245006Y280017D01*
X244975Y280082D01*
X244941Y280147D01*
X244899Y280204D01*
X244853Y280253D01*
X244850Y280257D01*
X244842Y280265D01*
X244823Y280276D01*
X244800Y280292D01*
X244770Y280311D01*
X244728Y280333D01*
X244682Y280356D01*
X244625Y280379D01*
X244560Y280402D01*
X244488Y280425D01*
X244404Y280448D01*
X244309Y280467D01*
X244206Y280482D01*
X244091Y280494D01*
X243966Y280501D01*
X243829Y280505D01*
X241501D01*
Y281038D01*
X243832D01*
X243840D01*
X243859D01*
X243890D01*
X243931Y281035D01*
D02*
G37*
%LPC*%
G36*
X84767Y448560D02*
X80788D01*
Y444390D01*
X84564D01*
X84660Y444402D01*
X84767D01*
X84898Y444414D01*
X85029D01*
X85315Y444450D01*
X85613Y444486D01*
X85899Y444545D01*
X86161Y444617D01*
X86173D01*
X86185Y444628D01*
X86220Y444640D01*
X86268Y444664D01*
X86387Y444724D01*
X86530Y444807D01*
X86685Y444902D01*
X86840Y445033D01*
X86994Y445200D01*
X87137Y445379D01*
Y445391D01*
X87149Y445403D01*
X87197Y445474D01*
X87245Y445582D01*
X87316Y445713D01*
X87376Y445891D01*
X87435Y446082D01*
X87471Y446284D01*
X87483Y446511D01*
Y446523D01*
Y446546D01*
Y446594D01*
X87471Y446666D01*
X87459Y446737D01*
X87447Y446820D01*
X87400Y447035D01*
X87328Y447261D01*
X87209Y447511D01*
X87137Y447631D01*
X87042Y447750D01*
X86947Y447869D01*
X86828Y447976D01*
X86816Y447988D01*
X86792Y448000D01*
X86756Y448036D01*
X86709Y448071D01*
X86637Y448107D01*
X86542Y448167D01*
X86447Y448214D01*
X86327Y448274D01*
X86185Y448321D01*
X86041Y448381D01*
X85863Y448429D01*
X85684Y448464D01*
X85482Y448512D01*
X85255Y448536D01*
X85017Y448548D01*
X84767Y448560D01*
D02*
G37*
G36*
X72640Y448464D02*
X69018D01*
Y443961D01*
X72425D01*
X72533Y443973D01*
X72664Y443985D01*
X72818Y443997D01*
X72985Y444009D01*
X73164Y444033D01*
X73545Y444104D01*
X73926Y444212D01*
X74105Y444283D01*
X74272Y444366D01*
X74427Y444450D01*
X74570Y444557D01*
X74582Y444569D01*
X74605Y444581D01*
X74629Y444617D01*
X74677Y444664D01*
X74724Y444736D01*
X74784Y444807D01*
X74856Y444891D01*
X74915Y444998D01*
X74975Y445105D01*
X75046Y445236D01*
X75106Y445379D01*
X75153Y445522D01*
X75201Y445689D01*
X75237Y445867D01*
X75249Y446046D01*
X75261Y446249D01*
Y446260D01*
Y446284D01*
Y446320D01*
Y446380D01*
X75249Y446451D01*
X75237Y446523D01*
X75213Y446713D01*
X75165Y446928D01*
X75094Y447154D01*
X74987Y447380D01*
X74856Y447595D01*
Y447607D01*
X74832Y447619D01*
X74784Y447690D01*
X74689Y447785D01*
X74570Y447905D01*
X74415Y448036D01*
X74236Y448155D01*
X74034Y448262D01*
X73795Y448345D01*
X73772D01*
X73712Y448369D01*
X73664D01*
X73605Y448381D01*
X73533Y448393D01*
X73450Y448405D01*
X73343Y448417D01*
X73236Y448429D01*
X73104Y448441D01*
X72962D01*
X72807Y448452D01*
X72640Y448464D01*
D02*
G37*
G36*
X97335Y448738D02*
X97251D01*
X97168Y448726D01*
X97037Y448714D01*
X96882Y448703D01*
X96703Y448679D01*
X96501Y448631D01*
X96286Y448583D01*
X96060Y448524D01*
X95810Y448441D01*
X95560Y448345D01*
X95298Y448226D01*
X95035Y448083D01*
X94785Y447916D01*
X94535Y447726D01*
X94285Y447511D01*
X94273Y447499D01*
X94226Y447452D01*
X94166Y447380D01*
X94082Y447273D01*
X93987Y447142D01*
X93880Y446975D01*
X93773Y446785D01*
X93654Y446546D01*
X93534Y446284D01*
X93415Y445987D01*
X93308Y445653D01*
X93213Y445296D01*
X93130Y444891D01*
X93070Y444450D01*
X93022Y443973D01*
X93010Y443461D01*
Y443449D01*
Y443437D01*
Y443401D01*
Y443366D01*
X93022Y443247D01*
X93034Y443080D01*
X93046Y442889D01*
X93070Y442663D01*
X93118Y442425D01*
X93165Y442151D01*
X93225Y441877D01*
X93308Y441579D01*
X93415Y441281D01*
X93523Y440983D01*
X93666Y440685D01*
X93832Y440400D01*
X94023Y440126D01*
X94237Y439864D01*
X94249Y439851D01*
X94297Y439804D01*
X94368Y439744D01*
X94464Y439661D01*
X94583Y439566D01*
X94726Y439458D01*
X94893Y439339D01*
X95083Y439220D01*
X95298Y439089D01*
X95524Y438982D01*
X95786Y438863D01*
X96048Y438768D01*
X96346Y438684D01*
X96644Y438624D01*
X96977Y438577D01*
X97311Y438565D01*
X97394D01*
X97490Y438577D01*
X97621Y438589D01*
X97787Y438601D01*
X97978Y438637D01*
X98180Y438672D01*
X98407Y438732D01*
X98657Y438803D01*
X98907Y438887D01*
X99157Y438994D01*
X99419Y439125D01*
X99681Y439280D01*
X99944Y439446D01*
X100182Y439649D01*
X100420Y439887D01*
X100432Y439899D01*
X100468Y439947D01*
X100539Y440030D01*
X100611Y440137D01*
X100706Y440269D01*
X100813Y440435D01*
X100920Y440626D01*
X101039Y440852D01*
X101147Y441102D01*
X101254Y441388D01*
X101361Y441698D01*
X101456Y442032D01*
X101540Y442389D01*
X101599Y442782D01*
X101635Y443199D01*
X101647Y443640D01*
Y443664D01*
Y443711D01*
Y443795D01*
X101635Y443902D01*
Y444033D01*
X101623Y444188D01*
X101599Y444366D01*
X101587Y444557D01*
X101552Y444759D01*
X101516Y444974D01*
X101421Y445415D01*
X101302Y445879D01*
X101218Y446106D01*
X101123Y446320D01*
Y446332D01*
X101099Y446368D01*
X101063Y446427D01*
X101028Y446511D01*
X100968Y446606D01*
X100908Y446713D01*
X100825Y446844D01*
X100730Y446975D01*
X100515Y447261D01*
X100253Y447547D01*
X99944Y447833D01*
X99765Y447976D01*
X99586Y448095D01*
X99574Y448107D01*
X99538Y448119D01*
X99491Y448155D01*
X99407Y448190D01*
X99312Y448250D01*
X99205Y448298D01*
X99074Y448357D01*
X98931Y448417D01*
X98776Y448476D01*
X98597Y448536D01*
X98407Y448595D01*
X98216Y448643D01*
X97787Y448714D01*
X97561Y448726D01*
X97335Y448738D01*
D02*
G37*
G36*
X94216Y225609D02*
X90237D01*
Y221440D01*
X94014D01*
X94109Y221452D01*
X94216D01*
X94347Y221464D01*
X94478D01*
X94764Y221500D01*
X95062Y221535D01*
X95348Y221595D01*
X95610Y221666D01*
X95622D01*
X95634Y221678D01*
X95669Y221690D01*
X95717Y221714D01*
X95836Y221773D01*
X95979Y221857D01*
X96134Y221952D01*
X96289Y222083D01*
X96444Y222250D01*
X96587Y222429D01*
Y222441D01*
X96599Y222453D01*
X96646Y222524D01*
X96694Y222631D01*
X96765Y222762D01*
X96825Y222941D01*
X96884Y223132D01*
X96920Y223334D01*
X96932Y223560D01*
Y223572D01*
Y223596D01*
Y223644D01*
X96920Y223715D01*
X96908Y223787D01*
X96896Y223870D01*
X96849Y224084D01*
X96777Y224311D01*
X96658Y224561D01*
X96587Y224680D01*
X96491Y224799D01*
X96396Y224918D01*
X96277Y225026D01*
X96265Y225037D01*
X96241Y225049D01*
X96206Y225085D01*
X96158Y225121D01*
X96086Y225157D01*
X95991Y225216D01*
X95896Y225264D01*
X95777Y225323D01*
X95634Y225371D01*
X95491Y225431D01*
X95312Y225478D01*
X95133Y225514D01*
X94931Y225562D01*
X94705Y225585D01*
X94466Y225597D01*
X94216Y225609D01*
D02*
G37*
G36*
X82089Y225514D02*
X78468D01*
Y221011D01*
X81875D01*
X81982Y221023D01*
X82113Y221035D01*
X82268Y221047D01*
X82435Y221059D01*
X82613Y221082D01*
X82994Y221154D01*
X83376Y221261D01*
X83554Y221333D01*
X83721Y221416D01*
X83876Y221500D01*
X84019Y221607D01*
X84031Y221619D01*
X84055Y221630D01*
X84078Y221666D01*
X84126Y221714D01*
X84174Y221785D01*
X84233Y221857D01*
X84305Y221940D01*
X84364Y222048D01*
X84424Y222155D01*
X84495Y222286D01*
X84555Y222429D01*
X84603Y222572D01*
X84650Y222738D01*
X84686Y222917D01*
X84698Y223096D01*
X84710Y223298D01*
Y223310D01*
Y223334D01*
Y223370D01*
Y223429D01*
X84698Y223501D01*
X84686Y223572D01*
X84662Y223763D01*
X84614Y223977D01*
X84543Y224204D01*
X84436Y224430D01*
X84305Y224644D01*
Y224656D01*
X84281Y224668D01*
X84233Y224740D01*
X84138Y224835D01*
X84019Y224954D01*
X83864Y225085D01*
X83685Y225204D01*
X83483Y225312D01*
X83245Y225395D01*
X83221D01*
X83161Y225419D01*
X83113D01*
X83054Y225431D01*
X82983Y225443D01*
X82899Y225455D01*
X82792Y225466D01*
X82685Y225478D01*
X82554Y225490D01*
X82411D01*
X82256Y225502D01*
X82089Y225514D01*
D02*
G37*
G36*
X106784Y225788D02*
X106700D01*
X106617Y225776D01*
X106486Y225764D01*
X106331Y225752D01*
X106152Y225728D01*
X105950Y225681D01*
X105736Y225633D01*
X105509Y225574D01*
X105259Y225490D01*
X105009Y225395D01*
X104747Y225276D01*
X104485Y225133D01*
X104235Y224966D01*
X103984Y224775D01*
X103734Y224561D01*
X103722Y224549D01*
X103675Y224501D01*
X103615Y224430D01*
X103532Y224323D01*
X103436Y224192D01*
X103329Y224025D01*
X103222Y223834D01*
X103103Y223596D01*
X102984Y223334D01*
X102865Y223036D01*
X102757Y222703D01*
X102662Y222345D01*
X102579Y221940D01*
X102519Y221500D01*
X102472Y221023D01*
X102460Y220511D01*
Y220499D01*
Y220487D01*
Y220451D01*
Y220415D01*
X102472Y220296D01*
X102483Y220130D01*
X102495Y219939D01*
X102519Y219713D01*
X102567Y219474D01*
X102614Y219200D01*
X102674Y218926D01*
X102757Y218629D01*
X102865Y218331D01*
X102972Y218033D01*
X103115Y217735D01*
X103282Y217449D01*
X103472Y217175D01*
X103687Y216913D01*
X103699Y216901D01*
X103746Y216854D01*
X103818Y216794D01*
X103913Y216711D01*
X104032Y216615D01*
X104175Y216508D01*
X104342Y216389D01*
X104532Y216270D01*
X104747Y216139D01*
X104973Y216032D01*
X105235Y215912D01*
X105497Y215817D01*
X105795Y215734D01*
X106093Y215674D01*
X106426Y215627D01*
X106760Y215615D01*
X106843D01*
X106939Y215627D01*
X107070Y215639D01*
X107236Y215650D01*
X107427Y215686D01*
X107630Y215722D01*
X107856Y215781D01*
X108106Y215853D01*
X108356Y215936D01*
X108607Y216043D01*
X108869Y216175D01*
X109131Y216329D01*
X109393Y216496D01*
X109631Y216699D01*
X109869Y216937D01*
X109881Y216949D01*
X109917Y216996D01*
X109988Y217080D01*
X110060Y217187D01*
X110155Y217318D01*
X110262Y217485D01*
X110370Y217675D01*
X110489Y217902D01*
X110596Y218152D01*
X110703Y218438D01*
X110810Y218748D01*
X110906Y219081D01*
X110989Y219439D01*
X111049Y219832D01*
X111084Y220249D01*
X111096Y220689D01*
Y220713D01*
Y220761D01*
Y220844D01*
X111084Y220951D01*
Y221082D01*
X111072Y221237D01*
X111049Y221416D01*
X111037Y221607D01*
X111001Y221809D01*
X110965Y222024D01*
X110870Y222464D01*
X110751Y222929D01*
X110667Y223155D01*
X110572Y223370D01*
Y223382D01*
X110548Y223417D01*
X110513Y223477D01*
X110477Y223560D01*
X110417Y223656D01*
X110358Y223763D01*
X110274Y223894D01*
X110179Y224025D01*
X109965Y224311D01*
X109702Y224597D01*
X109393Y224883D01*
X109214Y225026D01*
X109035Y225145D01*
X109023Y225157D01*
X108988Y225169D01*
X108940Y225204D01*
X108857Y225240D01*
X108761Y225300D01*
X108654Y225347D01*
X108523Y225407D01*
X108380Y225466D01*
X108225Y225526D01*
X108047Y225585D01*
X107856Y225645D01*
X107665Y225693D01*
X107236Y225764D01*
X107010Y225776D01*
X106784Y225788D01*
D02*
G37*
G36*
X244423Y283846D02*
X244419D01*
X244412D01*
X244396D01*
X244377Y283843D01*
X244354D01*
X244328Y283839D01*
X244267Y283831D01*
X244198Y283812D01*
X244126Y283789D01*
X244053Y283759D01*
X243989Y283713D01*
X243985D01*
X243981Y283705D01*
X243973Y283698D01*
X243962Y283686D01*
X243947Y283671D01*
X243931Y283652D01*
X243912Y283625D01*
X243893Y283599D01*
X243874Y283564D01*
X243851Y283526D01*
X243829Y283484D01*
X243806Y283435D01*
X243783Y283382D01*
X243764Y283324D01*
X243741Y283260D01*
X243722Y283187D01*
X245200D01*
Y283191D01*
X245196Y283199D01*
Y283214D01*
X245193Y283237D01*
X245185Y283260D01*
X245177Y283286D01*
X245154Y283355D01*
X245124Y283427D01*
X245082Y283507D01*
X245025Y283587D01*
X244991Y283625D01*
X244953Y283660D01*
X244949Y283663D01*
X244941Y283667D01*
X244930Y283679D01*
X244914Y283690D01*
X244892Y283701D01*
X244869Y283720D01*
X244838Y283736D01*
X244808Y283755D01*
X244728Y283789D01*
X244640Y283816D01*
X244537Y283839D01*
X244480Y283843D01*
X244423Y283846D01*
D02*
G37*
G36*
X243135Y282894D02*
X241779D01*
Y282890D01*
X241783Y282882D01*
Y282867D01*
X241790Y282844D01*
X241794Y282821D01*
X241802Y282795D01*
X241824Y282730D01*
X241855Y282654D01*
X241897Y282577D01*
X241946Y282505D01*
X242011Y282437D01*
X242015D01*
X242019Y282429D01*
X242030Y282421D01*
X242045Y282410D01*
X242084Y282383D01*
X242137Y282357D01*
X242202Y282326D01*
X242278Y282299D01*
X242362Y282280D01*
X242407Y282276D01*
X242453Y282273D01*
X242457D01*
X242465D01*
X242476D01*
X242495Y282276D01*
X242518D01*
X242545Y282280D01*
X242602Y282292D01*
X242670Y282307D01*
X242739Y282334D01*
X242811Y282368D01*
X242880Y282414D01*
X242887Y282421D01*
X242906Y282440D01*
X242937Y282475D01*
X242956Y282501D01*
X242975Y282528D01*
X242994Y282558D01*
X243017Y282593D01*
X243036Y282631D01*
X243059Y282677D01*
X243078Y282722D01*
X243097Y282776D01*
X243116Y282833D01*
X243135Y282894D01*
D02*
G37*
%LPD*%
D10*
X100800Y142698D02*
X107597D01*
X185098Y143202D02*
Y150000D01*
X181699Y146601D02*
X188496D01*
D11*
X381538Y653769D02*
Y649519D01*
X383662D01*
X384371Y650227D01*
Y650936D01*
X383662Y651644D01*
X381538D01*
X383662D01*
X384371Y652352D01*
Y653060D01*
X383662Y653769D01*
X381538D01*
X385787D02*
Y653060D01*
X387204Y651644D01*
X388620Y653060D01*
Y653769D01*
X387204Y651644D02*
Y649519D01*
X390037D02*
Y653769D01*
X392162D01*
X392870Y653060D01*
Y651644D01*
X392162Y650936D01*
X390037D01*
M02*
